M48
;Layer_Color=9474304
;FILE_FORMAT=2:5
INCH,LZ
;TYPE=PLATED
T1F00S00C0.00800
T2F00S00C0.00800
T4F00S00C0.04000
T5F00S00C0.04200
;TYPE=NON_PLATED
T6F00S00C0.13780
%
T01
X03665Y0003
X02Y00045
X01725
X0145
X0118
X00905
X0063
X00355
X00375Y0104
X00415
X00455
X0039Y0139
X0034
X0029
X0024
X0019
X0013272Y009
X00615Y0096
Y00995
Y01035
Y01065
X0118Y01115
Y01385
Y0084
Y00565
Y0029
X0197Y0144
X0353Y0056
X0359Y00535
X0364Y0052
X03695Y005
X0405Y00495
X0402Y0067
X0396Y00845
X039
X0384
X0378
X0372Y0085
X0366
X0372031Y0096772
X0378031Y0096722
X0384531Y0096923
X0390531Y0096874
X0396531Y0096825
X0406Y01585
X0373528Y0017
X03705Y0012
X0369Y00075
X03705Y01885
X03485
X0316Y0188
X02755Y01885
X02355
X0197
X01655Y0189
X0138Y01885
X01155Y0189
X0117Y0165
X0088Y01895
X00605
X0033Y0189
T02
X00045Y00965
X00065Y01025
X0021Y0104
X00205Y0112
X00155Y01165
X0015Y0119
X001Y01195
X0021Y015
X003Y01505
X00385
X0025Y0077
X0093Y0151
X01465Y01395
X0146Y0131
X02065Y0109
X0207Y00645
Y0017
X02245Y00115
X0245Y00165
X0264Y0013
X02865Y0017
X0301Y0012
X03255Y00165
X03435Y0013
X0344Y0058
X03255Y00625
X03025Y0059
X02855Y00625
X02635Y0059614
X02455Y00635
X0225Y0059614
X0222Y01035
X02265Y0114386
X0245Y01105
X0265Y01055
X02685Y0114386
X0286Y0111
X03035Y0106114
X03075Y0114
X0326Y011
X0347Y01075
X0363Y01135
X0361Y0119728
Y0122
Y01245
X03615Y013
Y01325
Y0135
Y01375
Y014
Y01425
Y0145
Y0148
X03435Y0153
X0326Y01565
X0307276Y0160886
X03045Y01525
X0286Y0157
X02855Y0163
X0265224Y0160886
X02655Y0152114
X02455Y0156
X02265Y0152
X02275Y0161
X02085Y0157
X03985Y01515
X0396114Y0145272
Y0143
X0398Y0138
Y01325
Y013
Y0127
Y01245
Y0122
Y0119272
Y0117
Y01145
X04005Y01045
X03905Y0105
X0384Y01055
X03775
X0372
X0366Y0105
X04035Y01405
X0343Y0172
X03255Y0164
X0302Y0172
X026Y01695
X02455Y0164
X0224Y0173
X02065Y01645
T04
X00775Y00905
Y01005
Y01105
Y01205
Y01305
Y01405
Y01505
Y01605
X01675
Y01505
Y01405
Y01305
Y01205
Y01105
Y01005
Y00905
T05
X0207177Y00425
Y0089205
Y0138706
X0217177
X0245177
X0255177
X0285677Y0138206
X0295677
X0325677
X0335677
Y0088
X0325677
X0295677Y00885
X0285677
X0255177Y0089205
X0245177
X0217177
Y00425
X0245177Y0042
X0255177
X0285677
X0295677
X0325677
X0335677
Y01825
X0325677
X0295677
X0285677
X0255177Y0183
X0245177
X0217177
X0207177
T06
X0016Y0017
X0393Y00165
Y01775
X00155
M30
