G04*
G04 #@! TF.GenerationSoftware,Altium Limited,Altium Designer,21.5.1 (32)*
G04*
G04 Layer_Physical_Order=1*
G04 Layer_Color=255*
%FSLAX25Y25*%
%MOIN*%
G70*
G04*
G04 #@! TF.SameCoordinates,804D03E9-ECC6-49F7-9CEA-4D12CAEBA4D3*
G04*
G04*
G04 #@! TF.FilePolarity,Positive*
G04*
G01*
G75*
%ADD18C,0.01000*%
%ADD23O,0.03740X0.01575*%
%ADD24O,0.05512X0.01772*%
%ADD25R,0.02362X0.04724*%
%ADD26R,0.09400X0.02500*%
%ADD27R,0.03150X0.01968*%
%ADD28R,0.03150X0.03150*%
%ADD29R,0.03543X0.02000*%
%ADD30R,0.02165X0.02559*%
%ADD31R,0.02165X0.01772*%
%ADD32R,0.10433X0.09055*%
G04:AMPARAMS|DCode=33|XSize=35.43mil|YSize=27.56mil|CornerRadius=6.89mil|HoleSize=0mil|Usage=FLASHONLY|Rotation=90.000|XOffset=0mil|YOffset=0mil|HoleType=Round|Shape=RoundedRectangle|*
%AMROUNDEDRECTD33*
21,1,0.03543,0.01378,0,0,90.0*
21,1,0.02165,0.02756,0,0,90.0*
1,1,0.01378,0.00689,0.01083*
1,1,0.01378,0.00689,-0.01083*
1,1,0.01378,-0.00689,-0.01083*
1,1,0.01378,-0.00689,0.01083*
%
%ADD33ROUNDEDRECTD33*%
%ADD34R,0.05315X0.03740*%
%ADD35R,0.02756X0.03543*%
%ADD36R,0.02441X0.02441*%
%ADD37R,0.02047X0.02047*%
%ADD38R,0.02047X0.02047*%
%ADD39R,0.03740X0.05315*%
%ADD40R,0.01772X0.02165*%
%ADD41R,0.03543X0.02756*%
%ADD71C,0.00700*%
%ADD72C,0.02000*%
%ADD73C,0.03000*%
%ADD74R,0.05810X0.05810*%
%ADD75C,0.06000*%
%ADD76C,0.06200*%
%ADD77R,0.06200X0.06200*%
%ADD78R,0.03937X0.14567*%
%ADD79R,0.03937X0.10630*%
%ADD80R,0.10630X0.03937*%
%ADD81C,0.13780*%
%ADD82C,0.01800*%
%ADD83C,0.01772*%
G36*
X399642Y190537D02*
X401600Y189337D01*
X403346Y187846D01*
X404837Y186100D01*
X406037Y184142D01*
X406915Y182021D01*
X407359Y180172D01*
Y174828D01*
X406915Y172979D01*
X406037Y170858D01*
X404837Y168900D01*
X403346Y167154D01*
X401600Y165663D01*
X399642Y164463D01*
X397521Y163585D01*
X395289Y163049D01*
X393000Y162868D01*
X390711Y163049D01*
X388479Y163585D01*
X386357Y164463D01*
X384400Y165663D01*
X382654Y167154D01*
X381163Y168900D01*
X379963Y170858D01*
X379085Y172979D01*
X378549Y175211D01*
X378368Y177500D01*
X378549Y179789D01*
X379085Y182021D01*
X379963Y184142D01*
X381163Y186100D01*
X382654Y187846D01*
X384400Y189337D01*
X386357Y190537D01*
X388372Y191371D01*
X397628D01*
X399642Y190537D01*
D02*
G37*
G36*
X22142D02*
X24100Y189337D01*
X25846Y187846D01*
X27337Y186100D01*
X28537Y184142D01*
X29415Y182021D01*
X29951Y179789D01*
X30132Y177500D01*
X29951Y175211D01*
X29415Y172979D01*
X28537Y170858D01*
X27337Y168900D01*
X25846Y167154D01*
X24100Y165663D01*
X22142Y164463D01*
X20021Y163585D01*
X17789Y163049D01*
X15500Y162868D01*
X13211Y163049D01*
X10979Y163585D01*
X8857Y164463D01*
X6900Y165663D01*
X5154Y167154D01*
X3663Y168900D01*
X2463Y170858D01*
X1633Y172863D01*
Y182138D01*
X2463Y184142D01*
X3663Y186100D01*
X5154Y187846D01*
X6900Y189337D01*
X8857Y190537D01*
X10872Y191371D01*
X20128D01*
X22142Y190537D01*
D02*
G37*
G36*
X384924Y190890D02*
X383781Y190189D01*
X381909Y188591D01*
X380311Y186719D01*
X379025Y184621D01*
X378083Y182347D01*
X377508Y179954D01*
X377315Y177500D01*
X377508Y175046D01*
X378083Y172653D01*
X379025Y170379D01*
X380311Y168281D01*
X381909Y166409D01*
X383781Y164811D01*
X385879Y163525D01*
X388153Y162583D01*
X390546Y162008D01*
X393000Y161815D01*
X395454Y162008D01*
X397847Y162583D01*
X400121Y163525D01*
X402219Y164811D01*
X404091Y166409D01*
X405689Y168281D01*
X406859Y170190D01*
X407359Y170049D01*
Y23951D01*
X406859Y23810D01*
X405689Y25719D01*
X404091Y27591D01*
X402219Y29189D01*
X400121Y30475D01*
X397847Y31417D01*
X395454Y31992D01*
X393000Y32185D01*
X390546Y31992D01*
X388153Y31417D01*
X385879Y30475D01*
X383781Y29189D01*
X381909Y27591D01*
X380311Y25719D01*
X379025Y23621D01*
X378083Y21347D01*
X377508Y18954D01*
X377315Y16500D01*
X377508Y14046D01*
X378083Y11653D01*
X379025Y9379D01*
X380311Y7281D01*
X381909Y5409D01*
X383781Y3811D01*
X385626Y2680D01*
X385485Y2180D01*
X368217D01*
X367883Y2680D01*
X367900Y2722D01*
Y3278D01*
X367687Y3793D01*
X367384Y4096D01*
X367251Y4669D01*
X368693Y6112D01*
X368722Y6100D01*
X369279D01*
X369793Y6313D01*
X370187Y6707D01*
X370400Y7221D01*
Y7779D01*
X370187Y8293D01*
X369793Y8687D01*
X369279Y8900D01*
X369188D01*
X368981Y9400D01*
X370193Y10612D01*
X370221Y10600D01*
X370778D01*
X371293Y10813D01*
X371687Y11207D01*
X371900Y11722D01*
Y12279D01*
X371687Y12793D01*
X371293Y13187D01*
X371211Y13601D01*
X373221Y15612D01*
X373249Y15600D01*
X373806D01*
X374321Y15813D01*
X374715Y16207D01*
X374928Y16722D01*
Y17278D01*
X374715Y17793D01*
X374321Y18187D01*
X373806Y18400D01*
X373249D01*
X372735Y18187D01*
X372341Y17793D01*
X372128Y17278D01*
Y16722D01*
X372140Y16693D01*
X369961Y14515D01*
X369775D01*
X369482Y14457D01*
X369234Y14291D01*
X363708Y8765D01*
X355285D01*
X344483Y19567D01*
Y21057D01*
X342796D01*
X339312Y24541D01*
X339064Y24706D01*
X338772Y24765D01*
X338321D01*
Y26762D01*
X335159D01*
Y21238D01*
X338321D01*
Y22662D01*
X338821Y22869D01*
X341517Y20173D01*
Y18486D01*
X343401D01*
X343911Y17976D01*
X343720Y17514D01*
X341517D01*
Y14942D01*
X342082D01*
Y13709D01*
X342151Y13364D01*
X342114Y13276D01*
Y12724D01*
X342325Y12215D01*
X342715Y11825D01*
X343224Y11614D01*
X343776D01*
X344285Y11825D01*
X344675Y12215D01*
X344886Y12724D01*
Y13276D01*
X344675Y13785D01*
X344285Y14175D01*
X343918Y14327D01*
Y14942D01*
X344483D01*
Y16751D01*
X344945Y16942D01*
X354122Y7765D01*
X353915Y7265D01*
X308765D01*
Y15500D01*
X308706Y15793D01*
X308541Y16041D01*
X304769Y19812D01*
X304521Y19978D01*
X304228Y20036D01*
X303483D01*
Y20558D01*
X301599D01*
X300584Y21572D01*
X300336Y21738D01*
X300044Y21796D01*
X298321D01*
Y25806D01*
X295159D01*
Y20281D01*
X297497D01*
X297571Y20266D01*
X299727D01*
X300517Y19476D01*
Y17986D01*
X303483D01*
Y18335D01*
X303983Y18436D01*
X307235Y15183D01*
Y6910D01*
X307294Y6617D01*
X307459Y6369D01*
X307814Y6015D01*
X307778Y5787D01*
X307635Y5515D01*
X270477D01*
X270265Y5727D01*
Y15000D01*
X270206Y15293D01*
X270041Y15541D01*
X265769Y19812D01*
X265521Y19978D01*
X265228Y20036D01*
X264983D01*
Y20558D01*
X263099D01*
X259116Y24541D01*
X258868Y24706D01*
X258575Y24765D01*
X257821D01*
Y26762D01*
X254659D01*
Y21238D01*
X257821D01*
Y23083D01*
X258321Y23172D01*
X262017Y19476D01*
Y17986D01*
X264983D01*
Y17986D01*
X265301Y18118D01*
X268735Y14683D01*
Y5410D01*
X268794Y5117D01*
X268959Y4869D01*
X269619Y4209D01*
X269619Y4209D01*
X269867Y4044D01*
X270012Y4015D01*
X269963Y3515D01*
X228477D01*
X227765Y4227D01*
Y15969D01*
X227707Y16261D01*
X227541Y16509D01*
X224983Y19067D01*
Y20558D01*
X223099D01*
X221084Y22572D01*
X220836Y22738D01*
X220544Y22796D01*
X219821D01*
Y26805D01*
X216659D01*
Y21281D01*
X218997D01*
X219071Y21266D01*
X220227D01*
X222017Y19476D01*
Y17986D01*
X223901D01*
X224411Y17476D01*
X224220Y17014D01*
X222017D01*
Y14443D01*
X222582D01*
Y12784D01*
X222582Y12709D01*
X222397Y12483D01*
X221185D01*
X218183Y15485D01*
X217935Y15651D01*
X217642Y15709D01*
X216081D01*
Y19719D01*
X212919D01*
Y14195D01*
X215257D01*
X215331Y14180D01*
X217325D01*
X218561Y12945D01*
X218369Y12483D01*
X216561D01*
Y10932D01*
X202910D01*
X202804Y11432D01*
X202819Y11454D01*
X202927Y12000D01*
Y14535D01*
X203566Y15173D01*
X204429D01*
X204854Y15258D01*
X205214Y15498D01*
X205264Y15573D01*
X207000D01*
X207209Y15614D01*
X207276D01*
X207337Y15640D01*
X207546Y15681D01*
X207724Y15800D01*
X207785Y15825D01*
X207832Y15872D01*
X208009Y15991D01*
X208128Y16168D01*
X208175Y16215D01*
X208200Y16276D01*
X208319Y16454D01*
X208360Y16663D01*
X208386Y16724D01*
Y16791D01*
X208427Y17000D01*
X208386Y17209D01*
Y17276D01*
X208360Y17337D01*
X208319Y17546D01*
X208200Y17724D01*
X208175Y17785D01*
X208128Y17832D01*
X208009Y18009D01*
X207832Y18128D01*
X207785Y18175D01*
X207724Y18200D01*
X207546Y18319D01*
X207337Y18360D01*
X207276Y18386D01*
X207209D01*
X207000Y18427D01*
X205539D01*
Y18449D01*
X205455Y18874D01*
X205214Y19234D01*
X204854Y19475D01*
X204429Y19559D01*
X203051D01*
X202626Y19475D01*
X202266Y19234D01*
X202025Y18874D01*
X201941Y18449D01*
Y17586D01*
X200491Y16135D01*
X200181Y15672D01*
X200073Y15126D01*
X200073Y15126D01*
Y12000D01*
X200181Y11454D01*
X199780Y11154D01*
X199714Y11127D01*
X199242Y11599D01*
Y13483D01*
X197752D01*
X197025Y14210D01*
Y15188D01*
X197374Y15258D01*
X197734Y15498D01*
X197975Y15859D01*
X198059Y16284D01*
Y18449D01*
X197975Y18874D01*
X197734Y19234D01*
X197374Y19475D01*
X196949Y19559D01*
X195571D01*
X195146Y19475D01*
X194786Y19234D01*
X194545Y18874D01*
X194461Y18449D01*
Y16284D01*
X194545Y15859D01*
X194786Y15498D01*
X195146Y15258D01*
X195495Y15188D01*
Y13894D01*
X195553Y13601D01*
X195719Y13353D01*
X196671Y12401D01*
Y10517D01*
X198161D01*
X199052Y9627D01*
X199300Y9461D01*
X199592Y9403D01*
X217211D01*
X217503Y9461D01*
X217588Y9517D01*
X219132D01*
Y11720D01*
X219594Y11911D01*
X220104Y11401D01*
Y9517D01*
X222676D01*
Y10977D01*
X223176Y11076D01*
X223325Y10715D01*
X223715Y10325D01*
X224224Y10114D01*
X224776D01*
X225285Y10325D01*
X225675Y10715D01*
X225735Y10861D01*
X226235Y10762D01*
Y3910D01*
X226293Y3617D01*
X226459Y3369D01*
X227149Y2680D01*
X226941Y2180D01*
X22363D01*
X22265Y2671D01*
X23121Y3025D01*
X25219Y4311D01*
X27091Y5909D01*
X28689Y7781D01*
X29975Y9879D01*
X30917Y12153D01*
X31492Y14546D01*
X31685Y17000D01*
X31492Y19454D01*
X30917Y21847D01*
X29975Y24121D01*
X28689Y26219D01*
X27091Y28091D01*
X25219Y29689D01*
X23121Y30975D01*
X20847Y31917D01*
X18454Y32492D01*
X16000Y32685D01*
X13546Y32492D01*
X11153Y31917D01*
X8879Y30975D01*
X6781Y29689D01*
X4909Y28091D01*
X3311Y26219D01*
X2133Y24297D01*
X1633Y24438D01*
Y93594D01*
X2133Y93801D01*
X5614Y90320D01*
Y88679D01*
X5049D01*
Y85321D01*
X5470D01*
Y83672D01*
X4466D01*
Y79328D01*
X8022D01*
Y83672D01*
X7305D01*
Y85321D01*
X8014D01*
Y88679D01*
X7449D01*
Y90700D01*
X7379Y91051D01*
X7180Y91349D01*
X6332Y92197D01*
X6466Y92520D01*
Y94280D01*
Y95900D01*
X6343D01*
X5259Y96985D01*
X5149Y97149D01*
X4851Y97348D01*
X4500Y97418D01*
X4149Y97348D01*
X3918Y97193D01*
X3644Y97269D01*
X3418Y97400D01*
Y147620D01*
X8880Y153082D01*
X73620D01*
X74536Y152166D01*
X74332Y151812D01*
X74100Y150948D01*
Y150052D01*
X74332Y149188D01*
X74779Y148412D01*
X75412Y147779D01*
X76188Y147332D01*
X77052Y147100D01*
X77948D01*
X78812Y147332D01*
X79588Y147779D01*
X80221Y148412D01*
X80668Y149188D01*
X80774Y149582D01*
X92291D01*
X92636Y149651D01*
X92724Y149614D01*
X93276D01*
X93785Y149825D01*
X94175Y150215D01*
X94386Y150724D01*
Y151276D01*
X94175Y151785D01*
X93785Y152175D01*
X93276Y152386D01*
X92724D01*
X92215Y152175D01*
X91825Y151785D01*
X91673Y151418D01*
X80774D01*
X80668Y151812D01*
X80221Y152588D01*
X79588Y153221D01*
X78812Y153668D01*
X77948Y153900D01*
X77052D01*
X76188Y153668D01*
X75834Y153464D01*
X74649Y154649D01*
X74351Y154848D01*
X74000Y154918D01*
X8500D01*
X8149Y154848D01*
X7851Y154649D01*
X2133Y148931D01*
X1633Y149138D01*
Y169282D01*
X2114Y169418D01*
X2811Y168281D01*
X4409Y166409D01*
X6281Y164811D01*
X8379Y163525D01*
X10653Y162583D01*
X13046Y162008D01*
X15500Y161815D01*
X17954Y162008D01*
X20347Y162583D01*
X22621Y163525D01*
X24719Y164811D01*
X26591Y166409D01*
X28189Y168281D01*
X29475Y170379D01*
X30417Y172653D01*
X30992Y175046D01*
X31185Y177500D01*
X30992Y179954D01*
X30417Y182347D01*
X29475Y184621D01*
X28189Y186719D01*
X26591Y188591D01*
X24719Y190189D01*
X23576Y190890D01*
X23712Y191371D01*
X384788D01*
X384924Y190890D01*
D02*
G37*
G36*
X18289Y31451D02*
X20521Y30915D01*
X22643Y30037D01*
X24600Y28837D01*
X26346Y27346D01*
X27837Y25600D01*
X29037Y23642D01*
X29915Y21521D01*
X30451Y19289D01*
X30632Y17000D01*
X30451Y14711D01*
X29915Y12479D01*
X29037Y10357D01*
X27837Y8400D01*
X26346Y6654D01*
X24600Y5163D01*
X22643Y3963D01*
X20521Y3085D01*
X18289Y2549D01*
X16000Y2369D01*
X13711Y2549D01*
X11479Y3085D01*
X9358Y3963D01*
X7400Y5163D01*
X5654Y6654D01*
X4163Y8400D01*
X2963Y10357D01*
X2085Y12479D01*
X1633Y14361D01*
Y19639D01*
X2085Y21521D01*
X2963Y23642D01*
X4163Y25600D01*
X5654Y27346D01*
X7400Y28837D01*
X9358Y30037D01*
X11479Y30915D01*
X13711Y31451D01*
X16000Y31631D01*
X18289Y31451D01*
D02*
G37*
G36*
X395289Y30951D02*
X397521Y30415D01*
X399642Y29537D01*
X401600Y28337D01*
X403346Y26846D01*
X404837Y25100D01*
X406037Y23143D01*
X406915Y21021D01*
X407359Y19172D01*
Y13828D01*
X406915Y11979D01*
X406037Y9858D01*
X404837Y7900D01*
X403346Y6154D01*
X401600Y4663D01*
X399642Y3463D01*
X397521Y2585D01*
X395836Y2180D01*
X390164D01*
X388479Y2585D01*
X386357Y3463D01*
X384400Y4663D01*
X382654Y6154D01*
X381163Y7900D01*
X379963Y9858D01*
X379085Y11979D01*
X378549Y14211D01*
X378368Y16500D01*
X378549Y18789D01*
X379085Y21021D01*
X379963Y23143D01*
X381163Y25100D01*
X382654Y26846D01*
X384400Y28337D01*
X386357Y29537D01*
X388479Y30415D01*
X390711Y30951D01*
X393000Y31132D01*
X395289Y30951D01*
D02*
G37*
%LPC*%
G36*
X393776Y185374D02*
X392225D01*
X390703Y185071D01*
X389270Y184478D01*
X387981Y183616D01*
X386884Y182519D01*
X386022Y181230D01*
X385429Y179797D01*
X385126Y178276D01*
Y176725D01*
X385429Y175203D01*
X386022Y173770D01*
X386884Y172481D01*
X387981Y171384D01*
X389270Y170522D01*
X390703Y169929D01*
X392225Y169626D01*
X393776D01*
X395297Y169929D01*
X396730Y170522D01*
X398019Y171384D01*
X399116Y172481D01*
X399978Y173770D01*
X400571Y175203D01*
X400874Y176725D01*
Y178276D01*
X400571Y179797D01*
X399978Y181230D01*
X399116Y182519D01*
X398019Y183616D01*
X396730Y184478D01*
X395297Y185071D01*
X393776Y185374D01*
D02*
G37*
G36*
X16275D02*
X14725D01*
X13203Y185071D01*
X11770Y184478D01*
X10481Y183616D01*
X9384Y182519D01*
X8522Y181230D01*
X7929Y179797D01*
X7626Y178276D01*
Y176725D01*
X7929Y175203D01*
X8522Y173770D01*
X9384Y172481D01*
X10481Y171384D01*
X11770Y170522D01*
X13203Y169929D01*
X14725Y169626D01*
X16275D01*
X17797Y169929D01*
X19230Y170522D01*
X20519Y171384D01*
X21616Y172481D01*
X22478Y173770D01*
X23071Y175203D01*
X23374Y176725D01*
Y178276D01*
X23071Y179797D01*
X22478Y181230D01*
X21616Y182519D01*
X20519Y183616D01*
X19230Y184478D01*
X17797Y185071D01*
X16275Y185374D01*
D02*
G37*
G36*
X237475Y186722D02*
X235700D01*
Y184947D01*
X237475D01*
Y186722D01*
D02*
G37*
G36*
X198975D02*
X197200D01*
Y184947D01*
X198975D01*
Y186722D01*
D02*
G37*
G36*
X235300D02*
X233525D01*
Y184947D01*
X235300D01*
Y186722D01*
D02*
G37*
G36*
X196800D02*
X195025D01*
Y184947D01*
X196800D01*
Y186722D01*
D02*
G37*
G36*
X277538D02*
X275763D01*
Y184947D01*
X277538D01*
Y186722D01*
D02*
G37*
G36*
X275363D02*
X273588D01*
Y184947D01*
X275363D01*
Y186722D01*
D02*
G37*
G36*
X318038Y186427D02*
X316263D01*
Y184653D01*
X318038D01*
Y186427D01*
D02*
G37*
G36*
X315863D02*
X314088D01*
Y184653D01*
X315863D01*
Y186427D01*
D02*
G37*
G36*
X255638Y186500D02*
X255377D01*
Y183200D01*
X258677D01*
Y183461D01*
X258439Y184351D01*
X257978Y185149D01*
X257326Y185801D01*
X256528Y186261D01*
X255638Y186500D01*
D02*
G37*
G36*
X254977D02*
X254716D01*
X253826Y186261D01*
X253028Y185801D01*
X252377Y185149D01*
X251916Y184351D01*
X251677Y183461D01*
Y183200D01*
X254977D01*
Y186500D01*
D02*
G37*
G36*
X217638D02*
X217377D01*
Y183200D01*
X220677D01*
Y183461D01*
X220439Y184351D01*
X219978Y185149D01*
X219326Y185801D01*
X218528Y186261D01*
X217638Y186500D01*
D02*
G37*
G36*
X216977D02*
X216716D01*
X215826Y186261D01*
X215028Y185801D01*
X214376Y185149D01*
X213916Y184351D01*
X213677Y183461D01*
Y183200D01*
X216977D01*
Y186500D01*
D02*
G37*
G36*
X277538Y184547D02*
X275763D01*
Y182772D01*
X277538D01*
Y184547D01*
D02*
G37*
G36*
X275363D02*
X273588D01*
Y182772D01*
X275363D01*
Y184547D01*
D02*
G37*
G36*
X237475Y184547D02*
X235700D01*
Y182772D01*
X237475D01*
Y184547D01*
D02*
G37*
G36*
X235300D02*
X233525D01*
Y182772D01*
X235300D01*
Y184547D01*
D02*
G37*
G36*
X198975D02*
X197200D01*
Y182772D01*
X198975D01*
Y184547D01*
D02*
G37*
G36*
X196800D02*
X195025D01*
Y182772D01*
X196800D01*
Y184547D01*
D02*
G37*
G36*
X336138Y186000D02*
X335877D01*
Y182700D01*
X339177D01*
Y182961D01*
X338939Y183851D01*
X338478Y184649D01*
X337826Y185301D01*
X337028Y185761D01*
X336138Y186000D01*
D02*
G37*
G36*
X335477D02*
X335216D01*
X334326Y185761D01*
X333528Y185301D01*
X332876Y184649D01*
X332416Y183851D01*
X332177Y182961D01*
Y182700D01*
X335477D01*
Y186000D01*
D02*
G37*
G36*
X296138D02*
X295877D01*
Y182700D01*
X299177D01*
Y182961D01*
X298939Y183851D01*
X298478Y184649D01*
X297826Y185301D01*
X297028Y185761D01*
X296138Y186000D01*
D02*
G37*
G36*
X295477D02*
X295216D01*
X294326Y185761D01*
X293528Y185301D01*
X292877Y184649D01*
X292416Y183851D01*
X292177Y182961D01*
Y182700D01*
X295477D01*
Y186000D01*
D02*
G37*
G36*
X318038Y184253D02*
X316263D01*
Y182478D01*
X318038D01*
Y184253D01*
D02*
G37*
G36*
X315863D02*
X314088D01*
Y182478D01*
X315863D01*
Y184253D01*
D02*
G37*
G36*
X258677Y182800D02*
X255377D01*
Y179500D01*
X255638D01*
X256528Y179738D01*
X257326Y180199D01*
X257978Y180851D01*
X258439Y181649D01*
X258677Y182539D01*
Y182800D01*
D02*
G37*
G36*
X254977D02*
X251677D01*
Y182539D01*
X251916Y181649D01*
X252377Y180851D01*
X253028Y180199D01*
X253826Y179738D01*
X254716Y179500D01*
X254977D01*
Y182800D01*
D02*
G37*
G36*
X220677D02*
X217377D01*
Y179500D01*
X217638D01*
X218528Y179738D01*
X219326Y180199D01*
X219978Y180851D01*
X220439Y181649D01*
X220677Y182539D01*
Y182800D01*
D02*
G37*
G36*
X216977D02*
X213677D01*
Y182539D01*
X213916Y181649D01*
X214376Y180851D01*
X215028Y180199D01*
X215826Y179738D01*
X216716Y179500D01*
X216977D01*
Y182800D01*
D02*
G37*
G36*
X339177Y182300D02*
X335877D01*
Y179000D01*
X336138D01*
X337028Y179238D01*
X337826Y179699D01*
X338478Y180351D01*
X338939Y181149D01*
X339177Y182039D01*
Y182300D01*
D02*
G37*
G36*
X335477D02*
X332177D01*
Y182039D01*
X332416Y181149D01*
X332876Y180351D01*
X333528Y179699D01*
X334326Y179238D01*
X335216Y179000D01*
X335477D01*
Y182300D01*
D02*
G37*
G36*
X299177D02*
X295877D01*
Y179000D01*
X296138D01*
X297028Y179238D01*
X297826Y179699D01*
X298478Y180351D01*
X298939Y181149D01*
X299177Y182039D01*
Y182300D01*
D02*
G37*
G36*
X295477D02*
X292177D01*
Y182039D01*
X292416Y181149D01*
X292877Y180351D01*
X293528Y179699D01*
X294326Y179238D01*
X295216Y179000D01*
X295477D01*
Y182300D01*
D02*
G37*
G36*
X330500Y187933D02*
X319500D01*
X319194Y187806D01*
X319067Y187500D01*
Y177494D01*
X318605Y177303D01*
X318038Y177870D01*
Y180522D01*
X314088D01*
Y176572D01*
X316740D01*
X319062Y174251D01*
Y172983D01*
X318694D01*
Y170017D01*
X320232D01*
X320439Y169517D01*
X318671Y167749D01*
X318472Y167451D01*
X318402Y167100D01*
Y166827D01*
X317869D01*
X317444Y166742D01*
X317084Y166502D01*
X316844Y166141D01*
X316759Y165717D01*
Y163551D01*
X316844Y163126D01*
X317084Y162766D01*
X317444Y162525D01*
X317869Y162441D01*
X319247D01*
X319672Y162525D01*
X320032Y162766D01*
X320273Y163126D01*
X320357Y163551D01*
Y165717D01*
X320273Y166141D01*
X320237Y166195D01*
Y166720D01*
X323535Y170017D01*
X324376D01*
X324436Y169871D01*
X324492Y169722D01*
X324499Y169719D01*
X324502Y169711D01*
X324649Y169650D01*
X324793Y169585D01*
X325286Y169567D01*
X325294Y169570D01*
X325302Y169567D01*
X327916D01*
X327968Y169588D01*
X328023Y169581D01*
X328475Y169696D01*
X328567Y169765D01*
X328674Y169810D01*
X328695Y169861D01*
X328740Y169895D01*
X328757Y170009D01*
X328801Y170116D01*
X332317D01*
Y172884D01*
X331433D01*
Y187000D01*
X331306Y187306D01*
X330806Y187806D01*
X330500Y187933D01*
D02*
G37*
G36*
X250200Y188633D02*
X240700D01*
X240394Y188506D01*
X240267Y188200D01*
Y176026D01*
X239805Y175834D01*
X237475Y178165D01*
Y180816D01*
X233525D01*
Y176867D01*
X236177D01*
X240610Y172434D01*
X240694Y172378D01*
Y171017D01*
X242232D01*
X242439Y170517D01*
X238671Y166749D01*
X238478Y166461D01*
X237869D01*
X237444Y166376D01*
X237084Y166136D01*
X236843Y165775D01*
X236759Y165350D01*
Y163185D01*
X236843Y162760D01*
X237084Y162400D01*
X237444Y162159D01*
X237869Y162075D01*
X239247D01*
X239672Y162159D01*
X240032Y162400D01*
X240273Y162760D01*
X240357Y163185D01*
Y165350D01*
X240276Y165759D01*
X245535Y171017D01*
X245911D01*
X246377Y170985D01*
X246445Y170850D01*
X246502Y170711D01*
X246518Y170705D01*
X246526Y170689D01*
X246895Y170372D01*
X247038Y170325D01*
X247177Y170267D01*
X247664D01*
X247732Y170295D01*
X247805Y170291D01*
X247879Y170356D01*
X247971Y170394D01*
X247998Y170461D01*
X248053Y170510D01*
X248257Y170925D01*
X248263Y171024D01*
X248301Y171116D01*
X251817D01*
Y173884D01*
X251133D01*
Y187700D01*
X251006Y188006D01*
X250506Y188506D01*
X250200Y188633D01*
D02*
G37*
G36*
X290700Y188133D02*
X281200D01*
X280894Y188006D01*
X280767Y187700D01*
Y175589D01*
X280305Y175397D01*
X277538Y178165D01*
Y180816D01*
X273588D01*
Y176867D01*
X276240D01*
X279425Y173682D01*
Y172386D01*
X279443Y172297D01*
Y170517D01*
X282014D01*
Y170619D01*
X282221Y170833D01*
X282514Y170947D01*
X282524Y170943D01*
X282760Y170821D01*
X282986Y170599D01*
Y170517D01*
X283354D01*
Y169797D01*
X279861Y166304D01*
X279747Y166327D01*
X278369D01*
X277944Y166242D01*
X277584Y166002D01*
X277344Y165641D01*
X277259Y165217D01*
Y163051D01*
X277344Y162626D01*
X277584Y162266D01*
X277944Y162025D01*
X278369Y161941D01*
X279747D01*
X280172Y162025D01*
X280532Y162266D01*
X280773Y162626D01*
X280857Y163051D01*
Y164706D01*
X284921Y168769D01*
X285119Y169066D01*
X285189Y169417D01*
Y169603D01*
X285579Y169834D01*
X285689Y169857D01*
X285787Y169825D01*
X285926Y169767D01*
X288164D01*
X288232Y169795D01*
X288305Y169790D01*
X288379Y169856D01*
X288471Y169894D01*
X288498Y169961D01*
X288553Y170010D01*
X288757Y170425D01*
X288763Y170524D01*
X288801Y170616D01*
X292317D01*
Y173384D01*
X291633D01*
Y187200D01*
X291506Y187506D01*
X291006Y188006D01*
X290700Y188133D01*
D02*
G37*
G36*
X212200Y188633D02*
X202700D01*
X202394Y188506D01*
X202267Y188200D01*
Y173983D01*
X201760D01*
Y174999D01*
X201690Y175350D01*
X201491Y175648D01*
X198975Y178165D01*
Y180816D01*
X195025D01*
Y176867D01*
X197677D01*
X199925Y174619D01*
Y172886D01*
X199943Y172797D01*
Y171017D01*
X202514D01*
Y171816D01*
X202979Y172253D01*
X202984Y172255D01*
X203202Y172129D01*
X203225Y172053D01*
X203230Y172025D01*
Y170218D01*
X200839Y167827D01*
X200369D01*
X199944Y167742D01*
X199584Y167502D01*
X199344Y167141D01*
X199259Y166717D01*
Y164551D01*
X199344Y164126D01*
X199584Y163766D01*
X199944Y163525D01*
X200369Y163441D01*
X201747D01*
X202172Y163525D01*
X202532Y163766D01*
X202773Y164126D01*
X202857Y164551D01*
Y165808D01*
X205667Y168617D01*
X205667Y168617D01*
X205976Y169080D01*
X206085Y169627D01*
X206085Y169627D01*
Y169865D01*
X206093Y169882D01*
X206426Y170267D01*
X212700D01*
X213006Y170394D01*
X213133Y170700D01*
Y171616D01*
X213817D01*
Y174384D01*
X213133D01*
Y187700D01*
X213006Y188006D01*
X212506Y188506D01*
X212200Y188633D01*
D02*
G37*
G36*
X220501Y174384D02*
X218726D01*
Y173200D01*
X220501D01*
Y174384D01*
D02*
G37*
G36*
X260676Y173884D02*
X258901D01*
Y172700D01*
X260676D01*
Y173884D01*
D02*
G37*
G36*
X258501D02*
X256726D01*
Y172700D01*
X258501D01*
Y173884D01*
D02*
G37*
G36*
X343000Y172918D02*
X342791D01*
X342440Y172848D01*
X342142Y172649D01*
X341911Y172418D01*
X341176D01*
Y172884D01*
X339401D01*
Y171500D01*
Y170116D01*
X341176D01*
Y170582D01*
X342291D01*
X342642Y170652D01*
X342940Y170851D01*
X343214Y171125D01*
X343351Y171152D01*
X343649Y171351D01*
X343848Y171649D01*
X343918Y172000D01*
X343848Y172351D01*
X343649Y172649D01*
X343351Y172848D01*
X343000Y172918D01*
D02*
G37*
G36*
X299001Y173384D02*
X297226D01*
Y172200D01*
X299001D01*
Y173384D01*
D02*
G37*
G36*
X339001Y172884D02*
X337226D01*
Y171700D01*
X339001D01*
Y172884D01*
D02*
G37*
G36*
X222676Y174384D02*
X220901D01*
Y173000D01*
Y171616D01*
X222676D01*
Y172082D01*
X224000D01*
X224351Y172152D01*
X224649Y172351D01*
X224848Y172649D01*
X224918Y173000D01*
X224848Y173351D01*
X224649Y173649D01*
X224351Y173848D01*
X224000Y173918D01*
X222676D01*
Y174384D01*
D02*
G37*
G36*
X220501Y172800D02*
X218726D01*
Y171616D01*
X220501D01*
Y172800D01*
D02*
G37*
G36*
X301176Y173384D02*
X299401D01*
Y172000D01*
Y170616D01*
X301176D01*
Y171082D01*
X302000D01*
X302351Y171152D01*
X302649Y171351D01*
X302848Y171649D01*
X302918Y172000D01*
X302848Y172351D01*
X302649Y172649D01*
X302351Y172848D01*
X302000Y172918D01*
X301176D01*
Y173384D01*
D02*
G37*
G36*
X299001Y171800D02*
X297226D01*
Y170616D01*
X299001D01*
Y171800D01*
D02*
G37*
G36*
X339001Y171300D02*
X337226D01*
Y170116D01*
X339001D01*
Y171300D01*
D02*
G37*
G36*
X260676Y172300D02*
X258701D01*
X256726D01*
Y171116D01*
X258858D01*
Y169933D01*
X258928Y169582D01*
X259125Y169288D01*
X259152Y169149D01*
X259351Y168851D01*
X259649Y168652D01*
X260000Y168582D01*
X260351Y168652D01*
X260649Y168851D01*
X260848Y169149D01*
X260918Y169500D01*
Y169709D01*
X260848Y170060D01*
X260693Y170291D01*
Y172016D01*
X260676Y172104D01*
Y172300D01*
D02*
G37*
G36*
X212341Y167306D02*
X210960D01*
Y164743D01*
X212341D01*
Y167306D01*
D02*
G37*
G36*
X248560Y166305D02*
X247179D01*
Y164461D01*
X246546D01*
X246358Y164649D01*
X246060Y164848D01*
X245709Y164918D01*
X245500D01*
X245149Y164848D01*
X244851Y164649D01*
X244652Y164351D01*
X244582Y164000D01*
X244652Y163649D01*
X244851Y163351D01*
X245149Y163152D01*
X245286Y163125D01*
X245517Y162894D01*
X245814Y162696D01*
X246165Y162626D01*
X247179D01*
Y160781D01*
X248560D01*
Y163543D01*
Y166305D01*
D02*
G37*
G36*
X330841Y166806D02*
X329460D01*
Y164243D01*
X330841D01*
Y166806D01*
D02*
G37*
G36*
X250341Y166305D02*
X248960D01*
Y163743D01*
X250341D01*
Y166305D01*
D02*
G37*
G36*
X290841Y165805D02*
X289460D01*
Y163243D01*
X290841D01*
Y165805D01*
D02*
G37*
G36*
X212341Y164343D02*
X210960D01*
Y161781D01*
X212341D01*
Y164343D01*
D02*
G37*
G36*
X210560Y167306D02*
X209179D01*
Y165418D01*
X206500D01*
X206149Y165348D01*
X205851Y165149D01*
X205652Y164851D01*
X205582Y164500D01*
X205652Y164149D01*
X205851Y163851D01*
X206149Y163652D01*
X206500Y163582D01*
X209179D01*
Y161781D01*
X210560D01*
Y164543D01*
Y167306D01*
D02*
G37*
G36*
X330841Y163843D02*
X329460D01*
Y161281D01*
X330841D01*
Y163843D01*
D02*
G37*
G36*
X329060Y166806D02*
X327679D01*
Y164918D01*
X325500D01*
X325149Y164848D01*
X324851Y164649D01*
X324652Y164351D01*
X324582Y164000D01*
X324652Y163649D01*
X324851Y163351D01*
X325149Y163152D01*
X325500Y163082D01*
X327679D01*
Y161281D01*
X329060D01*
Y164043D01*
Y166806D01*
D02*
G37*
G36*
X250341Y163343D02*
X248960D01*
Y160781D01*
X250341D01*
Y163343D01*
D02*
G37*
G36*
X290841Y162843D02*
X289460D01*
Y160281D01*
X290841D01*
Y162843D01*
D02*
G37*
G36*
X289060Y165805D02*
X287679D01*
Y163918D01*
X285500D01*
X285149Y163848D01*
X284851Y163649D01*
X284652Y163351D01*
X284582Y163000D01*
X284652Y162649D01*
X284851Y162351D01*
X285149Y162152D01*
X285500Y162082D01*
X287679D01*
Y160281D01*
X289060D01*
Y163043D01*
Y165805D01*
D02*
G37*
G36*
X219821Y167306D02*
X216659D01*
Y161781D01*
X219821D01*
Y163174D01*
X220321Y163381D01*
X223017Y160685D01*
Y159214D01*
X225983D01*
Y160022D01*
X226483Y160057D01*
X226715Y159825D01*
X227224Y159614D01*
X227776D01*
X228285Y159825D01*
X228675Y160215D01*
X228886Y160724D01*
Y161276D01*
X228675Y161785D01*
X228285Y162175D01*
X227776Y162386D01*
X227224D01*
X226715Y162175D01*
X226458Y161918D01*
X225669D01*
X225317Y161848D01*
X225251Y161803D01*
X224886D01*
X224797Y161786D01*
X224512D01*
X221106Y165192D01*
X220808Y165391D01*
X220457Y165461D01*
X219821D01*
Y167306D01*
D02*
G37*
G36*
X298321Y165805D02*
X295159D01*
Y160281D01*
X298321D01*
Y162126D01*
X298848D01*
X302017Y158957D01*
Y157486D01*
X304983D01*
Y158760D01*
X306044Y159821D01*
X306381D01*
X306491Y159711D01*
X307000Y159500D01*
X307551D01*
X308061Y159711D01*
X308451Y160101D01*
X308662Y160610D01*
Y161161D01*
X308451Y161671D01*
X308061Y162061D01*
X307551Y162272D01*
X307000D01*
X306491Y162061D01*
X306101Y161671D01*
X306095Y161656D01*
X305663D01*
X305312Y161586D01*
X305014Y161387D01*
X303685Y160057D01*
X303512D01*
X299877Y163692D01*
X299580Y163891D01*
X299228Y163961D01*
X298321D01*
Y165805D01*
D02*
G37*
G36*
X257821Y166305D02*
X254659D01*
Y160781D01*
X256833D01*
X256921Y160764D01*
X259285D01*
X260517Y159531D01*
Y158257D01*
X263483D01*
Y159011D01*
X264059D01*
X264410Y159081D01*
X264708Y159280D01*
X264934Y159506D01*
X264949Y159500D01*
X265500D01*
X266009Y159711D01*
X266399Y160101D01*
X266610Y160610D01*
Y161161D01*
X266399Y161671D01*
X266009Y162061D01*
X265500Y162272D01*
X264949D01*
X264439Y162061D01*
X264050Y161671D01*
X263839Y161161D01*
Y161006D01*
X263679Y160847D01*
X262386D01*
X262297Y160829D01*
X261815D01*
X260314Y162330D01*
X260016Y162529D01*
X259665Y162599D01*
X257821D01*
Y166305D01*
D02*
G37*
G36*
X170805Y163805D02*
X164195D01*
Y157195D01*
X170805D01*
Y163805D01*
D02*
G37*
G36*
X80805D02*
X74195D01*
Y157195D01*
X80805D01*
Y163805D01*
D02*
G37*
G36*
X216081Y160219D02*
X212919D01*
Y154694D01*
X214783D01*
X216514Y152963D01*
X216561Y152483D01*
X216561Y152483D01*
Y151918D01*
X210426D01*
X210074Y151848D01*
X209777Y151649D01*
X207563Y149435D01*
X203686D01*
X203578Y149935D01*
X203590Y149954D01*
X203699Y150500D01*
Y153854D01*
X205018Y155173D01*
X205487D01*
X205912Y155258D01*
X206273Y155498D01*
X206421Y155720D01*
X207895D01*
X207954Y155681D01*
X208163Y155640D01*
X208224Y155614D01*
X208291D01*
X208500Y155573D01*
X208709Y155614D01*
X208776D01*
X208837Y155640D01*
X209046Y155681D01*
X209224Y155800D01*
X209285Y155825D01*
X209332Y155872D01*
X209509Y155991D01*
X209628Y156168D01*
X209675Y156215D01*
X209700Y156276D01*
X209819Y156454D01*
X209860Y156663D01*
X209886Y156724D01*
Y156791D01*
X209927Y157000D01*
X209886Y157209D01*
Y157276D01*
X209860Y157337D01*
X209819Y157546D01*
X209700Y157724D01*
X209675Y157785D01*
X209628Y157832D01*
X209509Y158009D01*
X209362Y158157D01*
X208899Y158466D01*
X208352Y158575D01*
X208352Y158575D01*
X206573D01*
X206513Y158874D01*
X206273Y159234D01*
X205912Y159475D01*
X205487Y159559D01*
X204110D01*
X203685Y159475D01*
X203324Y159234D01*
X203084Y158874D01*
X202999Y158449D01*
Y157192D01*
X201262Y155455D01*
X200953Y154992D01*
X200844Y154446D01*
X200844Y154446D01*
Y150500D01*
X200921Y150116D01*
X200460Y149869D01*
X200014Y150315D01*
Y151983D01*
X198740D01*
X198236Y152487D01*
Y155219D01*
X198432Y155258D01*
X198792Y155498D01*
X199033Y155859D01*
X199117Y156283D01*
Y158449D01*
X199033Y158874D01*
X198792Y159234D01*
X198432Y159475D01*
X198007Y159559D01*
X196629D01*
X196204Y159475D01*
X195844Y159234D01*
X195603Y158874D01*
X195519Y158449D01*
Y156283D01*
X195603Y155859D01*
X195844Y155498D01*
X196204Y155258D01*
X196400Y155219D01*
Y152107D01*
X196470Y151756D01*
X196669Y151458D01*
X197442Y150685D01*
Y149017D01*
X198716D01*
X199865Y147869D01*
X200163Y147669D01*
X200514Y147600D01*
X207943D01*
X208294Y147669D01*
X208592Y147869D01*
X210806Y150082D01*
X216561D01*
Y149517D01*
X219132D01*
Y151503D01*
X219594Y151695D01*
X220104Y151185D01*
Y149517D01*
X222676D01*
Y152483D01*
X221402D01*
X219647Y154237D01*
X219349Y154436D01*
X218998Y154506D01*
X217567D01*
X216081Y155992D01*
Y160219D01*
D02*
G37*
G36*
X294581Y158719D02*
X291419D01*
Y153194D01*
X293592D01*
X293681Y153177D01*
X295612D01*
X296844Y151945D01*
X296653Y151483D01*
X295061D01*
Y150918D01*
X288728D01*
X288377Y150848D01*
X288079Y150649D01*
X286365Y148935D01*
X282186D01*
X282078Y149435D01*
X282090Y149454D01*
X282199Y150000D01*
Y152752D01*
X283120Y153673D01*
X283487D01*
X283912Y153758D01*
X284273Y153998D01*
X284513Y154359D01*
X284598Y154783D01*
Y155210D01*
X285638D01*
X285638Y155210D01*
X286184Y155319D01*
X286647Y155629D01*
X287009Y155991D01*
X287128Y156168D01*
X287175Y156215D01*
X287200Y156276D01*
X287319Y156454D01*
X287360Y156663D01*
X287386Y156724D01*
Y156791D01*
X287427Y157000D01*
X287386Y157209D01*
Y157276D01*
X287360Y157337D01*
X287319Y157546D01*
X287200Y157724D01*
X287175Y157785D01*
X287128Y157832D01*
X287009Y158009D01*
X286832Y158128D01*
X286785Y158175D01*
X286724Y158200D01*
X286546Y158319D01*
X286337Y158360D01*
X286276Y158386D01*
X286209D01*
X286000Y158427D01*
X285791Y158386D01*
X285724D01*
X285663Y158360D01*
X285454Y158319D01*
X285276Y158200D01*
X285215Y158175D01*
X285168Y158128D01*
X285074Y158065D01*
X283176D01*
X283176Y158065D01*
X283146Y158059D01*
X282109D01*
X281685Y157975D01*
X281324Y157734D01*
X281084Y157374D01*
X280999Y156949D01*
Y155590D01*
X279762Y154353D01*
X279453Y153890D01*
X279344Y153343D01*
X279344Y153343D01*
Y150000D01*
X279421Y149616D01*
X278960Y149369D01*
X278514Y149815D01*
Y151483D01*
X277240D01*
X276236Y152487D01*
Y153719D01*
X276432Y153758D01*
X276792Y153998D01*
X277033Y154359D01*
X277117Y154783D01*
Y156949D01*
X277033Y157374D01*
X276792Y157734D01*
X276432Y157975D01*
X276007Y158059D01*
X274629D01*
X274204Y157975D01*
X273844Y157734D01*
X273603Y157374D01*
X273519Y156949D01*
Y154783D01*
X273603Y154359D01*
X273844Y153998D01*
X274204Y153758D01*
X274400Y153719D01*
Y152107D01*
X274470Y151756D01*
X274669Y151458D01*
X275942Y150185D01*
Y148517D01*
X277216D01*
X278365Y147369D01*
X278663Y147169D01*
X279014Y147100D01*
X286746D01*
X287097Y147169D01*
X287394Y147369D01*
X289108Y149082D01*
X295061D01*
Y148517D01*
X297632D01*
Y150503D01*
X298094Y150695D01*
X298604Y150185D01*
Y148517D01*
X301176D01*
Y151483D01*
X299902D01*
X296641Y154743D01*
X296343Y154942D01*
X295992Y155012D01*
X294581D01*
Y158719D01*
D02*
G37*
G36*
X334581Y159719D02*
X331419D01*
Y154194D01*
X333592D01*
X333681Y154177D01*
X335612D01*
X336844Y152945D01*
X336653Y152483D01*
X335061D01*
Y151918D01*
X328729D01*
X328378Y151848D01*
X328080Y151649D01*
X325866Y149435D01*
X322186D01*
X322078Y149935D01*
X322090Y149954D01*
X322199Y150500D01*
Y153752D01*
X322620Y154173D01*
X322987D01*
X323412Y154258D01*
X323773Y154498D01*
X324013Y154859D01*
X324042Y155006D01*
X325933D01*
X325933Y155006D01*
X326479Y155114D01*
X326942Y155424D01*
X327009Y155491D01*
X327128Y155668D01*
X327175Y155715D01*
X327200Y155776D01*
X327319Y155954D01*
X327360Y156163D01*
X327386Y156224D01*
Y156291D01*
X327427Y156500D01*
X327386Y156709D01*
Y156776D01*
X327360Y156837D01*
X327319Y157046D01*
X327200Y157224D01*
X327175Y157285D01*
X327128Y157332D01*
X327009Y157509D01*
X326832Y157628D01*
X326785Y157675D01*
X326724Y157700D01*
X326546Y157819D01*
X326337Y157860D01*
X326276Y157886D01*
X326209D01*
X326000Y157927D01*
X325791Y157886D01*
X325724D01*
X325663Y157861D01*
X324016D01*
X324013Y157874D01*
X323773Y158234D01*
X323412Y158475D01*
X322987Y158559D01*
X321609D01*
X321185Y158475D01*
X320824Y158234D01*
X320584Y157874D01*
X320499Y157449D01*
Y156090D01*
X319762Y155353D01*
X319453Y154890D01*
X319344Y154343D01*
X319344Y154343D01*
Y150500D01*
X319421Y150116D01*
X318960Y149869D01*
X318514Y150315D01*
Y151983D01*
X317228D01*
X315736Y153475D01*
Y154219D01*
X315932Y154258D01*
X316292Y154498D01*
X316533Y154859D01*
X316617Y155283D01*
Y157449D01*
X316533Y157874D01*
X316292Y158234D01*
X315932Y158475D01*
X315507Y158559D01*
X314129D01*
X313704Y158475D01*
X313344Y158234D01*
X313103Y157874D01*
X313019Y157449D01*
Y155283D01*
X313103Y154859D01*
X313344Y154498D01*
X313704Y154258D01*
X313900Y154219D01*
Y153094D01*
X313970Y152743D01*
X314169Y152446D01*
X315943Y150672D01*
Y149017D01*
X317216D01*
X318365Y147869D01*
X318663Y147669D01*
X319014Y147600D01*
X326246D01*
X326597Y147669D01*
X326895Y147869D01*
X329109Y150082D01*
X335061D01*
Y149517D01*
X337632D01*
Y151503D01*
X338094Y151695D01*
X338604Y151185D01*
Y149517D01*
X341176D01*
Y152483D01*
X339902D01*
X336641Y155743D01*
X336343Y155942D01*
X335992Y156012D01*
X334581D01*
Y159719D01*
D02*
G37*
G36*
X304983Y156514D02*
X302017D01*
Y153943D01*
X303165D01*
Y153126D01*
X303196Y152972D01*
X303114Y152776D01*
Y152224D01*
X303325Y151715D01*
X303715Y151325D01*
X304224Y151114D01*
X304776D01*
X305285Y151325D01*
X305675Y151715D01*
X305886Y152224D01*
Y152776D01*
X305675Y153285D01*
X305285Y153675D01*
X305000Y153793D01*
Y154842D01*
X304983Y154931D01*
Y156514D01*
D02*
G37*
G36*
X263483Y157286D02*
X260517D01*
Y154714D01*
X263483D01*
Y154714D01*
X263983Y154720D01*
X264582Y154120D01*
Y153156D01*
X264325Y152899D01*
X264114Y152390D01*
Y151839D01*
X264325Y151329D01*
X264715Y150939D01*
X265224Y150728D01*
X265776D01*
X266285Y150939D01*
X266675Y151329D01*
X266886Y151839D01*
Y152390D01*
X266675Y152899D01*
X266418Y153156D01*
Y154500D01*
X266348Y154851D01*
X266149Y155149D01*
X264649Y156649D01*
X264351Y156848D01*
X264000Y156918D01*
X263483D01*
Y157286D01*
D02*
G37*
G36*
X225983Y158242D02*
X223017D01*
Y155671D01*
X224685D01*
X225582Y154773D01*
Y153042D01*
X225325Y152785D01*
X225114Y152276D01*
Y151724D01*
X225325Y151215D01*
X225715Y150825D01*
X226224Y150614D01*
X226776D01*
X227285Y150825D01*
X227675Y151215D01*
X227886Y151724D01*
Y152276D01*
X227675Y152785D01*
X227418Y153042D01*
Y155154D01*
X227348Y155505D01*
X227149Y155802D01*
X225983Y156969D01*
Y158242D01*
D02*
G37*
G36*
X34300Y152569D02*
X31442D01*
Y150499D01*
X34300D01*
Y152569D01*
D02*
G37*
G36*
X25800Y152420D02*
X22942D01*
Y150350D01*
X25800D01*
Y152420D01*
D02*
G37*
G36*
X18800Y151498D02*
X17576D01*
Y150275D01*
X18800D01*
Y151498D01*
D02*
G37*
G36*
X254081Y159219D02*
X250919D01*
Y153694D01*
X253092D01*
X253181Y153677D01*
X255612D01*
X256344Y152945D01*
X256153Y152483D01*
X254561D01*
Y151918D01*
X245500D01*
X245149Y151848D01*
X244851Y151649D01*
X242120Y148918D01*
X241516D01*
X241057Y149017D01*
Y149904D01*
X241090Y149954D01*
X241199Y150500D01*
Y152491D01*
X242515Y153807D01*
X242987D01*
X243412Y153892D01*
X243773Y154132D01*
X244013Y154492D01*
X244029Y154573D01*
X245500D01*
X245709Y154614D01*
X245776D01*
X245837Y154640D01*
X246046Y154681D01*
X246224Y154800D01*
X246285Y154825D01*
X246332Y154872D01*
X246509Y154991D01*
X246628Y155168D01*
X246675Y155215D01*
X246700Y155276D01*
X246819Y155454D01*
X246860Y155663D01*
X246886Y155724D01*
Y155791D01*
X246927Y156000D01*
X246886Y156209D01*
Y156276D01*
X246860Y156337D01*
X246819Y156546D01*
X246700Y156724D01*
X246675Y156785D01*
X246628Y156832D01*
X246509Y157009D01*
X246332Y157128D01*
X246285Y157175D01*
X246224Y157200D01*
X246046Y157319D01*
X245837Y157360D01*
X245776Y157386D01*
X245709D01*
X245500Y157427D01*
X244029D01*
X244013Y157508D01*
X243773Y157868D01*
X243412Y158108D01*
X242987Y158193D01*
X241610D01*
X241185Y158108D01*
X240824Y157868D01*
X240584Y157508D01*
X240499Y157083D01*
Y155829D01*
X238762Y154092D01*
X238453Y153629D01*
X238344Y153083D01*
X238344Y153083D01*
Y150500D01*
X238421Y150116D01*
X237960Y149869D01*
X237514Y150315D01*
Y151983D01*
X236240D01*
X235736Y152487D01*
Y153852D01*
X235932Y153892D01*
X236292Y154132D01*
X236533Y154492D01*
X236617Y154917D01*
Y157083D01*
X236533Y157508D01*
X236292Y157868D01*
X235932Y158108D01*
X235507Y158193D01*
X234129D01*
X233704Y158108D01*
X233344Y157868D01*
X233103Y157508D01*
X233019Y157083D01*
Y154917D01*
X233103Y154492D01*
X233344Y154132D01*
X233704Y153892D01*
X233900Y153852D01*
Y152107D01*
X233970Y151756D01*
X234169Y151458D01*
X234943Y150685D01*
Y149017D01*
X236216D01*
X237883Y147351D01*
X238180Y147152D01*
X238531Y147082D01*
X242500D01*
X242851Y147152D01*
X243149Y147351D01*
X245880Y150082D01*
X254561D01*
Y149517D01*
X257132D01*
Y151503D01*
X257594Y151695D01*
X258104Y151185D01*
Y149517D01*
X260676D01*
Y152483D01*
X259402D01*
X256641Y155243D01*
X256343Y155442D01*
X255992Y155512D01*
X254081D01*
Y159219D01*
D02*
G37*
G36*
X398776Y152886D02*
X398224D01*
X397715Y152675D01*
X397325Y152285D01*
X397114Y151776D01*
Y151224D01*
X397325Y150715D01*
X397715Y150325D01*
X398224Y150114D01*
X398379D01*
X398508Y149986D01*
Y148924D01*
X398002D01*
Y148485D01*
X394462D01*
X394411Y148561D01*
X393986Y148845D01*
X393484Y148945D01*
X389744D01*
X389242Y148845D01*
X388817Y148561D01*
X388533Y148136D01*
X388433Y147634D01*
X388533Y147132D01*
X388817Y146707D01*
X388895Y146655D01*
Y146054D01*
X388817Y146002D01*
X388533Y145577D01*
X388433Y145075D01*
X388533Y144573D01*
X388817Y144148D01*
X388895Y144096D01*
Y143495D01*
X388817Y143443D01*
X388533Y143017D01*
X388433Y142516D01*
X388533Y142014D01*
X388817Y141589D01*
X388895Y141537D01*
Y140936D01*
X388817Y140884D01*
X388533Y140458D01*
X388433Y139957D01*
X388533Y139455D01*
X388817Y139030D01*
X388663Y138553D01*
X388420Y138315D01*
X387398D01*
X387047Y138245D01*
X386749Y138047D01*
X379851Y131149D01*
X379652Y130851D01*
X379582Y130500D01*
Y118880D01*
X370620Y109918D01*
X361586D01*
X361235Y109848D01*
X360937Y109649D01*
X360351Y109063D01*
X360152Y108765D01*
X360082Y108414D01*
Y99000D01*
X360152Y98649D01*
X360351Y98351D01*
X362615Y96087D01*
X362913Y95888D01*
X363264Y95818D01*
X363456D01*
X363860Y95585D01*
Y94374D01*
X363831Y94308D01*
X363832Y94305D01*
X363831Y94302D01*
X363831Y90494D01*
X363894Y90344D01*
X363894Y90343D01*
X363894Y90343D01*
X363955Y90192D01*
X363957Y90191D01*
X363958Y90188D01*
X364080Y90137D01*
X364175Y89859D01*
X364228Y89647D01*
X363967Y89321D01*
X363860Y89321D01*
X363828Y88906D01*
X363828Y88906D01*
X363828Y88906D01*
X363860Y88831D01*
Y88121D01*
X366031D01*
X368203D01*
Y88821D01*
X368203Y88822D01*
X368237Y88905D01*
X368237Y88905D01*
X368237Y88905D01*
X368203Y89321D01*
X368071D01*
X367798Y89659D01*
X367922Y90065D01*
X367947Y90137D01*
X368102Y90201D01*
X368102Y90201D01*
X368102Y90202D01*
X368171Y90369D01*
X368228Y90507D01*
Y90508D01*
X368228Y90508D01*
X368228Y90508D01*
X368228Y94255D01*
X368203Y94315D01*
Y95585D01*
X366949D01*
Y98001D01*
X367514D01*
Y100572D01*
X364549D01*
Y98001D01*
X364192Y97654D01*
X363644D01*
X361918Y99380D01*
Y108034D01*
X361966Y108082D01*
X371000D01*
X371351Y108152D01*
X371649Y108351D01*
X381149Y117851D01*
X381348Y118149D01*
X381418Y118500D01*
Y130120D01*
X387778Y136480D01*
X388811D01*
X388817Y136471D01*
X388895Y136419D01*
Y135817D01*
X388817Y135766D01*
X388533Y135340D01*
X388433Y134839D01*
X388533Y134337D01*
X388817Y133912D01*
X388895Y133860D01*
Y133258D01*
X388817Y133206D01*
X388533Y132781D01*
X388433Y132280D01*
X388533Y131778D01*
X388817Y131352D01*
X388895Y131301D01*
Y130699D01*
X388817Y130648D01*
X388533Y130222D01*
X388433Y129720D01*
X388533Y129219D01*
X388817Y128794D01*
X388895Y128742D01*
Y128140D01*
X388817Y128088D01*
X388533Y127663D01*
X388433Y127161D01*
X388533Y126660D01*
X388817Y126234D01*
X388895Y126183D01*
Y125581D01*
X388817Y125529D01*
X388533Y125104D01*
X388433Y124602D01*
X388533Y124101D01*
X388817Y123675D01*
X388895Y123624D01*
Y123022D01*
X388817Y122970D01*
X388533Y122545D01*
X388433Y122043D01*
X388533Y121542D01*
X388817Y121116D01*
X388895Y121064D01*
Y120463D01*
X388817Y120411D01*
X388533Y119986D01*
X388433Y119484D01*
X388533Y118983D01*
X388817Y118557D01*
X388895Y118505D01*
Y117904D01*
X388817Y117852D01*
X388533Y117427D01*
X388433Y116925D01*
X388533Y116423D01*
X388817Y115998D01*
X388895Y115946D01*
Y115345D01*
X388817Y115293D01*
X388533Y114868D01*
X388433Y114366D01*
X388533Y113864D01*
X388817Y113439D01*
X389242Y113155D01*
X389744Y113055D01*
X393484D01*
X393986Y113155D01*
X394411Y113439D01*
X394565Y113668D01*
X396872D01*
X397215Y113325D01*
X397724Y113114D01*
X398276D01*
X398785Y113325D01*
X399175Y113715D01*
X399386Y114224D01*
Y114776D01*
X399175Y115285D01*
X399037Y115423D01*
X398832Y115750D01*
X399037Y116077D01*
X399175Y116215D01*
X399386Y116724D01*
Y117276D01*
X399175Y117785D01*
X398824Y118136D01*
X399175Y118487D01*
X399386Y118996D01*
Y119547D01*
X399175Y120057D01*
X398900Y120332D01*
X398829Y120636D01*
X398900Y120940D01*
X399175Y121215D01*
X399386Y121724D01*
Y122276D01*
X399175Y122785D01*
X399037Y122923D01*
X398832Y123250D01*
X399037Y123577D01*
X399175Y123715D01*
X399386Y124224D01*
Y124776D01*
X399175Y125285D01*
X399037Y125423D01*
X398832Y125750D01*
X399037Y126077D01*
X399175Y126215D01*
X399386Y126724D01*
Y127276D01*
X399175Y127785D01*
X398785Y128175D01*
X398653Y128229D01*
Y128771D01*
X398785Y128825D01*
X399175Y129215D01*
X399386Y129724D01*
Y130276D01*
X399175Y130785D01*
X399037Y130923D01*
X398832Y131250D01*
X399037Y131577D01*
X399175Y131715D01*
X399386Y132224D01*
Y132776D01*
X399175Y133285D01*
X398785Y133675D01*
X398639Y133735D01*
X398739Y134235D01*
X402683D01*
X404735Y132183D01*
Y84727D01*
X399773Y79765D01*
X360317D01*
X342541Y97541D01*
X342293Y97707D01*
X342000Y97765D01*
X201516D01*
X199618Y99662D01*
X199937Y100051D01*
X200072Y99961D01*
X200364Y99903D01*
X203710D01*
X204003Y99961D01*
X204251Y100127D01*
X205860Y101735D01*
X207943D01*
Y101017D01*
X210514D01*
Y103983D01*
X207943D01*
Y103265D01*
X205543D01*
X205251Y103207D01*
X205002Y103041D01*
X204146Y102184D01*
X203685Y102431D01*
X203699Y102500D01*
Y106354D01*
X204018Y106673D01*
X204487D01*
X204912Y106758D01*
X205273Y106998D01*
X205513Y107359D01*
X205556Y107573D01*
X206500D01*
X206709Y107614D01*
X206776D01*
X206837Y107640D01*
X207046Y107681D01*
X207224Y107800D01*
X207285Y107825D01*
X207332Y107872D01*
X207509Y107991D01*
X207628Y108168D01*
X207675Y108215D01*
X207700Y108276D01*
X207819Y108454D01*
X207860Y108663D01*
X207886Y108724D01*
Y108791D01*
X207927Y109000D01*
X207886Y109209D01*
Y109276D01*
X207860Y109337D01*
X207819Y109546D01*
X207700Y109724D01*
X207675Y109785D01*
X207628Y109832D01*
X207509Y110009D01*
X207332Y110128D01*
X207285Y110175D01*
X207224Y110200D01*
X207046Y110319D01*
X206837Y110360D01*
X206776Y110386D01*
X206709D01*
X206500Y110427D01*
X205477D01*
X205273Y110734D01*
X204912Y110975D01*
X204487Y111059D01*
X203110D01*
X202685Y110975D01*
X202324Y110734D01*
X202084Y110374D01*
X201999Y109949D01*
Y108692D01*
X201262Y107955D01*
X200953Y107492D01*
X200844Y106946D01*
X200844Y106946D01*
Y102500D01*
X200953Y101954D01*
X200552Y101654D01*
X200486Y101627D01*
X200014Y102099D01*
Y103983D01*
X198524D01*
X197083Y105424D01*
Y106688D01*
X197432Y106758D01*
X197792Y106998D01*
X198033Y107359D01*
X198117Y107783D01*
Y109949D01*
X198033Y110374D01*
X197792Y110734D01*
X197432Y110975D01*
X197007Y111059D01*
X195629D01*
X195204Y110975D01*
X194844Y110734D01*
X194603Y110374D01*
X194519Y109949D01*
Y107783D01*
X194603Y107359D01*
X194844Y106998D01*
X195204Y106758D01*
X195553Y106688D01*
Y105107D01*
X195612Y104814D01*
X195777Y104566D01*
X197390Y102953D01*
X197352Y102610D01*
X196860Y102420D01*
X188240Y111041D01*
X187992Y111206D01*
X187699Y111265D01*
X170815D01*
X170668Y111812D01*
X170221Y112588D01*
X169588Y113221D01*
X168812Y113668D01*
X167948Y113900D01*
X167052D01*
X166188Y113668D01*
X165412Y113221D01*
X164779Y112588D01*
X164332Y111812D01*
X164100Y110948D01*
Y110052D01*
X164332Y109188D01*
X164779Y108412D01*
X165412Y107779D01*
X166188Y107332D01*
X167052Y107100D01*
X167948D01*
X168812Y107332D01*
X169588Y107779D01*
X170221Y108412D01*
X170668Y109188D01*
X170815Y109735D01*
X187382D01*
X200658Y96459D01*
X200906Y96293D01*
X201199Y96235D01*
X341683D01*
X359459Y78459D01*
X359459Y78459D01*
X359707Y78294D01*
X360000Y78235D01*
X400090D01*
X400383Y78294D01*
X400631Y78459D01*
X406041Y83869D01*
X406207Y84117D01*
X406265Y84410D01*
Y132500D01*
X406207Y132793D01*
X406041Y133041D01*
X406041Y133041D01*
X403541Y135541D01*
X403293Y135706D01*
X403000Y135765D01*
X398000D01*
X397707Y135706D01*
X397674Y135684D01*
X394466D01*
X394411Y135766D01*
X394398Y136276D01*
X394745Y136633D01*
X397108D01*
X397400Y136691D01*
X397453Y136726D01*
X397724Y136614D01*
X398276D01*
X398785Y136825D01*
X399175Y137215D01*
X399386Y137724D01*
Y138276D01*
X399213Y138692D01*
X399352Y139025D01*
X399475Y139192D01*
X402667D01*
X402916Y139242D01*
X403224Y139114D01*
X403776D01*
X404285Y139325D01*
X404675Y139715D01*
X404886Y140224D01*
Y140776D01*
X404675Y141285D01*
X404285Y141675D01*
X403776Y141886D01*
X403224D01*
X402715Y141675D01*
X402325Y141285D01*
X402114Y140776D01*
Y140721D01*
X394520D01*
X394411Y140884D01*
X394334Y140936D01*
Y141430D01*
X394712Y141831D01*
X395323D01*
X395329Y141825D01*
X395838Y141614D01*
X396390D01*
X396899Y141825D01*
X397289Y142215D01*
X397500Y142724D01*
Y143276D01*
X397289Y143785D01*
X396938Y144136D01*
X397289Y144487D01*
X397500Y144996D01*
Y145547D01*
X397289Y146057D01*
X397196Y146149D01*
X397404Y146649D01*
X398002D01*
Y146076D01*
X400651D01*
X401151Y146076D01*
X401349Y146076D01*
X402375D01*
Y147500D01*
Y148924D01*
X401349D01*
X400843Y148924D01*
X400343Y149296D01*
Y150366D01*
X400273Y150717D01*
X400074Y151015D01*
X399880Y151209D01*
X399886Y151224D01*
Y151776D01*
X399675Y152285D01*
X399285Y152675D01*
X398776Y152886D01*
D02*
G37*
G36*
X37558Y152569D02*
X34700D01*
Y150299D01*
X34500D01*
Y150099D01*
X31442D01*
Y148433D01*
X29057D01*
Y149582D01*
X30000D01*
X30351Y149652D01*
X30649Y149851D01*
X30848Y150149D01*
X30918Y150500D01*
X30848Y150851D01*
X30649Y151149D01*
X30351Y151348D01*
X30000Y151418D01*
X29057D01*
Y152420D01*
X26200D01*
Y150150D01*
X26000D01*
Y149950D01*
X22942D01*
Y148433D01*
X20833D01*
X20792Y148455D01*
X20791Y148631D01*
X21000Y149082D01*
X21351Y149152D01*
X21649Y149351D01*
X21848Y149649D01*
X21918Y150000D01*
X21848Y150351D01*
X21649Y150649D01*
X21611Y150686D01*
X21314Y150885D01*
X20963Y150955D01*
X20424D01*
Y151498D01*
X19200D01*
Y150075D01*
X19000D01*
Y149875D01*
X17576D01*
X17576Y148651D01*
X17167Y148433D01*
X13000D01*
X12694Y148306D01*
X12567Y148000D01*
Y141523D01*
X12483Y141058D01*
X12105Y141058D01*
X9517D01*
Y138486D01*
X12483D01*
Y138854D01*
X14831D01*
X15053Y138628D01*
X15175Y138392D01*
X15208Y138312D01*
Y138226D01*
X15269Y138165D01*
X15302Y138086D01*
X16694Y136694D01*
X17000Y136567D01*
X29748D01*
X30084Y136067D01*
X30038Y135956D01*
X30006Y135924D01*
X29424Y135924D01*
X29226Y135924D01*
X26576D01*
Y133076D01*
X26946D01*
Y131983D01*
X26443D01*
Y131418D01*
X23057D01*
Y131983D01*
X22575D01*
Y133017D01*
X22829D01*
Y135983D01*
X20257D01*
Y133017D01*
X20740D01*
Y131983D01*
X20486D01*
Y129017D01*
X23057D01*
Y129582D01*
X26443D01*
Y129017D01*
X29014D01*
Y131983D01*
X28782D01*
Y132723D01*
X29135Y133076D01*
X29726Y133076D01*
X29854Y133076D01*
X30354Y132908D01*
Y131983D01*
X29986D01*
Y129017D01*
X32557D01*
Y131983D01*
X32189D01*
Y133076D01*
X32573D01*
Y135924D01*
X32573Y135924D01*
X32573D01*
X32691Y136393D01*
X33075Y136777D01*
X33392Y136775D01*
X33645Y136694D01*
X33724Y136661D01*
X33785Y136600D01*
X33871D01*
X33951Y136567D01*
X42321D01*
X45194Y133694D01*
X45500Y133567D01*
X54662D01*
X54742Y133600D01*
X54828D01*
X54889Y133661D01*
X54968Y133694D01*
X55463Y133852D01*
X66063Y123253D01*
Y90537D01*
X65828D01*
Y88237D01*
X65828Y88236D01*
X65794Y88153D01*
X65794Y88153D01*
X65794Y88153D01*
X65828Y87737D01*
X65961D01*
X66233Y87400D01*
X66131Y87057D01*
X66084Y86921D01*
X66083Y86920D01*
X66083Y86920D01*
X65930Y86857D01*
X65930Y86857D01*
X65929Y86857D01*
X65860Y86688D01*
X65803Y86551D01*
Y86550D01*
X65803Y86550D01*
X65803Y86550D01*
X65803Y83841D01*
X65450Y83487D01*
X63172D01*
Y84290D01*
X58828D01*
Y80734D01*
X63172D01*
Y81652D01*
X65828D01*
Y81473D01*
X70172D01*
Y81812D01*
X70420Y81978D01*
X75925Y87483D01*
X76188Y87332D01*
X77052Y87100D01*
X77948D01*
X78812Y87332D01*
X79588Y87779D01*
X80221Y88412D01*
X80668Y89188D01*
X80900Y90052D01*
Y90948D01*
X80668Y91812D01*
X80221Y92588D01*
X79588Y93221D01*
X78812Y93668D01*
X77948Y93900D01*
X77052D01*
X76188Y93668D01*
X75412Y93221D01*
X74779Y92588D01*
X74332Y91812D01*
X74100Y90948D01*
Y90052D01*
X74332Y89188D01*
X74589Y88742D01*
X70662Y84815D01*
X70200Y85006D01*
X70200Y86564D01*
X70137Y86715D01*
X70077Y86867D01*
X70074Y86868D01*
X70073Y86870D01*
X69951Y86921D01*
X69856Y87199D01*
X69803Y87411D01*
X70064Y87737D01*
X70172Y87737D01*
X70203Y88152D01*
X70203Y88152D01*
X70203Y88152D01*
X70172Y88228D01*
Y90537D01*
X69937D01*
Y124055D01*
X69790Y124796D01*
X69370Y125425D01*
X58148Y136647D01*
X58306Y137142D01*
X58339Y137222D01*
X58400Y137282D01*
Y137369D01*
X58433Y137448D01*
Y146500D01*
X58306Y146806D01*
X56806Y148306D01*
X56500Y148433D01*
X37558D01*
Y149582D01*
X38500D01*
X38851Y149652D01*
X39149Y149851D01*
X39348Y150149D01*
X39418Y150500D01*
X39348Y150851D01*
X39149Y151149D01*
X38851Y151348D01*
X38500Y151418D01*
X37558D01*
Y152569D01*
D02*
G37*
G36*
X402775Y148924D02*
Y147700D01*
X403998D01*
Y148924D01*
X402775D01*
D02*
G37*
G36*
X167948Y153900D02*
X167052D01*
X166188Y153668D01*
X165412Y153221D01*
X164779Y152588D01*
X164332Y151812D01*
X164100Y150948D01*
Y150052D01*
X164332Y149188D01*
X164779Y148412D01*
X165412Y147779D01*
X166188Y147332D01*
X167052Y147100D01*
X167948D01*
X168812Y147332D01*
X169588Y147779D01*
X170221Y148412D01*
X170668Y149188D01*
X170900Y150052D01*
Y150948D01*
X170668Y151812D01*
X170221Y152588D01*
X169588Y153221D01*
X168812Y153668D01*
X167948Y153900D01*
D02*
G37*
G36*
X403998Y147300D02*
X402775D01*
Y146076D01*
X403998D01*
Y147300D01*
D02*
G37*
G36*
X167948Y143900D02*
X167052D01*
X166188Y143668D01*
X165412Y143221D01*
X164779Y142588D01*
X164332Y141812D01*
X164185Y141265D01*
X156951D01*
Y141680D01*
X153986D01*
Y138321D01*
X156951D01*
Y139735D01*
X164185D01*
X164332Y139188D01*
X164779Y138412D01*
X165412Y137779D01*
X166188Y137332D01*
X167052Y137100D01*
X167948D01*
X168812Y137332D01*
X169588Y137779D01*
X170221Y138412D01*
X170668Y139188D01*
X170900Y140052D01*
Y140948D01*
X170668Y141812D01*
X170221Y142588D01*
X169588Y143221D01*
X168812Y143668D01*
X167948Y143900D01*
D02*
G37*
G36*
X153014Y141680D02*
X150049D01*
Y140918D01*
X147209D01*
X146864Y140849D01*
X146776Y140886D01*
X146224D01*
X145715Y140675D01*
X145325Y140285D01*
X145114Y139776D01*
Y139224D01*
X145325Y138715D01*
X145715Y138325D01*
X146224Y138114D01*
X146776D01*
X147285Y138325D01*
X147675Y138715D01*
X147827Y139082D01*
X150049D01*
Y138321D01*
X153014D01*
Y141680D01*
D02*
G37*
G36*
X198975Y142428D02*
X197200D01*
Y140653D01*
X198975D01*
Y142428D01*
D02*
G37*
G36*
X235300D02*
X233525D01*
Y140653D01*
X235300D01*
Y142428D01*
D02*
G37*
G36*
X196800D02*
X195025D01*
Y140653D01*
X196800D01*
Y142428D01*
D02*
G37*
G36*
X318038D02*
X316263D01*
Y140653D01*
X318038D01*
Y142428D01*
D02*
G37*
G36*
X277538D02*
X275763D01*
Y140653D01*
X277538D01*
Y142428D01*
D02*
G37*
G36*
X315863D02*
X314088D01*
Y140653D01*
X315863D01*
Y142428D01*
D02*
G37*
G36*
X275363D02*
X273588D01*
Y140653D01*
X275363D01*
Y142428D01*
D02*
G37*
G36*
X255638Y142206D02*
X255377D01*
Y138906D01*
X258677D01*
Y139166D01*
X258439Y140057D01*
X257978Y140855D01*
X257326Y141506D01*
X256528Y141967D01*
X255638Y142206D01*
D02*
G37*
G36*
X254977D02*
X254716D01*
X253826Y141967D01*
X253028Y141506D01*
X252377Y140855D01*
X251916Y140057D01*
X251677Y139166D01*
Y138906D01*
X254977D01*
Y142206D01*
D02*
G37*
G36*
X217638D02*
X217377D01*
Y138906D01*
X220677D01*
Y139166D01*
X220439Y140057D01*
X219978Y140855D01*
X219326Y141506D01*
X218528Y141967D01*
X217638Y142206D01*
D02*
G37*
G36*
X216977D02*
X216716D01*
X215826Y141967D01*
X215028Y141506D01*
X214376Y140855D01*
X213916Y140057D01*
X213677Y139166D01*
Y138906D01*
X216977D01*
Y142206D01*
D02*
G37*
G36*
X318038Y140253D02*
X316263D01*
Y138478D01*
X318038D01*
Y140253D01*
D02*
G37*
G36*
X315863D02*
X314088D01*
Y138478D01*
X315863D01*
Y140253D01*
D02*
G37*
G36*
X277538D02*
X275763D01*
Y138478D01*
X277538D01*
Y140253D01*
D02*
G37*
G36*
X275363D02*
X273588D01*
Y138478D01*
X275363D01*
Y140253D01*
D02*
G37*
G36*
X198975Y140253D02*
X197200D01*
Y138478D01*
X198975D01*
Y140253D01*
D02*
G37*
G36*
X196800D02*
X195025D01*
Y138478D01*
X196800D01*
Y140253D01*
D02*
G37*
G36*
X235300D02*
X233525D01*
Y138478D01*
X235300D01*
Y140253D01*
D02*
G37*
G36*
X336138Y141706D02*
X335877D01*
Y138406D01*
X339177D01*
Y138666D01*
X338939Y139557D01*
X338478Y140355D01*
X337826Y141006D01*
X337028Y141467D01*
X336138Y141706D01*
D02*
G37*
G36*
X335477D02*
X335216D01*
X334326Y141467D01*
X333528Y141006D01*
X332876Y140355D01*
X332416Y139557D01*
X332177Y138666D01*
Y138406D01*
X335477D01*
Y141706D01*
D02*
G37*
G36*
X296138D02*
X295877D01*
Y138406D01*
X299177D01*
Y138666D01*
X298939Y139557D01*
X298478Y140355D01*
X297826Y141006D01*
X297028Y141467D01*
X296138Y141706D01*
D02*
G37*
G36*
X295477D02*
X295216D01*
X294326Y141467D01*
X293528Y141006D01*
X292877Y140355D01*
X292416Y139557D01*
X292177Y138666D01*
Y138406D01*
X295477D01*
Y141706D01*
D02*
G37*
G36*
X77948Y143900D02*
X77052D01*
X76188Y143668D01*
X75412Y143221D01*
X74779Y142588D01*
X74332Y141812D01*
X74100Y140948D01*
Y140052D01*
X74332Y139188D01*
X74779Y138412D01*
X75412Y137779D01*
X76188Y137332D01*
X77052Y137100D01*
X77948D01*
X78812Y137332D01*
X79588Y137779D01*
X80221Y138412D01*
X80668Y139188D01*
X80900Y140052D01*
Y140948D01*
X80668Y141812D01*
X80221Y142588D01*
X79588Y143221D01*
X78812Y143668D01*
X77948Y143900D01*
D02*
G37*
G36*
X258677Y138505D02*
X255377D01*
Y135205D01*
X255638D01*
X256528Y135444D01*
X257326Y135905D01*
X257978Y136556D01*
X258439Y137355D01*
X258677Y138245D01*
Y138505D01*
D02*
G37*
G36*
X254977D02*
X251677D01*
Y138245D01*
X251916Y137355D01*
X252377Y136556D01*
X253028Y135905D01*
X253826Y135444D01*
X254716Y135205D01*
X254977D01*
Y138505D01*
D02*
G37*
G36*
X220677D02*
X217377D01*
Y135205D01*
X217638D01*
X218528Y135444D01*
X219326Y135905D01*
X219978Y136556D01*
X220439Y137355D01*
X220677Y138245D01*
Y138505D01*
D02*
G37*
G36*
X216977D02*
X213677D01*
Y138245D01*
X213916Y137355D01*
X214376Y136556D01*
X215028Y135905D01*
X215826Y135444D01*
X216716Y135205D01*
X216977D01*
Y138505D01*
D02*
G37*
G36*
X339177Y138005D02*
X335877D01*
Y134705D01*
X336138D01*
X337028Y134944D01*
X337826Y135405D01*
X338478Y136056D01*
X338939Y136855D01*
X339177Y137745D01*
Y138005D01*
D02*
G37*
G36*
X335477D02*
X332177D01*
Y137745D01*
X332416Y136855D01*
X332876Y136056D01*
X333528Y135405D01*
X334326Y134944D01*
X335216Y134705D01*
X335477D01*
Y138005D01*
D02*
G37*
G36*
X299177D02*
X295877D01*
Y134705D01*
X296138D01*
X297028Y134944D01*
X297826Y135405D01*
X298478Y136056D01*
X298939Y136855D01*
X299177Y137745D01*
Y138005D01*
D02*
G37*
G36*
X295477D02*
X292177D01*
Y137745D01*
X292416Y136855D01*
X292877Y136056D01*
X293528Y135405D01*
X294326Y134944D01*
X295216Y134705D01*
X295477D01*
Y138005D01*
D02*
G37*
G36*
X19286Y135983D02*
X18200D01*
Y134700D01*
X19286D01*
Y135983D01*
D02*
G37*
G36*
X17800D02*
X16714D01*
Y134700D01*
X17800D01*
Y135983D01*
D02*
G37*
G36*
X19286Y134300D02*
X18200D01*
Y133017D01*
X19286D01*
Y134300D01*
D02*
G37*
G36*
X17800D02*
X16714D01*
Y133017D01*
X17800D01*
Y134300D01*
D02*
G37*
G36*
X167948Y133900D02*
X167052D01*
X166188Y133668D01*
X165412Y133221D01*
X164779Y132588D01*
X164332Y131812D01*
X164185Y131265D01*
X156951D01*
Y132179D01*
X153986D01*
Y128821D01*
X156951D01*
Y129735D01*
X164185D01*
X164332Y129188D01*
X164779Y128412D01*
X165412Y127779D01*
X166188Y127332D01*
X167052Y127100D01*
X167948D01*
X168812Y127332D01*
X169588Y127779D01*
X170221Y128412D01*
X170668Y129188D01*
X170900Y130052D01*
Y130948D01*
X170668Y131812D01*
X170221Y132588D01*
X169588Y133221D01*
X168812Y133668D01*
X167948Y133900D01*
D02*
G37*
G36*
X212000Y144538D02*
X201500D01*
X201194Y144412D01*
X201067Y144106D01*
Y130961D01*
X201018Y130513D01*
X200581Y130483D01*
X199543D01*
X197954Y132072D01*
X198004Y132572D01*
X198975D01*
Y136522D01*
X195025D01*
Y132572D01*
X196082D01*
Y131728D01*
X196152Y131377D01*
X196351Y131079D01*
X198442Y128988D01*
Y127517D01*
X200581D01*
X201018Y127487D01*
X201067Y127039D01*
Y126605D01*
X201194Y126299D01*
X201500Y126173D01*
X201730D01*
Y125596D01*
X199049Y122915D01*
X198740Y122452D01*
X198631Y121906D01*
X198631Y121906D01*
Y119033D01*
X198584Y119002D01*
X198344Y118641D01*
X198259Y118217D01*
Y116051D01*
X198344Y115626D01*
X198584Y115266D01*
X198944Y115025D01*
X199369Y114941D01*
X200747D01*
X201172Y115025D01*
X201532Y115266D01*
X201773Y115626D01*
X201857Y116051D01*
Y118217D01*
X201773Y118641D01*
X201532Y119002D01*
X201486Y119033D01*
Y121314D01*
X204167Y123995D01*
X204167Y123995D01*
X204476Y124459D01*
X204585Y125005D01*
Y126173D01*
X212500D01*
X212806Y126299D01*
X212933Y126605D01*
Y127116D01*
X213817D01*
Y129884D01*
X212933D01*
Y143605D01*
X212806Y143912D01*
X212306Y144412D01*
X212000Y144538D01*
D02*
G37*
G36*
X290500Y144038D02*
X280000D01*
X279694Y143912D01*
X279567Y143605D01*
Y129961D01*
X279518Y129513D01*
X279081Y129483D01*
X278733D01*
X276990Y131225D01*
Y132572D01*
X277538D01*
Y136522D01*
X273588D01*
Y132572D01*
X274136D01*
Y130634D01*
X274135Y130634D01*
X274244Y130088D01*
X274554Y129624D01*
X276942Y127236D01*
Y126517D01*
X279514D01*
Y127404D01*
X279547Y127454D01*
X279656Y128000D01*
X279547Y128546D01*
X279780Y128973D01*
X279875Y129029D01*
X280203Y128942D01*
X280453Y128546D01*
X280344Y128000D01*
Y122832D01*
X278839Y121327D01*
X278369D01*
X277944Y121242D01*
X277584Y121002D01*
X277344Y120641D01*
X277259Y120217D01*
Y118051D01*
X277344Y117626D01*
X277584Y117266D01*
X277944Y117025D01*
X278369Y116941D01*
X279747D01*
X280172Y117025D01*
X280532Y117266D01*
X280773Y117626D01*
X280857Y118051D01*
Y119308D01*
X282781Y121232D01*
X282781Y121232D01*
X283090Y121695D01*
X283199Y122241D01*
X283199Y122241D01*
Y125211D01*
X283270Y125673D01*
X291000D01*
X291306Y125799D01*
X291433Y126105D01*
Y126616D01*
X292317D01*
Y129384D01*
X291433D01*
Y143105D01*
X291306Y143412D01*
X290806Y143912D01*
X290500Y144038D01*
D02*
G37*
G36*
X146276Y132386D02*
X145724D01*
X145215Y132175D01*
X144825Y131785D01*
X144614Y131276D01*
Y130724D01*
X144825Y130215D01*
X145215Y129825D01*
X145724Y129614D01*
X146276D01*
X146364Y129651D01*
X146709Y129582D01*
X150049D01*
Y128821D01*
X153014D01*
Y132179D01*
X150049D01*
Y131418D01*
X147327D01*
X147175Y131785D01*
X146785Y132175D01*
X146276Y132386D01*
D02*
G37*
G36*
X222676Y129884D02*
X220901D01*
Y128700D01*
X222676D01*
Y129884D01*
D02*
G37*
G36*
X220501D02*
X218726D01*
Y128700D01*
X220501D01*
Y129884D01*
D02*
G37*
G36*
X301176Y129384D02*
X299401D01*
Y128200D01*
X301176D01*
Y129384D01*
D02*
G37*
G36*
X260676D02*
X258901D01*
Y128200D01*
X260676D01*
Y129384D01*
D02*
G37*
G36*
X299001D02*
X297226D01*
Y128200D01*
X299001D01*
Y129384D01*
D02*
G37*
G36*
X258501D02*
X256726D01*
Y128200D01*
X258501D01*
Y129384D01*
D02*
G37*
G36*
X318038Y136522D02*
X314088D01*
Y132572D01*
X314636D01*
Y129385D01*
X314635Y129385D01*
X314744Y128839D01*
X315054Y128376D01*
X315194Y128236D01*
Y127517D01*
X317765D01*
Y128404D01*
X317798Y128454D01*
X317907Y129000D01*
X317798Y129546D01*
X317765Y129596D01*
Y130483D01*
X317490D01*
Y132572D01*
X318038D01*
Y136522D01*
D02*
G37*
G36*
X12483Y137514D02*
X9517D01*
Y134942D01*
X10082D01*
Y131380D01*
X9025D01*
Y127431D01*
X12975D01*
Y131380D01*
X11918D01*
Y134942D01*
X12483D01*
Y137514D01*
D02*
G37*
G36*
X341176Y128384D02*
X339401D01*
Y127200D01*
X341176D01*
Y128384D01*
D02*
G37*
G36*
X339001D02*
X337226D01*
Y127200D01*
X339001D01*
Y128384D01*
D02*
G37*
G36*
X222676Y128300D02*
X220901D01*
Y127116D01*
X222676D01*
Y128300D01*
D02*
G37*
G36*
X220501D02*
X218726D01*
Y127116D01*
X220501D01*
Y128300D01*
D02*
G37*
G36*
X77948Y133900D02*
X77052D01*
X76188Y133668D01*
X75412Y133221D01*
X74779Y132588D01*
X74332Y131812D01*
X74100Y130948D01*
Y130052D01*
X74332Y129188D01*
X74779Y128412D01*
X75412Y127779D01*
X76188Y127332D01*
X77052Y127100D01*
X77948D01*
X78812Y127332D01*
X79588Y127779D01*
X80221Y128412D01*
X80668Y129188D01*
X80900Y130052D01*
Y130948D01*
X80668Y131812D01*
X80221Y132588D01*
X79588Y133221D01*
X78812Y133668D01*
X77948Y133900D01*
D02*
G37*
G36*
X301176Y127800D02*
X299401D01*
Y126616D01*
X301176D01*
Y127800D01*
D02*
G37*
G36*
X299001D02*
X297226D01*
Y126616D01*
X299001D01*
Y127800D01*
D02*
G37*
G36*
X260676D02*
X258901D01*
Y126616D01*
X260676D01*
Y127800D01*
D02*
G37*
G36*
X258501D02*
X256726D01*
Y126616D01*
X258501D01*
Y127800D01*
D02*
G37*
G36*
X250000Y144538D02*
X238000D01*
X237694Y144412D01*
X237567Y144106D01*
Y142889D01*
X237475Y142428D01*
X237067Y142428D01*
X235700D01*
Y140453D01*
Y138478D01*
X237475Y138478D01*
X237567Y138016D01*
Y136984D01*
X237475Y136522D01*
X237067Y136522D01*
X233525D01*
Y132572D01*
X234073D01*
Y128448D01*
X234073Y128448D01*
X234181Y127902D01*
X234491Y127439D01*
X234694Y127236D01*
Y126517D01*
X237265D01*
Y127404D01*
X237298Y127454D01*
X237407Y128000D01*
X237298Y128546D01*
X237265Y128596D01*
Y129131D01*
X237277Y129195D01*
X237751Y129386D01*
X237809Y129356D01*
X237864Y129263D01*
X237909Y129229D01*
X237931Y129176D01*
X238037Y129132D01*
X238129Y129063D01*
X238221Y128571D01*
X238204Y128546D01*
X238095Y128000D01*
Y120827D01*
X237869D01*
X237444Y120742D01*
X237084Y120502D01*
X236843Y120141D01*
X236759Y119717D01*
Y117551D01*
X236843Y117126D01*
X237084Y116766D01*
X237444Y116525D01*
X237869Y116441D01*
X239247D01*
X239672Y116525D01*
X240032Y116766D01*
X240273Y117126D01*
X240357Y117551D01*
Y118808D01*
X240532Y118983D01*
X240532Y118983D01*
X240842Y119446D01*
X240950Y119992D01*
X240950Y119992D01*
Y126173D01*
X247372D01*
X247376Y126174D01*
X247381Y126173D01*
X247877Y126183D01*
X248025Y126248D01*
X248174Y126310D01*
X248176Y126314D01*
X248180Y126316D01*
X248239Y126467D01*
X248301Y126616D01*
X251817D01*
Y129384D01*
X250933D01*
Y143605D01*
X250806Y143912D01*
X250306Y144412D01*
X250000Y144538D01*
D02*
G37*
G36*
X341176Y126800D02*
X339401D01*
Y125616D01*
X341176D01*
Y126800D01*
D02*
G37*
G36*
X339001D02*
X337226D01*
Y125616D01*
X339001D01*
Y126800D01*
D02*
G37*
G36*
X338321Y166806D02*
X335159D01*
Y161281D01*
X337497D01*
X337571Y161266D01*
X339727D01*
X341517Y159476D01*
Y157986D01*
X343401D01*
X343911Y157476D01*
X343720Y157014D01*
X341517D01*
Y154443D01*
X342435D01*
Y153895D01*
X342325Y153785D01*
X342114Y153276D01*
Y152724D01*
X342325Y152215D01*
X342715Y151825D01*
X343224Y151614D01*
X343776D01*
X344285Y151825D01*
X344675Y152215D01*
X344886Y152724D01*
Y153276D01*
X344675Y153785D01*
X344507Y153953D01*
X344483Y154443D01*
X344483Y154443D01*
Y156251D01*
X344945Y156442D01*
X346235Y155152D01*
Y140000D01*
X346293Y139707D01*
X346459Y139459D01*
X359243Y126676D01*
X359491Y126510D01*
X359784Y126452D01*
X359784Y126452D01*
X365443D01*
X365589Y126234D01*
X365624Y126211D01*
X365656Y125714D01*
X365276Y125316D01*
X362144D01*
X361785Y125675D01*
X361276Y125886D01*
X360724D01*
X360215Y125675D01*
X359825Y125285D01*
X359614Y124776D01*
Y124224D01*
X359825Y123715D01*
X359963Y123577D01*
X360168Y123250D01*
X359963Y122923D01*
X359825Y122785D01*
X359614Y122276D01*
Y121724D01*
X359825Y121215D01*
X360176Y120864D01*
X359825Y120513D01*
X359614Y120004D01*
Y119453D01*
X359825Y118943D01*
X360215Y118553D01*
X360724Y118342D01*
X361276D01*
X361785Y118553D01*
X361798Y118567D01*
X365440D01*
X365565Y118100D01*
X365562Y118055D01*
X365240Y117727D01*
X361688D01*
X361500Y117765D01*
X361207Y117707D01*
X360959Y117541D01*
X360959Y117541D01*
X357227Y113808D01*
X344483D01*
Y114329D01*
X342599D01*
X340206Y116722D01*
X339958Y116888D01*
X339665Y116946D01*
X338321D01*
Y120806D01*
X335159D01*
Y115281D01*
X338321D01*
Y115416D01*
X339349D01*
X341517Y113248D01*
Y111758D01*
X344483D01*
Y112279D01*
X357543D01*
X357836Y112337D01*
X358084Y112503D01*
X361779Y116198D01*
X365455D01*
X365589Y115998D01*
X365434Y115522D01*
X365192Y115284D01*
X364075D01*
X363724Y115214D01*
X363426Y115015D01*
X362786Y114375D01*
X362649Y114348D01*
X362351Y114149D01*
X362152Y113851D01*
X362082Y113500D01*
X362152Y113149D01*
X362351Y112851D01*
X362649Y112652D01*
X363000Y112582D01*
X363209D01*
X363560Y112652D01*
X363858Y112851D01*
X364455Y113449D01*
X365582D01*
X365589Y113439D01*
X366014Y113155D01*
X366516Y113055D01*
X368186D01*
Y114366D01*
X368386D01*
Y114566D01*
X371527D01*
X371467Y114868D01*
X371183Y115293D01*
X371105Y115345D01*
Y115946D01*
X371183Y115998D01*
X371467Y116423D01*
X371567Y116925D01*
X371467Y117427D01*
X371183Y117852D01*
X371105Y117904D01*
Y118505D01*
X371183Y118557D01*
X371467Y118983D01*
X371567Y119484D01*
X371467Y119986D01*
X371183Y120411D01*
X371105Y120463D01*
Y121064D01*
X371183Y121116D01*
X371467Y121542D01*
X371567Y122043D01*
X371467Y122545D01*
X371183Y122970D01*
X371105Y123022D01*
Y123624D01*
X371183Y123675D01*
X371467Y124101D01*
X371567Y124602D01*
X371467Y125104D01*
X371183Y125529D01*
X371105Y125581D01*
Y126183D01*
X371183Y126234D01*
X371467Y126660D01*
X371567Y127161D01*
X371467Y127663D01*
X371183Y128088D01*
X371105Y128140D01*
Y128742D01*
X371183Y128794D01*
X371467Y129219D01*
X371567Y129720D01*
X371467Y130222D01*
X371183Y130648D01*
X371105Y130699D01*
Y131301D01*
X371183Y131352D01*
X371467Y131778D01*
X371567Y132280D01*
X371467Y132781D01*
X371183Y133206D01*
X371105Y133258D01*
Y133860D01*
X371183Y133912D01*
X371467Y134337D01*
X371567Y134839D01*
X371467Y135340D01*
X371183Y135766D01*
X371105Y135817D01*
Y136419D01*
X371183Y136471D01*
X371467Y136896D01*
X371567Y137398D01*
X371467Y137899D01*
X371183Y138325D01*
X371105Y138376D01*
Y138978D01*
X371183Y139030D01*
X371467Y139455D01*
X371567Y139957D01*
X371467Y140458D01*
X371183Y140884D01*
X371105Y140936D01*
Y141537D01*
X371183Y141589D01*
X371467Y142014D01*
X371567Y142516D01*
X371467Y143017D01*
X371183Y143443D01*
X371105Y143495D01*
Y144096D01*
X371183Y144148D01*
X371467Y144573D01*
X371567Y145075D01*
X371467Y145577D01*
X371183Y146002D01*
X371105Y146054D01*
Y146655D01*
X371183Y146707D01*
X371467Y147132D01*
X371567Y147634D01*
X371467Y148136D01*
X371183Y148561D01*
X370758Y148845D01*
X370256Y148945D01*
X366516D01*
X366014Y148845D01*
X365589Y148561D01*
X365582Y148551D01*
X362772D01*
X362675Y148785D01*
X362285Y149175D01*
X361776Y149386D01*
X361224D01*
X360715Y149175D01*
X360325Y148785D01*
X360114Y148276D01*
Y147724D01*
X360325Y147215D01*
X360715Y146825D01*
X360847Y146771D01*
Y146229D01*
X360715Y146175D01*
X360325Y145785D01*
X360114Y145276D01*
Y144724D01*
X360325Y144215D01*
X360464Y144077D01*
X360668Y143750D01*
X360464Y143423D01*
X360325Y143285D01*
X360114Y142776D01*
Y142224D01*
X360325Y141715D01*
X360464Y141577D01*
X360668Y141250D01*
X360464Y140923D01*
X360325Y140785D01*
X360114Y140276D01*
Y139724D01*
X360325Y139215D01*
X360464Y139077D01*
X360668Y138750D01*
X360464Y138423D01*
X360325Y138285D01*
X360114Y137776D01*
Y137224D01*
X360325Y136715D01*
X360464Y136577D01*
X360668Y136250D01*
X360464Y135923D01*
X360325Y135785D01*
X360114Y135276D01*
Y134724D01*
X360325Y134215D01*
X360464Y134077D01*
X360668Y133750D01*
X360464Y133423D01*
X360325Y133285D01*
X360114Y132776D01*
Y132224D01*
X360325Y131715D01*
X360464Y131577D01*
X360668Y131250D01*
X360464Y130923D01*
X360325Y130785D01*
X360114Y130276D01*
Y129724D01*
X360325Y129215D01*
X360715Y128825D01*
X361224Y128614D01*
X361776D01*
X362285Y128825D01*
X362416Y128956D01*
X362525D01*
X362649Y128873D01*
X363000Y128803D01*
X365386D01*
X365545Y128319D01*
X365543Y128295D01*
X365232Y127981D01*
X360100D01*
X347765Y140317D01*
Y155500D01*
X347707Y155793D01*
X347541Y156041D01*
X347446Y156104D01*
X344483Y159067D01*
Y160557D01*
X342599D01*
X340584Y162572D01*
X340336Y162738D01*
X340044Y162796D01*
X338321D01*
Y166806D01*
D02*
G37*
G36*
X12975Y125475D02*
X11200D01*
Y123700D01*
X12975D01*
Y125475D01*
D02*
G37*
G36*
X10800D02*
X9025D01*
Y123700D01*
X10800D01*
Y125475D01*
D02*
G37*
G36*
X12975Y123300D02*
X11000D01*
X9025D01*
Y121525D01*
X10082D01*
Y120880D01*
X9351Y120149D01*
X9152Y119851D01*
X9082Y119500D01*
X9152Y119149D01*
X9351Y118851D01*
X9649Y118652D01*
X10000Y118582D01*
X10351Y118652D01*
X10649Y118851D01*
X11649Y119851D01*
X11848Y120149D01*
X11918Y120500D01*
Y121525D01*
X12975D01*
Y123300D01*
D02*
G37*
G36*
X330841Y120806D02*
X329460D01*
Y118243D01*
X330841D01*
Y120806D01*
D02*
G37*
G36*
X329060D02*
X327679D01*
Y118243D01*
X329060D01*
Y120806D01*
D02*
G37*
G36*
X290841D02*
X289460D01*
Y118243D01*
X290841D01*
Y120806D01*
D02*
G37*
G36*
X289060D02*
X287679D01*
Y118243D01*
X289060D01*
Y120806D01*
D02*
G37*
G36*
X250341Y120306D02*
X248960D01*
Y117743D01*
X250341D01*
Y120306D01*
D02*
G37*
G36*
X248560D02*
X247179D01*
Y117743D01*
X248560D01*
Y120306D01*
D02*
G37*
G36*
X167948Y123900D02*
X167052D01*
X166188Y123668D01*
X165412Y123221D01*
X164779Y122588D01*
X164332Y121812D01*
X164100Y120948D01*
Y120052D01*
X164332Y119188D01*
X164779Y118412D01*
X165412Y117779D01*
X166188Y117332D01*
X167052Y117100D01*
X167948D01*
X168812Y117332D01*
X169588Y117779D01*
X170221Y118412D01*
X170668Y119188D01*
X170900Y120052D01*
Y120948D01*
X170668Y121812D01*
X170221Y122588D01*
X169588Y123221D01*
X168812Y123668D01*
X167948Y123900D01*
D02*
G37*
G36*
X77948D02*
X77052D01*
X76188Y123668D01*
X75412Y123221D01*
X74779Y122588D01*
X74332Y121812D01*
X74100Y120948D01*
Y120052D01*
X74332Y119188D01*
X74779Y118412D01*
X75412Y117779D01*
X76188Y117332D01*
X77052Y117100D01*
X77948D01*
X78812Y117332D01*
X79588Y117779D01*
X80221Y118412D01*
X80668Y119188D01*
X80900Y120052D01*
Y120948D01*
X80668Y121812D01*
X80221Y122588D01*
X79588Y123221D01*
X78812Y123668D01*
X77948Y123900D01*
D02*
G37*
G36*
X212341Y119262D02*
X210960D01*
Y116700D01*
X212341D01*
Y119262D01*
D02*
G37*
G36*
X210560D02*
X209179D01*
Y116700D01*
X210560D01*
Y119262D01*
D02*
G37*
G36*
X330300Y143839D02*
X319000D01*
X318694Y143712D01*
X318567Y143405D01*
Y130483D01*
X318694Y130176D01*
X318737Y130159D01*
Y129612D01*
X318671Y129513D01*
X318562Y128966D01*
X318562Y128966D01*
Y125509D01*
X317549Y124496D01*
X317239Y124032D01*
X317131Y123486D01*
X317131Y123486D01*
Y120533D01*
X317084Y120502D01*
X316844Y120141D01*
X316759Y119717D01*
Y117551D01*
X316844Y117126D01*
X317084Y116766D01*
X317444Y116525D01*
X317869Y116441D01*
X319247D01*
X319672Y116525D01*
X320032Y116766D01*
X320273Y117126D01*
X320357Y117551D01*
Y119717D01*
X320273Y120141D01*
X320032Y120502D01*
X319986Y120533D01*
Y122895D01*
X320999Y123908D01*
X320999Y123908D01*
X321308Y124371D01*
X321417Y124917D01*
Y125473D01*
X328368D01*
X328674Y125599D01*
X328681Y125616D01*
X332317D01*
Y128384D01*
X331233D01*
Y142905D01*
X331106Y143212D01*
X330606Y143712D01*
X330300Y143839D01*
D02*
G37*
G36*
X21136Y116461D02*
X19082D01*
Y115451D01*
X19965D01*
X20428Y115543D01*
X20821Y115805D01*
X21083Y116198D01*
X21136Y116461D01*
D02*
G37*
G36*
X330841Y117843D02*
X329460D01*
Y115281D01*
X330841D01*
Y117843D01*
D02*
G37*
G36*
X329060D02*
X327679D01*
Y115281D01*
X329060D01*
Y117843D01*
D02*
G37*
G36*
X290841D02*
X289460D01*
Y115281D01*
X290841D01*
Y117843D01*
D02*
G37*
G36*
X289060D02*
X287679D01*
Y115281D01*
X289060D01*
Y117843D01*
D02*
G37*
G36*
X250341Y117343D02*
X248960D01*
Y114781D01*
X250341D01*
Y117343D01*
D02*
G37*
G36*
X248560D02*
X247179D01*
Y114781D01*
X248560D01*
Y117343D01*
D02*
G37*
G36*
X212341Y116300D02*
X210960D01*
Y113738D01*
X212341D01*
Y116300D01*
D02*
G37*
G36*
X210560D02*
X209179D01*
Y113738D01*
X210560D01*
Y116300D01*
D02*
G37*
G36*
X371527Y114166D02*
X368586D01*
Y113055D01*
X370256D01*
X370758Y113155D01*
X371183Y113439D01*
X371467Y113864D01*
X371527Y114166D01*
D02*
G37*
G36*
X257821Y120306D02*
X254659D01*
Y114781D01*
X257821D01*
Y116779D01*
X258943D01*
X263017Y112704D01*
Y111214D01*
X265983D01*
Y111735D01*
X266633D01*
X266925Y111793D01*
X267173Y111959D01*
X268217Y113003D01*
X268224Y113000D01*
X268776D01*
X269285Y113211D01*
X269675Y113601D01*
X269886Y114110D01*
Y114662D01*
X269675Y115171D01*
X269285Y115561D01*
X268776Y115772D01*
X268224D01*
X267715Y115561D01*
X267325Y115171D01*
X267114Y114662D01*
Y114110D01*
X267128Y114077D01*
X266483Y113431D01*
X265983Y113638D01*
Y113786D01*
X264099D01*
X259801Y118084D01*
X259553Y118250D01*
X259260Y118308D01*
X257821D01*
Y120306D01*
D02*
G37*
G36*
X298321Y120806D02*
X295159D01*
Y115281D01*
X298321D01*
Y117126D01*
X298848D01*
X302017Y113957D01*
Y112486D01*
X304983D01*
Y112968D01*
X306572D01*
X306715Y112825D01*
X307224Y112614D01*
X307776D01*
X308285Y112825D01*
X308675Y113215D01*
X308886Y113724D01*
Y114276D01*
X308675Y114785D01*
X308285Y115175D01*
X307776Y115386D01*
X307224D01*
X306715Y115175D01*
X306344Y114804D01*
X304983D01*
Y115058D01*
X303512D01*
X299877Y118692D01*
X299580Y118891D01*
X299228Y118961D01*
X298321D01*
Y120806D01*
D02*
G37*
G36*
X219821Y119262D02*
X216659D01*
Y113738D01*
X218997D01*
X219071Y113723D01*
X220270D01*
X221517Y112476D01*
Y110986D01*
X224483D01*
Y111507D01*
X225133D01*
X225425Y111565D01*
X225673Y111731D01*
X226836Y112893D01*
X226957Y113075D01*
X227285Y113211D01*
X227675Y113601D01*
X227886Y114110D01*
Y114662D01*
X227675Y115171D01*
X227285Y115561D01*
X226776Y115772D01*
X226224D01*
X225715Y115561D01*
X225325Y115171D01*
X225114Y114662D01*
Y114110D01*
X225325Y113601D01*
X225353Y113573D01*
X224983Y113203D01*
X224483Y113410D01*
Y113558D01*
X222599D01*
X221128Y115029D01*
X220880Y115194D01*
X220587Y115252D01*
X219821D01*
Y119262D01*
D02*
G37*
G36*
X22725Y113424D02*
X21502D01*
Y112918D01*
X20500D01*
X20149Y112848D01*
X19851Y112649D01*
X19652Y112351D01*
X19582Y112000D01*
X19652Y111649D01*
X19851Y111351D01*
X20149Y111152D01*
X20500Y111082D01*
X21502D01*
Y110576D01*
X22725D01*
Y112000D01*
Y113424D01*
D02*
G37*
G36*
X334581Y113719D02*
X331419D01*
Y108194D01*
X333757D01*
X333831Y108180D01*
X335325D01*
X337061Y106445D01*
X336869Y105983D01*
X335061D01*
Y104099D01*
X334394Y103432D01*
X321910D01*
X321804Y103932D01*
X321819Y103954D01*
X321927Y104500D01*
Y107832D01*
X322269Y108173D01*
X322987D01*
X323412Y108258D01*
X323773Y108498D01*
X324013Y108859D01*
X324029Y108939D01*
X325068D01*
X325168Y108872D01*
X325215Y108825D01*
X325276Y108800D01*
X325454Y108681D01*
X325663Y108640D01*
X325724Y108614D01*
X325791D01*
X326000Y108573D01*
X326209Y108614D01*
X326276D01*
X326337Y108640D01*
X326546Y108681D01*
X326724Y108800D01*
X326785Y108825D01*
X326832Y108872D01*
X327009Y108991D01*
X327128Y109168D01*
X327175Y109215D01*
X327200Y109276D01*
X327319Y109454D01*
X327360Y109663D01*
X327386Y109724D01*
Y109791D01*
X327427Y110000D01*
X327386Y110209D01*
Y110276D01*
X327360Y110337D01*
X327319Y110546D01*
X327200Y110724D01*
X327175Y110785D01*
X327128Y110832D01*
X327009Y111009D01*
X326643Y111375D01*
X326180Y111685D01*
X325634Y111794D01*
X325634Y111794D01*
X324029D01*
X324013Y111874D01*
X323773Y112234D01*
X323412Y112475D01*
X322987Y112559D01*
X321609D01*
X321185Y112475D01*
X320824Y112234D01*
X320584Y111874D01*
X320499Y111449D01*
Y110441D01*
X319491Y109432D01*
X319181Y108969D01*
X319073Y108423D01*
X319073Y108423D01*
Y104500D01*
X319181Y103954D01*
X318780Y103654D01*
X318714Y103627D01*
X318243Y104099D01*
Y105983D01*
X316752D01*
X315583Y107152D01*
Y108188D01*
X315932Y108258D01*
X316292Y108498D01*
X316533Y108859D01*
X316617Y109283D01*
Y111449D01*
X316533Y111874D01*
X316292Y112234D01*
X315932Y112475D01*
X315507Y112559D01*
X314129D01*
X313704Y112475D01*
X313344Y112234D01*
X313103Y111874D01*
X313019Y111449D01*
Y109283D01*
X313103Y108859D01*
X313344Y108498D01*
X313704Y108258D01*
X314053Y108188D01*
Y106835D01*
X314112Y106543D01*
X314277Y106295D01*
X315671Y104901D01*
Y103017D01*
X317161D01*
X318052Y102127D01*
X318300Y101961D01*
X318593Y101903D01*
X334711D01*
X335003Y101961D01*
X335251Y102127D01*
X336142Y103017D01*
X337632D01*
Y105220D01*
X338094Y105411D01*
X338604Y104901D01*
Y103017D01*
X341176D01*
Y105983D01*
X339685D01*
X336183Y109485D01*
X335935Y109651D01*
X335642Y109709D01*
X334581D01*
Y113719D01*
D02*
G37*
G36*
X77948Y113900D02*
X77052D01*
X76188Y113668D01*
X75412Y113221D01*
X74779Y112588D01*
X74332Y111812D01*
X74100Y110948D01*
Y110052D01*
X74332Y109188D01*
X74779Y108412D01*
X75412Y107779D01*
X76188Y107332D01*
X77052Y107100D01*
X77948D01*
X78812Y107332D01*
X79588Y107779D01*
X80221Y108412D01*
X80668Y109188D01*
X80900Y110052D01*
Y110948D01*
X80668Y111812D01*
X80221Y112588D01*
X79588Y113221D01*
X78812Y113668D01*
X77948Y113900D01*
D02*
G37*
G36*
X344483Y110786D02*
X341517D01*
Y108214D01*
X344483D01*
Y108214D01*
X344983Y108220D01*
X345614Y107588D01*
Y107224D01*
X345825Y106715D01*
X346215Y106325D01*
X346724Y106114D01*
X347276D01*
X347785Y106325D01*
X348175Y106715D01*
X348386Y107224D01*
Y107776D01*
X348175Y108285D01*
X347785Y108675D01*
X347276Y108886D01*
X346912D01*
X345649Y110149D01*
X345351Y110348D01*
X345000Y110418D01*
X344483D01*
Y110786D01*
D02*
G37*
G36*
X59920Y108057D02*
X57850D01*
Y105200D01*
X59920D01*
Y108057D01*
D02*
G37*
G36*
X304983Y111514D02*
X302017D01*
Y108942D01*
X302582D01*
Y107156D01*
X302325Y106899D01*
X302114Y106390D01*
Y105839D01*
X302325Y105329D01*
X302715Y104939D01*
X303224Y104728D01*
X303776D01*
X304285Y104939D01*
X304675Y105329D01*
X304886Y105839D01*
Y106390D01*
X304675Y106899D01*
X304418Y107156D01*
Y108942D01*
X304983D01*
Y111514D01*
D02*
G37*
G36*
X390776Y106386D02*
X390224D01*
X389715Y106175D01*
X389325Y105785D01*
X389114Y105276D01*
Y104724D01*
X389159Y104616D01*
X389049Y104116D01*
X389049D01*
X389049Y104116D01*
Y101544D01*
X392014D01*
Y104116D01*
X392014D01*
X391841Y104616D01*
X391886Y104724D01*
Y105276D01*
X391675Y105785D01*
X391285Y106175D01*
X390776Y106386D01*
D02*
G37*
G36*
X366276D02*
X365724D01*
X365215Y106175D01*
X364825Y105785D01*
X364614Y105276D01*
Y104724D01*
X364659Y104616D01*
X364549Y104116D01*
X364549D01*
X364549Y104116D01*
Y101544D01*
X367514D01*
Y104116D01*
X367514D01*
X367341Y104616D01*
X367386Y104724D01*
Y105276D01*
X367175Y105785D01*
X366785Y106175D01*
X366276Y106386D01*
D02*
G37*
G36*
X265983Y110242D02*
X263017D01*
Y107671D01*
X263582D01*
Y106209D01*
X263651Y105864D01*
X263614Y105776D01*
Y105224D01*
X263825Y104715D01*
X264215Y104325D01*
X264724Y104114D01*
X265276D01*
X265785Y104325D01*
X266175Y104715D01*
X266386Y105224D01*
Y105776D01*
X266175Y106285D01*
X265785Y106675D01*
X265418Y106827D01*
Y107671D01*
X265983D01*
Y110242D01*
D02*
G37*
G36*
X400776Y105886D02*
X400224D01*
X399715Y105675D01*
X399325Y105285D01*
X399114Y104776D01*
Y104412D01*
X398514Y103812D01*
X398014Y103902D01*
Y104116D01*
X395049D01*
Y101544D01*
X398014D01*
Y101912D01*
X398830D01*
X399181Y101982D01*
X399479Y102181D01*
X400412Y103114D01*
X400776D01*
X401285Y103325D01*
X401675Y103715D01*
X401886Y104224D01*
Y104776D01*
X401675Y105285D01*
X401285Y105675D01*
X400776Y105886D01*
D02*
G37*
G36*
X283487Y113059D02*
X282109D01*
X281685Y112975D01*
X281324Y112734D01*
X281084Y112374D01*
X280999Y111949D01*
Y110829D01*
X279762Y109592D01*
X279453Y109129D01*
X279344Y108583D01*
X279344Y108583D01*
Y104500D01*
X279453Y103954D01*
X279052Y103654D01*
X278986Y103627D01*
X278514Y104099D01*
Y105983D01*
X277024D01*
X276083Y106924D01*
Y108688D01*
X276432Y108758D01*
X276792Y108998D01*
X277033Y109359D01*
X277117Y109783D01*
Y111949D01*
X277033Y112374D01*
X276792Y112734D01*
X276432Y112975D01*
X276007Y113059D01*
X274629D01*
X274204Y112975D01*
X273844Y112734D01*
X273603Y112374D01*
X273519Y111949D01*
Y109783D01*
X273603Y109359D01*
X273844Y108998D01*
X274204Y108758D01*
X274553Y108688D01*
Y106607D01*
X274612Y106314D01*
X274777Y106066D01*
X275942Y104901D01*
Y103017D01*
X277433D01*
X278324Y102127D01*
X278572Y101961D01*
X278864Y101903D01*
X282612D01*
X282905Y101961D01*
X283153Y102127D01*
X284761Y103735D01*
X287442D01*
Y103017D01*
X290014D01*
Y105983D01*
X287442D01*
Y105265D01*
X284445D01*
X284152Y105207D01*
X283904Y105041D01*
X282558Y103694D01*
X282513Y103712D01*
X282090Y103954D01*
X282199Y104500D01*
Y107991D01*
X282881Y108673D01*
X283487D01*
X283912Y108758D01*
X284273Y108998D01*
X284513Y109359D01*
X284556Y109573D01*
X286000D01*
X286209Y109614D01*
X286276D01*
X286337Y109640D01*
X286546Y109681D01*
X286724Y109800D01*
X286785Y109825D01*
X286832Y109872D01*
X287009Y109991D01*
X287128Y110168D01*
X287175Y110215D01*
X287200Y110276D01*
X287319Y110454D01*
X287360Y110663D01*
X287386Y110724D01*
Y110791D01*
X287427Y111000D01*
X287386Y111209D01*
Y111276D01*
X287360Y111337D01*
X287319Y111546D01*
X287200Y111724D01*
X287175Y111785D01*
X287128Y111832D01*
X287009Y112009D01*
X286832Y112128D01*
X286785Y112175D01*
X286724Y112200D01*
X286546Y112319D01*
X286337Y112360D01*
X286276Y112386D01*
X286209D01*
X286000Y112427D01*
X284477D01*
X284273Y112734D01*
X283912Y112975D01*
X283487Y113059D01*
D02*
G37*
G36*
X294581Y113719D02*
X291419D01*
Y108194D01*
X291507D01*
Y105983D01*
X290986D01*
Y103017D01*
X293558D01*
Y105983D01*
X293036D01*
Y108194D01*
X294581D01*
Y113719D01*
D02*
G37*
G36*
X254081Y113219D02*
X250919D01*
Y107694D01*
X253257D01*
X253331Y107680D01*
X254825D01*
X256561Y105945D01*
X256369Y105483D01*
X254561D01*
Y104765D01*
X247640D01*
X247347Y104707D01*
X247099Y104541D01*
X245490Y102932D01*
X242343D01*
X242076Y103432D01*
X242090Y103454D01*
X242199Y104000D01*
Y107854D01*
X242518Y108173D01*
X242987D01*
X243412Y108258D01*
X243773Y108498D01*
X244013Y108859D01*
X244056Y109073D01*
X245000D01*
X245209Y109114D01*
X245276D01*
X245337Y109140D01*
X245546Y109181D01*
X245724Y109300D01*
X245785Y109325D01*
X245832Y109372D01*
X246009Y109491D01*
X246128Y109668D01*
X246175Y109715D01*
X246200Y109776D01*
X246319Y109954D01*
X246360Y110163D01*
X246386Y110224D01*
Y110291D01*
X246427Y110500D01*
X246386Y110709D01*
Y110776D01*
X246360Y110837D01*
X246319Y111046D01*
X246200Y111224D01*
X246175Y111285D01*
X246128Y111332D01*
X246009Y111509D01*
X245832Y111628D01*
X245785Y111675D01*
X245724Y111700D01*
X245546Y111819D01*
X245337Y111860D01*
X245276Y111886D01*
X245209D01*
X245000Y111927D01*
X243977D01*
X243773Y112234D01*
X243412Y112475D01*
X242987Y112559D01*
X241610D01*
X241185Y112475D01*
X240824Y112234D01*
X240584Y111874D01*
X240499Y111449D01*
Y110192D01*
X239762Y109455D01*
X239453Y108992D01*
X239344Y108446D01*
X239344Y108446D01*
Y105483D01*
X238757D01*
Y103334D01*
X238258Y103127D01*
X237786Y103599D01*
Y105483D01*
X236296D01*
X235583Y106195D01*
Y108188D01*
X235932Y108258D01*
X236292Y108498D01*
X236533Y108859D01*
X236617Y109283D01*
Y111449D01*
X236533Y111874D01*
X236292Y112234D01*
X235932Y112475D01*
X235507Y112559D01*
X234129D01*
X233704Y112475D01*
X233344Y112234D01*
X233103Y111874D01*
X233019Y111449D01*
Y109283D01*
X233103Y108859D01*
X233344Y108498D01*
X233704Y108258D01*
X234053Y108188D01*
Y105879D01*
X234112Y105586D01*
X234277Y105338D01*
X235214Y104401D01*
Y102517D01*
X236704D01*
X237595Y101627D01*
X237843Y101461D01*
X238136Y101403D01*
X245807D01*
X246099Y101461D01*
X246348Y101627D01*
X247956Y103235D01*
X254561D01*
Y102517D01*
X257132D01*
Y104720D01*
X257594Y104911D01*
X258104Y104401D01*
Y102517D01*
X260676D01*
Y105483D01*
X259185D01*
X255683Y108985D01*
X255435Y109151D01*
X255142Y109209D01*
X254081D01*
Y113219D01*
D02*
G37*
G36*
X224483Y110014D02*
X221517D01*
Y107442D01*
X222082D01*
Y105089D01*
X221879Y104886D01*
X221724D01*
X221215Y104675D01*
X220825Y104285D01*
X220614Y103776D01*
Y103224D01*
X220825Y102715D01*
X221215Y102325D01*
X221724Y102114D01*
X222276D01*
X222785Y102325D01*
X223175Y102715D01*
X223386Y103224D01*
Y103776D01*
X223380Y103791D01*
X223649Y104060D01*
X223848Y104358D01*
X223918Y104709D01*
Y107442D01*
X224483D01*
Y110014D01*
D02*
G37*
G36*
X59920Y104800D02*
X57850D01*
Y101943D01*
X59920D01*
Y104800D01*
D02*
G37*
G36*
X377776Y106886D02*
X377224D01*
X376715Y106675D01*
X376325Y106285D01*
X376114Y105776D01*
Y105224D01*
X376325Y104715D01*
X376461Y104579D01*
X376549Y104116D01*
X376549Y104116D01*
Y101544D01*
X379514D01*
Y104116D01*
X378590D01*
X378575Y104616D01*
X378675Y104715D01*
X378886Y105224D01*
Y105776D01*
X378675Y106285D01*
X378285Y106675D01*
X377776Y106886D01*
D02*
G37*
G36*
X372276D02*
X371724D01*
X371215Y106675D01*
X370825Y106285D01*
X370614Y105776D01*
Y105224D01*
X370825Y104715D01*
X370924Y104616D01*
X370717Y104116D01*
X370549D01*
Y101544D01*
X373514D01*
Y104116D01*
X373277D01*
X373076Y104616D01*
X373175Y104715D01*
X373386Y105224D01*
Y105776D01*
X373175Y106285D01*
X372785Y106675D01*
X372276Y106886D01*
D02*
G37*
G36*
X384276D02*
X383724D01*
X383215Y106675D01*
X382825Y106285D01*
X382614Y105776D01*
Y105224D01*
X382825Y104715D01*
X382961Y104579D01*
X383049Y104116D01*
X383049Y104116D01*
Y101544D01*
X386014D01*
Y104116D01*
X385090D01*
X385075Y104616D01*
X385175Y104715D01*
X385386Y105224D01*
Y105776D01*
X385175Y106285D01*
X384785Y106675D01*
X384276Y106886D01*
D02*
G37*
G36*
X6776Y103886D02*
X6224D01*
X5715Y103675D01*
X5325Y103285D01*
X5114Y102776D01*
Y102224D01*
X5224Y101959D01*
X4986Y101459D01*
X4986D01*
Y98100D01*
X7952D01*
Y101459D01*
X7952D01*
X7776Y101959D01*
X7886Y102224D01*
Y102776D01*
X7675Y103285D01*
X7285Y103675D01*
X6776Y103886D01*
D02*
G37*
G36*
X216081Y112176D02*
X212919D01*
Y107733D01*
X212231Y107045D01*
X212065Y106797D01*
X212007Y106504D01*
Y103983D01*
X211486D01*
Y101017D01*
X214057D01*
Y103983D01*
X213536D01*
Y106187D01*
X214000Y106651D01*
X216081D01*
Y112176D01*
D02*
G37*
G36*
X167948Y103900D02*
X167700D01*
Y100700D01*
X170900D01*
Y100948D01*
X170668Y101812D01*
X170221Y102588D01*
X169588Y103221D01*
X168812Y103668D01*
X167948Y103900D01*
D02*
G37*
G36*
X167300D02*
X167052D01*
X166188Y103668D01*
X165412Y103221D01*
X164779Y102588D01*
X164332Y101812D01*
X164100Y100948D01*
Y100700D01*
X167300D01*
Y103900D01*
D02*
G37*
G36*
X21000Y104918D02*
X20649Y104848D01*
X20351Y104649D01*
X20152Y104351D01*
X20082Y104000D01*
X20152Y103649D01*
X20351Y103351D01*
X21552Y102150D01*
X21510Y101650D01*
X17400D01*
Y100200D01*
X22500D01*
X27600D01*
Y101650D01*
X23418D01*
Y102500D01*
X23348Y102851D01*
X23149Y103149D01*
X21649Y104649D01*
X21351Y104848D01*
X21000Y104918D01*
D02*
G37*
G36*
X27600Y99800D02*
X22700D01*
Y98350D01*
X27600D01*
Y99800D01*
D02*
G37*
G36*
X22300D02*
X17400D01*
Y98350D01*
X22300D01*
Y99800D01*
D02*
G37*
G36*
X59920Y101058D02*
X57850D01*
Y98200D01*
X59920D01*
Y101058D01*
D02*
G37*
G36*
X170900Y100300D02*
X167700D01*
Y97100D01*
X167948D01*
X168812Y97332D01*
X169588Y97779D01*
X170221Y98412D01*
X170668Y99188D01*
X170900Y100052D01*
Y100300D01*
D02*
G37*
G36*
X167300D02*
X164100D01*
Y100052D01*
X164332Y99188D01*
X164779Y98412D01*
X165412Y97779D01*
X166188Y97332D01*
X167052Y97100D01*
X167300D01*
Y100300D01*
D02*
G37*
G36*
X77948Y103900D02*
X77052D01*
X76188Y103668D01*
X75412Y103221D01*
X74779Y102588D01*
X74332Y101812D01*
X74100Y100948D01*
Y100052D01*
X74332Y99188D01*
X74779Y98412D01*
X75412Y97779D01*
X76188Y97332D01*
X77052Y97100D01*
X77948D01*
X78812Y97332D01*
X79588Y97779D01*
X80221Y98412D01*
X80668Y99188D01*
X80900Y100052D01*
Y100948D01*
X80668Y101812D01*
X80221Y102588D01*
X79588Y103221D01*
X78812Y103668D01*
X77948Y103900D01*
D02*
G37*
G36*
X11889Y101459D02*
X8923D01*
Y98100D01*
X9390D01*
Y96254D01*
X9036Y95900D01*
X8286Y95900D01*
X8089Y95900D01*
X6866D01*
Y94280D01*
Y92659D01*
X8589Y92659D01*
X8786Y92659D01*
X11829D01*
Y93722D01*
X17400D01*
Y93350D01*
X27600D01*
Y96650D01*
X17400D01*
Y95557D01*
X11829D01*
Y95900D01*
X11225D01*
Y98100D01*
X11889D01*
Y101459D01*
D02*
G37*
G36*
X59920Y97800D02*
X57850D01*
Y94942D01*
X59920D01*
Y97800D01*
D02*
G37*
G36*
X237475Y92927D02*
X235700D01*
Y91153D01*
X237475D01*
Y92927D01*
D02*
G37*
G36*
X198975D02*
X197200D01*
Y91153D01*
X198975D01*
Y92927D01*
D02*
G37*
G36*
X196800D02*
X195025D01*
Y91153D01*
X196800D01*
Y92927D01*
D02*
G37*
G36*
X235300D02*
X233525D01*
Y91153D01*
X235300D01*
Y92927D01*
D02*
G37*
G36*
X277538Y92722D02*
X275763D01*
Y90947D01*
X277538D01*
Y92722D01*
D02*
G37*
G36*
X275363D02*
X273588D01*
Y90947D01*
X275363D01*
Y92722D01*
D02*
G37*
G36*
X27600Y91650D02*
X17400D01*
Y90918D01*
X14334D01*
X14065Y91187D01*
X13550Y91400D01*
X12993D01*
X12479Y91187D01*
X12085Y90793D01*
X11872Y90279D01*
Y89898D01*
X10654Y88679D01*
X8986D01*
Y85321D01*
X11951D01*
Y87382D01*
X13169Y88600D01*
X13550D01*
X14065Y88813D01*
X14334Y89082D01*
X17400D01*
Y88350D01*
X27600D01*
Y91650D01*
D02*
G37*
G36*
X318038Y92222D02*
X316263D01*
Y90447D01*
X318038D01*
Y92222D01*
D02*
G37*
G36*
X315863D02*
X314088D01*
Y90447D01*
X315863D01*
Y92222D01*
D02*
G37*
G36*
X255638Y92706D02*
X255377D01*
Y89406D01*
X258677D01*
Y89666D01*
X258439Y90557D01*
X257978Y91355D01*
X257326Y92006D01*
X256528Y92467D01*
X255638Y92706D01*
D02*
G37*
G36*
X254977D02*
X254716D01*
X253826Y92467D01*
X253028Y92006D01*
X252377Y91355D01*
X251916Y90557D01*
X251677Y89666D01*
Y89406D01*
X254977D01*
Y92706D01*
D02*
G37*
G36*
X217638D02*
X217377D01*
Y89406D01*
X220677D01*
Y89666D01*
X220439Y90557D01*
X219978Y91355D01*
X219326Y92006D01*
X218528Y92467D01*
X217638Y92706D01*
D02*
G37*
G36*
X216977D02*
X216716D01*
X215826Y92467D01*
X215028Y92006D01*
X214376Y91355D01*
X213916Y90557D01*
X213677Y89666D01*
Y89406D01*
X216977D01*
Y92706D01*
D02*
G37*
G36*
X237475Y90753D02*
X235700D01*
Y88978D01*
X237475D01*
Y90753D01*
D02*
G37*
G36*
X235300D02*
X233525D01*
Y88978D01*
X235300D01*
Y90753D01*
D02*
G37*
G36*
X198975D02*
X197200D01*
Y88978D01*
X198975D01*
Y90753D01*
D02*
G37*
G36*
X196800D02*
X195025D01*
Y88978D01*
X196800D01*
Y90753D01*
D02*
G37*
G36*
X277538Y90547D02*
X275763D01*
Y88772D01*
X277538D01*
Y90547D01*
D02*
G37*
G36*
X275363D02*
X273588D01*
Y88772D01*
X275363D01*
Y90547D01*
D02*
G37*
G36*
X296138Y92000D02*
X295877D01*
Y88700D01*
X299177D01*
Y88961D01*
X298939Y89851D01*
X298478Y90649D01*
X297826Y91301D01*
X297028Y91761D01*
X296138Y92000D01*
D02*
G37*
G36*
X295477D02*
X295216D01*
X294326Y91761D01*
X293528Y91301D01*
X292877Y90649D01*
X292416Y89851D01*
X292177Y88961D01*
Y88700D01*
X295477D01*
Y92000D01*
D02*
G37*
G36*
X318038Y90047D02*
X316263D01*
Y88272D01*
X318038D01*
Y90047D01*
D02*
G37*
G36*
X315863D02*
X314088D01*
Y88272D01*
X315863D01*
Y90047D01*
D02*
G37*
G36*
X336138Y91500D02*
X335877D01*
Y88200D01*
X339177D01*
Y88461D01*
X338939Y89351D01*
X338478Y90149D01*
X337826Y90801D01*
X337028Y91262D01*
X336138Y91500D01*
D02*
G37*
G36*
X335477D02*
X335216D01*
X334326Y91262D01*
X333528Y90801D01*
X332876Y90149D01*
X332416Y89351D01*
X332177Y88461D01*
Y88200D01*
X335477D01*
Y91500D01*
D02*
G37*
G36*
X379514Y100572D02*
X376549D01*
Y98001D01*
X376623D01*
X376844Y97515D01*
X376631Y97001D01*
Y96444D01*
X376804Y96027D01*
X376661Y95687D01*
X376540Y95527D01*
X375828D01*
Y94315D01*
X375800Y94249D01*
X375801Y94247D01*
X375800Y94244D01*
X375800Y90436D01*
X375862Y90286D01*
X375863Y90285D01*
X375863Y90285D01*
X375923Y90133D01*
X375926Y90132D01*
X375927Y90130D01*
X376049Y90079D01*
X376144Y89801D01*
X376197Y89589D01*
X375936Y89263D01*
X375828Y89263D01*
X375797Y88848D01*
X375797Y88848D01*
X375797Y88848D01*
X375828Y88772D01*
Y88063D01*
X378000D01*
X380172D01*
Y88763D01*
X380172Y88764D01*
X380206Y88847D01*
X380206Y88847D01*
X380206Y88847D01*
X380172Y89263D01*
X380039D01*
X379767Y89600D01*
X379891Y90007D01*
X379916Y90079D01*
X380070Y90143D01*
X380070Y90143D01*
X380071Y90143D01*
X380140Y90311D01*
X380197Y90449D01*
Y90450D01*
X380197Y90450D01*
X380197Y90450D01*
X380197Y94197D01*
X380172Y94257D01*
Y95527D01*
X379523D01*
X379402Y95687D01*
X379259Y96027D01*
X379431Y96444D01*
Y97001D01*
X379218Y97515D01*
X379440Y98001D01*
X379514D01*
Y100572D01*
D02*
G37*
G36*
X392014D02*
X389049D01*
Y98001D01*
X389049Y98001D01*
X389276Y97501D01*
X389131Y97153D01*
Y96596D01*
X389344Y96081D01*
X389398Y96027D01*
X389191Y95527D01*
X388025D01*
Y94315D01*
X387997Y94249D01*
X387998Y94247D01*
X387997Y94244D01*
X387997Y90436D01*
X388059Y90286D01*
X388059Y90285D01*
X388059Y90285D01*
X388120Y90133D01*
X388123Y90132D01*
X388124Y90130D01*
X388246Y90079D01*
X388341Y89801D01*
X388394Y89589D01*
X388133Y89263D01*
X388025Y89263D01*
X387994Y88848D01*
X387994Y88848D01*
X387994Y88848D01*
X388025Y88772D01*
Y88063D01*
X390197D01*
X392368D01*
Y88763D01*
X392369Y88764D01*
X392403Y88847D01*
X392403Y88847D01*
X392403Y88847D01*
X392369Y89263D01*
X392236D01*
X391964Y89600D01*
X392088Y90007D01*
X392112Y90079D01*
X392267Y90143D01*
X392267Y90143D01*
X392267Y90143D01*
X392337Y90311D01*
X392394Y90449D01*
Y90450D01*
X392394Y90450D01*
X392394Y90450D01*
X392394Y94197D01*
X392368Y94257D01*
Y95527D01*
X391871D01*
X391664Y96027D01*
X391718Y96081D01*
X391931Y96596D01*
Y97153D01*
X391787Y97501D01*
X392014Y98001D01*
X392014D01*
Y100572D01*
D02*
G37*
G36*
X386014Y100572D02*
X383049D01*
Y98001D01*
X383049Y98001D01*
X383255Y97501D01*
X383131Y97202D01*
Y96645D01*
X383344Y96130D01*
X383448Y96027D01*
X383241Y95527D01*
X381927D01*
Y94315D01*
X381898Y94249D01*
X381899Y94247D01*
X381898Y94244D01*
X381898Y90436D01*
X381961Y90286D01*
X381961Y90285D01*
X381961Y90285D01*
X382022Y90133D01*
X382024Y90132D01*
X382025Y90130D01*
X382147Y90079D01*
X382242Y89801D01*
X382295Y89589D01*
X382035Y89263D01*
X381927Y89263D01*
X381895Y88848D01*
X381895Y88848D01*
X381895Y88848D01*
X381927Y88772D01*
Y88063D01*
X384098D01*
X386270D01*
Y88763D01*
X386270Y88764D01*
X386304Y88847D01*
X386304Y88847D01*
X386304Y88847D01*
X386270Y89263D01*
X386138D01*
X385865Y89600D01*
X385989Y90007D01*
X386014Y90079D01*
X386169Y90143D01*
X386169Y90143D01*
X386169Y90143D01*
X386238Y90311D01*
X386295Y90449D01*
Y90450D01*
X386295Y90450D01*
X386295Y90450D01*
X386295Y94197D01*
X386270Y94257D01*
Y95527D01*
X385822D01*
X385615Y96027D01*
X385718Y96130D01*
X385931Y96645D01*
Y97202D01*
X385807Y97501D01*
X386014Y98001D01*
X386014D01*
Y100572D01*
D02*
G37*
G36*
X373514Y100572D02*
X370549D01*
Y98001D01*
X370573D01*
X370713Y97777D01*
X370818Y97501D01*
X370631Y97050D01*
Y96493D01*
X370824Y96027D01*
X370739Y95793D01*
X370589Y95527D01*
X369730D01*
Y94315D01*
X369702Y94249D01*
X369703Y94247D01*
X369702Y94244D01*
X369702Y90436D01*
X369764Y90286D01*
X369764Y90285D01*
X369764Y90285D01*
X369825Y90133D01*
X369827Y90132D01*
X369829Y90130D01*
X369951Y90079D01*
X370045Y89801D01*
X370099Y89589D01*
X369838Y89263D01*
X369730Y89263D01*
X369699Y88848D01*
X369699Y88848D01*
X369699Y88848D01*
X369730Y88772D01*
Y88063D01*
X371902D01*
X374073D01*
Y88763D01*
X374073Y88764D01*
X374108Y88847D01*
X374108Y88847D01*
X374108Y88847D01*
X374073Y89263D01*
X373941D01*
X373669Y89600D01*
X373792Y90007D01*
X373817Y90079D01*
X373972Y90143D01*
X373972Y90143D01*
X373972Y90143D01*
X374041Y90311D01*
X374099Y90449D01*
Y90450D01*
X374099Y90450D01*
X374099Y90450D01*
X374098Y94197D01*
X374073Y94257D01*
Y95527D01*
X373474D01*
X373323Y95793D01*
X373238Y96027D01*
X373431Y96493D01*
Y97050D01*
X373245Y97501D01*
X373350Y97777D01*
X373489Y98001D01*
X373514D01*
Y100572D01*
D02*
G37*
G36*
X398014D02*
X395049D01*
Y98001D01*
X395049D01*
X395257Y97587D01*
X395296Y97501D01*
X395131Y97103D01*
Y96546D01*
X395344Y96032D01*
X395349Y96027D01*
X395142Y95527D01*
X394124D01*
Y94315D01*
X394095Y94249D01*
X394096Y94247D01*
X394095Y94244D01*
X394095Y90436D01*
X394158Y90286D01*
X394158Y90285D01*
X394158Y90285D01*
X394219Y90133D01*
X394221Y90132D01*
X394222Y90130D01*
X394344Y90079D01*
X394439Y89801D01*
X394492Y89589D01*
X394231Y89263D01*
X394124Y89263D01*
X394092Y88848D01*
X394092Y88848D01*
X394092Y88848D01*
X394124Y88772D01*
Y88063D01*
X396295D01*
X398467D01*
Y88763D01*
X398467Y88764D01*
X398501Y88847D01*
X398501Y88847D01*
X398501Y88847D01*
X398467Y89263D01*
X398335D01*
X398062Y89600D01*
X398186Y90007D01*
X398211Y90079D01*
X398365Y90143D01*
X398365Y90143D01*
X398366Y90143D01*
X398435Y90311D01*
X398492Y90449D01*
Y90450D01*
X398492Y90450D01*
X398492Y90450D01*
X398492Y94197D01*
X398467Y94257D01*
Y95527D01*
X397920D01*
X397713Y96027D01*
X397718Y96032D01*
X397931Y96546D01*
Y97103D01*
X397767Y97501D01*
X397803Y97583D01*
X398014Y98001D01*
X398014Y98001D01*
X398014Y98001D01*
Y100572D01*
D02*
G37*
G36*
X368203Y87721D02*
X366231D01*
Y86521D01*
X368203D01*
Y87721D01*
D02*
G37*
G36*
X365831D02*
X363860D01*
Y86521D01*
X365831D01*
Y87721D01*
D02*
G37*
G36*
X398467Y87663D02*
X396495D01*
Y86463D01*
X398467D01*
Y87663D01*
D02*
G37*
G36*
X396095D02*
X394124D01*
Y86463D01*
X396095D01*
Y87663D01*
D02*
G37*
G36*
X392368D02*
X390397D01*
Y86463D01*
X392368D01*
Y87663D01*
D02*
G37*
G36*
X389997D02*
X388025D01*
Y86463D01*
X389997D01*
Y87663D01*
D02*
G37*
G36*
X386270D02*
X384298D01*
Y86463D01*
X386270D01*
Y87663D01*
D02*
G37*
G36*
X383898D02*
X381927D01*
Y86463D01*
X383898D01*
Y87663D01*
D02*
G37*
G36*
X380172D02*
X378200D01*
Y86463D01*
X380172D01*
Y87663D01*
D02*
G37*
G36*
X377800D02*
X375828D01*
Y86463D01*
X377800D01*
Y87663D01*
D02*
G37*
G36*
X374073D02*
X372102D01*
Y86463D01*
X374073D01*
Y87663D01*
D02*
G37*
G36*
X371702D02*
X369730D01*
Y86463D01*
X371702D01*
Y87663D01*
D02*
G37*
G36*
X258677Y89006D02*
X255377D01*
Y85706D01*
X255638D01*
X256528Y85944D01*
X257326Y86405D01*
X257978Y87056D01*
X258439Y87855D01*
X258677Y88745D01*
Y89006D01*
D02*
G37*
G36*
X254977D02*
X251677D01*
Y88745D01*
X251916Y87855D01*
X252377Y87056D01*
X253028Y86405D01*
X253826Y85944D01*
X254716Y85706D01*
X254977D01*
Y89006D01*
D02*
G37*
G36*
X220677D02*
X217377D01*
Y85706D01*
X217638D01*
X218528Y85944D01*
X219326Y86405D01*
X219978Y87056D01*
X220439Y87855D01*
X220677Y88745D01*
Y89006D01*
D02*
G37*
G36*
X216977D02*
X213677D01*
Y88745D01*
X213916Y87855D01*
X214376Y87056D01*
X215028Y86405D01*
X215826Y85944D01*
X216716Y85706D01*
X216977D01*
Y89006D01*
D02*
G37*
G36*
X299177Y88300D02*
X295877D01*
Y85000D01*
X296138D01*
X297028Y85238D01*
X297826Y85699D01*
X298478Y86351D01*
X298939Y87149D01*
X299177Y88039D01*
Y88300D01*
D02*
G37*
G36*
X295477D02*
X292177D01*
Y88039D01*
X292416Y87149D01*
X292877Y86351D01*
X293528Y85699D01*
X294326Y85238D01*
X295216Y85000D01*
X295477D01*
Y88300D01*
D02*
G37*
G36*
X339177Y87800D02*
X335877D01*
Y84500D01*
X336138D01*
X337028Y84738D01*
X337826Y85199D01*
X338478Y85851D01*
X338939Y86649D01*
X339177Y87539D01*
Y87800D01*
D02*
G37*
G36*
X335477D02*
X332177D01*
Y87539D01*
X332416Y86649D01*
X332876Y85851D01*
X333528Y85199D01*
X334326Y84738D01*
X335216Y84500D01*
X335477D01*
Y87800D01*
D02*
G37*
G36*
X13534Y83672D02*
X11956D01*
Y81700D01*
X13534D01*
Y83672D01*
D02*
G37*
G36*
X11556D02*
X9978D01*
Y81700D01*
X11556D01*
Y83672D01*
D02*
G37*
G36*
X212000Y94333D02*
X202500D01*
X202194Y94206D01*
X202067Y93900D01*
Y81401D01*
X201927Y81351D01*
X201399Y81647D01*
X201233Y81896D01*
X198975Y84154D01*
Y87022D01*
X195025D01*
Y83072D01*
X197893D01*
X199928Y81038D01*
Y80036D01*
X199943Y79962D01*
Y78017D01*
X202322D01*
X202540Y77528D01*
X199839Y74827D01*
X199369D01*
X198944Y74742D01*
X198584Y74502D01*
X198344Y74141D01*
X198259Y73716D01*
Y71551D01*
X198344Y71126D01*
X198584Y70766D01*
X198944Y70525D01*
X199369Y70441D01*
X200747D01*
X201172Y70525D01*
X201532Y70766D01*
X201773Y71126D01*
X201857Y71551D01*
Y72808D01*
X205016Y75967D01*
X212500D01*
X212806Y76094D01*
X212933Y76400D01*
Y78116D01*
X213817D01*
Y80884D01*
X212933D01*
Y93400D01*
X212806Y93706D01*
X212306Y94206D01*
X212000Y94333D01*
D02*
G37*
G36*
X290500Y93833D02*
X281000D01*
X280694Y93706D01*
X280567Y93400D01*
Y81277D01*
X279520D01*
Y81649D01*
X279462Y81942D01*
X279296Y82190D01*
X277538Y83948D01*
Y86817D01*
X273588D01*
Y82867D01*
X276456D01*
X277991Y81332D01*
Y80330D01*
X278006Y80256D01*
Y78312D01*
X280577D01*
Y78312D01*
X280938Y78402D01*
X281158Y78065D01*
X281184Y77989D01*
X281188Y77955D01*
Y77891D01*
X281155Y77812D01*
X281188Y77732D01*
Y77646D01*
X281249Y77585D01*
X281282Y77506D01*
X281407Y77381D01*
Y76107D01*
X278402Y73101D01*
X277932D01*
X277507Y73017D01*
X277147Y72776D01*
X276906Y72416D01*
X276822Y71991D01*
Y69826D01*
X276906Y69401D01*
X277147Y69040D01*
X277507Y68800D01*
X277932Y68715D01*
X279310D01*
X279735Y68800D01*
X280095Y69040D01*
X280336Y69401D01*
X280420Y69826D01*
Y71083D01*
X283844Y74506D01*
X283844Y74506D01*
X284153Y74969D01*
X284253Y75467D01*
X291000D01*
X291306Y75594D01*
X291433Y75900D01*
Y78390D01*
X292317D01*
Y81159D01*
X291433D01*
Y92900D01*
X291306Y93206D01*
X290806Y93706D01*
X290500Y93833D01*
D02*
G37*
G36*
X250000Y94333D02*
X240500D01*
X240194Y94206D01*
X240067Y93900D01*
Y81423D01*
X240067Y81394D01*
X240061Y81262D01*
X239758Y81024D01*
X239671Y80983D01*
X239313Y80983D01*
X238055D01*
X236466Y82572D01*
X236673Y83072D01*
X237475D01*
Y87022D01*
X233525D01*
Y83072D01*
X234735D01*
Y82457D01*
X234793Y82164D01*
X234959Y81916D01*
X237171Y79704D01*
Y78017D01*
X239742D01*
Y80512D01*
X239742Y80540D01*
X239756Y80832D01*
X240243Y80951D01*
X240330Y80783D01*
X240382Y80739D01*
X240408Y80677D01*
X240504Y80637D01*
X240584Y80570D01*
X240645Y80349D01*
X240706Y80083D01*
X240681Y80046D01*
X240573Y79500D01*
Y76167D01*
X240104Y75698D01*
X239804Y75639D01*
X239341Y75329D01*
X239341Y75329D01*
X238339Y74327D01*
X237869D01*
X237444Y74242D01*
X237084Y74002D01*
X236843Y73641D01*
X236759Y73216D01*
Y71051D01*
X236843Y70626D01*
X237084Y70266D01*
X237444Y70025D01*
X237869Y69941D01*
X239247D01*
X239672Y70025D01*
X240032Y70266D01*
X240273Y70626D01*
X240357Y71051D01*
Y72308D01*
X240991Y72941D01*
X241290Y73001D01*
X241754Y73310D01*
X243009Y74566D01*
X243319Y75029D01*
X243427Y75576D01*
X243722Y75967D01*
X250500D01*
X250806Y76094D01*
X250933Y76400D01*
Y78116D01*
X251817D01*
Y80884D01*
X250933D01*
Y93400D01*
X250806Y93706D01*
X250306Y94206D01*
X250000Y94333D01*
D02*
G37*
G36*
X330300Y93633D02*
X320800D01*
X320494Y93506D01*
X320367Y93200D01*
Y80277D01*
X319587D01*
X318053Y81812D01*
Y83117D01*
X318038Y83191D01*
Y86317D01*
X314088D01*
Y82367D01*
X316523D01*
Y81495D01*
X316581Y81202D01*
X316747Y80954D01*
X318506Y79196D01*
Y77312D01*
X321076D01*
X321243Y77145D01*
X321322Y77112D01*
X321383Y77051D01*
X321475Y76992D01*
X321769Y76617D01*
X321507Y76227D01*
X317902Y72621D01*
X317432D01*
X317007Y72537D01*
X316647Y72296D01*
X316406Y71936D01*
X316322Y71511D01*
Y69346D01*
X316406Y68921D01*
X316647Y68561D01*
X317007Y68320D01*
X317432Y68235D01*
X318810D01*
X319235Y68320D01*
X319595Y68561D01*
X319836Y68921D01*
X319920Y69346D01*
Y70603D01*
X324544Y75226D01*
X324544Y75226D01*
X324571Y75267D01*
X330800D01*
X331106Y75394D01*
X331233Y75700D01*
Y77410D01*
X332317D01*
Y80179D01*
X331233D01*
Y92700D01*
X331106Y93006D01*
X330606Y93506D01*
X330300Y93633D01*
D02*
G37*
G36*
X29775Y81424D02*
Y80200D01*
X30998D01*
Y81424D01*
X29775D01*
D02*
G37*
G36*
X301176Y81159D02*
X299401D01*
Y79974D01*
X301176D01*
Y81159D01*
D02*
G37*
G36*
X299001D02*
X297226D01*
Y79974D01*
X299001D01*
Y81159D01*
D02*
G37*
G36*
X260676Y80884D02*
X258901D01*
Y79700D01*
X260676D01*
Y80884D01*
D02*
G37*
G36*
X222676D02*
X220901D01*
Y79700D01*
X222676D01*
Y80884D01*
D02*
G37*
G36*
X258501D02*
X256726D01*
Y79700D01*
X258501D01*
Y80884D01*
D02*
G37*
G36*
X220501D02*
X218726D01*
Y79700D01*
X220501D01*
Y80884D01*
D02*
G37*
G36*
X13534Y81300D02*
X11956D01*
Y79328D01*
X13534D01*
Y81300D01*
D02*
G37*
G36*
X11556D02*
X9978D01*
Y79328D01*
X11556D01*
Y81300D01*
D02*
G37*
G36*
X341176Y80179D02*
X339401D01*
Y78995D01*
X341176D01*
Y80179D01*
D02*
G37*
G36*
X339001D02*
X337226D01*
Y78995D01*
X339001D01*
Y80179D01*
D02*
G37*
G36*
X30998Y79800D02*
X29775D01*
Y78576D01*
X30998D01*
Y79800D01*
D02*
G37*
G36*
X27600Y86650D02*
X17400D01*
Y83350D01*
X25508D01*
Y81424D01*
X25002D01*
Y79565D01*
X24984Y79476D01*
Y78491D01*
X24879Y78386D01*
X24724D01*
X24215Y78175D01*
X23825Y77785D01*
X23614Y77276D01*
Y76724D01*
X23825Y76215D01*
X24215Y75825D01*
X24724Y75614D01*
X25276D01*
X25785Y75825D01*
X26175Y76215D01*
X26386Y76724D01*
Y77276D01*
X26380Y77291D01*
X26550Y77461D01*
X26749Y77759D01*
X26819Y78110D01*
Y78223D01*
X27173Y78576D01*
X28151Y78576D01*
X28349Y78576D01*
X29375D01*
Y80000D01*
Y81424D01*
X28349D01*
X27843Y81424D01*
X27343Y81796D01*
Y83350D01*
X27600D01*
Y86650D01*
D02*
G37*
G36*
X167948Y93900D02*
X167052D01*
X166188Y93668D01*
X165412Y93221D01*
X164779Y92588D01*
X164332Y91812D01*
X164100Y90948D01*
Y90052D01*
X164332Y89188D01*
X164779Y88412D01*
X165412Y87779D01*
X166188Y87332D01*
X167052Y87100D01*
X167948D01*
X168812Y87332D01*
X169166Y87536D01*
X176217Y80485D01*
X176515Y80286D01*
X176866Y80216D01*
X177828D01*
Y78478D01*
X182172D01*
Y82034D01*
X179211D01*
X179122Y82051D01*
X177246D01*
X170464Y88834D01*
X170668Y89188D01*
X170900Y90052D01*
Y90948D01*
X170668Y91812D01*
X170221Y92588D01*
X169588Y93221D01*
X168812Y93668D01*
X167948Y93900D01*
D02*
G37*
G36*
X301176Y79574D02*
X299401D01*
Y78390D01*
X301176D01*
Y79574D01*
D02*
G37*
G36*
X299001D02*
X297226D01*
Y78390D01*
X299001D01*
Y79574D01*
D02*
G37*
G36*
X260676Y79300D02*
X258901D01*
Y78116D01*
X260676D01*
Y79300D01*
D02*
G37*
G36*
X258501D02*
X256726D01*
Y78116D01*
X258501D01*
Y79300D01*
D02*
G37*
G36*
X222676D02*
X220901D01*
Y78116D01*
X222676D01*
Y79300D01*
D02*
G37*
G36*
X220501D02*
X218726D01*
Y78116D01*
X220501D01*
Y79300D01*
D02*
G37*
G36*
X341176Y78594D02*
X339401D01*
Y77410D01*
X341176D01*
Y78594D01*
D02*
G37*
G36*
X339001D02*
X337226D01*
Y77410D01*
X339001D01*
Y78594D01*
D02*
G37*
G36*
X63172Y78778D02*
X61200D01*
Y77200D01*
X63172D01*
Y78778D01*
D02*
G37*
G36*
X60800D02*
X58828D01*
Y77200D01*
X60800D01*
Y78778D01*
D02*
G37*
G36*
X63172Y76800D02*
X61200D01*
Y75222D01*
X63172D01*
Y76800D01*
D02*
G37*
G36*
X60800D02*
X58828D01*
Y75222D01*
X60800D01*
Y76800D01*
D02*
G37*
G36*
X182172Y76522D02*
X180200D01*
Y74944D01*
X182172D01*
Y76522D01*
D02*
G37*
G36*
X179800D02*
X177828D01*
Y74944D01*
X179800D01*
Y76522D01*
D02*
G37*
G36*
X182172Y74544D02*
X180200D01*
Y72966D01*
X182172D01*
Y74544D01*
D02*
G37*
G36*
X179800D02*
X177828D01*
Y72966D01*
X179800D01*
Y74544D01*
D02*
G37*
G36*
X250341Y74305D02*
X248960D01*
Y71743D01*
X250341D01*
Y74305D01*
D02*
G37*
G36*
X248560D02*
X247179D01*
Y71743D01*
X248560D01*
Y74305D01*
D02*
G37*
G36*
X212341D02*
X210960D01*
Y71743D01*
X212341D01*
Y74305D01*
D02*
G37*
G36*
X210560D02*
X209179D01*
Y71743D01*
X210560D01*
Y74305D01*
D02*
G37*
G36*
X290341Y72849D02*
X288960D01*
Y70287D01*
X290341D01*
Y72849D01*
D02*
G37*
G36*
X288560D02*
X287179D01*
Y70287D01*
X288560D01*
Y72849D01*
D02*
G37*
G36*
X330841Y72100D02*
X329460D01*
Y69538D01*
X330841D01*
Y72100D01*
D02*
G37*
G36*
X329060D02*
X327679D01*
Y69538D01*
X329060D01*
Y72100D01*
D02*
G37*
G36*
X250341Y71343D02*
X248960D01*
Y68781D01*
X250341D01*
Y71343D01*
D02*
G37*
G36*
X248560D02*
X247179D01*
Y68781D01*
X248560D01*
Y71343D01*
D02*
G37*
G36*
X212341D02*
X210960D01*
Y68781D01*
X212341D01*
Y71343D01*
D02*
G37*
G36*
X210560D02*
X209179D01*
Y68781D01*
X210560D01*
Y71343D01*
D02*
G37*
G36*
X290341Y69887D02*
X288960D01*
Y67324D01*
X290341D01*
Y69887D01*
D02*
G37*
G36*
X288560D02*
X287179D01*
Y67324D01*
X288560D01*
Y69887D01*
D02*
G37*
G36*
X330841Y69138D02*
X329460D01*
Y66576D01*
X330841D01*
Y69138D01*
D02*
G37*
G36*
X329060D02*
X327679D01*
Y66576D01*
X329060D01*
Y69138D01*
D02*
G37*
G36*
X11868Y63715D02*
X9700D01*
Y58200D01*
X11868D01*
Y63715D01*
D02*
G37*
G36*
X9300D02*
X7131D01*
Y58200D01*
X9300D01*
Y63715D01*
D02*
G37*
G36*
X216081Y67219D02*
X212919D01*
Y61695D01*
X215257D01*
X215331Y61680D01*
X217325D01*
X218561Y60445D01*
X218369Y59983D01*
X216561D01*
Y59265D01*
X210004D01*
X209711Y59206D01*
X209463Y59041D01*
X207854Y57432D01*
X204182D01*
X204076Y57932D01*
X204090Y57954D01*
X204199Y58500D01*
Y62173D01*
X204487D01*
X204912Y62258D01*
X205273Y62498D01*
X205513Y62859D01*
X205556Y63073D01*
X207000D01*
X207209Y63114D01*
X207276D01*
X207337Y63140D01*
X207546Y63181D01*
X207724Y63300D01*
X207785Y63325D01*
X207832Y63372D01*
X208009Y63491D01*
X208128Y63668D01*
X208175Y63715D01*
X208200Y63776D01*
X208319Y63954D01*
X208360Y64163D01*
X208386Y64224D01*
Y64291D01*
X208427Y64500D01*
X208386Y64709D01*
Y64776D01*
X208360Y64837D01*
X208319Y65046D01*
X208200Y65224D01*
X208175Y65285D01*
X208128Y65332D01*
X208009Y65509D01*
X207832Y65628D01*
X207785Y65675D01*
X207724Y65700D01*
X207546Y65819D01*
X207337Y65860D01*
X207276Y65886D01*
X207209D01*
X207000Y65927D01*
X205477D01*
X205273Y66234D01*
X204912Y66475D01*
X204487Y66559D01*
X203110D01*
X202685Y66475D01*
X202324Y66234D01*
X202084Y65874D01*
X201999Y65449D01*
Y64192D01*
X201762Y63955D01*
X201453Y63492D01*
X201344Y62946D01*
X201344Y62946D01*
Y58500D01*
X201453Y57954D01*
X201052Y57654D01*
X200986Y57627D01*
X200514Y58099D01*
Y59983D01*
X198961D01*
X197235Y61709D01*
X197365Y62244D01*
X197432Y62258D01*
X197792Y62498D01*
X198033Y62859D01*
X198117Y63283D01*
Y65449D01*
X198033Y65874D01*
X197792Y66234D01*
X197432Y66475D01*
X197007Y66559D01*
X195629D01*
X195204Y66475D01*
X194844Y66234D01*
X194603Y65874D01*
X194519Y65449D01*
Y63283D01*
X194603Y62859D01*
X194844Y62498D01*
X195204Y62258D01*
X195553Y62188D01*
Y61545D01*
X195612Y61252D01*
X195777Y61004D01*
X197942Y58839D01*
Y57017D01*
X199433D01*
X200324Y56127D01*
X200571Y55961D01*
X200864Y55903D01*
X208171D01*
X208464Y55961D01*
X208712Y56127D01*
X210320Y57735D01*
X216561D01*
Y57017D01*
X219132D01*
Y59220D01*
X219594Y59411D01*
X220104Y58901D01*
Y57017D01*
X222676D01*
Y59983D01*
X221185D01*
X218183Y62985D01*
X217935Y63151D01*
X217642Y63209D01*
X216081D01*
Y67219D01*
D02*
G37*
G36*
X254081D02*
X250919D01*
Y61695D01*
X253257D01*
X253331Y61680D01*
X253825D01*
X256561Y58945D01*
X256369Y58483D01*
X254561D01*
Y57765D01*
X247754D01*
X247461Y57706D01*
X247213Y57541D01*
X247213Y57541D01*
X246104Y56432D01*
X242182D01*
X242076Y56932D01*
X242090Y56954D01*
X242199Y57500D01*
Y61354D01*
X242518Y61673D01*
X242987D01*
X243412Y61758D01*
X243773Y61998D01*
X243822Y62073D01*
X245500D01*
X245709Y62114D01*
X245776D01*
X245837Y62140D01*
X246046Y62181D01*
X246224Y62300D01*
X246285Y62325D01*
X246332Y62372D01*
X246509Y62491D01*
X246628Y62668D01*
X246675Y62715D01*
X246700Y62776D01*
X246819Y62954D01*
X246860Y63163D01*
X246886Y63224D01*
Y63291D01*
X246927Y63500D01*
X246886Y63709D01*
Y63776D01*
X246860Y63837D01*
X246819Y64046D01*
X246700Y64224D01*
X246675Y64285D01*
X246628Y64332D01*
X246509Y64509D01*
X246332Y64628D01*
X246285Y64675D01*
X246224Y64700D01*
X246046Y64819D01*
X245837Y64860D01*
X245776Y64886D01*
X245709D01*
X245500Y64927D01*
X244098D01*
Y64949D01*
X244013Y65374D01*
X243773Y65734D01*
X243412Y65975D01*
X242987Y66059D01*
X241610D01*
X241185Y65975D01*
X240824Y65734D01*
X240584Y65374D01*
X240499Y64949D01*
Y63692D01*
X239762Y62955D01*
X239453Y62492D01*
X239344Y61946D01*
X239344Y61946D01*
Y57500D01*
X239453Y56954D01*
X239052Y56654D01*
X238986Y56627D01*
X238514Y57099D01*
Y58983D01*
X237024D01*
X235583Y60424D01*
Y61688D01*
X235932Y61758D01*
X236292Y61998D01*
X236533Y62359D01*
X236617Y62783D01*
Y64949D01*
X236533Y65374D01*
X236292Y65734D01*
X235932Y65975D01*
X235507Y66059D01*
X234129D01*
X233704Y65975D01*
X233344Y65734D01*
X233103Y65374D01*
X233019Y64949D01*
Y62783D01*
X233103Y62359D01*
X233344Y61998D01*
X233704Y61758D01*
X234053Y61688D01*
Y60107D01*
X234112Y59814D01*
X234277Y59566D01*
X235943Y57901D01*
Y56017D01*
X237433D01*
X238323Y55127D01*
X238572Y54961D01*
X238864Y54903D01*
X246421D01*
X246714Y54961D01*
X246962Y55127D01*
X248071Y56235D01*
X254561D01*
Y55517D01*
X257132D01*
Y57720D01*
X257594Y57911D01*
X258104Y57401D01*
Y55517D01*
X260676D01*
Y58483D01*
X259185D01*
X254683Y62985D01*
X254435Y63151D01*
X254142Y63209D01*
X254081D01*
Y67219D01*
D02*
G37*
G36*
X283050Y64833D02*
X281672D01*
X281247Y64749D01*
X280887Y64508D01*
X280647Y64148D01*
X280562Y63723D01*
Y62466D01*
X279825Y61729D01*
X279516Y61266D01*
X279407Y60720D01*
X279407Y60720D01*
Y56795D01*
X279516Y56248D01*
X279115Y55949D01*
X279049Y55922D01*
X278577Y56393D01*
Y58277D01*
X277087D01*
X275646Y59718D01*
Y60462D01*
X275995Y60532D01*
X276355Y60773D01*
X276596Y61133D01*
X276680Y61558D01*
Y63723D01*
X276596Y64148D01*
X276355Y64508D01*
X275995Y64749D01*
X275570Y64833D01*
X274192D01*
X273767Y64749D01*
X273407Y64508D01*
X273166Y64148D01*
X273082Y63723D01*
Y61558D01*
X273166Y61133D01*
X273407Y60773D01*
X273767Y60532D01*
X274116Y60462D01*
Y59402D01*
X274175Y59109D01*
X274340Y58861D01*
X276006Y57196D01*
Y55312D01*
X277496D01*
X278386Y54421D01*
X278635Y54255D01*
X278927Y54197D01*
X286387D01*
X286680Y54255D01*
X286928Y54421D01*
X288024Y55517D01*
X289514D01*
Y58483D01*
X286943D01*
Y56599D01*
X286070Y55726D01*
X282245D01*
X282139Y56226D01*
X282153Y56248D01*
X282262Y56795D01*
Y60129D01*
X282581Y60448D01*
X283050D01*
X283475Y60532D01*
X283836Y60773D01*
X284036Y61073D01*
X285500D01*
X285709Y61114D01*
X285776D01*
X285837Y61140D01*
X286046Y61181D01*
X286224Y61300D01*
X286285Y61325D01*
X286332Y61372D01*
X286509Y61491D01*
X286628Y61668D01*
X286675Y61715D01*
X286700Y61776D01*
X286819Y61954D01*
X286860Y62163D01*
X286886Y62224D01*
Y62291D01*
X286927Y62500D01*
X286886Y62709D01*
Y62776D01*
X286860Y62837D01*
X286819Y63046D01*
X286700Y63224D01*
X286675Y63285D01*
X286628Y63332D01*
X286509Y63509D01*
X286332Y63628D01*
X286285Y63675D01*
X286224Y63700D01*
X286046Y63819D01*
X285837Y63860D01*
X285776Y63886D01*
X285709D01*
X285500Y63927D01*
X284120D01*
X284076Y64148D01*
X283836Y64508D01*
X283475Y64749D01*
X283050Y64833D01*
D02*
G37*
G36*
X294081Y65762D02*
X290919D01*
Y60238D01*
X291007D01*
Y58483D01*
X290486D01*
Y55517D01*
X293057D01*
Y58483D01*
X292536D01*
Y60238D01*
X294081D01*
Y65762D01*
D02*
G37*
G36*
X11868Y57800D02*
X9700D01*
Y52285D01*
X11868D01*
Y57800D01*
D02*
G37*
G36*
X9300D02*
X7131D01*
Y52285D01*
X9300D01*
Y57800D01*
D02*
G37*
G36*
X257821Y74305D02*
X254659D01*
Y68781D01*
X256997D01*
X257071Y68766D01*
X259227D01*
X261017Y66976D01*
Y65486D01*
X262901D01*
X263411Y64976D01*
X263220Y64514D01*
X261017D01*
Y61942D01*
X261582D01*
Y60823D01*
X261652Y60472D01*
X261851Y60174D01*
X262120Y59905D01*
X262114Y59890D01*
Y59338D01*
X262325Y58829D01*
X262715Y58439D01*
X263224Y58228D01*
X263776D01*
X264285Y58439D01*
X264675Y58829D01*
X264886Y59338D01*
Y59890D01*
X264675Y60399D01*
X264285Y60789D01*
X263776Y61000D01*
X263621D01*
X263418Y61203D01*
Y61942D01*
X263983D01*
Y63751D01*
X264445Y63942D01*
X267735Y60652D01*
Y52410D01*
X267793Y52117D01*
X267959Y51869D01*
X268619Y51209D01*
X268619Y51209D01*
X268867Y51043D01*
X269160Y50985D01*
X269160Y50985D01*
X298810D01*
X299035Y50485D01*
X298838Y50265D01*
X230297D01*
X230031Y50531D01*
X229783Y50696D01*
X229490Y50755D01*
X229265D01*
Y61968D01*
X229206Y62261D01*
X229041Y62509D01*
X224983Y66567D01*
Y68058D01*
X223099D01*
X221084Y70072D01*
X220836Y70238D01*
X220544Y70296D01*
X219821D01*
Y74305D01*
X216659D01*
Y68781D01*
X218997D01*
X219071Y68766D01*
X220227D01*
X222017Y66976D01*
Y65486D01*
X223901D01*
X224411Y64976D01*
X224220Y64514D01*
X222017D01*
Y61942D01*
X223063D01*
Y60843D01*
X223133Y60491D01*
X223332Y60194D01*
X223620Y59905D01*
X223614Y59890D01*
Y59338D01*
X223825Y58829D01*
X224215Y58439D01*
X224724Y58228D01*
X225276D01*
X225785Y58439D01*
X226175Y58829D01*
X226386Y59338D01*
Y59890D01*
X226175Y60399D01*
X225785Y60789D01*
X225276Y61000D01*
X225121D01*
X224898Y61223D01*
Y61942D01*
X224983D01*
Y63751D01*
X225445Y63942D01*
X227735Y61652D01*
Y50400D01*
X227794Y50107D01*
X227959Y49859D01*
X228369Y49449D01*
X228617Y49283D01*
X228910Y49225D01*
X229173D01*
X229439Y48959D01*
X229687Y48794D01*
X229980Y48735D01*
X240165D01*
X240264Y48235D01*
X240194Y48206D01*
X240067Y47900D01*
Y34931D01*
X239605Y34740D01*
X237475Y36870D01*
Y39522D01*
X233525D01*
Y35572D01*
X236177D01*
X238940Y32809D01*
X238943Y32797D01*
Y31017D01*
X241264D01*
X241471Y30517D01*
X237781Y26827D01*
X237311D01*
X236886Y26742D01*
X236526Y26502D01*
X236285Y26141D01*
X236201Y25717D01*
Y23551D01*
X236285Y23126D01*
X236526Y22766D01*
X236886Y22525D01*
X237311Y22441D01*
X238689D01*
X239114Y22525D01*
X239474Y22766D01*
X239715Y23126D01*
X239799Y23551D01*
Y24808D01*
X244667Y29676D01*
X244667Y29676D01*
X244862Y29967D01*
X250500D01*
X250806Y30094D01*
X250933Y30400D01*
Y31116D01*
X251817D01*
Y33884D01*
X250933D01*
Y47400D01*
X250806Y47706D01*
X250306Y48206D01*
X250236Y48235D01*
X250335Y48735D01*
X299341D01*
X299634Y48794D01*
X299882Y48959D01*
X300158Y49235D01*
X368301D01*
X368313Y49207D01*
X368707Y48813D01*
X369221Y48600D01*
X369778D01*
X370293Y48813D01*
X370687Y49207D01*
X370900Y49722D01*
Y50279D01*
X370687Y50793D01*
X370293Y51187D01*
X369778Y51400D01*
X369221D01*
X368707Y51187D01*
X368313Y50793D01*
X368301Y50765D01*
X365452D01*
X365308Y51004D01*
X365211Y51265D01*
X365400Y51722D01*
Y52279D01*
X365187Y52793D01*
X364793Y53187D01*
X364279Y53400D01*
X363721D01*
X363207Y53187D01*
X362813Y52793D01*
X362801Y52765D01*
X360661D01*
X360383Y53180D01*
X360400Y53221D01*
Y53778D01*
X360187Y54293D01*
X359793Y54687D01*
X359278Y54900D01*
X358721D01*
X358207Y54687D01*
X357813Y54293D01*
X357801Y54265D01*
X353776D01*
X353676Y54765D01*
X353793Y54813D01*
X354187Y55207D01*
X354400Y55721D01*
Y56279D01*
X354187Y56793D01*
X353793Y57187D01*
X353278Y57400D01*
X352722D01*
X352207Y57187D01*
X351995Y56975D01*
X351575D01*
X343983Y64567D01*
Y66057D01*
X342099D01*
X340290Y67866D01*
X340042Y68032D01*
X339749Y68090D01*
X338321D01*
Y72100D01*
X335159D01*
Y66576D01*
X337497D01*
X337571Y66561D01*
X339433D01*
X341017Y64976D01*
Y63486D01*
X342901D01*
X343411Y62976D01*
X343220Y62514D01*
X341017D01*
Y59943D01*
X342165D01*
Y59126D01*
X342235Y58775D01*
X342434Y58477D01*
X342620Y58291D01*
X342614Y58276D01*
Y57724D01*
X342825Y57215D01*
X343215Y56825D01*
X343724Y56614D01*
X344276D01*
X344785Y56825D01*
X345175Y57215D01*
X345386Y57724D01*
Y58276D01*
X345175Y58785D01*
X344785Y59175D01*
X344276Y59386D01*
X344121D01*
X344000Y59506D01*
Y60843D01*
X343983Y60931D01*
Y61751D01*
X344445Y61942D01*
X350717Y55670D01*
X350965Y55504D01*
X351258Y55446D01*
X351714D01*
X351813Y55207D01*
X352207Y54813D01*
X352324Y54765D01*
X352224Y54265D01*
X341656D01*
X341176Y54312D01*
Y57277D01*
X339685D01*
X336183Y60780D01*
X335935Y60945D01*
X335642Y61004D01*
X334581D01*
Y65013D01*
X331419D01*
Y59489D01*
X333757D01*
X333831Y59474D01*
X335325D01*
X337061Y57739D01*
X336869Y57277D01*
X335061D01*
Y56559D01*
X328384D01*
X328091Y56501D01*
X327843Y56335D01*
X327843Y56335D01*
X326734Y55226D01*
X322745D01*
X322639Y55726D01*
X322653Y55748D01*
X322762Y56295D01*
Y60010D01*
X322975Y60052D01*
X323336Y60293D01*
X323576Y60653D01*
X323592Y60733D01*
X325161D01*
X325161Y60733D01*
X325707Y60842D01*
X326170Y61151D01*
X326509Y61491D01*
X326628Y61668D01*
X326675Y61715D01*
X326700Y61776D01*
X326819Y61954D01*
X326860Y62163D01*
X326886Y62224D01*
Y62291D01*
X326927Y62500D01*
X326886Y62709D01*
Y62776D01*
X326860Y62837D01*
X326819Y63046D01*
X326700Y63224D01*
X326675Y63285D01*
X326628Y63332D01*
X326509Y63509D01*
X326332Y63628D01*
X326285Y63675D01*
X326224Y63700D01*
X326046Y63819D01*
X325837Y63860D01*
X325776Y63886D01*
X325709D01*
X325500Y63927D01*
X325291Y63886D01*
X325224D01*
X325163Y63860D01*
X324954Y63819D01*
X324776Y63700D01*
X324715Y63675D01*
X324668Y63628D01*
X324608Y63588D01*
X323592D01*
X323576Y63668D01*
X323336Y64028D01*
X322975Y64269D01*
X322550Y64354D01*
X321172D01*
X320747Y64269D01*
X320387Y64028D01*
X320147Y63668D01*
X320062Y63243D01*
Y61856D01*
X320016Y61786D01*
X319907Y61240D01*
X319907Y61240D01*
Y56295D01*
X320016Y55748D01*
X319615Y55449D01*
X319549Y55422D01*
X319077Y55893D01*
Y57777D01*
X317390D01*
X315571Y59596D01*
X315691Y60183D01*
X315855Y60293D01*
X316096Y60653D01*
X316180Y61078D01*
Y63243D01*
X316096Y63668D01*
X315855Y64028D01*
X315495Y64269D01*
X315070Y64354D01*
X313692D01*
X313267Y64269D01*
X312907Y64028D01*
X312666Y63668D01*
X312582Y63243D01*
Y61078D01*
X312666Y60653D01*
X312907Y60293D01*
X313267Y60052D01*
X313616Y59983D01*
Y59705D01*
X313675Y59412D01*
X313840Y59164D01*
X316506Y56499D01*
Y54812D01*
X317789D01*
X317930Y54627D01*
X317681Y54127D01*
X307865D01*
X307265Y54727D01*
Y61968D01*
X307265Y61968D01*
X307207Y62261D01*
X307041Y62509D01*
X307041Y62509D01*
X303983Y65567D01*
Y67058D01*
X302296D01*
X298726Y70627D01*
X298478Y70793D01*
X298185Y70851D01*
X297821D01*
Y72849D01*
X294659D01*
Y67324D01*
X297821D01*
Y68662D01*
X298321Y68869D01*
X301017Y66173D01*
Y64486D01*
X302901D01*
X303411Y63976D01*
X303220Y63514D01*
X301017D01*
Y60943D01*
X301582D01*
Y60042D01*
X301325Y59785D01*
X301114Y59276D01*
Y58724D01*
X301325Y58215D01*
X301715Y57825D01*
X302224Y57614D01*
X302776D01*
X303285Y57825D01*
X303675Y58215D01*
X303886Y58724D01*
Y59276D01*
X303675Y59785D01*
X303418Y60042D01*
Y60943D01*
X303983D01*
Y62751D01*
X304445Y62942D01*
X305735Y61652D01*
Y54410D01*
X305793Y54117D01*
X305959Y53869D01*
X306814Y53015D01*
X306607Y52515D01*
X269477D01*
X269265Y52727D01*
Y60969D01*
X269207Y61261D01*
X269041Y61509D01*
X263983Y66567D01*
Y68058D01*
X262099D01*
X260084Y70072D01*
X259836Y70238D01*
X259544Y70296D01*
X257821D01*
Y74305D01*
D02*
G37*
G36*
X318038Y46928D02*
X316263D01*
Y45153D01*
X318038D01*
Y46928D01*
D02*
G37*
G36*
X315863D02*
X314088D01*
Y45153D01*
X315863D01*
Y46928D01*
D02*
G37*
G36*
X19514Y131983D02*
X16942D01*
Y129017D01*
X17311D01*
Y125440D01*
X16943Y125195D01*
X16681Y124802D01*
X16589Y124339D01*
X16681Y123875D01*
X16943Y123483D01*
X17161Y123337D01*
X17164Y123329D01*
Y122789D01*
X17161Y122781D01*
X16943Y122636D01*
X16681Y122243D01*
X16589Y121780D01*
X16681Y121316D01*
X16943Y120923D01*
X17029Y120866D01*
X17062Y120326D01*
X16748Y120028D01*
X15111D01*
X14759Y119958D01*
X14462Y119759D01*
X14351Y119649D01*
X14152Y119351D01*
X14082Y119000D01*
X14152Y118649D01*
X14351Y118351D01*
X14649Y118152D01*
X15000Y118082D01*
X15351Y118152D01*
X15412Y118193D01*
X16786D01*
X17003Y117854D01*
X16773Y117498D01*
X15581D01*
X15230Y117429D01*
X14932Y117230D01*
X14851Y117149D01*
X14652Y116851D01*
X14582Y116500D01*
X14652Y116149D01*
X14851Y115851D01*
X15149Y115652D01*
X15500Y115582D01*
X15851Y115652D01*
X15867Y115663D01*
X17156D01*
X17336Y115543D01*
X17799Y115451D01*
X18682D01*
Y116661D01*
X18882D01*
Y116861D01*
X21135D01*
X21083Y117125D01*
X20821Y117517D01*
X20603Y117663D01*
X20600Y117671D01*
Y118211D01*
X20603Y118219D01*
X20821Y118364D01*
X21083Y118757D01*
X21136Y119020D01*
X18882D01*
Y119421D01*
X21136D01*
X21083Y119684D01*
X20821Y120077D01*
X20839Y120646D01*
X21062Y120862D01*
X21340D01*
X25352Y116850D01*
X25194Y116355D01*
X25161Y116276D01*
X25100Y116215D01*
Y116129D01*
X25067Y116049D01*
Y114179D01*
X24311Y113424D01*
X23125D01*
Y112000D01*
Y110576D01*
X24067D01*
Y108500D01*
X24194Y108194D01*
X33567Y98821D01*
Y92500D01*
X33694Y92194D01*
X33831Y92137D01*
X34019Y91965D01*
X34095Y91567D01*
X34067Y91500D01*
Y71433D01*
X22500D01*
X22194Y71306D01*
X22067Y71000D01*
Y64000D01*
X22194Y63694D01*
X23567Y62321D01*
Y45000D01*
X23694Y44694D01*
X24000Y44567D01*
X46500D01*
X46806Y44694D01*
X55306Y53194D01*
X55433Y53500D01*
Y92500D01*
X55343Y92716D01*
X55433Y92933D01*
Y94942D01*
X57450D01*
Y98000D01*
Y101058D01*
X55433D01*
Y101943D01*
X57450D01*
Y105000D01*
Y108057D01*
X55433D01*
Y117500D01*
X55405Y117567D01*
X55699Y118067D01*
X56500D01*
X56806Y118194D01*
X56933Y118500D01*
Y127864D01*
X56956Y127886D01*
X56958Y127977D01*
X56993Y128060D01*
X56962Y128136D01*
X56963Y128217D01*
X56782Y128683D01*
X56725Y128742D01*
X56697Y128819D01*
X56615Y128857D01*
X56552Y128922D01*
X56471Y128924D01*
X56396Y128958D01*
X45018Y129433D01*
X44981Y129419D01*
X44943Y129429D01*
X44830Y129364D01*
X44707Y129319D01*
X44690Y129283D01*
X44656Y129263D01*
X37738Y120233D01*
X37206Y120209D01*
X36924Y120492D01*
Y120651D01*
X36924Y120849D01*
Y123498D01*
X34076D01*
Y122807D01*
X31157D01*
X31080Y122914D01*
X31057Y123483D01*
X31319Y123875D01*
X31411Y124339D01*
X31319Y124802D01*
X31057Y125195D01*
X30664Y125457D01*
X30201Y125549D01*
X28035D01*
X27572Y125457D01*
X27179Y125195D01*
X26917Y124802D01*
X26825Y124339D01*
X26917Y123875D01*
X27179Y123483D01*
X27397Y123337D01*
X27400Y123329D01*
Y122789D01*
X27397Y122781D01*
X27179Y122636D01*
X26917Y122243D01*
X26825Y121780D01*
X26917Y121316D01*
X27179Y120923D01*
X27397Y120778D01*
X27400Y120770D01*
Y120230D01*
X27397Y120222D01*
X27179Y120077D01*
X26917Y119684D01*
X26825Y119220D01*
X26917Y118757D01*
X27080Y118513D01*
X27005Y118027D01*
X26948Y117917D01*
X26900Y117897D01*
X22369Y122428D01*
X22072Y122627D01*
X21721Y122697D01*
X20729D01*
X20603Y122781D01*
X20600Y122789D01*
Y123329D01*
X20603Y123337D01*
X20821Y123483D01*
X21083Y123875D01*
X21175Y124339D01*
X21083Y124802D01*
X20821Y125195D01*
X20428Y125457D01*
X19965Y125549D01*
X19146D01*
Y129017D01*
X19514D01*
Y131983D01*
D02*
G37*
G36*
X198975Y45928D02*
X197200D01*
Y44153D01*
X198975D01*
Y45928D01*
D02*
G37*
G36*
X196800D02*
X195025D01*
Y44153D01*
X196800D01*
Y45928D01*
D02*
G37*
G36*
X277538D02*
X275763D01*
Y44153D01*
X277538D01*
Y45928D01*
D02*
G37*
G36*
X275363D02*
X273588D01*
Y44153D01*
X275363D01*
Y45928D01*
D02*
G37*
G36*
X237475Y45428D02*
X235700D01*
Y43653D01*
X237475D01*
Y45428D01*
D02*
G37*
G36*
X235300D02*
X233525D01*
Y43653D01*
X235300D01*
Y45428D01*
D02*
G37*
G36*
X318038Y44753D02*
X316263D01*
Y42978D01*
X318038D01*
Y44753D01*
D02*
G37*
G36*
X315863D02*
X314088D01*
Y42978D01*
X315863D01*
Y44753D01*
D02*
G37*
G36*
X217638Y46000D02*
X217377D01*
Y42700D01*
X220677D01*
Y42961D01*
X220439Y43851D01*
X219978Y44649D01*
X219326Y45301D01*
X218528Y45761D01*
X217638Y46000D01*
D02*
G37*
G36*
X216977D02*
X216716D01*
X215826Y45761D01*
X215028Y45301D01*
X214376Y44649D01*
X213916Y43851D01*
X213677Y42961D01*
Y42700D01*
X216977D01*
Y46000D01*
D02*
G37*
G36*
X336138Y45500D02*
X335877D01*
Y42200D01*
X339177D01*
Y42461D01*
X338939Y43351D01*
X338478Y44149D01*
X337826Y44801D01*
X337028Y45261D01*
X336138Y45500D01*
D02*
G37*
G36*
X335477D02*
X335216D01*
X334326Y45261D01*
X333528Y44801D01*
X332876Y44149D01*
X332416Y43351D01*
X332177Y42461D01*
Y42200D01*
X335477D01*
Y45500D01*
D02*
G37*
G36*
X296138D02*
X295877D01*
Y42200D01*
X299177D01*
Y42461D01*
X298939Y43351D01*
X298478Y44149D01*
X297826Y44801D01*
X297028Y45261D01*
X296138Y45500D01*
D02*
G37*
G36*
X295477D02*
X295216D01*
X294326Y45261D01*
X293528Y44801D01*
X292877Y44149D01*
X292416Y43351D01*
X292177Y42461D01*
Y42200D01*
X295477D01*
Y45500D01*
D02*
G37*
G36*
X255638D02*
X255377D01*
Y42200D01*
X258677D01*
Y42461D01*
X258439Y43351D01*
X257978Y44149D01*
X257326Y44801D01*
X256528Y45261D01*
X255638Y45500D01*
D02*
G37*
G36*
X254977D02*
X254716D01*
X253826Y45261D01*
X253028Y44801D01*
X252377Y44149D01*
X251916Y43351D01*
X251677Y42461D01*
Y42200D01*
X254977D01*
Y45500D01*
D02*
G37*
G36*
X277538Y43753D02*
X275763D01*
Y41978D01*
X277538D01*
Y43753D01*
D02*
G37*
G36*
X275363D02*
X273588D01*
Y41978D01*
X275363D01*
Y43753D01*
D02*
G37*
G36*
X198975Y43753D02*
X197200D01*
Y41978D01*
X198975D01*
Y43753D01*
D02*
G37*
G36*
X196800D02*
X195025D01*
Y41978D01*
X196800D01*
Y43753D01*
D02*
G37*
G36*
X237475Y43253D02*
X235700D01*
Y41478D01*
X237475D01*
Y43253D01*
D02*
G37*
G36*
X235300D02*
X233525D01*
Y41478D01*
X235300D01*
Y43253D01*
D02*
G37*
G36*
X27420Y41865D02*
X21905D01*
Y39696D01*
X27420D01*
Y41865D01*
D02*
G37*
G36*
X21505D02*
X15990D01*
Y39696D01*
X21505D01*
Y41865D01*
D02*
G37*
G36*
X220677Y42300D02*
X217377D01*
Y39000D01*
X217638D01*
X218528Y39239D01*
X219326Y39699D01*
X219978Y40351D01*
X220439Y41149D01*
X220677Y42039D01*
Y42300D01*
D02*
G37*
G36*
X216977D02*
X213677D01*
Y42039D01*
X213916Y41149D01*
X214376Y40351D01*
X215028Y39699D01*
X215826Y39239D01*
X216716Y39000D01*
X216977D01*
Y42300D01*
D02*
G37*
G36*
X339177Y41800D02*
X335877D01*
Y38500D01*
X336138D01*
X337028Y38739D01*
X337826Y39199D01*
X338478Y39851D01*
X338939Y40649D01*
X339177Y41539D01*
Y41800D01*
D02*
G37*
G36*
X335477D02*
X332177D01*
Y41539D01*
X332416Y40649D01*
X332876Y39851D01*
X333528Y39199D01*
X334326Y38739D01*
X335216Y38500D01*
X335477D01*
Y41800D01*
D02*
G37*
G36*
X299177D02*
X295877D01*
Y38500D01*
X296138D01*
X297028Y38739D01*
X297826Y39199D01*
X298478Y39851D01*
X298939Y40649D01*
X299177Y41539D01*
Y41800D01*
D02*
G37*
G36*
X295477D02*
X292177D01*
Y41539D01*
X292416Y40649D01*
X292877Y39851D01*
X293528Y39199D01*
X294326Y38739D01*
X295216Y38500D01*
X295477D01*
Y41800D01*
D02*
G37*
G36*
X258677D02*
X255377D01*
Y38500D01*
X255638D01*
X256528Y38739D01*
X257326Y39199D01*
X257978Y39851D01*
X258439Y40649D01*
X258677Y41539D01*
Y41800D01*
D02*
G37*
G36*
X254977D02*
X251677D01*
Y41539D01*
X251916Y40649D01*
X252377Y39851D01*
X253028Y39199D01*
X253826Y38739D01*
X254716Y38500D01*
X254977D01*
Y41800D01*
D02*
G37*
G36*
X27420Y39296D02*
X21905D01*
Y37128D01*
X27420D01*
Y39296D01*
D02*
G37*
G36*
X21505D02*
X15990D01*
Y37128D01*
X21505D01*
Y39296D01*
D02*
G37*
G36*
X212000Y48333D02*
X202500D01*
X202194Y48206D01*
X202067Y47900D01*
Y34461D01*
X202059Y34384D01*
X201530Y34153D01*
X201260Y34339D01*
Y34705D01*
X201190Y35056D01*
X200991Y35354D01*
X198975Y37370D01*
Y40022D01*
X195025D01*
Y36072D01*
X197677D01*
X199425Y34325D01*
Y32886D01*
X199443Y32797D01*
Y31017D01*
X202014D01*
Y33062D01*
X202448Y33405D01*
X202550Y33376D01*
X202839Y32964D01*
X202730Y32417D01*
X202730Y32417D01*
Y30776D01*
X199781Y27827D01*
X199311D01*
X198886Y27742D01*
X198526Y27502D01*
X198285Y27141D01*
X198201Y26717D01*
Y24551D01*
X198285Y24126D01*
X198526Y23766D01*
X198886Y23525D01*
X199311Y23441D01*
X200689D01*
X201114Y23525D01*
X201474Y23766D01*
X201715Y24126D01*
X201799Y24551D01*
Y25808D01*
X205167Y29176D01*
X205167Y29176D01*
X205476Y29639D01*
X205541Y29967D01*
X212500D01*
X212806Y30094D01*
X212933Y30400D01*
Y31616D01*
X213817D01*
Y34384D01*
X212933D01*
Y47400D01*
X212806Y47706D01*
X212306Y48206D01*
X212000Y48333D01*
D02*
G37*
G36*
X330300Y47633D02*
X320800D01*
X320494Y47506D01*
X320367Y47200D01*
Y34449D01*
X320301Y34071D01*
X319905Y33983D01*
X319012D01*
X316981Y36014D01*
Y37072D01*
X318038D01*
Y41022D01*
X314088D01*
Y37072D01*
X315145D01*
Y35634D01*
X315215Y35283D01*
X315414Y34985D01*
X317714Y32685D01*
Y31017D01*
X320286D01*
Y33165D01*
X320728Y33474D01*
X320868Y33422D01*
X321110Y32964D01*
X321002Y32417D01*
X321002Y32417D01*
Y30490D01*
X317839Y27327D01*
X317369D01*
X316944Y27242D01*
X316584Y27002D01*
X316343Y26641D01*
X316259Y26217D01*
Y24051D01*
X316343Y23626D01*
X316584Y23266D01*
X316944Y23025D01*
X317369Y22941D01*
X318747D01*
X319172Y23025D01*
X319532Y23266D01*
X319773Y23626D01*
X319858Y24051D01*
Y25308D01*
X323439Y28889D01*
X323439Y28889D01*
X323691Y29267D01*
X330800D01*
X331106Y29394D01*
X331233Y29700D01*
Y31616D01*
X332317D01*
Y34384D01*
X331233D01*
Y46700D01*
X331106Y47006D01*
X330606Y47506D01*
X330300Y47633D01*
D02*
G37*
G36*
X290500Y47833D02*
X281000D01*
X280694Y47706D01*
X280567Y47400D01*
Y33961D01*
X280518Y33513D01*
X280081Y33483D01*
X278827D01*
X276737Y35572D01*
X276944Y36072D01*
X277538D01*
Y40022D01*
X273588D01*
Y36072D01*
X274798D01*
Y35665D01*
X274856Y35373D01*
X275022Y35125D01*
X277942Y32204D01*
Y30517D01*
X280514D01*
Y32724D01*
X280898Y33023D01*
X281198Y32943D01*
X281453Y32546D01*
X281344Y32000D01*
Y27832D01*
X279339Y25827D01*
X278869D01*
X278444Y25742D01*
X278084Y25502D01*
X277843Y25141D01*
X277759Y24716D01*
Y22551D01*
X277843Y22126D01*
X278084Y21766D01*
X278444Y21525D01*
X278869Y21441D01*
X280247D01*
X280672Y21525D01*
X281032Y21766D01*
X281273Y22126D01*
X281358Y22551D01*
Y23808D01*
X283781Y26232D01*
X283781Y26232D01*
X284090Y26695D01*
X284199Y27241D01*
X284199Y27241D01*
Y29467D01*
X291000D01*
X291306Y29594D01*
X291433Y29900D01*
Y31116D01*
X292317D01*
Y33884D01*
X291433D01*
Y46900D01*
X291306Y47206D01*
X290806Y47706D01*
X290500Y47833D01*
D02*
G37*
G36*
X341176Y34384D02*
X339401D01*
Y33200D01*
X341176D01*
Y34384D01*
D02*
G37*
G36*
X222676D02*
X220901D01*
Y33200D01*
X222676D01*
Y34384D01*
D02*
G37*
G36*
X339001D02*
X337226D01*
Y33200D01*
X339001D01*
Y34384D01*
D02*
G37*
G36*
X220501D02*
X218726D01*
Y33200D01*
X220501D01*
Y34384D01*
D02*
G37*
G36*
X301176Y33884D02*
X299401D01*
Y32700D01*
X301176D01*
Y33884D01*
D02*
G37*
G36*
X260676D02*
X258901D01*
Y32700D01*
X260676D01*
Y33884D01*
D02*
G37*
G36*
X299001D02*
X297226D01*
Y32700D01*
X299001D01*
Y33884D01*
D02*
G37*
G36*
X258501D02*
X256726D01*
Y32700D01*
X258501D01*
Y33884D01*
D02*
G37*
G36*
X341176Y32800D02*
X339401D01*
Y31616D01*
X341176D01*
Y32800D01*
D02*
G37*
G36*
X339001D02*
X337226D01*
Y31616D01*
X339001D01*
Y32800D01*
D02*
G37*
G36*
X222676D02*
X220901D01*
Y31616D01*
X222676D01*
Y32800D01*
D02*
G37*
G36*
X220501D02*
X218726D01*
Y31616D01*
X220501D01*
Y32800D01*
D02*
G37*
G36*
X301176Y32300D02*
X299401D01*
Y31116D01*
X301176D01*
Y32300D01*
D02*
G37*
G36*
X299001D02*
X297226D01*
Y31116D01*
X299001D01*
Y32300D01*
D02*
G37*
G36*
X260676D02*
X258901D01*
Y31116D01*
X260676D01*
Y32300D01*
D02*
G37*
G36*
X258501D02*
X256726D01*
Y31116D01*
X258501D01*
Y32300D01*
D02*
G37*
G36*
X212341Y26805D02*
X210960D01*
Y24243D01*
X212341D01*
Y26805D01*
D02*
G37*
G36*
X210560D02*
X209179D01*
Y24243D01*
X210560D01*
Y26805D01*
D02*
G37*
G36*
X330841Y26762D02*
X329460D01*
Y24200D01*
X330841D01*
Y26762D01*
D02*
G37*
G36*
X329060D02*
X327679D01*
Y24200D01*
X329060D01*
Y26762D01*
D02*
G37*
G36*
X250341D02*
X248960D01*
Y24200D01*
X250341D01*
Y26762D01*
D02*
G37*
G36*
X248560D02*
X247179D01*
Y24200D01*
X248560D01*
Y26762D01*
D02*
G37*
G36*
X290841Y25806D02*
X289460D01*
Y23243D01*
X290841D01*
Y25806D01*
D02*
G37*
G36*
X289060D02*
X287679D01*
Y23243D01*
X289060D01*
Y25806D01*
D02*
G37*
G36*
X212341Y23843D02*
X210960D01*
Y21281D01*
X212341D01*
Y23843D01*
D02*
G37*
G36*
X210560D02*
X209179D01*
Y21281D01*
X210560D01*
Y23843D01*
D02*
G37*
G36*
X330841Y23800D02*
X329460D01*
Y21238D01*
X330841D01*
Y23800D01*
D02*
G37*
G36*
X329060D02*
X327679D01*
Y21238D01*
X329060D01*
Y23800D01*
D02*
G37*
G36*
X250341D02*
X248960D01*
Y21238D01*
X250341D01*
Y23800D01*
D02*
G37*
G36*
X248560D02*
X247179D01*
Y21238D01*
X248560D01*
Y23800D01*
D02*
G37*
G36*
X290841Y22843D02*
X289460D01*
Y20281D01*
X290841D01*
Y22843D01*
D02*
G37*
G36*
X289060D02*
X287679D01*
Y20281D01*
X289060D01*
Y22843D01*
D02*
G37*
G36*
X286500Y18427D02*
X286291Y18386D01*
X286224D01*
X286163Y18360D01*
X285954Y18319D01*
X285776Y18200D01*
X285715Y18175D01*
X285668Y18128D01*
X285491Y18009D01*
X285047Y17565D01*
X283676D01*
X283676Y17565D01*
X283646Y17559D01*
X282610D01*
X282185Y17475D01*
X281824Y17234D01*
X281584Y16874D01*
X281499Y16449D01*
Y15586D01*
X280262Y14349D01*
X279953Y13886D01*
X279844Y13339D01*
X279844Y13339D01*
Y9500D01*
X279953Y8954D01*
X279552Y8654D01*
X279486Y8627D01*
X279014Y9099D01*
Y10983D01*
X277524D01*
X276583Y11924D01*
Y13188D01*
X276932Y13258D01*
X277292Y13498D01*
X277533Y13859D01*
X277617Y14284D01*
Y16449D01*
X277533Y16874D01*
X277292Y17234D01*
X276932Y17475D01*
X276507Y17559D01*
X275129D01*
X274704Y17475D01*
X274344Y17234D01*
X274103Y16874D01*
X274019Y16449D01*
Y14284D01*
X274103Y13859D01*
X274344Y13498D01*
X274704Y13258D01*
X275053Y13188D01*
Y11607D01*
X275112Y11314D01*
X275277Y11066D01*
X276443Y9901D01*
Y8017D01*
X277933D01*
X278823Y7127D01*
X279071Y6961D01*
X279364Y6903D01*
X283612D01*
X283905Y6961D01*
X284153Y7127D01*
X285761Y8735D01*
X288943D01*
Y8017D01*
X291514D01*
Y10983D01*
X288943D01*
Y10265D01*
X285445D01*
X285152Y10206D01*
X284904Y10041D01*
X283295Y8432D01*
X282682D01*
X282576Y8932D01*
X282590Y8954D01*
X282699Y9500D01*
Y12748D01*
X283124Y13173D01*
X283987D01*
X284412Y13258D01*
X284772Y13498D01*
X285013Y13859D01*
X285098Y14284D01*
Y14710D01*
X285638D01*
X285638Y14710D01*
X286184Y14819D01*
X286647Y15128D01*
X287509Y15991D01*
X287628Y16168D01*
X287675Y16215D01*
X287700Y16276D01*
X287819Y16454D01*
X287860Y16663D01*
X287886Y16724D01*
Y16791D01*
X287927Y17000D01*
X287886Y17209D01*
Y17276D01*
X287860Y17337D01*
X287819Y17546D01*
X287700Y17724D01*
X287675Y17785D01*
X287628Y17832D01*
X287509Y18009D01*
X287332Y18128D01*
X287285Y18175D01*
X287224Y18200D01*
X287046Y18319D01*
X286837Y18360D01*
X286776Y18386D01*
X286709D01*
X286500Y18427D01*
D02*
G37*
G36*
X264983Y17014D02*
X262017D01*
Y14443D01*
X262935D01*
Y13895D01*
X262825Y13785D01*
X262614Y13276D01*
Y12724D01*
X262825Y12215D01*
X263215Y11825D01*
X263724Y11614D01*
X264276D01*
X264785Y11825D01*
X265175Y12215D01*
X265386Y12724D01*
Y13276D01*
X265175Y13785D01*
X265007Y13953D01*
X264983Y14443D01*
X264983Y14443D01*
Y17014D01*
D02*
G37*
G36*
X303483D02*
X300517D01*
Y14443D01*
X301082D01*
Y13589D01*
X300879Y13386D01*
X300724D01*
X300215Y13175D01*
X299825Y12785D01*
X299614Y12276D01*
Y11724D01*
X299825Y11215D01*
X300215Y10825D01*
X300724Y10614D01*
X301276D01*
X301785Y10825D01*
X302175Y11215D01*
X302386Y11724D01*
Y12276D01*
X302380Y12291D01*
X302649Y12560D01*
X302848Y12858D01*
X302918Y13209D01*
Y14443D01*
X303483D01*
Y17014D01*
D02*
G37*
G36*
X334581Y19676D02*
X331419D01*
Y14151D01*
X333757D01*
X333831Y14137D01*
X336369D01*
X337061Y13445D01*
X336869Y12983D01*
X335061D01*
Y12265D01*
X327754D01*
X327461Y12207D01*
X327213Y12041D01*
X325604Y10432D01*
X321182D01*
X321076Y10932D01*
X321090Y10954D01*
X321199Y11500D01*
Y14248D01*
X321624Y14673D01*
X322487D01*
X322912Y14758D01*
X323272Y14998D01*
X323322Y15073D01*
X325500D01*
X325709Y15114D01*
X325776D01*
X325837Y15140D01*
X326046Y15181D01*
X326224Y15300D01*
X326285Y15325D01*
X326332Y15372D01*
X326509Y15491D01*
X326628Y15668D01*
X326675Y15715D01*
X326700Y15776D01*
X326819Y15954D01*
X326860Y16163D01*
X326886Y16224D01*
Y16291D01*
X326927Y16500D01*
X326886Y16709D01*
Y16776D01*
X326860Y16837D01*
X326819Y17046D01*
X326700Y17224D01*
X326675Y17285D01*
X326628Y17332D01*
X326509Y17509D01*
X326332Y17628D01*
X326285Y17675D01*
X326224Y17700D01*
X326046Y17819D01*
X325837Y17860D01*
X325776Y17886D01*
X325709D01*
X325500Y17927D01*
X323598D01*
Y17949D01*
X323513Y18374D01*
X323272Y18734D01*
X322912Y18975D01*
X322487Y19059D01*
X321110D01*
X320685Y18975D01*
X320324Y18734D01*
X320084Y18374D01*
X319999Y17949D01*
Y17086D01*
X318762Y15849D01*
X318453Y15386D01*
X318344Y14839D01*
X318344Y14839D01*
Y11500D01*
X318453Y10954D01*
X318052Y10654D01*
X317986Y10627D01*
X317514Y11099D01*
Y12983D01*
X316024D01*
X315083Y13924D01*
Y14688D01*
X315432Y14758D01*
X315792Y14998D01*
X316033Y15359D01*
X316117Y15784D01*
Y17949D01*
X316033Y18374D01*
X315792Y18734D01*
X315432Y18975D01*
X315007Y19059D01*
X313629D01*
X313204Y18975D01*
X312844Y18734D01*
X312603Y18374D01*
X312519Y17949D01*
Y15784D01*
X312603Y15359D01*
X312844Y14998D01*
X313204Y14758D01*
X313553Y14688D01*
Y13607D01*
X313612Y13314D01*
X313777Y13066D01*
X314943Y11901D01*
Y10017D01*
X316433D01*
X317323Y9127D01*
X317571Y8961D01*
X317864Y8903D01*
X325921D01*
X326214Y8961D01*
X326462Y9127D01*
X328070Y10735D01*
X335061D01*
Y10017D01*
X337632D01*
Y12220D01*
X338094Y12411D01*
X338604Y11901D01*
Y10017D01*
X341176D01*
Y12983D01*
X339685D01*
X337226Y15442D01*
X336978Y15608D01*
X336685Y15666D01*
X334581D01*
Y19676D01*
D02*
G37*
G36*
X254081D02*
X250919D01*
Y14151D01*
X253000D01*
X254875Y12276D01*
X255123Y12111D01*
X255415Y12052D01*
X255415Y12052D01*
X256064D01*
X256110Y11983D01*
X255843Y11483D01*
X254561D01*
Y10765D01*
X247504D01*
X247211Y10706D01*
X246963Y10541D01*
X245354Y8932D01*
X241182D01*
X241076Y9432D01*
X241090Y9454D01*
X241199Y10000D01*
Y13491D01*
X241881Y14173D01*
X242429D01*
X242854Y14258D01*
X243214Y14498D01*
X243455Y14859D01*
X243497Y15073D01*
X245000D01*
X245209Y15114D01*
X245276D01*
X245337Y15140D01*
X245546Y15181D01*
X245724Y15300D01*
X245785Y15325D01*
X245832Y15372D01*
X246009Y15491D01*
X246128Y15668D01*
X246175Y15715D01*
X246200Y15776D01*
X246319Y15954D01*
X246360Y16163D01*
X246386Y16224D01*
Y16291D01*
X246427Y16500D01*
X246386Y16709D01*
Y16776D01*
X246360Y16837D01*
X246319Y17046D01*
X246200Y17224D01*
X246175Y17285D01*
X246128Y17332D01*
X246009Y17509D01*
X245832Y17628D01*
X245785Y17675D01*
X245724Y17700D01*
X245546Y17819D01*
X245337Y17860D01*
X245276Y17886D01*
X245209D01*
X245000Y17927D01*
X243419D01*
X243214Y18234D01*
X242854Y18475D01*
X242429Y18559D01*
X241051D01*
X240626Y18475D01*
X240266Y18234D01*
X240025Y17874D01*
X239941Y17449D01*
Y16271D01*
X238762Y15092D01*
X238453Y14629D01*
X238344Y14083D01*
X238344Y14083D01*
Y10000D01*
X238453Y9454D01*
X238052Y9154D01*
X237986Y9127D01*
X237514Y9599D01*
Y11483D01*
X236024D01*
X235024Y12482D01*
Y14188D01*
X235374Y14258D01*
X235734Y14498D01*
X235975Y14859D01*
X236059Y15283D01*
Y17449D01*
X235975Y17874D01*
X235734Y18234D01*
X235374Y18475D01*
X234949Y18559D01*
X233571D01*
X233146Y18475D01*
X232786Y18234D01*
X232545Y17874D01*
X232461Y17449D01*
Y15283D01*
X232545Y14859D01*
X232786Y14498D01*
X233146Y14258D01*
X233495Y14188D01*
Y12165D01*
X233553Y11873D01*
X233719Y11625D01*
X234943Y10401D01*
Y8517D01*
X236433D01*
X237323Y7627D01*
X237572Y7461D01*
X237864Y7403D01*
X245671D01*
X245964Y7461D01*
X246212Y7627D01*
X247820Y9235D01*
X254561D01*
Y8517D01*
X257132D01*
Y10720D01*
X257594Y10911D01*
X258104Y10401D01*
Y8517D01*
X260676D01*
Y11483D01*
X259185D01*
X257310Y13358D01*
X257062Y13523D01*
X256770Y13582D01*
X255732D01*
X254081Y15233D01*
Y19676D01*
D02*
G37*
G36*
X294581Y18719D02*
X291419D01*
Y13194D01*
X293007D01*
Y10983D01*
X292486D01*
Y8017D01*
X295058D01*
Y10983D01*
X294536D01*
Y13194D01*
X294581D01*
Y18719D01*
D02*
G37*
%LPD*%
G36*
X331000Y187000D02*
Y172884D01*
X330542D01*
Y171500D01*
X330343D01*
Y171300D01*
X328368D01*
Y170116D01*
X327916Y170000D01*
X325302D01*
X324809Y170017D01*
X324809Y170500D01*
Y171300D01*
X323523D01*
X322237D01*
X322237Y170020D01*
X321751Y170001D01*
X321265Y170020D01*
Y172983D01*
X320897D01*
Y174631D01*
X320827Y174982D01*
X320628Y175279D01*
X319500Y176408D01*
Y187500D01*
X330500D01*
X331000Y187000D01*
D02*
G37*
%LPC*%
G36*
X329177Y186000D02*
X325877D01*
Y182700D01*
X329177D01*
Y186000D01*
D02*
G37*
G36*
X325477D02*
X322177D01*
Y182700D01*
X325477D01*
Y186000D01*
D02*
G37*
G36*
X329177Y182300D02*
X325877D01*
Y179000D01*
X329177D01*
Y182300D01*
D02*
G37*
G36*
X325477D02*
X322177D01*
Y179000D01*
X325477D01*
Y182300D01*
D02*
G37*
G36*
X330142Y172884D02*
X328368D01*
Y171700D01*
X330142D01*
Y172884D01*
D02*
G37*
G36*
X324809Y172983D02*
X323723D01*
Y171700D01*
X324809D01*
Y172983D01*
D02*
G37*
G36*
X323323D02*
X322237D01*
Y171700D01*
X323323D01*
Y172983D01*
D02*
G37*
%LPD*%
G36*
X250700Y187700D02*
Y173884D01*
X250043D01*
Y172500D01*
X249843D01*
Y172300D01*
X247868D01*
Y171116D01*
X247664Y170700D01*
X247177D01*
X246809Y171017D01*
X246809Y171200D01*
Y172300D01*
X245523D01*
X244237D01*
Y171200D01*
X244237Y171017D01*
X243868Y170700D01*
X243634D01*
X243265Y171017D01*
Y173983D01*
X241682D01*
X241650Y173989D01*
X240700Y174940D01*
Y188200D01*
X250200D01*
X250700Y187700D01*
D02*
G37*
%LPC*%
G36*
X248677Y186500D02*
X245377D01*
Y183200D01*
X248677D01*
Y186500D01*
D02*
G37*
G36*
X244977D02*
X241677D01*
Y183200D01*
X244977D01*
Y186500D01*
D02*
G37*
G36*
X248677Y182800D02*
X245377D01*
Y179500D01*
X248677D01*
Y182800D01*
D02*
G37*
G36*
X244977D02*
X241677D01*
Y179500D01*
X244977D01*
Y182800D01*
D02*
G37*
G36*
X249642Y173884D02*
X247868D01*
Y172700D01*
X249642D01*
Y173884D01*
D02*
G37*
G36*
X246809Y173983D02*
X245723D01*
Y172700D01*
X246809D01*
Y173983D01*
D02*
G37*
G36*
X245323D02*
X244237D01*
Y172700D01*
X245323D01*
Y173983D01*
D02*
G37*
%LPD*%
G36*
X291200Y187200D02*
Y173384D01*
X290543D01*
Y172000D01*
X290342D01*
Y171800D01*
X288368D01*
Y170616D01*
X288164Y170200D01*
X285926D01*
X285558Y170517D01*
Y171800D01*
X284272D01*
X282986D01*
Y171567D01*
X282524Y171376D01*
X282014Y171886D01*
Y173483D01*
X281260D01*
Y174062D01*
X281200Y174364D01*
Y187700D01*
X290700D01*
X291200Y187200D01*
D02*
G37*
%LPC*%
G36*
X289177Y186000D02*
X285877D01*
Y182700D01*
X289177D01*
Y186000D01*
D02*
G37*
G36*
X285477D02*
X282177D01*
Y182700D01*
X285477D01*
Y186000D01*
D02*
G37*
G36*
X289177Y182300D02*
X285877D01*
Y179000D01*
X289177D01*
Y182300D01*
D02*
G37*
G36*
X285477D02*
X282177D01*
Y179000D01*
X285477D01*
Y182300D01*
D02*
G37*
G36*
X290142Y173384D02*
X288368D01*
Y172200D01*
X290142D01*
Y173384D01*
D02*
G37*
G36*
X285558Y173483D02*
X284472D01*
Y172200D01*
X285558D01*
Y173483D01*
D02*
G37*
G36*
X284072D02*
X282986D01*
Y172200D01*
X284072D01*
Y173483D01*
D02*
G37*
%LPD*%
G36*
X212700Y187700D02*
Y174384D01*
X212042D01*
Y173000D01*
Y171616D01*
X212700D01*
Y170700D01*
X206426D01*
X206058Y171017D01*
Y172300D01*
X204772D01*
Y172500D01*
X204572D01*
Y173983D01*
X203486D01*
Y173108D01*
X203047Y172920D01*
X202700Y173205D01*
Y188200D01*
X212200D01*
X212700Y187700D01*
D02*
G37*
%LPC*%
G36*
X210677Y186500D02*
X207377D01*
Y183200D01*
X210677D01*
Y186500D01*
D02*
G37*
G36*
X206977D02*
X203677D01*
Y183200D01*
X206977D01*
Y186500D01*
D02*
G37*
G36*
X210677Y182800D02*
X207377D01*
Y179500D01*
X210677D01*
Y182800D01*
D02*
G37*
G36*
X206977D02*
X203677D01*
Y179500D01*
X206977D01*
Y182800D01*
D02*
G37*
G36*
X211643Y174384D02*
X209868D01*
Y173200D01*
X211643D01*
Y174384D01*
D02*
G37*
G36*
X206058Y173983D02*
X204972D01*
Y172700D01*
X206058D01*
Y173983D01*
D02*
G37*
G36*
X211643Y172800D02*
X209868D01*
Y171616D01*
X211643D01*
Y172800D01*
D02*
G37*
%LPD*%
G36*
X367795Y94255D02*
X367795Y90507D01*
X366053Y92243D01*
X364264Y90494D01*
X364264Y94302D01*
X367795Y94255D01*
D02*
G37*
G36*
X366039Y90670D02*
X367804Y88905D01*
X364261Y88906D01*
X366039Y90684D01*
Y90670D01*
D02*
G37*
G36*
X58000Y146500D02*
Y137448D01*
X57538Y137257D01*
X53059Y141736D01*
X52430Y142156D01*
X51689Y142303D01*
X51000D01*
X50259Y142156D01*
X49630Y141736D01*
X49210Y141107D01*
X49063Y140366D01*
X49210Y139625D01*
X49630Y138996D01*
X50259Y138576D01*
X50858Y138457D01*
X54853Y134462D01*
X54662Y134000D01*
X45500D01*
X42500Y137000D01*
X33951D01*
X33760Y137462D01*
X34649Y138351D01*
X34848Y138649D01*
X34918Y139000D01*
X34848Y139351D01*
X34649Y139649D01*
X34351Y139848D01*
X34000Y139918D01*
X33649Y139848D01*
X33351Y139649D01*
X30702Y137000D01*
X17000D01*
X15608Y138392D01*
X15799Y138854D01*
X17632D01*
X18135Y138351D01*
X18432Y138152D01*
X18783Y138082D01*
X19000D01*
X19351Y138152D01*
X19649Y138351D01*
X19848Y138649D01*
X19918Y139000D01*
X19848Y139351D01*
X19649Y139649D01*
X19351Y139848D01*
X19204Y139877D01*
X18661Y140420D01*
X18363Y140619D01*
X18012Y140689D01*
X13311D01*
X13000Y141000D01*
Y148000D01*
X22942D01*
Y147880D01*
X29057D01*
Y148000D01*
X56500D01*
X58000Y146500D01*
D02*
G37*
G36*
X69770Y88152D02*
X67992Y86374D01*
Y86388D01*
X66227Y88153D01*
X69770Y88152D01*
D02*
G37*
G36*
X69767Y82756D02*
X66236Y82803D01*
X66236Y86551D01*
X67978Y84815D01*
X69767Y86564D01*
X69767Y82756D01*
D02*
G37*
G36*
X212500Y143605D02*
Y129884D01*
X212042D01*
Y128500D01*
Y127116D01*
X212500D01*
Y126605D01*
X201500D01*
Y127483D01*
X201986Y127517D01*
X202000Y127517D01*
X203072D01*
Y129000D01*
Y130483D01*
X202000D01*
X201986Y130483D01*
X201500Y130517D01*
Y144106D01*
X212000D01*
X212500Y143605D01*
D02*
G37*
%LPC*%
G36*
X210677Y142206D02*
X207377D01*
Y138906D01*
X210677D01*
Y142206D01*
D02*
G37*
G36*
X206977D02*
X203677D01*
Y138906D01*
X206977D01*
Y142206D01*
D02*
G37*
G36*
X210677Y138505D02*
X207377D01*
Y135205D01*
X210677D01*
Y138505D01*
D02*
G37*
G36*
X206977D02*
X203677D01*
Y135205D01*
X206977D01*
Y138505D01*
D02*
G37*
G36*
X203472Y130483D02*
Y129200D01*
X204557D01*
Y130483D01*
X203472D01*
D02*
G37*
G36*
X211643Y129884D02*
X209868D01*
Y128700D01*
X211643D01*
Y129884D01*
D02*
G37*
G36*
X204557Y128800D02*
X203472D01*
Y127517D01*
X204557D01*
Y128800D01*
D02*
G37*
G36*
X211643Y128300D02*
X209868D01*
Y127116D01*
X211643D01*
Y128300D01*
D02*
G37*
%LPD*%
G36*
X291000Y143105D02*
Y129384D01*
X290543D01*
Y128000D01*
Y126616D01*
X291000D01*
Y126105D01*
X283270D01*
X283057Y126517D01*
X283057Y126605D01*
Y127800D01*
X281772D01*
Y128000D01*
X281572D01*
Y129483D01*
X280500D01*
X280486Y129483D01*
X280000Y129517D01*
Y143605D01*
X290500D01*
X291000Y143105D01*
D02*
G37*
%LPC*%
G36*
X289177Y141706D02*
X285877D01*
Y138406D01*
X289177D01*
Y141706D01*
D02*
G37*
G36*
X285477D02*
X282177D01*
Y138406D01*
X285477D01*
Y141706D01*
D02*
G37*
G36*
X289177Y138005D02*
X285877D01*
Y134705D01*
X289177D01*
Y138005D01*
D02*
G37*
G36*
X285477D02*
X282177D01*
Y134705D01*
X285477D01*
Y138005D01*
D02*
G37*
G36*
X290142Y129384D02*
X288368D01*
Y128200D01*
X290142D01*
Y129384D01*
D02*
G37*
G36*
X281972Y129483D02*
Y128200D01*
X283057D01*
Y129483D01*
X281972D01*
D02*
G37*
G36*
X290142Y127800D02*
X288368D01*
Y126616D01*
X290142D01*
Y127800D01*
D02*
G37*
%LPD*%
G36*
X250500Y143605D02*
Y129384D01*
X250043D01*
Y128000D01*
X249843D01*
Y127800D01*
X247868D01*
Y126616D01*
X247372Y126605D01*
X240809D01*
Y127800D01*
X239523D01*
Y128000D01*
X239323D01*
Y129483D01*
X238237D01*
X238000Y129885D01*
Y144106D01*
X250000D01*
X250500Y143605D01*
D02*
G37*
%LPC*%
G36*
X248677Y142206D02*
X245377D01*
Y138906D01*
X248677D01*
Y142206D01*
D02*
G37*
G36*
X244977D02*
X241677D01*
Y138906D01*
X244977D01*
Y142206D01*
D02*
G37*
G36*
X248677Y138505D02*
X245377D01*
Y135205D01*
X248677D01*
Y138505D01*
D02*
G37*
G36*
X244977D02*
X241677D01*
Y135205D01*
X244977D01*
Y138505D01*
D02*
G37*
G36*
X249642Y129384D02*
X247868D01*
Y128200D01*
X249642D01*
Y129384D01*
D02*
G37*
G36*
X239723Y129483D02*
Y128200D01*
X240809D01*
Y129483D01*
X239723D01*
D02*
G37*
%LPD*%
G36*
X330800Y142905D02*
Y128384D01*
X330542D01*
Y127000D01*
X330343D01*
Y126800D01*
X328368D01*
Y125906D01*
X321026D01*
X319876Y127055D01*
X320067Y127517D01*
X321309D01*
Y128800D01*
X320023D01*
Y129000D01*
X319823D01*
Y130483D01*
X319000D01*
Y143405D01*
X330300D01*
X330800Y142905D01*
D02*
G37*
%LPC*%
G36*
X329177Y141706D02*
X325877D01*
Y138406D01*
X329177D01*
Y141706D01*
D02*
G37*
G36*
X325477D02*
X322177D01*
Y138406D01*
X325477D01*
Y141706D01*
D02*
G37*
G36*
X329177Y138005D02*
X325877D01*
Y134705D01*
X329177D01*
Y138005D01*
D02*
G37*
G36*
X325477D02*
X322177D01*
Y134705D01*
X325477D01*
Y138005D01*
D02*
G37*
G36*
X321309Y130483D02*
X320223D01*
Y129200D01*
X321309D01*
Y130483D01*
D02*
G37*
G36*
X330142Y128384D02*
X328368D01*
Y127200D01*
X330142D01*
Y128384D01*
D02*
G37*
%LPD*%
G36*
X379764Y94197D02*
X379764Y90449D01*
X378022Y92185D01*
X376233Y90436D01*
X376233Y94244D01*
X379764Y94197D01*
D02*
G37*
G36*
X378008Y90612D02*
X379773Y88847D01*
X376230Y88848D01*
X378008Y90626D01*
Y90612D01*
D02*
G37*
G36*
X391961Y94197D02*
X391961Y90449D01*
X390219Y92185D01*
X388430Y90436D01*
X388430Y94244D01*
X391961Y94197D01*
D02*
G37*
G36*
X390205Y90612D02*
X391970Y88847D01*
X388427Y88848D01*
X390205Y90626D01*
Y90612D01*
D02*
G37*
G36*
X385862Y94197D02*
X385862Y90449D01*
X384120Y92185D01*
X382331Y90436D01*
X382331Y94244D01*
X385862Y94197D01*
D02*
G37*
G36*
X384106Y90612D02*
X385871Y88847D01*
X382328Y88848D01*
X384106Y90626D01*
Y90612D01*
D02*
G37*
G36*
X373665Y94197D02*
X373666Y90449D01*
X371924Y92185D01*
X370135Y90436D01*
X370134Y94244D01*
X373665Y94197D01*
D02*
G37*
G36*
X371910Y90612D02*
X373675Y88847D01*
X370132Y88848D01*
X371910Y90626D01*
Y90612D01*
D02*
G37*
G36*
X398059Y94197D02*
X398059Y90449D01*
X396317Y92185D01*
X394528Y90436D01*
X394528Y94244D01*
X398059Y94197D01*
D02*
G37*
G36*
X396303Y90612D02*
X398068Y88847D01*
X394525Y88848D01*
X396303Y90626D01*
Y90612D01*
D02*
G37*
G36*
X212500Y93400D02*
Y80884D01*
X212042D01*
Y79500D01*
Y78116D01*
X212500D01*
Y76400D01*
X205000D01*
X203883Y77517D01*
X204090Y78017D01*
X204572D01*
Y79300D01*
X203486D01*
Y78621D01*
X202986Y78414D01*
X202514Y78886D01*
Y80983D01*
X202500D01*
Y93900D01*
X212000D01*
X212500Y93400D01*
D02*
G37*
%LPC*%
G36*
X210677Y92706D02*
X207377D01*
Y89406D01*
X210677D01*
Y92706D01*
D02*
G37*
G36*
X206977D02*
X203677D01*
Y89406D01*
X206977D01*
Y92706D01*
D02*
G37*
G36*
X210677Y89006D02*
X207377D01*
Y85706D01*
X210677D01*
Y89006D01*
D02*
G37*
G36*
X206977D02*
X203677D01*
Y85706D01*
X206977D01*
Y89006D01*
D02*
G37*
G36*
X211643Y80884D02*
X209868D01*
Y79700D01*
X211643D01*
Y80884D01*
D02*
G37*
G36*
X206058Y80983D02*
X204972D01*
Y79700D01*
X206058D01*
Y80983D01*
D02*
G37*
G36*
X204572D02*
X203486D01*
Y79700D01*
X204572D01*
Y80983D01*
D02*
G37*
G36*
X211643Y79300D02*
X209868D01*
Y78116D01*
X211643D01*
Y79300D01*
D02*
G37*
G36*
X206058Y79300D02*
X204972D01*
Y78017D01*
X206058D01*
Y79300D01*
D02*
G37*
%LPD*%
G36*
X291000Y92900D02*
Y81159D01*
X290543D01*
Y79774D01*
Y78390D01*
X291000D01*
Y75900D01*
X283500D01*
X281588Y77812D01*
X281795Y78312D01*
X281947Y78312D01*
X282635D01*
Y79594D01*
X281549D01*
Y79107D01*
X281049Y78840D01*
X281000Y78872D01*
Y93400D01*
X290500D01*
X291000Y92900D01*
D02*
G37*
%LPC*%
G36*
X289177Y92000D02*
X285877D01*
Y88700D01*
X289177D01*
Y92000D01*
D02*
G37*
G36*
X285477D02*
X282177D01*
Y88700D01*
X285477D01*
Y92000D01*
D02*
G37*
G36*
X289177Y88300D02*
X285877D01*
Y85000D01*
X289177D01*
Y88300D01*
D02*
G37*
G36*
X285477D02*
X282177D01*
Y85000D01*
X285477D01*
Y88300D01*
D02*
G37*
G36*
X284120Y81277D02*
X283035D01*
Y79994D01*
X284120D01*
Y81277D01*
D02*
G37*
G36*
X282635D02*
X281549D01*
Y79994D01*
X282635D01*
Y81277D01*
D02*
G37*
G36*
X290142Y81159D02*
X288368D01*
Y79974D01*
X290142D01*
Y81159D01*
D02*
G37*
G36*
Y79574D02*
X288368D01*
Y78390D01*
X290142D01*
Y79574D01*
D02*
G37*
G36*
X284120Y79594D02*
X283035D01*
Y78312D01*
X284120D01*
Y79594D01*
D02*
G37*
%LPD*%
G36*
X250500Y93400D02*
Y80884D01*
X250043D01*
Y79500D01*
Y78116D01*
X250500D01*
Y76400D01*
X243000D01*
X241845Y77555D01*
X242036Y78017D01*
X243286D01*
Y79300D01*
X242000D01*
Y79500D01*
X241800D01*
Y80983D01*
X240714D01*
X240500Y81394D01*
Y93900D01*
X250000D01*
X250500Y93400D01*
D02*
G37*
%LPC*%
G36*
X248677Y92706D02*
X245377D01*
Y89406D01*
X248677D01*
Y92706D01*
D02*
G37*
G36*
X244977D02*
X241677D01*
Y89406D01*
X244977D01*
Y92706D01*
D02*
G37*
G36*
X248677Y89006D02*
X245377D01*
Y85706D01*
X248677D01*
Y89006D01*
D02*
G37*
G36*
X244977D02*
X241677D01*
Y85706D01*
X244977D01*
Y89006D01*
D02*
G37*
G36*
X249642Y80884D02*
X247868D01*
Y79700D01*
X249642D01*
Y80884D01*
D02*
G37*
G36*
X242200Y80983D02*
Y79700D01*
X243286D01*
Y80983D01*
X242200D01*
D02*
G37*
G36*
X249642Y79300D02*
X247868D01*
Y78116D01*
X249642D01*
Y79300D01*
D02*
G37*
%LPD*%
G36*
X330800Y92700D02*
Y80179D01*
X330542D01*
Y78794D01*
Y77410D01*
X330800D01*
Y75700D01*
X323300D01*
X322188Y76812D01*
X322395Y77312D01*
X323135D01*
Y78594D01*
X322049D01*
Y77658D01*
X321549Y77451D01*
X321077Y77923D01*
Y80277D01*
X320800D01*
Y93200D01*
X330300D01*
X330800Y92700D01*
D02*
G37*
%LPC*%
G36*
X329177Y91500D02*
X325877D01*
Y88200D01*
X329177D01*
Y91500D01*
D02*
G37*
G36*
X325477D02*
X322177D01*
Y88200D01*
X325477D01*
Y91500D01*
D02*
G37*
G36*
X329177Y87800D02*
X325877D01*
Y84500D01*
X329177D01*
Y87800D01*
D02*
G37*
G36*
X325477D02*
X322177D01*
Y84500D01*
X325477D01*
Y87800D01*
D02*
G37*
G36*
X324620Y80277D02*
X323535D01*
Y78995D01*
X324620D01*
Y80277D01*
D02*
G37*
G36*
X323135D02*
X322049D01*
Y78995D01*
X323135D01*
Y80277D01*
D02*
G37*
G36*
X330142Y80179D02*
X328368D01*
Y78995D01*
X330142D01*
Y80179D01*
D02*
G37*
G36*
Y78594D02*
X328368D01*
Y77410D01*
X330142D01*
Y78594D01*
D02*
G37*
G36*
X324620D02*
X323535D01*
Y77312D01*
X324620D01*
Y78594D01*
D02*
G37*
%LPD*%
G36*
X250500Y47400D02*
Y33884D01*
X250043D01*
Y32500D01*
Y31116D01*
X250500D01*
Y30400D01*
X243375D01*
X243297Y30517D01*
X243564Y31017D01*
X243572D01*
Y32300D01*
X242486D01*
Y31621D01*
X241986Y31414D01*
X241514Y31886D01*
Y33983D01*
X240500D01*
Y47900D01*
X250000D01*
X250500Y47400D01*
D02*
G37*
%LPC*%
G36*
X248677Y45500D02*
X245377D01*
Y42200D01*
X248677D01*
Y45500D01*
D02*
G37*
G36*
X244977D02*
X241677D01*
Y42200D01*
X244977D01*
Y45500D01*
D02*
G37*
G36*
X248677Y41800D02*
X245377D01*
Y38500D01*
X248677D01*
Y41800D01*
D02*
G37*
G36*
X244977D02*
X241677D01*
Y38500D01*
X244977D01*
Y41800D01*
D02*
G37*
G36*
X249642Y33884D02*
X247868D01*
Y32700D01*
X249642D01*
Y33884D01*
D02*
G37*
G36*
X245058Y33983D02*
X243972D01*
Y32700D01*
X245058D01*
Y33983D01*
D02*
G37*
G36*
X243572D02*
X242486D01*
Y32700D01*
X243572D01*
Y33983D01*
D02*
G37*
G36*
X249642Y32300D02*
X247868D01*
Y31116D01*
X249642D01*
Y32300D01*
D02*
G37*
G36*
X245058Y32300D02*
X243972D01*
Y31017D01*
X245058D01*
Y32300D01*
D02*
G37*
%LPD*%
G36*
X56378Y128526D02*
X56560Y128060D01*
X56500Y128000D01*
Y118500D01*
X38228D01*
X37508Y119220D01*
X45000Y129000D01*
X56378Y128526D01*
D02*
G37*
G36*
X55000Y117500D02*
Y92933D01*
X35500D01*
X35194Y92806D01*
X34888Y92500D01*
X34000D01*
Y99000D01*
X24500Y108500D01*
Y113000D01*
X25500Y114000D01*
Y116049D01*
X25962Y116240D01*
X26171Y116032D01*
X26468Y115833D01*
X26820Y115763D01*
X29023D01*
X29118Y115744D01*
X29469Y115814D01*
X29767Y116013D01*
X29966Y116310D01*
X30036Y116661D01*
X29966Y117013D01*
X29767Y117310D01*
X29748Y117329D01*
X29755Y117919D01*
X29811Y118000D01*
X34076D01*
Y117502D01*
X36924D01*
Y118000D01*
X54500D01*
X55000Y117500D01*
D02*
G37*
G36*
Y53500D02*
X46500Y45000D01*
X24000D01*
Y62500D01*
X22500Y64000D01*
Y71000D01*
X34500D01*
Y91500D01*
X35500Y92500D01*
X55000D01*
Y53500D01*
D02*
G37*
%LPC*%
G36*
X47200Y91650D02*
X42300D01*
Y90200D01*
X47200D01*
Y91650D01*
D02*
G37*
G36*
X41900D02*
X37000D01*
Y90200D01*
X41900D01*
Y91650D01*
D02*
G37*
G36*
X47200Y89800D02*
X42300D01*
Y88350D01*
X47200D01*
Y89800D01*
D02*
G37*
G36*
X41900D02*
X37000D01*
Y88350D01*
X41900D01*
Y89800D01*
D02*
G37*
G36*
X47200Y86650D02*
X42300D01*
Y85200D01*
X47200D01*
Y86650D01*
D02*
G37*
G36*
X41900D02*
X37000D01*
Y85200D01*
X41900D01*
Y86650D01*
D02*
G37*
G36*
X47200Y84800D02*
X42300D01*
Y83350D01*
X47200D01*
Y84800D01*
D02*
G37*
G36*
X41900D02*
X37000D01*
Y83350D01*
X41900D01*
Y84800D01*
D02*
G37*
G36*
X35097Y65684D02*
X32928D01*
Y58200D01*
X35097D01*
Y65684D01*
D02*
G37*
G36*
X32528D02*
X30360D01*
Y58200D01*
X32528D01*
Y65684D01*
D02*
G37*
G36*
X35097Y57800D02*
X32928D01*
Y50317D01*
X35097D01*
Y57800D01*
D02*
G37*
G36*
X32528D02*
X30360D01*
Y50317D01*
X32528D01*
Y57800D01*
D02*
G37*
%LPD*%
G36*
X212500Y47400D02*
Y34384D01*
X212042D01*
Y33000D01*
Y31616D01*
X212500D01*
Y30400D01*
X205322D01*
X205241Y30517D01*
X205506Y31017D01*
X205557D01*
Y32300D01*
X204272D01*
Y32500D01*
X204072D01*
Y33983D01*
X202986D01*
Y33983D01*
X202500Y34017D01*
Y47900D01*
X212000D01*
X212500Y47400D01*
D02*
G37*
%LPC*%
G36*
X210677Y46000D02*
X207377D01*
Y42700D01*
X210677D01*
Y46000D01*
D02*
G37*
G36*
X206977D02*
X203677D01*
Y42700D01*
X206977D01*
Y46000D01*
D02*
G37*
G36*
X210677Y42300D02*
X207377D01*
Y39000D01*
X210677D01*
Y42300D01*
D02*
G37*
G36*
X206977D02*
X203677D01*
Y39000D01*
X206977D01*
Y42300D01*
D02*
G37*
G36*
X211643Y34384D02*
X209868D01*
Y33200D01*
X211643D01*
Y34384D01*
D02*
G37*
G36*
X205557Y33983D02*
X204472D01*
Y32700D01*
X205557D01*
Y33983D01*
D02*
G37*
G36*
X211643Y32800D02*
X209868D01*
Y31616D01*
X211643D01*
Y32800D01*
D02*
G37*
%LPD*%
G36*
X330800Y46700D02*
Y34384D01*
X330542D01*
Y33000D01*
Y31616D01*
X330800D01*
Y29700D01*
X323300D01*
X322445Y30555D01*
X322636Y31017D01*
X323829D01*
Y32300D01*
X322543D01*
Y32500D01*
X322343D01*
Y33983D01*
X321257D01*
Y33983D01*
X320800Y34085D01*
Y47200D01*
X330300D01*
X330800Y46700D01*
D02*
G37*
%LPC*%
G36*
X329177Y45500D02*
X325877D01*
Y42200D01*
X329177D01*
Y45500D01*
D02*
G37*
G36*
X325477D02*
X322177D01*
Y42200D01*
X325477D01*
Y45500D01*
D02*
G37*
G36*
X329177Y41800D02*
X325877D01*
Y38500D01*
X329177D01*
Y41800D01*
D02*
G37*
G36*
X325477D02*
X322177D01*
Y38500D01*
X325477D01*
Y41800D01*
D02*
G37*
G36*
X330142Y34384D02*
X328368D01*
Y33200D01*
X330142D01*
Y34384D01*
D02*
G37*
G36*
X323829Y33983D02*
X322743D01*
Y32700D01*
X323829D01*
Y33983D01*
D02*
G37*
G36*
X330142Y32800D02*
X328368D01*
Y31616D01*
X330142D01*
Y32800D01*
D02*
G37*
%LPD*%
G36*
X291000Y46900D02*
Y33884D01*
X290543D01*
Y32500D01*
Y31116D01*
X291000D01*
Y29900D01*
X283822D01*
X283741Y30017D01*
X284006Y30517D01*
X284057D01*
Y31800D01*
X282772D01*
Y32000D01*
X282572D01*
Y33483D01*
X281486D01*
Y33483D01*
X281000Y33517D01*
Y47400D01*
X290500D01*
X291000Y46900D01*
D02*
G37*
%LPC*%
G36*
X289177Y45500D02*
X285877D01*
Y42200D01*
X289177D01*
Y45500D01*
D02*
G37*
G36*
X285477D02*
X282177D01*
Y42200D01*
X285477D01*
Y45500D01*
D02*
G37*
G36*
X289177Y41800D02*
X285877D01*
Y38500D01*
X289177D01*
Y41800D01*
D02*
G37*
G36*
X285477D02*
X282177D01*
Y38500D01*
X285477D01*
Y41800D01*
D02*
G37*
G36*
X290142Y33884D02*
X288368D01*
Y32700D01*
X290142D01*
Y33884D01*
D02*
G37*
G36*
X284057Y33483D02*
X282972D01*
Y32200D01*
X284057D01*
Y33483D01*
D02*
G37*
G36*
X290142Y32300D02*
X288368D01*
Y31116D01*
X290142D01*
Y32300D01*
D02*
G37*
G36*
X16775Y24874D02*
X15225D01*
X13703Y24571D01*
X12270Y23978D01*
X10981Y23116D01*
X9884Y22019D01*
X9022Y20730D01*
X8429Y19297D01*
X8126Y17775D01*
Y16225D01*
X8429Y14703D01*
X9022Y13270D01*
X9884Y11981D01*
X10981Y10884D01*
X12270Y10022D01*
X13703Y9429D01*
X15225Y9126D01*
X16775D01*
X18297Y9429D01*
X19730Y10022D01*
X21019Y10884D01*
X22116Y11981D01*
X22978Y13270D01*
X23571Y14703D01*
X23874Y16225D01*
Y17775D01*
X23571Y19297D01*
X22978Y20730D01*
X22116Y22019D01*
X21019Y23116D01*
X19730Y23978D01*
X18297Y24571D01*
X16775Y24874D01*
D02*
G37*
G36*
X393776Y24374D02*
X392225D01*
X390703Y24071D01*
X389270Y23478D01*
X387981Y22616D01*
X386884Y21519D01*
X386022Y20230D01*
X385429Y18797D01*
X385126Y17276D01*
Y15724D01*
X385429Y14203D01*
X386022Y12770D01*
X386884Y11481D01*
X387981Y10384D01*
X389270Y9522D01*
X390703Y8929D01*
X392225Y8626D01*
X393776D01*
X395297Y8929D01*
X396730Y9522D01*
X398019Y10384D01*
X399116Y11481D01*
X399978Y12770D01*
X400571Y14203D01*
X400874Y15724D01*
Y17276D01*
X400571Y18797D01*
X399978Y20230D01*
X399116Y21519D01*
X398019Y22616D01*
X396730Y23478D01*
X395297Y24071D01*
X393776Y24374D01*
D02*
G37*
%LPD*%
D18*
X235500Y37547D02*
X239843Y33205D01*
Y32886D02*
Y33205D01*
Y32886D02*
X240228Y32500D01*
X197000Y38047D02*
X200342Y34705D01*
Y32886D02*
Y34705D01*
Y32886D02*
X200728Y32500D01*
X316063Y35634D02*
X319000Y32697D01*
X316063Y35634D02*
Y39047D01*
X319000Y32500D02*
Y32697D01*
X179122Y81134D02*
X180000Y80256D01*
X167500Y90500D02*
X176866Y81134D01*
X179122D01*
X223500Y63228D02*
X223595D01*
X223980Y60843D02*
Y62843D01*
X225000Y59614D02*
Y59823D01*
X223595Y63228D02*
X223980Y62843D01*
Y60843D02*
X225000Y59823D01*
X262500Y60823D02*
X263500Y59823D01*
X262500Y60823D02*
Y63228D01*
X263500Y59614D02*
Y59823D01*
X398500Y151291D02*
X399425Y150366D01*
Y147500D02*
Y150366D01*
X398500Y151291D02*
Y151500D01*
X391681Y147567D02*
X399358D01*
X391614Y147634D02*
X391681Y147567D01*
X399358D02*
X399425Y147500D01*
X301000Y12000D02*
Y12209D01*
X302000Y13209D02*
Y15728D01*
X301000Y12209D02*
X302000Y13209D01*
X263852Y13148D02*
Y15376D01*
X263500Y15728D02*
X263852Y15376D01*
Y13148D02*
X264000Y13000D01*
X224500Y11500D02*
Y11709D01*
X223500Y12709D02*
Y15728D01*
Y12709D02*
X224500Y11709D01*
X343500Y13000D02*
Y13209D01*
X343000Y13709D02*
Y16228D01*
Y13709D02*
X343500Y13209D01*
X343083Y59126D02*
Y60843D01*
X344000Y58000D02*
Y58209D01*
X342500Y61228D02*
X342697D01*
X343083Y60843D01*
Y59126D02*
X344000Y58209D01*
X302500Y59000D02*
Y62228D01*
X222000Y103709D02*
X223000Y104709D01*
Y108728D01*
X222000Y103500D02*
Y103709D01*
X264500Y106209D02*
X265000Y105709D01*
X264500Y106209D02*
Y108957D01*
X265000Y105500D02*
Y105709D01*
X303500Y106114D02*
Y110228D01*
X343000Y109500D02*
X345000D01*
X347000Y107500D01*
X303614Y113886D02*
X307386D01*
X303500Y113772D02*
X303614Y113886D01*
X307386D02*
X307500Y114000D01*
X299228Y118043D02*
X302917Y114354D01*
X296740Y118043D02*
X299228D01*
X302917Y114157D02*
Y114354D01*
X264000Y156000D02*
X265500Y154500D01*
Y152114D02*
Y154500D01*
X226500Y152000D02*
Y155154D01*
X262386Y159929D02*
X264059D01*
X265016Y160886D02*
X265224D01*
X262000Y159543D02*
X262386Y159929D01*
X264059D02*
X265016Y160886D01*
X303500Y155228D02*
X303697D01*
X304083Y153126D02*
Y154842D01*
Y153126D02*
X304500Y152709D01*
X303697Y155228D02*
X304083Y154842D01*
X304500Y152500D02*
Y152709D01*
X305663Y160738D02*
X307128D01*
X303500Y158772D02*
X303697D01*
X307128Y160738D02*
X307276Y160886D01*
X303697Y158772D02*
X305663Y160738D01*
X224697Y156957D02*
X226500Y155154D01*
X224500Y156957D02*
X224697D01*
X361453Y119484D02*
X368386D01*
X361209Y119728D02*
X361453Y119484D01*
X361000Y119728D02*
X361209D01*
X210752Y129000D02*
X211252Y128500D01*
X203272Y129000D02*
X210752D01*
X211252Y128500D02*
X211842D01*
X197000Y131728D02*
X199146Y129583D01*
X199343D02*
X199728Y129197D01*
Y129000D02*
Y129197D01*
X197000Y131728D02*
Y134547D01*
X199146Y129583D02*
X199343D01*
X61058Y82569D02*
X68942D01*
X69000Y82627D01*
X61000Y82512D02*
X61058Y82569D01*
X77500Y90355D02*
Y90500D01*
X69772Y82627D02*
X77500Y90355D01*
X69000Y82627D02*
X69772D01*
X34500Y150299D02*
X34701Y150500D01*
X38500D01*
X26000Y150150D02*
X26350Y150500D01*
X30000D01*
X19037Y150037D02*
X20963D01*
X19000Y150075D02*
X19037Y150037D01*
X20963D02*
X21000Y150000D01*
X11000Y120500D02*
Y123500D01*
X10000Y119500D02*
X11000Y120500D01*
X15000Y119000D02*
X15111Y119111D01*
X18772D02*
X18882Y119220D01*
X15111Y119111D02*
X18772D01*
X15581Y116581D02*
X18801D01*
X15500Y116500D02*
X15581Y116581D01*
X18801D02*
X18882Y116661D01*
X20500Y112000D02*
X22925D01*
X22500Y100000D02*
Y102500D01*
X21000Y104000D02*
X22500Y102500D01*
X4500Y96446D02*
X6666Y94280D01*
X4500Y96446D02*
Y96500D01*
X6469Y99780D02*
X6484Y99795D01*
Y102484D01*
X6500Y102500D01*
X10307Y94378D02*
X10569Y94640D01*
X10209Y94280D02*
X10307Y94378D01*
X10569Y94640D02*
X22140D01*
X22500Y95000D01*
X10307Y99681D02*
X10406Y99780D01*
X10307Y94378D02*
Y99681D01*
X21721Y121780D02*
X26820Y116680D01*
X18882Y121780D02*
X21721D01*
X26820Y116680D02*
X29099D01*
X29118Y116661D01*
Y119220D02*
X35500D01*
X45898D01*
X31272Y130500D02*
Y136272D01*
X34000Y139000D01*
X27864Y134364D02*
X28000Y134500D01*
X27728Y130500D02*
X27864Y130636D01*
Y134364D01*
X21772Y130500D02*
X27728D01*
X18228Y124604D02*
X18494Y124339D01*
X18228Y124604D02*
Y130500D01*
X18494Y124339D02*
X18882D01*
X21657Y130614D02*
X21772Y130500D01*
X21543Y134500D02*
X21657Y134386D01*
Y130614D02*
Y134386D01*
X11000Y129405D02*
Y136228D01*
X18783Y139000D02*
X19000D01*
X11000Y139772D02*
X18012D01*
X18783Y139000D01*
X29228Y121889D02*
X35315D01*
X29118Y121780D02*
X29228Y121889D01*
X35315D02*
X35500Y122075D01*
X45898Y119220D02*
X50311Y123634D01*
X51000D01*
X74000Y154000D02*
X77500Y150500D01*
X8500Y154000D02*
X74000D01*
X6388Y81356D02*
Y86856D01*
X2500Y94732D02*
Y148000D01*
X6532Y87000D02*
Y90700D01*
X2500Y148000D02*
X8500Y154000D01*
X2500Y94732D02*
X6532Y90700D01*
X6388Y86856D02*
X6532Y87000D01*
X10469D02*
Y87197D01*
X13272Y90000D02*
X22500D01*
X10469Y87197D02*
X13272Y90000D01*
X25902Y78110D02*
Y79476D01*
X25000Y77209D02*
X25902Y78110D01*
X25000Y77000D02*
Y77209D01*
X25902Y79476D02*
X26425Y80000D01*
X25675Y85000D02*
X26425Y84250D01*
Y80000D02*
Y84250D01*
X22500Y85000D02*
X25675D01*
X92291Y150500D02*
X92791Y151000D01*
X93000D01*
X77500Y150500D02*
X92291D01*
X146709Y130500D02*
X151532D01*
X146209Y131000D02*
X146709Y130500D01*
X146000Y131000D02*
X146209D01*
X146709Y139500D02*
X147209Y140000D01*
X146500Y139500D02*
X146709D01*
X147209Y140000D02*
X151532D01*
X285500Y163000D02*
X289217D01*
X289260Y163043D01*
X299201Y172000D02*
X302000D01*
X277228Y150000D02*
Y150197D01*
Y149803D02*
Y150000D01*
X288728D02*
X296346D01*
X286746Y148017D02*
X288728Y150000D01*
X279014Y148017D02*
X286746D01*
X277228Y149803D02*
X279014Y148017D01*
X293000Y154776D02*
X293681Y154095D01*
X295992D01*
X299890Y150000D02*
Y150197D01*
X293000Y154776D02*
Y155957D01*
X295992Y154095D02*
X299890Y150197D01*
X275318Y152107D02*
X277228Y150197D01*
X275318Y152107D02*
Y155866D01*
X280143Y165289D02*
X284272Y169417D01*
X279058Y164425D02*
X279922Y165289D01*
X279058Y164134D02*
Y164425D01*
X284272Y169417D02*
Y172000D01*
X279922Y165289D02*
X280143D01*
X284272Y172000D02*
X290342D01*
X280343Y172386D02*
X280728Y172000D01*
X275563Y178842D02*
X280343Y174062D01*
Y172386D02*
Y174062D01*
X260000Y169500D02*
Y169709D01*
X258701Y172500D02*
X259291D01*
X259776Y172016D01*
Y169933D02*
Y172016D01*
Y169933D02*
X260000Y169709D01*
X246165Y163543D02*
X248760D01*
X245709Y164000D02*
X246165Y163543D01*
X245500Y164000D02*
X245709D01*
X262000Y156000D02*
X264000D01*
X236228Y150303D02*
X238531Y148000D01*
X236228Y150303D02*
Y150500D01*
X238531Y148000D02*
X242500D01*
X245500Y151000D01*
X255847D01*
X252500Y155276D02*
X253181Y154595D01*
X255992D02*
X259390Y151197D01*
X252500Y155276D02*
Y156457D01*
X253181Y154595D02*
X255992D01*
X259390Y151000D02*
Y151197D01*
X234818Y152107D02*
X236228Y150697D01*
Y150500D02*
Y150697D01*
X234818Y152107D02*
Y156000D01*
X245523Y172500D02*
X249843D01*
X239320Y165029D02*
Y166100D01*
X238558Y164268D02*
X239320Y165029D01*
X245523Y172303D02*
Y172500D01*
X239320Y166100D02*
X245523Y172303D01*
X241259Y173083D02*
X241594D01*
X241980Y172500D02*
Y172697D01*
X235500Y178842D02*
X241259Y173083D01*
X241594D02*
X241980Y172697D01*
X220701Y173000D02*
X224000D01*
X198728Y150500D02*
Y150697D01*
Y150303D02*
Y150500D01*
X207943Y148517D02*
X210426Y151000D01*
X198728Y150303D02*
X200514Y148517D01*
X210426Y151000D02*
X217846D01*
X200514Y148517D02*
X207943D01*
X214500Y156276D02*
X217187Y153589D01*
X218998D01*
X221390Y151197D01*
X214500Y156276D02*
Y157457D01*
X221390Y151000D02*
Y151197D01*
X210717Y164500D02*
X210760Y164543D01*
X206500Y164500D02*
X210717D01*
X197318Y152107D02*
X198728Y150697D01*
X197318Y152107D02*
Y157366D01*
X211252Y173000D02*
X211842D01*
X204772Y172500D02*
X210752D01*
X211252Y173000D01*
X197000Y178842D02*
X200842Y174999D01*
Y172886D02*
Y174999D01*
Y172886D02*
X201228Y172500D01*
X339201Y171500D02*
X342291D01*
X342791Y172000D02*
X343000D01*
X342291Y171500D02*
X342791Y172000D01*
X343352Y153148D02*
Y155376D01*
X343000Y155728D02*
X343352Y155376D01*
Y153148D02*
X343500Y153000D01*
X326246Y148517D02*
X328729Y151000D01*
X317228Y150303D02*
Y150500D01*
Y150303D02*
X319014Y148517D01*
X326246D01*
X328729Y151000D02*
X336347D01*
X335992Y155095D02*
X339890Y151197D01*
Y151000D02*
Y151197D01*
X333000Y155776D02*
Y156957D01*
Y155776D02*
X333681Y155095D01*
X335992D01*
X325500Y164000D02*
X329217D01*
X329260Y164043D01*
X314818Y153094D02*
Y156366D01*
Y153094D02*
X316830Y151083D01*
X319320Y165395D02*
Y167100D01*
X318558Y164634D02*
X319320Y165395D01*
X323523Y171303D02*
Y171500D01*
X319320Y167100D02*
X323523Y171303D01*
Y171500D02*
X330343D01*
X316063Y178547D02*
X319980Y174631D01*
Y171500D02*
Y174631D01*
X398830Y102830D02*
X400500Y104500D01*
X396531Y102830D02*
X398830D01*
X390500Y105000D02*
X390516Y104984D01*
Y102846D02*
Y104984D01*
Y102846D02*
X390531Y102830D01*
X384000Y105500D02*
X384148Y105352D01*
Y103214D02*
X384531Y102830D01*
X384148Y103214D02*
Y105352D01*
X377500Y105500D02*
X377648Y105352D01*
Y103214D02*
X378031Y102830D01*
X377648Y103214D02*
Y105352D01*
X372000Y105500D02*
X372016Y105484D01*
Y102846D02*
X372031Y102830D01*
X372016Y102846D02*
Y105484D01*
X366000Y105000D02*
X366016Y104984D01*
Y102846D02*
X366031Y102830D01*
X366016Y102846D02*
Y104984D01*
X361000Y99000D02*
Y108414D01*
Y99000D02*
X363264Y96736D01*
X366031D01*
X371000Y109000D02*
X380500Y118500D01*
X361000Y108414D02*
X361586Y109000D01*
X371000D01*
X380500Y118500D02*
Y130500D01*
X387398Y137398D02*
X391614D01*
X380500Y130500D02*
X387398Y137398D01*
X366031Y96736D02*
Y99287D01*
Y94185D02*
Y96736D01*
X390197Y94127D02*
X390531Y94462D01*
Y96874D01*
X396531Y96825D02*
Y99287D01*
Y94363D02*
Y96825D01*
X390531Y96874D02*
Y99287D01*
X384531Y96923D02*
Y99287D01*
Y94560D02*
Y96923D01*
X378031Y96722D02*
Y99287D01*
Y94158D02*
Y96722D01*
X372031Y96772D02*
Y99287D01*
Y94257D02*
Y96772D01*
X363000Y129720D02*
X368386D01*
X396295Y94127D02*
X396531Y94363D01*
X384098Y94127D02*
X384531Y94560D01*
X378000Y94127D02*
X378031Y94158D01*
X371902Y94127D02*
X372031Y94257D01*
X299228Y163043D02*
X302917Y159354D01*
Y159158D02*
Y159354D01*
X296740Y163043D02*
X299228D01*
X256921Y161681D02*
X259665D01*
X256240Y162362D02*
Y163543D01*
Y162362D02*
X256921Y161681D01*
X259665D02*
X261803Y159543D01*
X262000D01*
X224886Y160886D02*
X225554D01*
X225669Y161000D02*
X227500D01*
X224500Y160500D02*
X224886Y160886D01*
X225554D02*
X225669Y161000D01*
X223917Y160886D02*
Y161083D01*
X218240Y164543D02*
X220457D01*
X223917Y161083D01*
X363209Y113500D02*
X364075Y114366D01*
X363000Y113500D02*
X363209D01*
X364075Y114366D02*
X368386D01*
X368276Y132390D02*
X368386Y132280D01*
X361610Y132390D02*
X368276D01*
X361500Y132500D02*
X361610Y132390D01*
X361581Y134919D02*
X368305D01*
X368386Y134839D01*
X361500Y135000D02*
X361581Y134919D01*
X361551Y137449D02*
X368335D01*
X361500Y137500D02*
X361551Y137449D01*
X368335D02*
X368386Y137398D01*
X368364Y139978D02*
X368386Y139957D01*
X361522Y139978D02*
X368364D01*
X361500Y140000D02*
X361522Y139978D01*
X361508Y142508D02*
X368378D01*
X368386Y142516D01*
X361500Y142500D02*
X361508Y142508D01*
X361537Y145037D02*
X368348D01*
X361500Y145000D02*
X361537Y145037D01*
X368348D02*
X368386Y145075D01*
X362075Y147634D02*
X368386D01*
X361709Y148000D02*
X362075Y147634D01*
X361500Y148000D02*
X361709D01*
D23*
X29118Y121780D02*
D03*
Y119220D02*
D03*
Y124339D02*
D03*
Y116661D02*
D03*
X18882Y121780D02*
D03*
Y119220D02*
D03*
Y124339D02*
D03*
Y116661D02*
D03*
D24*
X391614Y114366D02*
D03*
Y116925D02*
D03*
Y119484D02*
D03*
Y122043D02*
D03*
Y124602D02*
D03*
Y127161D02*
D03*
Y129720D02*
D03*
Y132280D02*
D03*
Y134839D02*
D03*
Y137398D02*
D03*
Y139957D02*
D03*
Y142516D02*
D03*
Y145075D02*
D03*
Y147634D02*
D03*
X368386Y114366D02*
D03*
Y116925D02*
D03*
Y119484D02*
D03*
Y122043D02*
D03*
Y124602D02*
D03*
Y127161D02*
D03*
Y129720D02*
D03*
Y132280D02*
D03*
Y134839D02*
D03*
Y137398D02*
D03*
Y139957D02*
D03*
Y142516D02*
D03*
Y145075D02*
D03*
Y147634D02*
D03*
D25*
X336740Y24000D02*
D03*
X329260D02*
D03*
X333000Y16913D02*
D03*
X218240Y164543D02*
D03*
X210760D02*
D03*
X214500Y157457D02*
D03*
X256240Y163543D02*
D03*
X248760D02*
D03*
X252500Y156457D02*
D03*
X296740Y163043D02*
D03*
X289260D02*
D03*
X293000Y155957D02*
D03*
X336740Y164043D02*
D03*
X329260D02*
D03*
X333000Y156957D02*
D03*
X218240Y116500D02*
D03*
X210760D02*
D03*
X214500Y109413D02*
D03*
X256240Y117543D02*
D03*
X248760D02*
D03*
X252500Y110457D02*
D03*
X296740Y118043D02*
D03*
X289260D02*
D03*
X293000Y110957D02*
D03*
X336740Y118043D02*
D03*
X329260D02*
D03*
X333000Y110957D02*
D03*
X218240Y71543D02*
D03*
X210760D02*
D03*
X214500Y64457D02*
D03*
X256240Y71543D02*
D03*
X248760D02*
D03*
X252500Y64457D02*
D03*
X296240Y70087D02*
D03*
X288760D02*
D03*
X292500Y63000D02*
D03*
X336740Y69338D02*
D03*
X329260D02*
D03*
X333000Y62251D02*
D03*
X218240Y24043D02*
D03*
X210760D02*
D03*
X214500Y16957D02*
D03*
X256240Y24000D02*
D03*
X248760D02*
D03*
X252500Y16913D02*
D03*
X296740Y23043D02*
D03*
X289260D02*
D03*
X293000Y15957D02*
D03*
D26*
X42100Y85000D02*
D03*
Y90000D02*
D03*
Y95000D02*
D03*
Y100000D02*
D03*
X22500D02*
D03*
Y95000D02*
D03*
Y90000D02*
D03*
Y85000D02*
D03*
D27*
X339201Y33000D02*
D03*
X330343D02*
D03*
X220701Y173000D02*
D03*
X211842D02*
D03*
X258701Y172500D02*
D03*
X249843D02*
D03*
X299201Y172000D02*
D03*
X290342D02*
D03*
X339201Y171500D02*
D03*
X330343D02*
D03*
X220701Y128500D02*
D03*
X211842D02*
D03*
X258701Y128000D02*
D03*
X249843D02*
D03*
X299201D02*
D03*
X290342D02*
D03*
X339201Y127000D02*
D03*
X330343D02*
D03*
X220701Y79500D02*
D03*
X211842D02*
D03*
X258701D02*
D03*
X249843D02*
D03*
X299201Y79774D02*
D03*
X290342D02*
D03*
X339201Y78794D02*
D03*
X330343D02*
D03*
X220701Y33000D02*
D03*
X211842D02*
D03*
X258701Y32500D02*
D03*
X249843D02*
D03*
X299201D02*
D03*
X290342D02*
D03*
D28*
X11000Y123500D02*
D03*
Y129405D02*
D03*
X316063Y39047D02*
D03*
Y44953D02*
D03*
X197000Y178842D02*
D03*
Y184747D02*
D03*
X235500Y178842D02*
D03*
Y184747D02*
D03*
X275563Y178842D02*
D03*
Y184747D02*
D03*
X316063Y178547D02*
D03*
Y184453D02*
D03*
X197000Y134547D02*
D03*
Y140453D02*
D03*
X235500Y134547D02*
D03*
Y140453D02*
D03*
X275563Y134547D02*
D03*
Y140453D02*
D03*
X316063Y134547D02*
D03*
Y140453D02*
D03*
X197000Y85047D02*
D03*
Y90953D02*
D03*
X235500Y85047D02*
D03*
Y90953D02*
D03*
X275563Y84842D02*
D03*
Y90747D02*
D03*
X316063Y84342D02*
D03*
Y90247D02*
D03*
X197000Y38047D02*
D03*
Y43953D02*
D03*
X235500Y37547D02*
D03*
Y43453D02*
D03*
X275563Y38047D02*
D03*
Y43953D02*
D03*
D29*
X68000Y82873D02*
D03*
Y89137D02*
D03*
X366031Y94185D02*
D03*
Y87921D02*
D03*
X371902Y94127D02*
D03*
Y87863D02*
D03*
X378000Y94127D02*
D03*
Y87863D02*
D03*
X384098Y94127D02*
D03*
Y87863D02*
D03*
X390197Y94127D02*
D03*
Y87863D02*
D03*
X396295Y94127D02*
D03*
Y87863D02*
D03*
D30*
X6532Y87000D02*
D03*
X10469D02*
D03*
X155468Y140000D02*
D03*
X151532D02*
D03*
X155468Y130500D02*
D03*
X151532D02*
D03*
X6469Y99780D02*
D03*
X10406D02*
D03*
D31*
X396531Y99287D02*
D03*
Y102830D02*
D03*
X224500Y160500D02*
D03*
Y156957D02*
D03*
X262000Y159543D02*
D03*
Y156000D02*
D03*
X303500Y158772D02*
D03*
Y155228D02*
D03*
X343000Y159272D02*
D03*
Y155728D02*
D03*
X223000Y112272D02*
D03*
Y108728D02*
D03*
X264500Y112500D02*
D03*
Y108957D02*
D03*
X303500Y113772D02*
D03*
Y110228D02*
D03*
X343000Y113043D02*
D03*
Y109500D02*
D03*
X11000Y136228D02*
D03*
Y139772D02*
D03*
X223500Y66772D02*
D03*
Y63228D02*
D03*
X262500Y66772D02*
D03*
Y63228D02*
D03*
X302500Y65772D02*
D03*
Y62228D02*
D03*
X342500Y64772D02*
D03*
Y61228D02*
D03*
X223500Y19272D02*
D03*
Y15728D02*
D03*
X263500Y19272D02*
D03*
Y15728D02*
D03*
X302000Y19272D02*
D03*
Y15728D02*
D03*
X343000Y19772D02*
D03*
Y16228D02*
D03*
X366031Y99287D02*
D03*
Y102830D02*
D03*
X372031Y99287D02*
D03*
Y102830D02*
D03*
X378031Y99287D02*
D03*
Y102830D02*
D03*
X384531Y99287D02*
D03*
Y102830D02*
D03*
X390531Y99287D02*
D03*
Y102830D02*
D03*
D32*
X51000Y140366D02*
D03*
Y123634D02*
D03*
D33*
X318058Y25134D02*
D03*
X321798Y16866D02*
D03*
X314318D02*
D03*
X201058Y165634D02*
D03*
X204798Y157366D02*
D03*
X197318D02*
D03*
X238558Y164268D02*
D03*
X242298Y156000D02*
D03*
X234818D02*
D03*
X279058Y164134D02*
D03*
X282798Y155866D02*
D03*
X275318D02*
D03*
X318558Y164634D02*
D03*
X322298Y156366D02*
D03*
X314818D02*
D03*
X200058Y117134D02*
D03*
X203798Y108866D02*
D03*
X196318D02*
D03*
X238558Y118634D02*
D03*
X242298Y110366D02*
D03*
X234818D02*
D03*
X279058Y119134D02*
D03*
X282798Y110866D02*
D03*
X275318D02*
D03*
X318558Y118634D02*
D03*
X322298Y110366D02*
D03*
X314818D02*
D03*
X200058Y72634D02*
D03*
X203798Y64366D02*
D03*
X196318D02*
D03*
X238558Y72134D02*
D03*
X242298Y63866D02*
D03*
X234818D02*
D03*
X278621Y70908D02*
D03*
X282361Y62641D02*
D03*
X274881D02*
D03*
X318121Y70428D02*
D03*
X321861Y62161D02*
D03*
X314381D02*
D03*
X200000Y25634D02*
D03*
X203740Y17366D02*
D03*
X196260D02*
D03*
X238000Y24634D02*
D03*
X241740Y16366D02*
D03*
X234260D02*
D03*
X279558Y23634D02*
D03*
X283298Y15366D02*
D03*
X275818D02*
D03*
D34*
X34500Y144000D02*
D03*
Y150299D02*
D03*
X26000Y150150D02*
D03*
Y143850D02*
D03*
D35*
X6244Y81500D02*
D03*
X11756D02*
D03*
D36*
X6666Y94280D02*
D03*
X10209D02*
D03*
D37*
X402575Y147500D02*
D03*
X399425D02*
D03*
X22925Y112000D02*
D03*
X26075D02*
D03*
X28000Y134500D02*
D03*
X31150D02*
D03*
X29575Y80000D02*
D03*
X26425D02*
D03*
D38*
X35500Y118925D02*
D03*
Y122075D02*
D03*
X19000Y150075D02*
D03*
Y146925D02*
D03*
D39*
X57650Y98000D02*
D03*
X51350D02*
D03*
X57650Y105000D02*
D03*
X51350D02*
D03*
D40*
X198728Y150500D02*
D03*
X202272D02*
D03*
X236228D02*
D03*
X239772D02*
D03*
X277228Y150000D02*
D03*
X280772D02*
D03*
X317228Y150500D02*
D03*
X320772D02*
D03*
X221390Y151000D02*
D03*
X217846D02*
D03*
X259390D02*
D03*
X255847D02*
D03*
X299890Y150000D02*
D03*
X296346D02*
D03*
X339890Y151000D02*
D03*
X336347D02*
D03*
X201228Y172500D02*
D03*
X204772D02*
D03*
X241980D02*
D03*
X245523D02*
D03*
X280728Y172000D02*
D03*
X284272D02*
D03*
X319980Y171500D02*
D03*
X323523D02*
D03*
X198728Y102500D02*
D03*
X202272D02*
D03*
X236500Y104000D02*
D03*
X240043D02*
D03*
X277228Y104500D02*
D03*
X280772D02*
D03*
X316957D02*
D03*
X320500D02*
D03*
X212772Y102500D02*
D03*
X209228D02*
D03*
X259390Y104000D02*
D03*
X255847D02*
D03*
X292272Y104500D02*
D03*
X288728D02*
D03*
X339890D02*
D03*
X336347D02*
D03*
X199728Y129000D02*
D03*
X203272D02*
D03*
X235980Y128000D02*
D03*
X239523D02*
D03*
X278228D02*
D03*
X281772D02*
D03*
X316479Y129000D02*
D03*
X320023D02*
D03*
X27728Y130500D02*
D03*
X31272D02*
D03*
X21772D02*
D03*
X18228D02*
D03*
X18000Y134500D02*
D03*
X21543D02*
D03*
X199228Y58500D02*
D03*
X202772D02*
D03*
X237228Y57500D02*
D03*
X240772D02*
D03*
X277291Y56795D02*
D03*
X280835D02*
D03*
X317791Y56295D02*
D03*
X321335D02*
D03*
X221390Y58500D02*
D03*
X217846D02*
D03*
X259390Y57000D02*
D03*
X255847D02*
D03*
X291772D02*
D03*
X288228D02*
D03*
X339890Y55795D02*
D03*
X336347D02*
D03*
X204772Y79500D02*
D03*
X201228D02*
D03*
X242000D02*
D03*
X238457D02*
D03*
X282835Y79795D02*
D03*
X279291D02*
D03*
X323335Y78794D02*
D03*
X319791D02*
D03*
X197957Y12000D02*
D03*
X201500D02*
D03*
X236228Y10000D02*
D03*
X239772D02*
D03*
X277728Y9500D02*
D03*
X281272D02*
D03*
X316228Y11500D02*
D03*
X319772D02*
D03*
X221390Y11000D02*
D03*
X217846D02*
D03*
X259390Y10000D02*
D03*
X255847D02*
D03*
X293772Y9500D02*
D03*
X290228D02*
D03*
X339890Y11500D02*
D03*
X336347D02*
D03*
X200728Y32500D02*
D03*
X204272D02*
D03*
X240228D02*
D03*
X243772D02*
D03*
X279228Y32000D02*
D03*
X282772D02*
D03*
X319000Y32500D02*
D03*
X322543D02*
D03*
D41*
X61000Y82512D02*
D03*
Y77000D02*
D03*
X180000Y80256D02*
D03*
Y74744D02*
D03*
D71*
X297806Y2750D02*
X298056Y3000D01*
X223500Y19272D02*
X223697D01*
X228160Y2750D02*
X297806D01*
X298056Y3000D02*
X366500D01*
X223697Y19272D02*
X227000Y15969D01*
Y3910D02*
X228160Y2750D01*
X227000Y3910D02*
Y15969D01*
X223303Y19272D02*
X223500D01*
X343000Y159272D02*
X343197D01*
X347000Y140000D02*
Y155500D01*
X346969D02*
X347000D01*
X343197Y159272D02*
X346969Y155500D01*
X336740Y162862D02*
X337571Y162031D01*
X340044D01*
X336740Y162862D02*
Y164043D01*
X340044Y162031D02*
X342803Y159272D01*
X398000Y135000D02*
X403000D01*
X405500Y132500D01*
Y84410D02*
Y132500D01*
X400090Y79000D02*
X405500Y84410D01*
X360000Y79000D02*
X400090D01*
X342000Y97000D02*
X360000Y79000D01*
X201199Y97000D02*
X342000D01*
X187699Y110500D02*
X201199Y97000D01*
X167500Y110500D02*
X187699D01*
X291772Y62272D02*
X292500Y63000D01*
X291772Y57000D02*
Y62272D01*
X288228Y56803D02*
Y57000D01*
X286387Y54962D02*
X288228Y56803D01*
X278927Y54962D02*
X286387D01*
X277291Y56598D02*
X278927Y54962D01*
X277291Y56598D02*
Y56795D01*
X274881Y59402D02*
X277291Y56991D01*
X274881Y59402D02*
Y62641D01*
X277291Y56795D02*
Y56991D01*
X254142Y62445D02*
X259390Y57197D01*
X252500Y63276D02*
Y64457D01*
X259390Y57000D02*
Y57197D01*
X253331Y62445D02*
X254142D01*
X252500Y63276D02*
X253331Y62445D01*
X246421Y55667D02*
X247754Y57000D01*
X238864Y55667D02*
X246421D01*
X237228Y57303D02*
X238864Y55667D01*
X247754Y57000D02*
X255847D01*
X237228Y57303D02*
Y57500D01*
X234818Y60107D02*
X237228Y57697D01*
X234818Y60107D02*
Y63866D01*
X237228Y57500D02*
Y57697D01*
X214500Y63276D02*
X215331Y62445D01*
X217642D01*
X221390Y58500D02*
Y58697D01*
X214500Y63276D02*
Y64457D01*
X217642Y62445D02*
X221390Y58697D01*
X210004Y58500D02*
X217846D01*
X208171Y56667D02*
X210004Y58500D01*
X200864Y56667D02*
X208171D01*
X199228Y58303D02*
X200864Y56667D01*
X199228Y58303D02*
Y58500D01*
X196318Y61545D02*
X198630Y59233D01*
X198693D01*
X199228Y58500D02*
Y58697D01*
X196318Y61545D02*
Y64366D01*
X198693Y59233D02*
X199228Y58697D01*
X200693Y80036D02*
X201228Y79500D01*
X197000Y85047D02*
X200693Y81355D01*
Y80036D02*
Y81355D01*
X235500Y82457D02*
X237724Y80233D01*
X237921D01*
X235500Y82457D02*
Y85047D01*
X237921Y80233D02*
X238457Y79697D01*
Y79500D02*
Y79697D01*
X275563Y84842D02*
X278755Y81649D01*
Y80330D02*
Y81649D01*
Y80330D02*
X279291Y79795D01*
X317288Y81495D02*
Y83117D01*
X319791Y78794D02*
Y78991D01*
X316063Y84342D02*
X317288Y83117D01*
Y81495D02*
X319791Y78991D01*
X325921Y9667D02*
X327754Y11500D01*
X336347D01*
X316228Y11303D02*
X317864Y9667D01*
X325921D01*
X316228Y11303D02*
Y11500D01*
X314318Y13607D02*
X316228Y11697D01*
X314318Y13607D02*
Y16866D01*
X316228Y11500D02*
Y11697D01*
X293000Y15957D02*
X293772Y15185D01*
Y9500D02*
Y15185D01*
X285445Y9500D02*
X290228D01*
X283612Y7667D02*
X285445Y9500D01*
X279364Y7667D02*
X283612D01*
X277728Y9303D02*
X279364Y7667D01*
X277728Y9303D02*
Y9500D01*
X275563Y35665D02*
X278496Y32733D01*
X278693D01*
X279228Y32197D01*
X275563Y35665D02*
Y38047D01*
X279228Y32000D02*
Y32197D01*
X277728Y9500D02*
Y9697D01*
X275818Y11607D02*
Y15366D01*
Y11607D02*
X277728Y9697D01*
X252500Y15732D02*
X255415Y12817D01*
X256770D01*
X259390Y10197D01*
X252500Y15732D02*
Y16913D01*
X259390Y10000D02*
Y10197D01*
X247504Y10000D02*
X255847D01*
X245671Y8167D02*
X247504Y10000D01*
X237864Y8167D02*
X245671D01*
X236228Y9803D02*
X237864Y8167D01*
X236228Y9803D02*
Y10000D01*
X234260Y12165D02*
Y16366D01*
Y12165D02*
X236228Y10197D01*
Y10000D02*
Y10197D01*
X214500Y15776D02*
X215331Y14944D01*
X214500Y15776D02*
Y16957D01*
X221390Y11000D02*
Y11197D01*
X217642Y14944D02*
X221390Y11197D01*
X215331Y14944D02*
X217642D01*
X197957Y11803D02*
X199592Y10167D01*
X217211D02*
X217846Y10803D01*
Y11000D01*
X197957Y11803D02*
Y12000D01*
X199592Y10167D02*
X217211D01*
X196260Y13894D02*
X197957Y12197D01*
Y12000D02*
Y12197D01*
X196260Y13894D02*
Y17366D01*
X333831Y14901D02*
X336685D01*
X333000Y15732D02*
X333831Y14901D01*
X339890Y11500D02*
Y11697D01*
X336685Y14901D02*
X339890Y11697D01*
X333000Y15732D02*
Y16913D01*
X317059Y57027D02*
X317255D01*
X317791Y56491D01*
X314381Y59705D02*
Y62161D01*
Y59705D02*
X317059Y57027D01*
X317791Y56295D02*
Y56491D01*
X307548Y53362D02*
X332951D01*
X317791Y56098D02*
Y56295D01*
Y56098D02*
X319427Y54462D01*
X327051D01*
X328384Y55795D01*
X333089Y53500D02*
X359000D01*
X332951Y53362D02*
X333089Y53500D01*
X328384Y55795D02*
X336347D01*
X306500Y54410D02*
X307548Y53362D01*
X333831Y60239D02*
X335642D01*
X339890Y55795D02*
Y55991D01*
X333000Y61070D02*
Y62251D01*
Y61070D02*
X333831Y60239D01*
X335642D02*
X339890Y55991D01*
X333000Y109776D02*
X333831Y108944D01*
X333000Y109776D02*
Y110957D01*
X339890Y104500D02*
Y104697D01*
X335642Y108944D02*
X339890Y104697D01*
X333831Y108944D02*
X335642D01*
X316957Y104303D02*
X318593Y102667D01*
X334711D01*
X336347Y104303D01*
Y104500D01*
X316957Y104303D02*
Y104500D01*
X252500Y109276D02*
X253331Y108444D01*
X255142D02*
X259390Y104197D01*
X252500Y109276D02*
Y110457D01*
X253331Y108444D02*
X255142D01*
X259390Y104000D02*
Y104197D01*
X316957Y104500D02*
Y104697D01*
X314818Y106835D02*
Y110366D01*
Y106835D02*
X316957Y104697D01*
X223000Y112272D02*
X225133D01*
X226295Y113434D01*
Y114181D01*
X226500Y114386D01*
X222803Y112272D02*
X223000D01*
X218240Y115319D02*
Y116500D01*
Y115319D02*
X219071Y114488D01*
X220587D01*
X222803Y112272D01*
X264500Y112500D02*
X266633D01*
X268500Y114367D01*
Y114386D01*
X256240Y117543D02*
X259260D01*
X264303Y112500D01*
X264500D01*
X292272Y110228D02*
X293000Y110957D01*
X292272Y104500D02*
Y110228D01*
X284445Y104500D02*
X288728D01*
X282612Y102667D02*
X284445Y104500D01*
X278864Y102667D02*
X282612D01*
X277228Y104303D02*
X278864Y102667D01*
X277228Y104303D02*
Y104500D01*
X275318Y106607D02*
X277228Y104697D01*
Y104500D02*
Y104697D01*
X275318Y106607D02*
Y110866D01*
X196318Y105107D02*
X198728Y102697D01*
X196318Y105107D02*
Y108866D01*
X198728Y102500D02*
Y102697D01*
X236500Y104000D02*
Y104197D01*
Y103803D02*
Y104000D01*
X234818Y105879D02*
Y110366D01*
Y105879D02*
X236500Y104197D01*
X247640Y104000D02*
X255847D01*
X245807Y102167D02*
X247640Y104000D01*
X238136Y102167D02*
X245807D01*
X236500Y103803D02*
X238136Y102167D01*
X200364Y100667D02*
X203710D01*
X198728Y102303D02*
X200364Y100667D01*
X205543Y102500D02*
X209228D01*
X203710Y100667D02*
X205543Y102500D01*
X198728Y102303D02*
Y102500D01*
X212772D02*
Y106504D01*
X214500Y108232D01*
Y109413D01*
X370278Y13750D02*
X373528Y17000D01*
X369775Y13750D02*
X370278D01*
X361022Y122022D02*
X368364D01*
X368386Y122043D01*
X361000Y122000D02*
X361022Y122022D01*
X361051Y124551D02*
X368335D01*
X368386Y124602D01*
X361000Y124500D02*
X361051Y124551D01*
X155468Y130500D02*
X167500D01*
X155468Y130500D02*
X155468Y130500D01*
X155968Y140500D02*
X167500D01*
X155468Y140000D02*
X155968Y140500D01*
X270160Y4750D02*
X366250D01*
X369000Y7500D01*
X269500Y5410D02*
X270160Y4750D01*
X354969Y8000D02*
X364025D01*
X369775Y13750D01*
X365000Y6500D02*
X370500Y12000D01*
X308410Y6500D02*
X365000D01*
X308000Y6910D02*
X308410Y6500D01*
X343197Y19772D02*
X354969Y8000D01*
X299841Y50000D02*
X369500D01*
X299341Y49500D02*
X299841Y50000D01*
X229980Y49500D02*
X299341D01*
X359975Y52000D02*
X364000D01*
X269160Y51750D02*
X359725D01*
X359975Y52000D01*
X268500Y52410D02*
X269160Y51750D01*
X352789Y56211D02*
X353000Y56000D01*
X351258Y56211D02*
X352789D01*
X342697Y64772D02*
X351258Y56211D01*
X342500Y64772D02*
X342697D01*
X342303D02*
X342500D01*
X229490Y49990D02*
X229980Y49500D01*
X336740Y68157D02*
Y69338D01*
Y68157D02*
X337571Y67326D01*
X339749D01*
X342303Y64772D01*
X306500Y54410D02*
Y61968D01*
X302697Y65772D02*
X306500Y61968D01*
X302500Y65772D02*
X302697D01*
X298185Y70087D02*
X301767Y66504D01*
Y66307D02*
Y66504D01*
X302303Y65772D02*
X302500D01*
X296240Y70087D02*
X298185D01*
X301767Y66307D02*
X302303Y65772D01*
X268500Y52410D02*
Y60969D01*
X223697Y66772D02*
X228500Y61968D01*
Y50400D02*
Y61968D01*
X223303Y66772D02*
X223500D01*
X223697D01*
X262697D02*
X268500Y60969D01*
X262500Y66772D02*
X262697D01*
X256240Y70362D02*
X257071Y69531D01*
X256240Y70362D02*
Y71543D01*
X257071Y69531D02*
X259544D01*
X262303Y66772D01*
X262500D01*
X228500Y50400D02*
X228910Y49990D01*
X229490D01*
X219071Y69531D02*
X220544D01*
X223303Y66772D01*
X218240Y70362D02*
Y71543D01*
Y70362D02*
X219071Y69531D01*
X343000Y19772D02*
X343197D01*
X342267Y20308D02*
Y20504D01*
Y20308D02*
X342803Y19772D01*
X336740Y24000D02*
X338772D01*
X342267Y20504D01*
X342803Y19772D02*
X343000D01*
X308000Y6910D02*
Y15500D01*
X304228Y19272D02*
X308000Y15500D01*
X302000Y19272D02*
X304228D01*
X296740Y21862D02*
X297571Y21031D01*
X300044D01*
X296740Y21862D02*
Y23043D01*
X300044Y21031D02*
X301803Y19272D01*
X302000D01*
X269500Y5410D02*
Y15000D01*
X263500Y19272D02*
X265228D01*
X269500Y15000D01*
X256240Y24000D02*
X258575D01*
X263303Y19272D01*
X263500D01*
X218240Y22862D02*
X219071Y22031D01*
X218240Y22862D02*
Y24043D01*
X219071Y22031D02*
X220544D01*
X223303Y19272D01*
X396016Y145173D02*
X396114Y145272D01*
X391713Y145173D02*
X396016D01*
X391694Y142596D02*
X395420D01*
X391614Y145075D02*
X391713Y145173D01*
X391614Y142516D02*
X391694Y142596D01*
X403210Y140500D02*
X403500D01*
X391614Y139957D02*
X402667D01*
X403210Y140500D01*
X391614Y137398D02*
X397108D01*
X397710Y138000D01*
X398000D01*
X397919Y134919D02*
X398000Y135000D01*
X391614Y134839D02*
X391695Y134919D01*
X397919D01*
X391724Y132390D02*
X397890D01*
X398000Y132500D01*
X391614Y132280D02*
X391724Y132390D01*
X391614Y129720D02*
X391754Y129860D01*
X397860D02*
X398000Y130000D01*
X391754Y129860D02*
X397860D01*
X391614Y127161D02*
X391695Y127081D01*
X397919D01*
X398000Y127000D01*
X397949Y124551D02*
X398000Y124500D01*
X391614Y124602D02*
X391665Y124551D01*
X397949D01*
X391636Y122022D02*
X397978D01*
X398000Y122000D01*
X391614Y122043D02*
X391636Y122022D01*
X391614Y119484D02*
X391721Y119378D01*
X397894D01*
X398000Y119272D01*
X391614Y116925D02*
X391652Y116963D01*
X397963D01*
X398000Y117000D01*
X397933Y114433D02*
X398000Y114500D01*
X391614Y114366D02*
X391681Y114433D01*
X397933D01*
X361825Y129720D02*
X363000D01*
X342803Y159272D02*
X343000D01*
X359784Y127216D02*
X368331D01*
X347000Y140000D02*
X359784Y127216D01*
X343000Y113043D02*
X357543D01*
X361500Y117000D01*
X337421Y116181D02*
X339665D01*
X342803Y113043D01*
X336740Y116862D02*
Y118043D01*
Y116862D02*
X337421Y116181D01*
X342803Y113043D02*
X343000D01*
X361500Y117000D02*
X361537Y116963D01*
X368348D02*
X368386Y116925D01*
X361537Y116963D02*
X368348D01*
X368331Y127216D02*
X368386Y127161D01*
D72*
X240772Y104000D02*
Y108446D01*
X282798Y155866D02*
Y156260D01*
Y155370D02*
Y155866D01*
X283298Y15366D02*
Y15760D01*
Y14973D02*
Y15366D01*
X282798Y156260D02*
X283176Y156638D01*
X285638D02*
X286000Y157000D01*
X283176Y156638D02*
X285638D01*
X241740Y16366D02*
X241874Y16500D01*
X245000D01*
X241740Y15972D02*
Y16366D01*
X285638Y16138D02*
X286500Y17000D01*
X283298Y15760D02*
X283676Y16138D01*
X285638D01*
X200058Y73028D02*
X204658Y77627D01*
Y79417D02*
X204740Y79500D01*
X204772D01*
X200058Y72634D02*
Y73028D01*
X204658Y77627D02*
Y79417D01*
X240351Y74320D02*
X240744D01*
X242000Y75576D01*
Y79500D01*
X238558Y72134D02*
Y72528D01*
X240351Y74320D01*
X282835Y75515D02*
Y79795D01*
X278621Y70908D02*
Y71302D01*
X282835Y75515D01*
X323535Y76236D02*
Y78995D01*
X323335Y78794D02*
X323535Y78995D01*
X318121Y70822D02*
X323535Y76236D01*
X318121Y70428D02*
Y70822D01*
X200000Y26028D02*
X204157Y30185D01*
Y32417D01*
X204240Y32500D01*
X204272D01*
X200000Y25634D02*
Y26028D01*
X238000Y25028D02*
X243657Y30685D01*
Y32417D02*
X243740Y32500D01*
X238000Y24634D02*
Y25028D01*
X243657Y30685D02*
Y32417D01*
X243740Y32500D02*
X243772D01*
X282772Y27241D02*
Y32000D01*
X279558Y23634D02*
Y24028D01*
X282772Y27241D01*
X322429Y29898D02*
Y32417D01*
X322512Y32500D01*
X322543D01*
X318058Y25134D02*
Y25528D01*
X322429Y29898D01*
X322165Y16500D02*
X325500D01*
X321798Y16866D02*
X322165Y16500D01*
X321027Y16094D02*
X321421D01*
X319772Y11500D02*
Y14839D01*
X321027Y16094D01*
X321421D02*
X321798Y16473D01*
Y16866D01*
X281272Y13339D02*
X282527Y14594D01*
X282921D02*
X283298Y14973D01*
X281272Y9500D02*
Y13339D01*
X282527Y14594D02*
X282921D01*
X241362Y15595D02*
X241740Y15972D01*
X239772Y10000D02*
Y14083D01*
X241283Y15595D01*
X241362D01*
X204106Y17000D02*
X207000D01*
X203740Y17366D02*
X204106Y17000D01*
X202969Y16594D02*
X203362D01*
X203740Y16973D01*
Y17366D01*
X201500Y12000D02*
Y15126D01*
X202969Y16594D01*
X203798Y64366D02*
X203932Y64500D01*
X207000D01*
X202772Y58500D02*
Y62946D01*
X203798Y63973D01*
Y64366D01*
X242665Y63500D02*
X245500D01*
X242298Y63866D02*
X242665Y63500D01*
X240772Y61946D02*
X242298Y63472D01*
X240772Y57500D02*
Y61946D01*
X242298Y63472D02*
Y63866D01*
X282502Y62500D02*
X285500D01*
X282361Y62641D02*
X282502Y62500D01*
X280835Y60720D02*
X282361Y62247D01*
X280835Y56795D02*
Y60720D01*
X282361Y62247D02*
Y62641D01*
X325161Y62161D02*
X325500Y62500D01*
X321861Y62161D02*
X325161D01*
X321861Y61767D02*
Y62161D01*
X321335Y56295D02*
Y61240D01*
X321861Y61767D01*
X325634Y110366D02*
X326000Y110000D01*
X322298Y110366D02*
X325634D01*
X320500Y108423D02*
X321672Y109595D01*
X321920D01*
X322298Y109973D01*
Y110366D01*
X320500Y104500D02*
Y108423D01*
X282932Y111000D02*
X286000D01*
X282798Y110866D02*
X282932Y111000D01*
X280772Y108583D02*
X282283Y110094D01*
X282420D02*
X282798Y110473D01*
Y110866D01*
X280772Y104500D02*
Y108583D01*
X282283Y110094D02*
X282420D01*
X238558Y118634D02*
Y119028D01*
X239523Y119992D02*
Y128000D01*
X238558Y119028D02*
X239523Y119992D01*
X235948Y128000D02*
X235980D01*
X235500Y128448D02*
Y134547D01*
Y128448D02*
X235948Y128000D01*
X319989Y128966D02*
X320023Y129000D01*
X318558Y118634D02*
Y123486D01*
X319989Y124917D01*
Y128966D01*
X279058Y119528D02*
X281772Y122241D01*
X279058Y119134D02*
Y119528D01*
X281772Y122241D02*
Y128000D01*
X275563Y130634D02*
X278197Y128000D01*
X275563Y130634D02*
Y134547D01*
X278197Y128000D02*
X278228D01*
X316063Y129385D02*
Y134547D01*
Y129385D02*
X316448Y129000D01*
X316479D01*
X200058Y121906D02*
X203157Y125005D01*
Y128917D02*
X203240Y129000D01*
X200058Y117134D02*
Y121906D01*
X203157Y125005D02*
Y128917D01*
X203240Y129000D02*
X203272D01*
X242298Y109973D02*
Y110366D01*
X240772Y108446D02*
X242298Y109973D01*
Y110366D02*
X242432Y110500D01*
X245000D01*
X203932Y109000D02*
X206500D01*
X203798Y108866D02*
X203932Y109000D01*
X202272Y106946D02*
X203798Y108473D01*
X202272Y102500D02*
Y106946D01*
X203798Y108473D02*
Y108866D01*
X204658Y169627D02*
Y172417D01*
X201058Y166028D02*
X204658Y169627D01*
X201058Y165634D02*
Y166028D01*
X204658Y172417D02*
X204740Y172500D01*
X204772D01*
X280772Y150000D02*
Y153343D01*
X282798Y155370D01*
X242298Y156000D02*
X245500D01*
X239772Y153083D02*
X242298Y155610D01*
X239772Y150500D02*
Y153083D01*
X242298Y155610D02*
Y156000D01*
X208352Y157148D02*
X208500Y157000D01*
X204798Y157366D02*
X205017Y157148D01*
X208352D01*
X202272Y154446D02*
X204798Y156973D01*
X202272Y150500D02*
Y154446D01*
X204798Y156973D02*
Y157366D01*
X322365Y156433D02*
X325933D01*
X322298Y156366D02*
X322365Y156433D01*
X325933D02*
X326000Y156500D01*
X320772Y154343D02*
X322298Y155870D01*
Y156366D01*
X320772Y150500D02*
Y154343D01*
D73*
X51000Y140366D02*
X51689D01*
X68000Y89137D02*
Y124055D01*
X51689Y140366D02*
X68000Y124055D01*
D74*
X167500Y160500D02*
D03*
X77500D02*
D03*
D75*
X167500Y150500D02*
D03*
Y140500D02*
D03*
Y130500D02*
D03*
Y120500D02*
D03*
Y110500D02*
D03*
Y100500D02*
D03*
Y90500D02*
D03*
X77500Y150500D02*
D03*
Y140500D02*
D03*
Y130500D02*
D03*
Y120500D02*
D03*
Y110500D02*
D03*
Y100500D02*
D03*
Y90500D02*
D03*
D76*
X335677Y42000D02*
D03*
X217177Y183000D02*
D03*
X255177D02*
D03*
X295677Y182500D02*
D03*
X335677D02*
D03*
X217177Y138706D02*
D03*
X255177D02*
D03*
X295677Y138206D02*
D03*
X335677D02*
D03*
X217177Y89205D02*
D03*
X255177D02*
D03*
X295677Y88500D02*
D03*
X335677Y88000D02*
D03*
X217177Y42500D02*
D03*
X255177Y42000D02*
D03*
X295677D02*
D03*
D77*
X325677D02*
D03*
X207177Y183000D02*
D03*
X245177D02*
D03*
X285677Y182500D02*
D03*
X325677D02*
D03*
X207177Y138706D02*
D03*
X245177D02*
D03*
X285677Y138206D02*
D03*
X325677D02*
D03*
X207177Y89205D02*
D03*
X245177D02*
D03*
X285677Y88500D02*
D03*
X325677Y88000D02*
D03*
X207177Y42500D02*
D03*
X245177Y42000D02*
D03*
X285677D02*
D03*
D78*
X32728Y58000D02*
D03*
D79*
X9500D02*
D03*
D80*
X21705Y39496D02*
D03*
D81*
X393000Y16500D02*
D03*
X16000Y17000D02*
D03*
X15500Y177500D02*
D03*
X393000D02*
D03*
D82*
X117000Y165000D02*
D03*
X118000Y29000D02*
D03*
Y56500D02*
D03*
Y84000D02*
D03*
Y111500D02*
D03*
Y138500D02*
D03*
X405000Y49500D02*
D03*
X402000Y67000D02*
D03*
X406000Y158500D02*
D03*
X370500Y188500D02*
D03*
X348500D02*
D03*
X138000D02*
D03*
X165500Y189000D02*
D03*
X33000D02*
D03*
X60500Y189500D02*
D03*
X88000D02*
D03*
X115500Y189000D02*
D03*
X145000Y4500D02*
D03*
X172500D02*
D03*
X200000D02*
D03*
X118000D02*
D03*
X90500D02*
D03*
X63000D02*
D03*
X35500D02*
D03*
X13272Y90000D02*
D03*
X396000Y84500D02*
D03*
X390000D02*
D03*
X384000D02*
D03*
X378000D02*
D03*
X372000Y85000D02*
D03*
X366000D02*
D03*
X41500Y104000D02*
D03*
X37500D02*
D03*
X45500D02*
D03*
X373528Y17000D02*
D03*
X316000Y188000D02*
D03*
X275500Y188500D02*
D03*
X235500D02*
D03*
X197000D02*
D03*
Y144000D02*
D03*
X61500Y96000D02*
D03*
Y99500D02*
D03*
Y103500D02*
D03*
Y106500D02*
D03*
X39000Y139000D02*
D03*
X34000D02*
D03*
X29000D02*
D03*
X24000D02*
D03*
X19000D02*
D03*
X366500Y3000D02*
D03*
X369000Y7500D02*
D03*
X370500Y12000D02*
D03*
X369500Y50000D02*
D03*
X364000Y52000D02*
D03*
X359000Y53500D02*
D03*
X353000Y56000D02*
D03*
X390531Y96874D02*
D03*
X372031Y96772D02*
D03*
X378031Y96722D02*
D03*
X384531Y96923D02*
D03*
X396531Y96825D02*
D03*
D83*
X225000Y59614D02*
D03*
X263500D02*
D03*
X398500Y151500D02*
D03*
X301000Y12000D02*
D03*
X264000Y13000D02*
D03*
X224500Y11500D02*
D03*
X343500Y13000D02*
D03*
X344000Y58000D02*
D03*
X302500Y59000D02*
D03*
X222000Y103500D02*
D03*
X265000Y105500D02*
D03*
X303500Y106114D02*
D03*
X347000Y107500D02*
D03*
X226500Y114386D02*
D03*
X268500D02*
D03*
X307500Y114000D02*
D03*
X265500Y152114D02*
D03*
X226500Y152000D02*
D03*
X265224Y160886D02*
D03*
X286000Y157000D02*
D03*
X304500Y152500D02*
D03*
X307276Y160886D02*
D03*
X245000Y16500D02*
D03*
X286500Y17000D02*
D03*
X325500Y16500D02*
D03*
X207000Y17000D02*
D03*
Y64500D02*
D03*
X245500Y63500D02*
D03*
X285500Y62500D02*
D03*
X325500D02*
D03*
X326000Y110000D02*
D03*
X286000Y111000D02*
D03*
X361000Y119728D02*
D03*
Y122000D02*
D03*
Y124500D02*
D03*
X245000Y110500D02*
D03*
X206500Y109000D02*
D03*
X38500Y150500D02*
D03*
X30000D02*
D03*
X21000Y150000D02*
D03*
X10000Y119500D02*
D03*
X15000Y119000D02*
D03*
X15500Y116500D02*
D03*
X20500Y112000D02*
D03*
X21000Y104000D02*
D03*
X4500Y96500D02*
D03*
X6500Y102500D02*
D03*
X25000Y77000D02*
D03*
X93000Y151000D02*
D03*
X146000Y131000D02*
D03*
X146500Y139500D02*
D03*
X285500Y163000D02*
D03*
X302000Y172000D02*
D03*
X260000Y169500D02*
D03*
X245500Y164000D02*
D03*
Y156000D02*
D03*
X224000Y173000D02*
D03*
X206500Y164500D02*
D03*
X208500Y157000D02*
D03*
X343000Y172000D02*
D03*
X343500Y153000D02*
D03*
X325500Y164000D02*
D03*
X326000Y156500D02*
D03*
X400500Y104500D02*
D03*
X390500Y105000D02*
D03*
X384000Y105500D02*
D03*
X377500D02*
D03*
X372000D02*
D03*
X366000Y105000D02*
D03*
X396114Y145272D02*
D03*
Y143000D02*
D03*
X403500Y140500D02*
D03*
X398000Y138000D02*
D03*
Y132500D02*
D03*
Y130000D02*
D03*
Y127000D02*
D03*
Y124500D02*
D03*
Y122000D02*
D03*
Y119272D02*
D03*
Y117000D02*
D03*
Y114500D02*
D03*
X227500Y161000D02*
D03*
X363000Y113500D02*
D03*
X361500Y130000D02*
D03*
Y132500D02*
D03*
Y135000D02*
D03*
Y137500D02*
D03*
Y140000D02*
D03*
Y142500D02*
D03*
Y145000D02*
D03*
Y148000D02*
D03*
M02*
