G04*
G04 #@! TF.GenerationSoftware,Altium Limited,Altium Designer,21.5.1 (32)*
G04*
G04 Layer_Color=32896*
%FSLAX25Y25*%
%MOIN*%
G70*
G04*
G04 #@! TF.SameCoordinates,804D03E9-ECC6-49F7-9CEA-4D12CAEBA4D3*
G04*
G04*
G04 #@! TF.FilePolarity,Positive*
G04*
G01*
G75*
%ADD13C,0.00394*%
%ADD20C,0.00500*%
%ADD21C,0.00446*%
%ADD22C,0.00408*%
D13*
X394610Y148110D02*
Y161890D01*
Y148110D02*
X408390D01*
Y161890D01*
X394610D02*
X408390D01*
X32110Y132110D02*
Y145890D01*
Y132110D02*
X45890D01*
Y145890D01*
X32110D02*
X45890D01*
X87110Y144610D02*
Y158390D01*
Y144610D02*
X100890D01*
Y158390D01*
X87110D02*
X100890D01*
X176110Y132610D02*
Y146390D01*
Y132610D02*
X189890D01*
Y146390D01*
X176110D02*
X189890D01*
X144610Y133110D02*
Y146890D01*
Y133110D02*
X158390D01*
Y146890D01*
X144610D02*
X158390D01*
X6382Y83110D02*
Y96890D01*
Y83110D02*
X20161D01*
Y96890D01*
X6382D02*
X20161D01*
D20*
X404916Y146750D02*
X406582D01*
Y144250D01*
X404916D01*
X406582Y145500D02*
X405749D01*
X402417Y146333D02*
X402833Y146750D01*
X403666D01*
X404083Y146333D01*
Y144667D01*
X403666Y144250D01*
X402833D01*
X402417Y144667D01*
X401583Y146750D02*
Y144250D01*
X399917D01*
X399084Y146750D02*
Y144250D01*
Y145083D01*
X397418Y146750D01*
X398668Y145500D01*
X397418Y144250D01*
X404832Y165750D02*
X403166D01*
X403999D01*
Y163250D01*
X402333D02*
Y165750D01*
X401084D01*
X400667Y165333D01*
Y164500D01*
X401084Y164084D01*
X402333D01*
X398168Y165750D02*
X399001Y165333D01*
X399834Y164500D01*
Y163667D01*
X399417Y163250D01*
X398584D01*
X398168Y163667D01*
Y164084D01*
X398584Y164500D01*
X399834D01*
X42332Y130833D02*
X41916Y131250D01*
X41083D01*
X40666Y130833D01*
Y130417D01*
X41083Y130000D01*
X41499D01*
X41083D01*
X40666Y129584D01*
Y129167D01*
X41083Y128750D01*
X41916D01*
X42332Y129167D01*
X39833Y131250D02*
Y129584D01*
X39000Y128750D01*
X38167Y129584D01*
Y131250D01*
X37334Y130833D02*
X36917Y131250D01*
X36084D01*
X35668Y130833D01*
Y130417D01*
X36084Y130000D01*
X36501D01*
X36084D01*
X35668Y129584D01*
Y129167D01*
X36084Y128750D01*
X36917D01*
X37334Y129167D01*
X41916Y149250D02*
X40250D01*
X41083D01*
Y146750D01*
X39417D02*
Y149250D01*
X38167D01*
X37750Y148833D01*
Y148000D01*
X38167Y147583D01*
X39417D01*
X36917Y146750D02*
X36084D01*
X36501D01*
Y149250D01*
X36917Y148833D01*
X97134Y137199D02*
Y138866D01*
X96301Y139699D01*
X95468Y138866D01*
Y137199D01*
Y138449D01*
X97134D01*
X94635Y139282D02*
X94219Y139699D01*
X93385D01*
X92969Y139282D01*
Y137616D01*
X93385Y137199D01*
X94219D01*
X94635Y137616D01*
Y139282D01*
X95385Y165799D02*
X93719D01*
X94552D01*
Y163299D01*
X92886D02*
Y165799D01*
X91636D01*
X91220Y165382D01*
Y164549D01*
X91636Y164132D01*
X92886D01*
X88720Y163299D02*
X90386D01*
X88720Y164966D01*
Y165382D01*
X89137Y165799D01*
X89970D01*
X90386Y165382D01*
X187666Y130833D02*
X188083Y131250D01*
X188916D01*
X189332Y130833D01*
Y130417D01*
X188916Y130000D01*
X188083D01*
X187666Y129584D01*
Y129167D01*
X188083Y128750D01*
X188916D01*
X189332Y129167D01*
X185167Y130833D02*
X185583Y131250D01*
X186416D01*
X186833Y130833D01*
Y129167D01*
X186416Y128750D01*
X185583D01*
X185167Y129167D01*
X184334Y131250D02*
Y128750D01*
X182668D01*
X189832Y149750D02*
X188166D01*
X188999D01*
Y147250D01*
X187333D02*
Y149750D01*
X186083D01*
X185667Y149333D01*
Y148500D01*
X186083Y148083D01*
X187333D01*
X184834Y149333D02*
X184417Y149750D01*
X183584D01*
X183168Y149333D01*
Y148916D01*
X183584Y148500D01*
X184001D01*
X183584D01*
X183168Y148083D01*
Y147667D01*
X183584Y147250D01*
X184417D01*
X184834Y147667D01*
X153666Y131333D02*
X154083Y131750D01*
X154916D01*
X155332Y131333D01*
Y130917D01*
X154916Y130500D01*
X154083D01*
X153666Y130084D01*
Y129667D01*
X154083Y129250D01*
X154916D01*
X155332Y129667D01*
X152833Y131750D02*
Y129250D01*
X151584D01*
X151167Y129667D01*
Y131333D01*
X151584Y131750D01*
X152833D01*
X150334Y129250D02*
Y130917D01*
X149501Y131750D01*
X148668Y130917D01*
Y129250D01*
Y130500D01*
X150334D01*
X154332Y151250D02*
X152666D01*
X153499D01*
Y148750D01*
X151833D02*
Y151250D01*
X150584D01*
X150167Y150833D01*
Y150000D01*
X150584Y149583D01*
X151833D01*
X148084Y148750D02*
Y151250D01*
X149334Y150000D01*
X147668D01*
X15166Y81833D02*
X15583Y82250D01*
X16416D01*
X16832Y81833D01*
Y81416D01*
X16416Y81000D01*
X15583D01*
X15166Y80584D01*
Y80167D01*
X15583Y79750D01*
X16416D01*
X16832Y80167D01*
X14333Y82250D02*
Y81833D01*
X13500Y81000D01*
X12667Y81833D01*
Y82250D01*
X13500Y81000D02*
Y79750D01*
X10168Y81833D02*
X10584Y82250D01*
X11417D01*
X11834Y81833D01*
Y81416D01*
X11417Y81000D01*
X10584D01*
X10168Y80584D01*
Y80167D01*
X10584Y79750D01*
X11417D01*
X11834Y80167D01*
X17332Y100750D02*
X15666D01*
X16499D01*
Y98250D01*
X14833D02*
Y100750D01*
X13584D01*
X13167Y100333D01*
Y99500D01*
X13584Y99084D01*
X14833D01*
X10668Y100750D02*
X12334D01*
Y99500D01*
X11501Y99916D01*
X11084D01*
X10668Y99500D01*
Y98667D01*
X11084Y98250D01*
X11917D01*
X12334Y98667D01*
D21*
X175974Y127000D02*
X173000D01*
Y128487D01*
X173496Y128983D01*
X175478D01*
X175974Y128487D01*
Y127000D01*
X173000Y131957D02*
Y129974D01*
X174983Y131957D01*
X175478D01*
X175974Y131461D01*
Y130470D01*
X175478Y129974D01*
X181653Y162761D02*
X179671D01*
X180662D01*
Y159787D01*
X178680Y162761D02*
X176697Y159787D01*
Y162761D02*
X178680Y159787D01*
X181653Y149787D02*
Y152761D01*
X180166D01*
X179671Y152266D01*
Y151274D01*
X180166Y150779D01*
X181653D01*
X180662D02*
X179671Y149787D01*
X178680Y152761D02*
X176697Y149787D01*
Y152761D02*
X178680Y149787D01*
X181653Y122761D02*
Y119787D01*
X180166D01*
X179671Y120283D01*
Y122266D01*
X180166Y122761D01*
X181653D01*
X178680Y122266D02*
X178184Y122761D01*
X177192D01*
X176697Y122266D01*
Y121770D01*
X177192Y121274D01*
X177688D01*
X177192D01*
X176697Y120779D01*
Y120283D01*
X177192Y119787D01*
X178184D01*
X178680Y120283D01*
X181653Y112761D02*
Y109787D01*
X180166D01*
X179671Y110283D01*
Y112266D01*
X180166Y112761D01*
X181653D01*
X177192Y109787D02*
Y112761D01*
X178680Y111274D01*
X176697D01*
X175974Y139000D02*
X173000D01*
Y140487D01*
X173496Y140983D01*
X175478D01*
X175974Y140487D01*
Y139000D01*
X173000Y141974D02*
Y142965D01*
Y142470D01*
X175974D01*
X175478Y141974D01*
X68089Y132368D02*
Y129394D01*
X66602D01*
X66107Y129889D01*
Y131872D01*
X66602Y132368D01*
X68089D01*
X63133D02*
X65115D01*
Y130881D01*
X64124Y131376D01*
X63628D01*
X63133Y130881D01*
Y129889D01*
X63628Y129394D01*
X64620D01*
X65115Y129889D01*
X68089Y142368D02*
Y139394D01*
X66602D01*
X66107Y139889D01*
Y141872D01*
X66602Y142368D01*
X68089D01*
X65115Y141872D02*
X64620Y142368D01*
X63628D01*
X63133Y141872D01*
Y139889D01*
X63628Y139394D01*
X64620D01*
X65115Y139889D01*
Y141872D01*
X68089Y102368D02*
Y99394D01*
X66602D01*
X66107Y99889D01*
Y101872D01*
X66602Y102368D01*
X68089D01*
X65115Y101872D02*
X64620Y102368D01*
X63628D01*
X63133Y101872D01*
Y101376D01*
X63628Y100881D01*
X63133Y100385D01*
Y99889D01*
X63628Y99394D01*
X64620D01*
X65115Y99889D01*
Y100385D01*
X64620Y100881D01*
X65115Y101376D01*
Y101872D01*
X64620Y100881D02*
X63628D01*
X68089Y149394D02*
Y151376D01*
X67098Y152368D01*
X66107Y151376D01*
Y149394D01*
Y150881D01*
X68089D01*
X65115Y151872D02*
X64620Y152368D01*
X63628D01*
X63133Y151872D01*
Y149889D01*
X63628Y149394D01*
X64620D01*
X65115Y149889D01*
Y151872D01*
X68089Y122368D02*
Y119394D01*
X66602D01*
X66107Y119889D01*
Y121872D01*
X66602Y122368D01*
X68089D01*
X63133D02*
X64124Y121872D01*
X65115Y120881D01*
Y119889D01*
X64620Y119394D01*
X63628D01*
X63133Y119889D01*
Y120385D01*
X63628Y120881D01*
X65115D01*
X68089Y112368D02*
Y109394D01*
X66602D01*
X66107Y109889D01*
Y111872D01*
X66602Y112368D01*
X68089D01*
X65115D02*
X63133D01*
Y111872D01*
X65115Y109889D01*
Y109394D01*
D22*
X179841Y102053D02*
X180294Y102506D01*
X181200D01*
X181653Y102053D01*
Y100241D01*
X181200Y99787D01*
X180294D01*
X179841Y100241D01*
Y101147D01*
X180747D01*
X178934Y99787D02*
Y102506D01*
X177122Y99787D01*
Y102506D01*
X176215D02*
Y99787D01*
X174856D01*
X174403Y100241D01*
Y102053D01*
X174856Y102506D01*
X176215D01*
X179841Y92506D02*
X181653D01*
Y91147D01*
X180747Y91600D01*
X180294D01*
X179841Y91147D01*
Y90241D01*
X180294Y89787D01*
X181200D01*
X181653Y90241D01*
X178934Y92506D02*
Y90694D01*
X178028Y89787D01*
X177122Y90694D01*
Y92506D01*
X70307Y91660D02*
X69854Y92113D01*
X68948D01*
X68494Y91660D01*
Y91206D01*
X68948Y90753D01*
X69401D01*
X68948D01*
X68494Y90300D01*
Y89847D01*
X68948Y89394D01*
X69854D01*
X70307Y89847D01*
X67588Y92113D02*
Y90300D01*
X66682Y89394D01*
X65775Y90300D01*
Y92113D01*
X64869Y91660D02*
X64416Y92113D01*
X63509D01*
X63056Y91660D01*
Y91206D01*
X63509Y90753D01*
X63963D01*
X63509D01*
X63056Y90300D01*
Y89847D01*
X63509Y89394D01*
X64416D01*
X64869Y89847D01*
X70307Y159394D02*
Y162113D01*
X68948D01*
X68494Y161660D01*
Y160753D01*
X68948Y160300D01*
X70307D01*
X69401D02*
X68494Y159394D01*
X65775Y161660D02*
X66228Y162113D01*
X67135D01*
X67588Y161660D01*
Y161206D01*
X67135Y160753D01*
X66228D01*
X65775Y160300D01*
Y159847D01*
X66228Y159394D01*
X67135D01*
X67588Y159847D01*
X64869Y162113D02*
X63056D01*
X63963D01*
Y159394D01*
M02*
