G04*
G04 #@! TF.GenerationSoftware,Altium Limited,Altium Designer,21.5.1 (32)*
G04*
G04 Layer_Color=16711935*
%FSLAX25Y25*%
%MOIN*%
G70*
G04*
G04 #@! TF.SameCoordinates,804D03E9-ECC6-49F7-9CEA-4D12CAEBA4D3*
G04*
G04*
G04 #@! TF.FilePolarity,Positive*
G04*
G01*
G75*
%ADD20C,0.00500*%
%ADD89C,0.00200*%
D20*
X4351Y192215D02*
G03*
X4567Y192220I99J337D01*
G01*
X4328Y192199D02*
G03*
X4351Y192215I-187J298D01*
G01*
X2965Y191286D02*
G03*
X3036Y191387I-249J249D01*
G01*
X294Y6500D02*
X850Y4910D01*
X1746Y3484D01*
X2937Y2293D01*
X4363Y1398D01*
X5953Y841D01*
X7646Y651D01*
X103Y8193D02*
X294Y6500D01*
X103Y8193D02*
Y185358D01*
X401346Y651D02*
X403040Y841D01*
X404629Y1398D01*
X406055Y2294D01*
X407246Y3484D01*
X408142Y4910D01*
X408698Y6500D01*
X408889Y8193D01*
X7646Y651D02*
X401346D01*
X408889Y8193D02*
Y185358D01*
X408698Y187051D02*
X408889Y185358D01*
X408142Y188641D02*
X408698Y187051D01*
X407246Y190067D02*
X408142Y188641D01*
X406055Y191258D02*
X407246Y190067D01*
X404629Y192154D02*
X406055Y191258D01*
X403040Y192710D02*
X404629Y192154D01*
X401346Y192900D02*
X403040Y192710D01*
X7646Y192900D02*
X401346D01*
X5953Y192710D02*
X7646Y192900D01*
X4567Y192220D02*
X5953Y192710D01*
X3036Y191387D02*
X4328Y192199D01*
X1746Y190067D02*
X2965Y191286D01*
X850Y188641D02*
X1746Y190067D01*
X294Y187051D02*
X850Y188641D01*
X103Y185358D02*
X294Y187051D01*
D89*
X408136Y16500D02*
G03*
X408136Y16500I-15136J0D01*
G01*
X31136Y17000D02*
G03*
X31136Y17000I-15136J0D01*
G01*
X30636Y177500D02*
G03*
X30636Y177500I-15136J0D01*
G01*
X408136D02*
G03*
X408136Y177500I-15136J0D01*
G01*
M02*
