G04*
G04 #@! TF.GenerationSoftware,Altium Limited,Altium Designer,21.5.1 (32)*
G04*
G04 Layer_Color=65535*
%FSLAX25Y25*%
%MOIN*%
G70*
G04*
G04 #@! TF.SameCoordinates,804D03E9-ECC6-49F7-9CEA-4D12CAEBA4D3*
G04*
G04*
G04 #@! TF.FilePolarity,Positive*
G04*
G01*
G75*
%ADD10C,0.00984*%
%ADD11C,0.02362*%
%ADD12C,0.01968*%
%ADD13C,0.00394*%
%ADD14C,0.00787*%
%ADD15C,0.00800*%
%ADD16C,0.00600*%
%ADD17C,0.00472*%
%ADD18C,0.01000*%
%ADD19C,0.01200*%
%ADD20C,0.00500*%
%ADD21C,0.00446*%
%ADD22C,0.00408*%
D10*
X19081Y127492D02*
G03*
X19081Y127492I-492J0D01*
G01*
X368878Y150685D02*
G03*
X368878Y150685I-492J0D01*
G01*
X340579Y24000D02*
G03*
X340579Y24000I-492J0D01*
G01*
X222079Y164543D02*
G03*
X222079Y164543I-492J0D01*
G01*
X260079Y163543D02*
G03*
X260079Y163543I-492J0D01*
G01*
X300579Y163043D02*
G03*
X300579Y163043I-492J0D01*
G01*
X340579Y164043D02*
G03*
X340579Y164043I-492J0D01*
G01*
X222079Y116500D02*
G03*
X222079Y116500I-492J0D01*
G01*
X260079Y117543D02*
G03*
X260079Y117543I-492J0D01*
G01*
X300579Y118043D02*
G03*
X300579Y118043I-492J0D01*
G01*
X340579D02*
G03*
X340579Y118043I-492J0D01*
G01*
X222079Y71543D02*
G03*
X222079Y71543I-492J0D01*
G01*
X260079D02*
G03*
X260079Y71543I-492J0D01*
G01*
X300079Y70087D02*
G03*
X300079Y70087I-492J0D01*
G01*
X340579Y69338D02*
G03*
X340579Y69338I-492J0D01*
G01*
X222079Y24043D02*
G03*
X222079Y24043I-492J0D01*
G01*
X260079Y24000D02*
G03*
X260079Y24000I-492J0D01*
G01*
X300579Y23043D02*
G03*
X300579Y23043I-492J0D01*
G01*
D11*
X377835Y146354D02*
G03*
X377835Y146354I-1181J0D01*
G01*
D12*
X40894Y80500D02*
G03*
X40894Y80500I-394J0D01*
G01*
D13*
X329358Y35165D02*
G03*
X329358Y35165I-197J0D01*
G01*
X8697Y87000D02*
G03*
X8697Y87000I-197J0D01*
G01*
X396728Y101058D02*
G03*
X396728Y101058I-197J0D01*
G01*
X34697Y147150D02*
G03*
X34697Y147150I-197J0D01*
G01*
X9197Y81500D02*
G03*
X9197Y81500I-197J0D01*
G01*
X54697Y98000D02*
G03*
X54697Y98000I-197J0D01*
G01*
Y105000D02*
G03*
X54697Y105000I-197J0D01*
G01*
X26197Y147000D02*
G03*
X26197Y147000I-197J0D01*
G01*
X210858Y175165D02*
G03*
X210858Y175165I-197J0D01*
G01*
X248858Y174665D02*
G03*
X248858Y174665I-197J0D01*
G01*
X289358Y174165D02*
G03*
X289358Y174165I-197J0D01*
G01*
X329358Y173665D02*
G03*
X329358Y173665I-197J0D01*
G01*
X210858Y130665D02*
G03*
X210858Y130665I-197J0D01*
G01*
X248858Y130165D02*
G03*
X248858Y130165I-197J0D01*
G01*
X289358D02*
G03*
X289358Y130165I-197J0D01*
G01*
X329358Y129165D02*
G03*
X329358Y129165I-197J0D01*
G01*
X210858Y81665D02*
G03*
X210858Y81665I-197J0D01*
G01*
X248858D02*
G03*
X248858Y81665I-197J0D01*
G01*
X289358Y81940D02*
G03*
X289358Y81940I-197J0D01*
G01*
X329358Y80960D02*
G03*
X329358Y80960I-197J0D01*
G01*
X210858Y35165D02*
G03*
X210858Y35165I-197J0D01*
G01*
X248858Y34665D02*
G03*
X248858Y34665I-197J0D01*
G01*
X289358D02*
G03*
X289358Y34665I-197J0D01*
G01*
X200697Y150500D02*
G03*
X200697Y150500I-197J0D01*
G01*
X238197D02*
G03*
X238197Y150500I-197J0D01*
G01*
X279197Y150000D02*
G03*
X279197Y150000I-197J0D01*
G01*
X319197Y150500D02*
G03*
X319197Y150500I-197J0D01*
G01*
X219815Y151000D02*
G03*
X219815Y151000I-197J0D01*
G01*
X257815D02*
G03*
X257815Y151000I-197J0D01*
G01*
X298315Y150000D02*
G03*
X298315Y150000I-197J0D01*
G01*
X338315Y151000D02*
G03*
X338315Y151000I-197J0D01*
G01*
X203197Y172500D02*
G03*
X203197Y172500I-197J0D01*
G01*
X243948D02*
G03*
X243948Y172500I-197J0D01*
G01*
X282697Y172000D02*
G03*
X282697Y172000I-197J0D01*
G01*
X321948Y171500D02*
G03*
X321948Y171500I-197J0D01*
G01*
X224697Y158728D02*
G03*
X224697Y158728I-197J0D01*
G01*
X262197Y157772D02*
G03*
X262197Y157772I-197J0D01*
G01*
X303697Y157000D02*
G03*
X303697Y157000I-197J0D01*
G01*
X343197Y157500D02*
G03*
X343197Y157500I-197J0D01*
G01*
X200697Y102500D02*
G03*
X200697Y102500I-197J0D01*
G01*
X238469Y104000D02*
G03*
X238469Y104000I-197J0D01*
G01*
X279197Y104500D02*
G03*
X279197Y104500I-197J0D01*
G01*
X318925D02*
G03*
X318925Y104500I-197J0D01*
G01*
X211197Y102500D02*
G03*
X211197Y102500I-197J0D01*
G01*
X257815Y104000D02*
G03*
X257815Y104000I-197J0D01*
G01*
X290697Y104500D02*
G03*
X290697Y104500I-197J0D01*
G01*
X338315D02*
G03*
X338315Y104500I-197J0D01*
G01*
X201697Y129000D02*
G03*
X201697Y129000I-197J0D01*
G01*
X237948Y128000D02*
G03*
X237948Y128000I-197J0D01*
G01*
X280197D02*
G03*
X280197Y128000I-197J0D01*
G01*
X318448Y129000D02*
G03*
X318448Y129000I-197J0D01*
G01*
X223197Y110500D02*
G03*
X223197Y110500I-197J0D01*
G01*
X264697Y110728D02*
G03*
X264697Y110728I-197J0D01*
G01*
X303697Y112000D02*
G03*
X303697Y112000I-197J0D01*
G01*
X343197Y111272D02*
G03*
X343197Y111272I-197J0D01*
G01*
X29697Y130500D02*
G03*
X29697Y130500I-197J0D01*
G01*
X20197D02*
G03*
X20197Y130500I-197J0D01*
G01*
X11197Y138000D02*
G03*
X11197Y138000I-197J0D01*
G01*
X19969Y134500D02*
G03*
X19969Y134500I-197J0D01*
G01*
X201197Y58500D02*
G03*
X201197Y58500I-197J0D01*
G01*
X239197Y57500D02*
G03*
X239197Y57500I-197J0D01*
G01*
X279260Y56795D02*
G03*
X279260Y56795I-197J0D01*
G01*
X319760Y56295D02*
G03*
X319760Y56295I-197J0D01*
G01*
X219815Y58500D02*
G03*
X219815Y58500I-197J0D01*
G01*
X257815Y57000D02*
G03*
X257815Y57000I-197J0D01*
G01*
X290197D02*
G03*
X290197Y57000I-197J0D01*
G01*
X338315Y55795D02*
G03*
X338315Y55795I-197J0D01*
G01*
X203197Y79500D02*
G03*
X203197Y79500I-197J0D01*
G01*
X240425D02*
G03*
X240425Y79500I-197J0D01*
G01*
X281260Y79795D02*
G03*
X281260Y79795I-197J0D01*
G01*
X321760Y78794D02*
G03*
X321760Y78794I-197J0D01*
G01*
X223697Y65000D02*
G03*
X223697Y65000I-197J0D01*
G01*
X262697D02*
G03*
X262697Y65000I-197J0D01*
G01*
X302697Y64000D02*
G03*
X302697Y64000I-197J0D01*
G01*
X342697Y63000D02*
G03*
X342697Y63000I-197J0D01*
G01*
X199925Y12000D02*
G03*
X199925Y12000I-197J0D01*
G01*
X238197Y10000D02*
G03*
X238197Y10000I-197J0D01*
G01*
X279697Y9500D02*
G03*
X279697Y9500I-197J0D01*
G01*
X318197Y11500D02*
G03*
X318197Y11500I-197J0D01*
G01*
X219815Y11000D02*
G03*
X219815Y11000I-197J0D01*
G01*
X257815Y10000D02*
G03*
X257815Y10000I-197J0D01*
G01*
X292197Y9500D02*
G03*
X292197Y9500I-197J0D01*
G01*
X338315Y11500D02*
G03*
X338315Y11500I-197J0D01*
G01*
X202697Y32500D02*
G03*
X202697Y32500I-197J0D01*
G01*
X242197D02*
G03*
X242197Y32500I-197J0D01*
G01*
X281197Y32000D02*
G03*
X281197Y32000I-197J0D01*
G01*
X320969Y32500D02*
G03*
X320969Y32500I-197J0D01*
G01*
X223697Y17500D02*
G03*
X223697Y17500I-197J0D01*
G01*
X263697D02*
G03*
X263697Y17500I-197J0D01*
G01*
X302197D02*
G03*
X302197Y17500I-197J0D01*
G01*
X343197Y18000D02*
G03*
X343197Y18000I-197J0D01*
G01*
X61197Y79756D02*
G03*
X61197Y79756I-197J0D01*
G01*
X180197Y77500D02*
G03*
X180197Y77500I-197J0D01*
G01*
X153697Y140000D02*
G03*
X153697Y140000I-197J0D01*
G01*
Y130500D02*
G03*
X153697Y130500I-197J0D01*
G01*
X8634Y99780D02*
G03*
X8634Y99780I-197J0D01*
G01*
X366228Y101058D02*
G03*
X366228Y101058I-197J0D01*
G01*
X372228D02*
G03*
X372228Y101058I-197J0D01*
G01*
X378228D02*
G03*
X378228Y101058I-197J0D01*
G01*
X384728Y101058D02*
G03*
X384728Y101058I-197J0D01*
G01*
X390728Y101058D02*
G03*
X390728Y101058I-197J0D01*
G01*
D14*
X22034Y114402D02*
X25971D01*
X22034Y126607D02*
X25971D01*
Y114402D02*
Y126607D01*
X22034Y114402D02*
Y126607D01*
X372716Y111709D02*
X387283D01*
X372716Y150291D02*
X387283D01*
Y111709D02*
Y150291D01*
X372716Y111709D02*
Y150291D01*
X338906Y17701D02*
Y20063D01*
X335756Y17701D02*
X338906D01*
X327095D02*
Y20063D01*
Y17701D02*
X330244D01*
X338315Y30244D02*
Y30835D01*
X331228Y30244D02*
Y30835D01*
X338315Y35165D02*
Y35756D01*
X331228Y35165D02*
Y35756D01*
Y30244D02*
X338315D01*
X331228Y35756D02*
X338315D01*
X57791Y142827D02*
X61630D01*
X57791Y121173D02*
X61630D01*
X40370Y142827D02*
X44209D01*
X40370Y121173D02*
X44209D01*
X61630D02*
Y142827D01*
X40370Y121173D02*
Y142827D01*
X320677Y47000D02*
X340677D01*
X320677Y37000D02*
Y47000D01*
Y37000D02*
X340677D01*
Y47000D01*
X38043Y143016D02*
X38043Y147150D01*
X30957Y143016D02*
X30957Y147150D01*
X5752Y84158D02*
X9000Y84158D01*
X5752Y78843D02*
X9000D01*
X50366Y101543D02*
X54500Y101543D01*
X50366Y94457D02*
X54500Y94457D01*
X50366Y108543D02*
X54500Y108543D01*
X50366Y101457D02*
X54500Y101457D01*
X22457Y142866D02*
X22457Y147000D01*
X29543Y142866D02*
X29543Y147000D01*
X202177Y188000D02*
X222177D01*
X202177Y178000D02*
Y188000D01*
Y178000D02*
X222177D01*
Y188000D01*
X240177D02*
X260177D01*
X240177Y178000D02*
Y188000D01*
Y178000D02*
X260177D01*
Y188000D01*
X280677Y187500D02*
X300677D01*
X280677Y177500D02*
Y187500D01*
Y177500D02*
X300677D01*
Y187500D01*
X320677D02*
X340677D01*
X320677Y177500D02*
Y187500D01*
Y177500D02*
X340677D01*
Y187500D01*
X202177Y143705D02*
X222177D01*
X202177Y133705D02*
Y143705D01*
Y133705D02*
X222177D01*
Y143705D01*
X240177D02*
X260177D01*
X240177Y133705D02*
Y143705D01*
Y133705D02*
X260177D01*
Y143705D01*
X280677Y143205D02*
X300677D01*
X280677Y133205D02*
Y143205D01*
Y133205D02*
X300677D01*
Y143205D01*
X320677D02*
X340677D01*
X320677Y133205D02*
Y143205D01*
Y133205D02*
X340677D01*
Y143205D01*
X202177Y94205D02*
X222177D01*
X202177Y84206D02*
Y94205D01*
Y84206D02*
X222177D01*
Y94205D01*
X240177D02*
X260177D01*
X240177Y84206D02*
Y94205D01*
Y84206D02*
X260177D01*
Y94205D01*
X280677Y93500D02*
X300677D01*
X280677Y83500D02*
Y93500D01*
Y83500D02*
X300677D01*
Y93500D01*
X320677Y93000D02*
X340677D01*
X320677Y83000D02*
Y93000D01*
Y83000D02*
X340677D01*
Y93000D01*
X202177Y47500D02*
X222177D01*
X202177Y37500D02*
Y47500D01*
Y37500D02*
X222177D01*
Y47500D01*
X240177Y47000D02*
X260177D01*
X240177Y37000D02*
Y47000D01*
Y37000D02*
X260177D01*
Y47000D01*
X280677D02*
X300677D01*
X280677Y37000D02*
Y47000D01*
Y37000D02*
X300677D01*
Y47000D01*
X219815Y170244D02*
Y170835D01*
X212728Y170244D02*
Y170835D01*
X219815Y175165D02*
Y175756D01*
X212728Y175165D02*
Y175756D01*
Y170244D02*
X219815D01*
X212728Y175756D02*
X219815D01*
X257815Y169744D02*
Y170335D01*
X250728Y169744D02*
Y170335D01*
X257815Y174665D02*
Y175256D01*
X250728Y174665D02*
Y175256D01*
Y169744D02*
X257815D01*
X250728Y175256D02*
X257815D01*
X298315Y169244D02*
Y169835D01*
X291228Y169244D02*
Y169835D01*
X298315Y174165D02*
Y174756D01*
X291228Y174165D02*
Y174756D01*
Y169244D02*
X298315D01*
X291228Y174756D02*
X298315D01*
X338315Y168744D02*
Y169335D01*
X331228Y168744D02*
Y169335D01*
X338315Y173665D02*
Y174256D01*
X331228Y173665D02*
Y174256D01*
Y168744D02*
X338315D01*
X331228Y174256D02*
X338315D01*
X219815Y125744D02*
Y126335D01*
X212728Y125744D02*
Y126335D01*
X219815Y130665D02*
Y131256D01*
X212728Y130665D02*
Y131256D01*
Y125744D02*
X219815D01*
X212728Y131256D02*
X219815D01*
X257815Y125244D02*
Y125835D01*
X250728Y125244D02*
Y125835D01*
X257815Y130165D02*
Y130756D01*
X250728Y130165D02*
Y130756D01*
Y125244D02*
X257815D01*
X250728Y130756D02*
X257815D01*
X298315Y125244D02*
Y125835D01*
X291228Y125244D02*
Y125835D01*
X298315Y130165D02*
Y130756D01*
X291228Y130165D02*
Y130756D01*
Y125244D02*
X298315D01*
X291228Y130756D02*
X298315D01*
X338315Y124244D02*
Y124835D01*
X331228Y124244D02*
Y124835D01*
X338315Y129165D02*
Y129756D01*
X331228Y129165D02*
Y129756D01*
Y124244D02*
X338315D01*
X331228Y129756D02*
X338315D01*
X219815Y76744D02*
Y77335D01*
X212728Y76744D02*
Y77335D01*
X219815Y81665D02*
Y82256D01*
X212728Y81665D02*
Y82256D01*
Y76744D02*
X219815D01*
X212728Y82256D02*
X219815D01*
X257815Y76744D02*
Y77335D01*
X250728Y76744D02*
Y77335D01*
X257815Y81665D02*
Y82256D01*
X250728Y81665D02*
Y82256D01*
Y76744D02*
X257815D01*
X250728Y82256D02*
X257815D01*
X298315Y77018D02*
Y77609D01*
X291228Y77018D02*
Y77609D01*
X298315Y81940D02*
Y82530D01*
X291228Y81940D02*
Y82530D01*
Y77018D02*
X298315D01*
X291228Y82530D02*
X298315D01*
X338315Y76039D02*
Y76629D01*
X331228Y76039D02*
Y76629D01*
X338315Y80960D02*
Y81550D01*
X331228Y80960D02*
Y81550D01*
Y76039D02*
X338315D01*
X331228Y81550D02*
X338315D01*
X219815Y30244D02*
Y30835D01*
X212728Y30244D02*
Y30835D01*
X219815Y35165D02*
Y35756D01*
X212728Y35165D02*
Y35756D01*
Y30244D02*
X219815D01*
X212728Y35756D02*
X219815D01*
X257815Y29744D02*
Y30335D01*
X250728Y29744D02*
Y30335D01*
X257815Y34665D02*
Y35256D01*
X250728Y34665D02*
Y35256D01*
Y29744D02*
X257815D01*
X250728Y35256D02*
X257815D01*
X298315Y29744D02*
Y30335D01*
X291228Y29744D02*
Y30335D01*
X298315Y34665D02*
Y35256D01*
X291228Y34665D02*
Y35256D01*
Y29744D02*
X298315D01*
X291228Y35256D02*
X298315D01*
X220406Y158244D02*
Y160606D01*
X217256Y158244D02*
X220406D01*
X208594D02*
Y160606D01*
Y158244D02*
X211744D01*
X258405Y157244D02*
Y159606D01*
X255256Y157244D02*
X258405D01*
X246595D02*
Y159606D01*
Y157244D02*
X249744D01*
X298905Y156744D02*
Y159106D01*
X295756Y156744D02*
X298905D01*
X287094D02*
Y159106D01*
Y156744D02*
X290244D01*
X338906Y157744D02*
Y160106D01*
X335756Y157744D02*
X338906D01*
X327095D02*
Y160106D01*
Y157744D02*
X330244D01*
X220406Y110201D02*
Y112563D01*
X217256Y110201D02*
X220406D01*
X208594D02*
Y112563D01*
Y110201D02*
X211744D01*
X258405Y111244D02*
Y113606D01*
X255256Y111244D02*
X258405D01*
X246595D02*
Y113606D01*
Y111244D02*
X249744D01*
X298905Y111744D02*
Y114106D01*
X295756Y111744D02*
X298905D01*
X287094D02*
Y114106D01*
Y111744D02*
X290244D01*
X338906D02*
Y114106D01*
X335756Y111744D02*
X338906D01*
X327095D02*
Y114106D01*
Y111744D02*
X330244D01*
X220406Y65244D02*
Y67606D01*
X217256Y65244D02*
X220406D01*
X208594D02*
Y67606D01*
Y65244D02*
X211744D01*
X258405D02*
Y67606D01*
X255256Y65244D02*
X258405D01*
X246595D02*
Y67606D01*
Y65244D02*
X249744D01*
X298406Y63787D02*
Y66150D01*
X295256Y63787D02*
X298406D01*
X286595D02*
Y66150D01*
Y63787D02*
X289744D01*
X338906Y63039D02*
Y65401D01*
X335756Y63039D02*
X338906D01*
X327095D02*
Y65401D01*
Y63039D02*
X330244D01*
X220406Y17744D02*
Y20106D01*
X217256Y17744D02*
X220406D01*
X208594D02*
Y20106D01*
Y17744D02*
X211744D01*
X258405Y17701D02*
Y20063D01*
X255256Y17701D02*
X258405D01*
X246595D02*
Y20063D01*
Y17701D02*
X249744D01*
X298905Y16744D02*
Y19106D01*
X295756Y16744D02*
X298905D01*
X287094D02*
Y19106D01*
Y16744D02*
X290244D01*
X63657Y79756D02*
X63657Y83004D01*
X58342Y79756D02*
Y83004D01*
X182658Y77500D02*
X182658Y80748D01*
X177342Y77500D02*
Y80748D01*
X117807Y64026D02*
Y61075D01*
X118397Y60484D01*
X119578D01*
X120168Y61075D01*
Y64026D01*
X123711Y63436D02*
X123120Y64026D01*
X121940D01*
X121349Y63436D01*
Y62846D01*
X121940Y62255D01*
X123120D01*
X123711Y61665D01*
Y61075D01*
X123120Y60484D01*
X121940D01*
X121349Y61075D01*
X124891Y64026D02*
Y60484D01*
X126663D01*
X127253Y61075D01*
Y61665D01*
X126663Y62255D01*
X124891D01*
X126663D01*
X127253Y62846D01*
Y63436D01*
X126663Y64026D01*
X124891D01*
X111508Y177413D02*
Y179775D01*
X112689Y180956D01*
X113869Y179775D01*
Y177413D01*
Y179184D01*
X111508D01*
X115050Y177413D02*
Y179775D01*
X116821D01*
X117411Y179184D01*
Y177413D01*
X119183Y180365D02*
Y179775D01*
X118592D01*
X119773D01*
X119183D01*
Y178004D01*
X119773Y177413D01*
X123315D02*
X122134D01*
X121544Y178004D01*
Y179184D01*
X122134Y179775D01*
X123315D01*
X123905Y179184D01*
Y178594D01*
X121544D01*
X125086Y177413D02*
Y179775D01*
X126857D01*
X127448Y179184D01*
Y177413D01*
X128628D02*
Y179775D01*
X130399D01*
X130990Y179184D01*
Y177413D01*
X132761Y179775D02*
X133942D01*
X134532Y179184D01*
Y177413D01*
X132761D01*
X132170Y178004D01*
X132761Y178594D01*
X134532D01*
D15*
X28500Y101200D02*
X36100D01*
X28500Y83800D02*
X36100D01*
X28500Y86200D02*
X36100D01*
Y83800D02*
Y101200D01*
X28500Y83800D02*
Y101200D01*
D16*
X13402Y120153D02*
Y131807D01*
X8559D02*
X13402D01*
X8572Y121039D02*
X13362D01*
X8559Y120153D02*
Y131807D01*
Y120153D02*
X13402D01*
X313661Y48299D02*
X318504D01*
Y36646D02*
Y48299D01*
X313701Y47413D02*
X318491D01*
X313661Y36646D02*
X318504D01*
X313661D02*
Y48299D01*
X8437Y92311D02*
X10406Y92311D01*
X8437Y96248D02*
X10406Y96248D01*
X399031Y149272D02*
X401000D01*
X399031Y145728D02*
X401000Y145728D01*
X37272Y120500D02*
Y122468D01*
X33728Y120500D02*
X33728Y122468D01*
X24500Y110228D02*
X26469D01*
X24500Y113772D02*
X26469Y113772D01*
X29575Y132728D02*
X31543D01*
X29575Y136272D02*
X31543Y136272D01*
X17228Y146531D02*
Y148500D01*
X20772Y146531D02*
X20772Y148500D01*
X194598Y188094D02*
X199441D01*
Y176440D02*
Y188094D01*
X194638Y187208D02*
X199428D01*
X194598Y176440D02*
X199441D01*
X194598D02*
Y188094D01*
X233098D02*
X237941D01*
Y176440D02*
Y188094D01*
X233138Y187208D02*
X237928D01*
X233098Y176440D02*
X237941D01*
X233098D02*
Y188094D01*
X273161D02*
X278004D01*
Y176440D02*
Y188094D01*
X273201Y187208D02*
X277991D01*
X273161Y176440D02*
X278004D01*
X273161D02*
Y188094D01*
X313661Y187799D02*
X318504D01*
Y176146D02*
Y187799D01*
X313701Y186913D02*
X318491D01*
X313661Y176146D02*
X318504D01*
X313661D02*
Y187799D01*
X194598Y143799D02*
X199441D01*
Y132146D02*
Y143799D01*
X194638Y142913D02*
X199428D01*
X194598Y132146D02*
X199441D01*
X194598D02*
Y143799D01*
X233098D02*
X237941D01*
Y132146D02*
Y143799D01*
X233138Y142913D02*
X237928D01*
X233098Y132146D02*
X237941D01*
X233098D02*
Y143799D01*
X273161D02*
X278004D01*
Y132146D02*
Y143799D01*
X273201Y142913D02*
X277991D01*
X273161Y132146D02*
X278004D01*
X273161D02*
Y143799D01*
X313661D02*
X318504D01*
Y132146D02*
Y143799D01*
X313701Y142913D02*
X318491D01*
X313661Y132146D02*
X318504D01*
X313661D02*
Y143799D01*
X194598Y94299D02*
X199441D01*
Y82646D02*
Y94299D01*
X194638Y93413D02*
X199428D01*
X194598Y82646D02*
X199441D01*
X194598D02*
Y94299D01*
X233098D02*
X237941D01*
Y82646D02*
Y94299D01*
X233138Y93413D02*
X237928D01*
X233098Y82646D02*
X237941D01*
X233098D02*
Y94299D01*
X273161Y94094D02*
X278004D01*
Y82440D02*
Y94094D01*
X273201Y93208D02*
X277991D01*
X273161Y82440D02*
X278004D01*
X273161D02*
Y94094D01*
X313661Y93594D02*
X318504D01*
Y81940D02*
Y93594D01*
X313701Y92708D02*
X318491D01*
X313661Y81940D02*
X318504D01*
X313661D02*
Y93594D01*
X194598Y47299D02*
X199441D01*
Y35646D02*
Y47299D01*
X194638Y46413D02*
X199428D01*
X194598Y35646D02*
X199441D01*
X194598D02*
Y47299D01*
X233098Y46799D02*
X237941D01*
Y35146D02*
Y46799D01*
X233138Y45913D02*
X237928D01*
X233098Y35146D02*
X237941D01*
X233098D02*
Y46799D01*
X273161Y47299D02*
X278004D01*
Y35646D02*
Y47299D01*
X273201Y46413D02*
X277991D01*
X273161Y35646D02*
X278004D01*
X273161D02*
Y47299D01*
X26032Y81772D02*
X28000D01*
X26032Y78228D02*
X28000Y78228D01*
D17*
X320342Y23953D02*
X324082D01*
Y18441D02*
Y23953D01*
X312035D02*
X315775D01*
X312035Y18441D02*
Y23953D01*
X203342Y164453D02*
X207082D01*
Y158941D02*
Y164453D01*
X195035D02*
X198775D01*
X195035Y158941D02*
Y164453D01*
X240842Y163087D02*
X244582D01*
Y157575D02*
Y163087D01*
X232535D02*
X236275D01*
X232535Y157575D02*
Y163087D01*
X281342Y162953D02*
X285082D01*
Y157441D02*
Y162953D01*
X273035D02*
X276775D01*
X273035Y157441D02*
Y162953D01*
X320842Y163453D02*
X324582D01*
Y157941D02*
Y163453D01*
X312535D02*
X316275D01*
X312535Y157941D02*
Y163453D01*
X202342Y115953D02*
X206082D01*
Y110441D02*
Y115953D01*
X194035D02*
X197775D01*
X194035Y110441D02*
Y115953D01*
X240842Y117453D02*
X244582D01*
Y111941D02*
Y117453D01*
X232535D02*
X236275D01*
X232535Y111941D02*
Y117453D01*
X281342Y117953D02*
X285082D01*
Y112441D02*
Y117953D01*
X273035D02*
X276775D01*
X273035Y112441D02*
Y117953D01*
X320842Y117453D02*
X324582D01*
Y111941D02*
Y117453D01*
X312535D02*
X316275D01*
X312535Y111941D02*
Y117453D01*
X202342Y71453D02*
X206082D01*
Y65941D02*
Y71453D01*
X194035D02*
X197775D01*
X194035Y65941D02*
Y71453D01*
X240842Y70953D02*
X244582D01*
Y65441D02*
Y70953D01*
X232535D02*
X236275D01*
X232535Y65441D02*
Y70953D01*
X280905Y69727D02*
X284645D01*
Y64215D02*
Y69727D01*
X272598D02*
X276338D01*
X272598Y64215D02*
Y69727D01*
X320405Y69247D02*
X324145D01*
Y63735D02*
Y69247D01*
X312098D02*
X315838D01*
X312098Y63735D02*
Y69247D01*
X202284Y24453D02*
X206024D01*
Y18941D02*
Y24453D01*
X193976D02*
X197716D01*
X193976Y18941D02*
Y24453D01*
X240283Y23453D02*
X244024D01*
Y17941D02*
Y23453D01*
X231976D02*
X235717D01*
X231976Y17941D02*
Y23453D01*
X281842Y22453D02*
X285582D01*
Y16941D02*
Y22453D01*
X273535D02*
X277275D01*
X273535Y16941D02*
Y22453D01*
D18*
X36614Y36248D02*
Y76248D01*
X-21386Y36248D02*
X36614D01*
X-21386Y76248D02*
X36614D01*
X-21386Y36248D02*
Y76248D01*
X401500Y96397D02*
X402833D01*
X402166D01*
Y100396D01*
X401500Y99729D01*
Y85332D02*
X402166Y85999D01*
X403499D01*
X404166Y85332D01*
Y82666D01*
X403499Y82000D01*
X402166D01*
X401500Y82666D01*
Y85332D01*
X351499Y181000D02*
Y184999D01*
X349500Y182999D01*
X352166D01*
X350000Y39500D02*
X351333D01*
X350666D01*
Y43499D01*
X350000Y42832D01*
X355998Y43499D02*
X354665Y42832D01*
X353332Y41499D01*
Y40166D01*
X353999Y39500D01*
X355332D01*
X355998Y40166D01*
Y40833D01*
X355332Y41499D01*
X353332D01*
X184000Y180000D02*
X185333D01*
X184667D01*
Y183999D01*
X184000Y183332D01*
X179000Y39500D02*
X180333D01*
X179666D01*
Y43499D01*
X179000Y42832D01*
X182332D02*
X182999Y43499D01*
X184332D01*
X184998Y42832D01*
Y42166D01*
X184332Y41499D01*
X183665D01*
X184332D01*
X184998Y40833D01*
Y40166D01*
X184332Y39500D01*
X182999D01*
X182332Y40166D01*
X3000Y113332D02*
X3666Y113999D01*
X4999D01*
X5666Y113332D01*
Y112666D01*
X4999Y111999D01*
X4333D01*
X4999D01*
X5666Y111333D01*
Y110667D01*
X4999Y110000D01*
X3666D01*
X3000Y110667D01*
X6999Y110000D02*
Y110667D01*
X7665D01*
Y110000D01*
X6999D01*
X10331Y113332D02*
X10997Y113999D01*
X12330D01*
X12997Y113332D01*
Y112666D01*
X12330Y111999D01*
X11664D01*
X12330D01*
X12997Y111333D01*
Y110667D01*
X12330Y110000D01*
X10997D01*
X10331Y110667D01*
X14330Y113999D02*
Y111333D01*
X15663Y110000D01*
X16996Y111333D01*
Y113999D01*
D19*
X73199Y40275D02*
X72199Y41275D01*
X70200D01*
X69200Y40275D01*
Y36277D01*
X70200Y35277D01*
X72199D01*
X73199Y36277D01*
X76198Y35277D02*
X78197D01*
X79197Y36277D01*
Y38276D01*
X78197Y39276D01*
X76198D01*
X75198Y38276D01*
Y36277D01*
X76198Y35277D01*
X81196D02*
X83196D01*
X82196D01*
Y39276D01*
X81196D01*
X86194Y35277D02*
X88194D01*
X87194D01*
Y41275D01*
X86194D01*
X97191D02*
Y35277D01*
X100190D01*
X101190Y36277D01*
Y40275D01*
X100190Y41275D01*
X97191D01*
X103189Y39276D02*
Y35277D01*
Y37276D01*
X104189Y38276D01*
X105188Y39276D01*
X106188D01*
X109187Y35277D02*
X111186D01*
X110187D01*
Y39276D01*
X109187D01*
X114185D02*
X116185Y35277D01*
X118184Y39276D01*
X123182Y35277D02*
X121183D01*
X120184Y36277D01*
Y38276D01*
X121183Y39276D01*
X123182D01*
X124182Y38276D01*
Y37276D01*
X120184D01*
X126182Y39276D02*
Y35277D01*
Y37276D01*
X127181Y38276D01*
X128181Y39276D01*
X129181D01*
X138178Y35277D02*
Y41275D01*
X141177D01*
X142176Y40275D01*
Y38276D01*
X141177Y37276D01*
X138178D01*
X140177D02*
X142176Y35277D01*
X147175D02*
X145175D01*
X144176Y36277D01*
Y38276D01*
X145175Y39276D01*
X147175D01*
X148175Y38276D01*
Y37276D01*
X144176D01*
X150174Y39276D02*
X152173Y35277D01*
X154173Y39276D01*
X162170Y35277D02*
Y39276D01*
X164169Y41275D01*
X166169Y39276D01*
Y35277D01*
Y38276D01*
X162170D01*
X69200Y31197D02*
Y25199D01*
Y27199D01*
X73199Y31197D01*
X70200Y28198D01*
X73199Y25199D01*
X75198Y29198D02*
Y26199D01*
X76198Y25199D01*
X79197D01*
Y24200D01*
X78197Y23200D01*
X77197D01*
X79197Y25199D02*
Y29198D01*
X81196Y25199D02*
X83196D01*
X82196D01*
Y31197D01*
X81196D01*
X89193Y25199D02*
X87194D01*
X86194Y26199D01*
Y28198D01*
X87194Y29198D01*
X89193D01*
X90193Y28198D01*
Y27199D01*
X86194D01*
X98191Y25199D02*
Y31197D01*
X101190D01*
X102189Y30198D01*
Y28198D01*
X101190Y27199D01*
X98191D01*
X100190D02*
X102189Y25199D01*
X104189D02*
Y26199D01*
X105188D01*
Y25199D01*
X104189D01*
X115185Y31197D02*
Y25199D01*
X118184D01*
X119184Y26199D01*
Y30198D01*
X118184Y31197D01*
X115185D01*
X124182Y25199D02*
X122183D01*
X121183Y26199D01*
Y28198D01*
X122183Y29198D01*
X124182D01*
X125182Y28198D01*
Y27199D01*
X121183D01*
X127181Y25199D02*
X130180D01*
X131180Y26199D01*
X130180Y27199D01*
X128181D01*
X127181Y28198D01*
X128181Y29198D01*
X131180D01*
X133179Y25199D02*
X135179D01*
X134179D01*
Y29198D01*
X133179D01*
X140177Y23200D02*
X141177D01*
X142176Y24200D01*
Y29198D01*
X139177D01*
X138178Y28198D01*
Y26199D01*
X139177Y25199D01*
X142176D01*
X144176D02*
Y29198D01*
X147175D01*
X148175Y28198D01*
Y25199D01*
X150174D02*
X153173D01*
X154173Y26199D01*
X153173Y27199D01*
X151173D01*
X150174Y28198D01*
X151173Y29198D01*
X154173D01*
D20*
X68293Y174333D02*
X67876Y174750D01*
X67043D01*
X66626Y174333D01*
Y172667D01*
X67043Y172250D01*
X67876D01*
X68293Y172667D01*
X69126Y172250D02*
Y174750D01*
X70792Y172250D01*
Y174750D01*
X71625Y172250D02*
X72458D01*
X72041D01*
Y174750D01*
X71625Y174333D01*
X73707D02*
X74124Y174750D01*
X74957D01*
X75374Y174333D01*
Y173916D01*
X74957Y173500D01*
X75374Y173083D01*
Y172667D01*
X74957Y172250D01*
X74124D01*
X73707Y172667D01*
Y173083D01*
X74124Y173500D01*
X73707Y173916D01*
Y174333D01*
X74124Y173500D02*
X74957D01*
X29334Y113750D02*
Y111667D01*
X29750Y111250D01*
X30584D01*
X31000Y111667D01*
Y113750D01*
X31833Y111250D02*
X32666D01*
X32250D01*
Y113750D01*
X31833Y113333D01*
X372417Y155250D02*
Y153167D01*
X372834Y152750D01*
X373667D01*
X374083Y153167D01*
Y155250D01*
X374917Y154833D02*
X375333Y155250D01*
X376166D01*
X376583Y154833D01*
Y154417D01*
X376166Y154000D01*
X375750D01*
X376166D01*
X376583Y153584D01*
Y153167D01*
X376166Y152750D01*
X375333D01*
X374917Y153167D01*
X329334Y10667D02*
Y12333D01*
X328917Y12750D01*
X328084D01*
X327668Y12333D01*
Y10667D01*
X328084Y10250D01*
X328917D01*
X328501Y11084D02*
X329334Y10250D01*
X328917D02*
X329334Y10667D01*
X330167Y12333D02*
X330584Y12750D01*
X331417D01*
X331833Y12333D01*
Y11917D01*
X331417Y11500D01*
X331000D01*
X331417D01*
X331833Y11084D01*
Y10667D01*
X331417Y10250D01*
X330584D01*
X330167Y10667D01*
X334332Y10250D02*
X332666D01*
X334332Y11917D01*
Y12333D01*
X333916Y12750D01*
X333083D01*
X332666Y12333D01*
X29417Y105750D02*
Y103667D01*
X29834Y103250D01*
X30667D01*
X31084Y103667D01*
Y105750D01*
X33583Y103250D02*
X31916D01*
X33583Y104917D01*
Y105333D01*
X33166Y105750D01*
X32333D01*
X31916Y105333D01*
X342376Y33750D02*
Y31250D01*
X343626D01*
X344042Y31667D01*
Y33333D01*
X343626Y33750D01*
X342376D01*
X344875Y31250D02*
X345708D01*
X345292D01*
Y33750D01*
X344875Y33333D01*
X348624Y33750D02*
X347791Y33333D01*
X346958Y32500D01*
Y31667D01*
X347374Y31250D01*
X348207D01*
X348624Y31667D01*
Y32083D01*
X348207Y32500D01*
X346958D01*
X4250Y121418D02*
X6750D01*
Y123084D01*
X4250Y125584D02*
Y123917D01*
X6750D01*
Y125584D01*
X5500Y123917D02*
Y124750D01*
X4250Y126417D02*
X6750D01*
Y127666D01*
X6333Y128083D01*
X4667D01*
X4250Y127666D01*
Y126417D01*
X6333Y128916D02*
X6750Y129332D01*
Y130165D01*
X6333Y130582D01*
X4667D01*
X4250Y130165D01*
Y129332D01*
X4667Y128916D01*
X5083D01*
X5500Y129332D01*
Y130582D01*
X309250Y36877D02*
X311750D01*
Y38543D01*
X309250Y41042D02*
Y39376D01*
X311750D01*
Y41042D01*
X310500Y39376D02*
Y40209D01*
X309250Y41875D02*
X311750D01*
Y43125D01*
X311333Y43541D01*
X309667D01*
X309250Y43125D01*
Y41875D01*
X311750Y44374D02*
Y45208D01*
Y44791D01*
X309250D01*
X309667Y44374D01*
X309250Y46457D02*
Y48123D01*
X309667D01*
X311333Y46457D01*
X311750D01*
X68750Y78417D02*
Y79250D01*
Y78833D01*
X66667D01*
X66250Y79250D01*
Y79666D01*
X66667Y80083D01*
X68750Y77583D02*
Y75917D01*
X68333D01*
X66667Y77583D01*
X66250D01*
X4750Y84668D02*
X2250D01*
Y85917D01*
X2667Y86334D01*
X3500D01*
X3917Y85917D01*
Y84668D01*
Y85501D02*
X4750Y86334D01*
X2250Y87167D02*
Y88833D01*
X2667D01*
X4333Y87167D01*
X4750D01*
Y91332D02*
Y89666D01*
X3084Y91332D01*
X2667D01*
X2250Y90916D01*
Y90083D01*
X2667Y89666D01*
X397750Y105668D02*
X395250D01*
Y106917D01*
X395667Y107334D01*
X396500D01*
X396917Y106917D01*
Y105668D01*
Y106501D02*
X397750Y107334D01*
X395250Y108167D02*
Y109833D01*
X395667D01*
X397333Y108167D01*
X397750D01*
X395667Y110666D02*
X395250Y111083D01*
Y111916D01*
X395667Y112332D01*
X396083D01*
X396500Y111916D01*
X396917Y112332D01*
X397333D01*
X397750Y111916D01*
Y111083D01*
X397333Y110666D01*
X396917D01*
X396500Y111083D01*
X396083Y110666D01*
X395667D01*
X396500Y111083D02*
Y111916D01*
X41834Y117750D02*
Y115250D01*
X43500D01*
X44333D02*
X45166D01*
X44750D01*
Y117750D01*
X44333Y117333D01*
X342667Y39292D02*
X342250Y38876D01*
Y38043D01*
X342667Y37626D01*
X344333D01*
X344750Y38043D01*
Y38876D01*
X344333Y39292D01*
X344750Y40126D02*
X342250D01*
X344750Y41792D01*
X342250D01*
X344750Y42625D02*
Y43458D01*
Y43041D01*
X342250D01*
X342667Y42625D01*
X342250Y44708D02*
Y46374D01*
X342667D01*
X344333Y44708D01*
X344750D01*
X309833Y19834D02*
X308167D01*
X307750Y19417D01*
Y18584D01*
X308167Y18168D01*
X309833D01*
X310250Y18584D01*
Y19417D01*
X309417Y19001D02*
X310250Y19834D01*
Y19417D02*
X309833Y19834D01*
X310250Y22333D02*
Y20667D01*
X308583Y22333D01*
X308167D01*
X307750Y21916D01*
Y21083D01*
X308167Y20667D01*
Y23166D02*
X307750Y23583D01*
Y24416D01*
X308167Y24832D01*
X308583D01*
X309000Y24416D01*
X309417Y24832D01*
X309833D01*
X310250Y24416D01*
Y23583D01*
X309833Y23166D01*
X309417D01*
X309000Y23583D01*
X308583Y23166D01*
X308167D01*
X309000Y23583D02*
Y24416D01*
X33667Y156084D02*
X33250Y155667D01*
Y154834D01*
X33667Y154417D01*
X35333D01*
X35750Y154834D01*
Y155667D01*
X35333Y156084D01*
X33250Y156916D02*
Y158583D01*
X33667D01*
X35333Y156916D01*
X35750D01*
X16542Y80833D02*
X16126Y81250D01*
X15292D01*
X14876Y80833D01*
Y79167D01*
X15292Y78750D01*
X16126D01*
X16542Y79167D01*
X17375Y78750D02*
X18208D01*
X17792D01*
Y81250D01*
X17375Y80833D01*
X20707Y78750D02*
Y81250D01*
X19458Y80000D01*
X21124D01*
X13167Y94042D02*
X12750Y93626D01*
Y92792D01*
X13167Y92376D01*
X14833D01*
X15250Y92792D01*
Y93626D01*
X14833Y94042D01*
X15250Y94875D02*
Y95708D01*
Y95292D01*
X12750D01*
X13167Y94875D01*
Y96958D02*
X12750Y97374D01*
Y98207D01*
X13167Y98624D01*
X13584D01*
X14000Y98207D01*
Y97791D01*
Y98207D01*
X14416Y98624D01*
X14833D01*
X15250Y98207D01*
Y97374D01*
X14833Y96958D01*
X402290Y156382D02*
X401874Y156799D01*
X401041D01*
X400624Y156382D01*
Y154716D01*
X401041Y154299D01*
X401874D01*
X402290Y154716D01*
X403124Y154299D02*
X403957D01*
X403540D01*
Y156799D01*
X403124Y156382D01*
X406872Y156799D02*
X406039Y156382D01*
X405206Y155549D01*
Y154716D01*
X405623Y154299D01*
X406456D01*
X406872Y154716D01*
Y155132D01*
X406456Y155549D01*
X405206D01*
X41833Y73166D02*
X42250Y73583D01*
Y74416D01*
X41833Y74832D01*
X40167D01*
X39750Y74416D01*
Y73583D01*
X40167Y73166D01*
X39750Y72333D02*
X42250D01*
X39750Y70667D01*
X42250D01*
X40167Y69834D02*
X39750Y69417D01*
Y68584D01*
X40167Y68168D01*
X41833D01*
X42250Y68584D01*
Y69417D01*
X41833Y69834D01*
X41416D01*
X41000Y69417D01*
Y68168D01*
X34667Y114500D02*
X34250Y114084D01*
Y113250D01*
X34667Y112834D01*
X36333D01*
X36750Y113250D01*
Y114084D01*
X36333Y114500D01*
X36750Y115333D02*
Y116166D01*
Y115750D01*
X34250D01*
X34667Y115333D01*
X52083Y91833D02*
X51667Y92250D01*
X50834D01*
X50417Y91833D01*
Y90167D01*
X50834Y89750D01*
X51667D01*
X52083Y90167D01*
X54583Y89750D02*
X52917D01*
X54583Y91417D01*
Y91833D01*
X54166Y92250D01*
X53333D01*
X52917Y91833D01*
X52083Y111833D02*
X51667Y112250D01*
X50834D01*
X50417Y111833D01*
Y110167D01*
X50834Y109750D01*
X51667D01*
X52083Y110167D01*
X52917Y111833D02*
X53333Y112250D01*
X54166D01*
X54583Y111833D01*
Y111416D01*
X54166Y111000D01*
X53750D01*
X54166D01*
X54583Y110583D01*
Y110167D01*
X54166Y109750D01*
X53333D01*
X52917Y110167D01*
X24584Y108333D02*
X24167Y108750D01*
X23334D01*
X22917Y108333D01*
Y106667D01*
X23334Y106250D01*
X24167D01*
X24584Y106667D01*
X26666Y106250D02*
Y108750D01*
X25416Y107500D01*
X27083D01*
X35583Y135333D02*
X35167Y135750D01*
X34334D01*
X33917Y135333D01*
Y133667D01*
X34334Y133250D01*
X35167D01*
X35583Y133667D01*
X38083Y135750D02*
X36417D01*
Y134500D01*
X37250Y134916D01*
X37666D01*
X38083Y134500D01*
Y133667D01*
X37666Y133250D01*
X36833D01*
X36417Y133667D01*
X24667Y154584D02*
X24250Y154167D01*
Y153334D01*
X24667Y152917D01*
X26333D01*
X26750Y153334D01*
Y154167D01*
X26333Y154584D01*
X24250Y157083D02*
X24667Y156250D01*
X25500Y155417D01*
X26333D01*
X26750Y155833D01*
Y156666D01*
X26333Y157083D01*
X25916D01*
X25500Y156666D01*
Y155417D01*
X17667Y154542D02*
X17250Y154126D01*
Y153293D01*
X17667Y152876D01*
X19333D01*
X19750Y153293D01*
Y154126D01*
X19333Y154542D01*
X19750Y155375D02*
Y156208D01*
Y155792D01*
X17250D01*
X17667Y155375D01*
Y157458D02*
X17250Y157874D01*
Y158707D01*
X17667Y159124D01*
X19333D01*
X19750Y158707D01*
Y157874D01*
X19333Y157458D01*
X17667D01*
X224667Y181750D02*
X224250Y181334D01*
Y180501D01*
X224667Y180084D01*
X226333D01*
X226750Y180501D01*
Y181334D01*
X226333Y181750D01*
X226750Y182583D02*
X224250D01*
X226750Y184250D01*
X224250D01*
X226750Y185083D02*
Y185916D01*
Y185499D01*
X224250D01*
X224667Y185083D01*
X262667Y181834D02*
X262250Y181417D01*
Y180584D01*
X262667Y180168D01*
X264333D01*
X264750Y180584D01*
Y181417D01*
X264333Y181834D01*
X264750Y182667D02*
X262250D01*
X264750Y184333D01*
X262250D01*
X264750Y186832D02*
Y185166D01*
X263084Y186832D01*
X262667D01*
X262250Y186416D01*
Y185583D01*
X262667Y185166D01*
X302167Y181334D02*
X301750Y180917D01*
Y180084D01*
X302167Y179668D01*
X303833D01*
X304250Y180084D01*
Y180917D01*
X303833Y181334D01*
X304250Y182167D02*
X301750D01*
X304250Y183833D01*
X301750D01*
X302167Y184666D02*
X301750Y185083D01*
Y185916D01*
X302167Y186332D01*
X302584D01*
X303000Y185916D01*
Y185499D01*
Y185916D01*
X303416Y186332D01*
X303833D01*
X304250Y185916D01*
Y185083D01*
X303833Y184666D01*
X342667Y180834D02*
X342250Y180417D01*
Y179584D01*
X342667Y179168D01*
X344333D01*
X344750Y179584D01*
Y180417D01*
X344333Y180834D01*
X344750Y181667D02*
X342250D01*
X344750Y183333D01*
X342250D01*
X344750Y185416D02*
X342250D01*
X343500Y184166D01*
Y185832D01*
X224427Y137834D02*
X224010Y137417D01*
Y136584D01*
X224427Y136168D01*
X226093D01*
X226509Y136584D01*
Y137417D01*
X226093Y137834D01*
X226509Y138667D02*
X224010D01*
X226509Y140333D01*
X224010D01*
Y142832D02*
Y141166D01*
X225260D01*
X224843Y141999D01*
Y142416D01*
X225260Y142832D01*
X226093D01*
X226509Y142416D01*
Y141583D01*
X226093Y141166D01*
X262167Y136834D02*
X261750Y136417D01*
Y135584D01*
X262167Y135168D01*
X263833D01*
X264250Y135584D01*
Y136417D01*
X263833Y136834D01*
X264250Y137667D02*
X261750D01*
X264250Y139333D01*
X261750D01*
Y141832D02*
X262167Y140999D01*
X263000Y140166D01*
X263833D01*
X264250Y140583D01*
Y141416D01*
X263833Y141832D01*
X263417D01*
X263000Y141416D01*
Y140166D01*
X303167Y136834D02*
X302750Y136417D01*
Y135584D01*
X303167Y135168D01*
X304833D01*
X305250Y135584D01*
Y136417D01*
X304833Y136834D01*
X305250Y137667D02*
X302750D01*
X305250Y139333D01*
X302750D01*
Y140166D02*
Y141832D01*
X303167D01*
X304833Y140166D01*
X305250D01*
X343167Y136834D02*
X342750Y136417D01*
Y135584D01*
X343167Y135168D01*
X344833D01*
X345250Y135584D01*
Y136417D01*
X344833Y136834D01*
X345250Y137667D02*
X342750D01*
X345250Y139333D01*
X342750D01*
X343167Y140166D02*
X342750Y140583D01*
Y141416D01*
X343167Y141832D01*
X343583D01*
X344000Y141416D01*
X344416Y141832D01*
X344833D01*
X345250Y141416D01*
Y140583D01*
X344833Y140166D01*
X344416D01*
X344000Y140583D01*
X343583Y140166D01*
X343167D01*
X344000Y140583D02*
Y141416D01*
X223667Y86793D02*
X223250Y86376D01*
Y85543D01*
X223667Y85126D01*
X225333D01*
X225750Y85543D01*
Y86376D01*
X225333Y86793D01*
X225750Y87626D02*
X223250D01*
X225750Y89292D01*
X223250D01*
X225750Y90125D02*
Y90958D01*
Y90541D01*
X223250D01*
X223667Y90125D01*
Y92207D02*
X223250Y92624D01*
Y93457D01*
X223667Y93874D01*
X225333D01*
X225750Y93457D01*
Y92624D01*
X225333Y92207D01*
X223667D01*
X262167Y87209D02*
X261750Y86793D01*
Y85960D01*
X262167Y85543D01*
X263833D01*
X264250Y85960D01*
Y86793D01*
X263833Y87209D01*
X264250Y88042D02*
X261750D01*
X264250Y89708D01*
X261750D01*
X264250Y90541D02*
Y91374D01*
Y90958D01*
X261750D01*
X262167Y90541D01*
X264250Y92624D02*
Y93457D01*
Y93041D01*
X261750D01*
X262167Y92624D01*
X303167Y85793D02*
X302750Y85376D01*
Y84543D01*
X303167Y84126D01*
X304833D01*
X305250Y84543D01*
Y85376D01*
X304833Y85793D01*
X305250Y86626D02*
X302750D01*
X305250Y88292D01*
X302750D01*
X305250Y89125D02*
Y89958D01*
Y89541D01*
X302750D01*
X303167Y89125D01*
X305250Y92874D02*
Y91207D01*
X303584Y92874D01*
X303167D01*
X302750Y92457D01*
Y91624D01*
X303167Y91207D01*
X343167Y85293D02*
X342750Y84876D01*
Y84043D01*
X343167Y83626D01*
X344833D01*
X345250Y84043D01*
Y84876D01*
X344833Y85293D01*
X345250Y86126D02*
X342750D01*
X345250Y87792D01*
X342750D01*
X345250Y88625D02*
Y89458D01*
Y89041D01*
X342750D01*
X343167Y88625D01*
Y90707D02*
X342750Y91124D01*
Y91957D01*
X343167Y92374D01*
X343583D01*
X344000Y91957D01*
Y91540D01*
Y91957D01*
X344416Y92374D01*
X344833D01*
X345250Y91957D01*
Y91124D01*
X344833Y90707D01*
X223667Y39792D02*
X223250Y39376D01*
Y38543D01*
X223667Y38126D01*
X225333D01*
X225750Y38543D01*
Y39376D01*
X225333Y39792D01*
X225750Y40626D02*
X223250D01*
X225750Y42292D01*
X223250D01*
X225750Y43125D02*
Y43958D01*
Y43541D01*
X223250D01*
X223667Y43125D01*
X225750Y46457D02*
X223250D01*
X224500Y45208D01*
Y46874D01*
X262667Y38293D02*
X262250Y37876D01*
Y37043D01*
X262667Y36626D01*
X264333D01*
X264750Y37043D01*
Y37876D01*
X264333Y38293D01*
X264750Y39126D02*
X262250D01*
X264750Y40792D01*
X262250D01*
X264750Y41625D02*
Y42458D01*
Y42041D01*
X262250D01*
X262667Y41625D01*
X262250Y45374D02*
Y43707D01*
X263500D01*
X263084Y44541D01*
Y44957D01*
X263500Y45374D01*
X264333D01*
X264750Y44957D01*
Y44124D01*
X264333Y43707D01*
X302667Y38792D02*
X302250Y38376D01*
Y37543D01*
X302667Y37126D01*
X304333D01*
X304750Y37543D01*
Y38376D01*
X304333Y38792D01*
X304750Y39626D02*
X302250D01*
X304750Y41292D01*
X302250D01*
X304750Y42125D02*
Y42958D01*
Y42541D01*
X302250D01*
X302667Y42125D01*
X302250Y45874D02*
X302667Y45041D01*
X303500Y44208D01*
X304333D01*
X304750Y44624D01*
Y45457D01*
X304333Y45874D01*
X303917D01*
X303500Y45457D01*
Y44208D01*
X224334Y173250D02*
Y170750D01*
X225584D01*
X226000Y171167D01*
Y172833D01*
X225584Y173250D01*
X224334D01*
X226833Y170750D02*
X227666D01*
X227250D01*
Y173250D01*
X226833Y172833D01*
X260917Y170750D02*
Y168250D01*
X262167D01*
X262583Y168667D01*
Y170333D01*
X262167Y170750D01*
X260917D01*
X265083Y168250D02*
X263417D01*
X265083Y169916D01*
Y170333D01*
X264666Y170750D01*
X263833D01*
X263417Y170333D01*
X300189Y169750D02*
Y167250D01*
X301439D01*
X301855Y167667D01*
Y169333D01*
X301439Y169750D01*
X300189D01*
X302688Y169333D02*
X303105Y169750D01*
X303938D01*
X304354Y169333D01*
Y168916D01*
X303938Y168500D01*
X303521D01*
X303938D01*
X304354Y168084D01*
Y167667D01*
X303938Y167250D01*
X303105D01*
X302688Y167667D01*
X341417Y169250D02*
Y166750D01*
X342667D01*
X343084Y167167D01*
Y168833D01*
X342667Y169250D01*
X341417D01*
X345166Y166750D02*
Y169250D01*
X343917Y168000D01*
X345583D01*
X224417Y129250D02*
Y126750D01*
X225667D01*
X226083Y127167D01*
Y128833D01*
X225667Y129250D01*
X224417D01*
X228583D02*
X226917D01*
Y128000D01*
X227750Y128417D01*
X228166D01*
X228583Y128000D01*
Y127167D01*
X228166Y126750D01*
X227333D01*
X226917Y127167D01*
X262417Y128750D02*
Y126250D01*
X263667D01*
X264084Y126667D01*
Y128333D01*
X263667Y128750D01*
X262417D01*
X266583D02*
X265750Y128333D01*
X264916Y127500D01*
Y126667D01*
X265333Y126250D01*
X266166D01*
X266583Y126667D01*
Y127084D01*
X266166Y127500D01*
X264916D01*
X302917Y128750D02*
Y126250D01*
X304167D01*
X304584Y126667D01*
Y128333D01*
X304167Y128750D01*
X302917D01*
X305416D02*
X307083D01*
Y128333D01*
X305416Y126667D01*
Y126250D01*
X343189Y128250D02*
Y125750D01*
X344439D01*
X344855Y126167D01*
Y127833D01*
X344439Y128250D01*
X343189D01*
X345688Y127833D02*
X346105Y128250D01*
X346938D01*
X347354Y127833D01*
Y127417D01*
X346938Y127000D01*
X347354Y126584D01*
Y126167D01*
X346938Y125750D01*
X346105D01*
X345688Y126167D01*
Y126584D01*
X346105Y127000D01*
X345688Y127417D01*
Y127833D01*
X346105Y127000D02*
X346938D01*
X224417Y81250D02*
Y78750D01*
X225667D01*
X226083Y79167D01*
Y80833D01*
X225667Y81250D01*
X224417D01*
X226917Y79167D02*
X227333Y78750D01*
X228166D01*
X228583Y79167D01*
Y80833D01*
X228166Y81250D01*
X227333D01*
X226917Y80833D01*
Y80417D01*
X227333Y80000D01*
X228583D01*
X261376Y79250D02*
Y76750D01*
X262626D01*
X263042Y77167D01*
Y78833D01*
X262626Y79250D01*
X261376D01*
X263875Y76750D02*
X264708D01*
X264292D01*
Y79250D01*
X263875Y78833D01*
X265958D02*
X266374Y79250D01*
X267208D01*
X267624Y78833D01*
Y77167D01*
X267208Y76750D01*
X266374D01*
X265958Y77167D01*
Y78833D01*
X300292Y77750D02*
Y75250D01*
X301542D01*
X301959Y75667D01*
Y77333D01*
X301542Y77750D01*
X300292D01*
X302792Y75250D02*
X303625D01*
X303208D01*
Y77750D01*
X302792Y77333D01*
X304874Y75250D02*
X305708D01*
X305291D01*
Y77750D01*
X304874Y77333D01*
X339376Y75750D02*
Y73250D01*
X340626D01*
X341042Y73667D01*
Y75333D01*
X340626Y75750D01*
X339376D01*
X341875Y73250D02*
X342708D01*
X342292D01*
Y75750D01*
X341875Y75333D01*
X345624Y73250D02*
X343958D01*
X345624Y74916D01*
Y75333D01*
X345208Y75750D01*
X344374D01*
X343958Y75333D01*
X221376Y30250D02*
Y27750D01*
X222626D01*
X223042Y28167D01*
Y29833D01*
X222626Y30250D01*
X221376D01*
X223875Y27750D02*
X224708D01*
X224292D01*
Y30250D01*
X223875Y29833D01*
X225958D02*
X226374Y30250D01*
X227207D01*
X227624Y29833D01*
Y29416D01*
X227207Y29000D01*
X226791D01*
X227207D01*
X227624Y28583D01*
Y28167D01*
X227207Y27750D01*
X226374D01*
X225958Y28167D01*
X259876Y29750D02*
Y27250D01*
X261126D01*
X261542Y27667D01*
Y29333D01*
X261126Y29750D01*
X259876D01*
X262375Y27250D02*
X263208D01*
X262792D01*
Y29750D01*
X262375Y29333D01*
X265707Y27250D02*
Y29750D01*
X264458Y28500D01*
X266124D01*
X301876Y33250D02*
Y30750D01*
X303126D01*
X303542Y31167D01*
Y32833D01*
X303126Y33250D01*
X301876D01*
X304375Y30750D02*
X305208D01*
X304792D01*
Y33250D01*
X304375Y32833D01*
X308124Y33250D02*
X306458D01*
Y32000D01*
X307291Y32416D01*
X307708D01*
X308124Y32000D01*
Y31167D01*
X307708Y30750D01*
X306874D01*
X306458Y31167D01*
X190250Y177335D02*
X192750D01*
Y179001D01*
X190250Y181500D02*
Y179834D01*
X192750D01*
Y181500D01*
X191500Y179834D02*
Y180667D01*
X190250Y182333D02*
X192750D01*
Y183583D01*
X192333Y183999D01*
X190667D01*
X190250Y183583D01*
Y182333D01*
X192750Y184832D02*
Y185665D01*
Y185249D01*
X190250D01*
X190667Y184832D01*
X228750Y177418D02*
X231250D01*
Y179084D01*
X228750Y181583D02*
Y179917D01*
X231250D01*
Y181583D01*
X230000Y179917D02*
Y180750D01*
X228750Y182416D02*
X231250D01*
Y183666D01*
X230833Y184083D01*
X229167D01*
X228750Y183666D01*
Y182416D01*
X231250Y186582D02*
Y184916D01*
X229584Y186582D01*
X229167D01*
X228750Y186165D01*
Y185332D01*
X229167Y184916D01*
X268813Y177918D02*
X271313D01*
Y179584D01*
X268813Y182083D02*
Y180417D01*
X271313D01*
Y182083D01*
X270063Y180417D02*
Y181250D01*
X268813Y182916D02*
X271313D01*
Y184166D01*
X270896Y184583D01*
X269230D01*
X268813Y184166D01*
Y182916D01*
X269230Y185416D02*
X268813Y185832D01*
Y186665D01*
X269230Y187082D01*
X269646D01*
X270063Y186665D01*
Y186249D01*
Y186665D01*
X270479Y187082D01*
X270896D01*
X271313Y186665D01*
Y185832D01*
X270896Y185416D01*
X310313Y177918D02*
X312813D01*
Y179584D01*
X310313Y182083D02*
Y180417D01*
X312813D01*
Y182083D01*
X311563Y180417D02*
Y181250D01*
X310313Y182916D02*
X312813D01*
Y184166D01*
X312396Y184583D01*
X310730D01*
X310313Y184166D01*
Y182916D01*
X312813Y186665D02*
X310313D01*
X311563Y185416D01*
Y187082D01*
X190250Y134918D02*
X192750D01*
Y136584D01*
X190250Y139084D02*
Y137417D01*
X192750D01*
Y139084D01*
X191500Y137417D02*
Y138250D01*
X190250Y139917D02*
X192750D01*
Y141166D01*
X192333Y141583D01*
X190667D01*
X190250Y141166D01*
Y139917D01*
Y144082D02*
Y142416D01*
X191500D01*
X191084Y143249D01*
Y143665D01*
X191500Y144082D01*
X192333D01*
X192750Y143665D01*
Y142832D01*
X192333Y142416D01*
X229250Y134418D02*
X231750D01*
Y136084D01*
X229250Y138584D02*
Y136917D01*
X231750D01*
Y138584D01*
X230500Y136917D02*
Y137750D01*
X229250Y139417D02*
X231750D01*
Y140666D01*
X231333Y141083D01*
X229667D01*
X229250Y140666D01*
Y139417D01*
Y143582D02*
X229667Y142749D01*
X230500Y141916D01*
X231333D01*
X231750Y142332D01*
Y143165D01*
X231333Y143582D01*
X230917D01*
X230500Y143165D01*
Y141916D01*
X268813Y133918D02*
X271313D01*
Y135584D01*
X268813Y138084D02*
Y136417D01*
X271313D01*
Y138084D01*
X270063Y136417D02*
Y137250D01*
X268813Y138917D02*
X271313D01*
Y140166D01*
X270896Y140583D01*
X269230D01*
X268813Y140166D01*
Y138917D01*
Y141416D02*
Y143082D01*
X269230D01*
X270896Y141416D01*
X271313D01*
X309813Y133418D02*
X312313D01*
Y135084D01*
X309813Y137583D02*
Y135917D01*
X312313D01*
Y137583D01*
X311063Y135917D02*
Y136750D01*
X309813Y138417D02*
X312313D01*
Y139666D01*
X311896Y140083D01*
X310230D01*
X309813Y139666D01*
Y138417D01*
X310230Y140916D02*
X309813Y141332D01*
Y142165D01*
X310230Y142582D01*
X310646D01*
X311063Y142165D01*
X311479Y142582D01*
X311896D01*
X312313Y142165D01*
Y141332D01*
X311896Y140916D01*
X311479D01*
X311063Y141332D01*
X310646Y140916D01*
X310230D01*
X311063Y141332D02*
Y142165D01*
X190250Y83377D02*
X192750D01*
Y85043D01*
X190250Y87542D02*
Y85876D01*
X192750D01*
Y87542D01*
X191500Y85876D02*
Y86709D01*
X190250Y88375D02*
X192750D01*
Y89625D01*
X192333Y90041D01*
X190667D01*
X190250Y89625D01*
Y88375D01*
X192750Y90874D02*
Y91707D01*
Y91291D01*
X190250D01*
X190667Y90874D01*
Y92957D02*
X190250Y93374D01*
Y94207D01*
X190667Y94623D01*
X192333D01*
X192750Y94207D01*
Y93374D01*
X192333Y92957D01*
X190667D01*
X229250Y83793D02*
X231750D01*
Y85460D01*
X229250Y87959D02*
Y86293D01*
X231750D01*
Y87959D01*
X230500Y86293D02*
Y87126D01*
X229250Y88792D02*
X231750D01*
Y90041D01*
X231333Y90458D01*
X229667D01*
X229250Y90041D01*
Y88792D01*
X231750Y91291D02*
Y92124D01*
Y91707D01*
X229250D01*
X229667Y91291D01*
X231750Y93374D02*
Y94207D01*
Y93790D01*
X229250D01*
X229667Y93374D01*
X269250Y82377D02*
X271750D01*
Y84043D01*
X269250Y86542D02*
Y84876D01*
X271750D01*
Y86542D01*
X270500Y84876D02*
Y85709D01*
X269250Y87375D02*
X271750D01*
Y88625D01*
X271333Y89041D01*
X269667D01*
X269250Y88625D01*
Y87375D01*
X271750Y89874D02*
Y90707D01*
Y90291D01*
X269250D01*
X269667Y89874D01*
X271750Y93623D02*
Y91957D01*
X270083Y93623D01*
X269667D01*
X269250Y93207D01*
Y92374D01*
X269667Y91957D01*
X309750Y82377D02*
X312250D01*
Y84043D01*
X309750Y86542D02*
Y84876D01*
X312250D01*
Y86542D01*
X311000Y84876D02*
Y85709D01*
X309750Y87375D02*
X312250D01*
Y88625D01*
X311833Y89041D01*
X310167D01*
X309750Y88625D01*
Y87375D01*
X312250Y89874D02*
Y90707D01*
Y90291D01*
X309750D01*
X310167Y89874D01*
Y91957D02*
X309750Y92374D01*
Y93207D01*
X310167Y93623D01*
X310583D01*
X311000Y93207D01*
Y92790D01*
Y93207D01*
X311417Y93623D01*
X311833D01*
X312250Y93207D01*
Y92374D01*
X311833Y91957D01*
X189750Y36877D02*
X192250D01*
Y38543D01*
X189750Y41042D02*
Y39376D01*
X192250D01*
Y41042D01*
X191000Y39376D02*
Y40209D01*
X189750Y41875D02*
X192250D01*
Y43125D01*
X191833Y43541D01*
X190167D01*
X189750Y43125D01*
Y41875D01*
X192250Y44374D02*
Y45208D01*
Y44791D01*
X189750D01*
X190167Y44374D01*
X192250Y47707D02*
X189750D01*
X191000Y46457D01*
Y48123D01*
X228250Y35377D02*
X230750D01*
Y37043D01*
X228250Y39542D02*
Y37876D01*
X230750D01*
Y39542D01*
X229500Y37876D02*
Y38709D01*
X228250Y40375D02*
X230750D01*
Y41625D01*
X230333Y42041D01*
X228667D01*
X228250Y41625D01*
Y40375D01*
X230750Y42874D02*
Y43707D01*
Y43291D01*
X228250D01*
X228667Y42874D01*
X228250Y46623D02*
Y44957D01*
X229500D01*
X229083Y45790D01*
Y46207D01*
X229500Y46623D01*
X230333D01*
X230750Y46207D01*
Y45374D01*
X230333Y44957D01*
X268750Y35877D02*
X271250D01*
Y37543D01*
X268750Y40042D02*
Y38376D01*
X271250D01*
Y40042D01*
X270000Y38376D02*
Y39209D01*
X268750Y40875D02*
X271250D01*
Y42125D01*
X270833Y42541D01*
X269167D01*
X268750Y42125D01*
Y40875D01*
X271250Y43374D02*
Y44208D01*
Y43791D01*
X268750D01*
X269167Y43374D01*
X268750Y47123D02*
X269167Y46290D01*
X270000Y45457D01*
X270833D01*
X271250Y45874D01*
Y46707D01*
X270833Y47123D01*
X270416D01*
X270000Y46707D01*
Y45457D01*
X192833Y163000D02*
X191167D01*
X190750Y162583D01*
Y161750D01*
X191167Y161334D01*
X192833D01*
X193250Y161750D01*
Y162583D01*
X192417Y162167D02*
X193250Y163000D01*
Y162583D02*
X192833Y163000D01*
X193250Y163833D02*
Y164666D01*
Y164250D01*
X190750D01*
X191167Y163833D01*
X233084Y165667D02*
Y167333D01*
X232667Y167750D01*
X231834D01*
X231417Y167333D01*
Y165667D01*
X231834Y165250D01*
X232667D01*
X232250Y166084D02*
X233084Y165250D01*
X232667D02*
X233084Y165667D01*
X235583Y165250D02*
X233916D01*
X235583Y166917D01*
Y167333D01*
X235166Y167750D01*
X234333D01*
X233916Y167333D01*
X273584Y165167D02*
Y166833D01*
X273167Y167250D01*
X272334D01*
X271917Y166833D01*
Y165167D01*
X272334Y164750D01*
X273167D01*
X272750Y165584D02*
X273584Y164750D01*
X273167D02*
X273584Y165167D01*
X274416Y166833D02*
X274833Y167250D01*
X275666D01*
X276083Y166833D01*
Y166417D01*
X275666Y166000D01*
X275250D01*
X275666D01*
X276083Y165584D01*
Y165167D01*
X275666Y164750D01*
X274833D01*
X274416Y165167D01*
X310833Y158583D02*
X309167D01*
X308750Y158167D01*
Y157334D01*
X309167Y156917D01*
X310833D01*
X311250Y157334D01*
Y158167D01*
X310417Y157750D02*
X311250Y158583D01*
Y158167D02*
X310833Y158583D01*
X311250Y160666D02*
X308750D01*
X310000Y159416D01*
Y161083D01*
X219083Y154167D02*
Y155833D01*
X218667Y156250D01*
X217834D01*
X217417Y155833D01*
Y154167D01*
X217834Y153750D01*
X218667D01*
X218250Y154584D02*
X219083Y153750D01*
X218667D02*
X219083Y154167D01*
X221583Y156250D02*
X219917D01*
Y155000D01*
X220750Y155417D01*
X221166D01*
X221583Y155000D01*
Y154167D01*
X221166Y153750D01*
X220333D01*
X219917Y154167D01*
X247584Y151667D02*
Y153333D01*
X247167Y153750D01*
X246334D01*
X245917Y153333D01*
Y151667D01*
X246334Y151250D01*
X247167D01*
X246750Y152084D02*
X247584Y151250D01*
X247167D02*
X247584Y151667D01*
X250083Y153750D02*
X249250Y153333D01*
X248416Y152500D01*
Y151667D01*
X248833Y151250D01*
X249666D01*
X250083Y151667D01*
Y152084D01*
X249666Y152500D01*
X248416D01*
X287084Y152667D02*
Y154333D01*
X286667Y154750D01*
X285834D01*
X285417Y154333D01*
Y152667D01*
X285834Y152250D01*
X286667D01*
X286250Y153084D02*
X287084Y152250D01*
X286667D02*
X287084Y152667D01*
X287916Y154750D02*
X289583D01*
Y154333D01*
X287916Y152667D01*
Y152250D01*
X328083Y152667D02*
Y154333D01*
X327667Y154750D01*
X326834D01*
X326417Y154333D01*
Y152667D01*
X326834Y152250D01*
X327667D01*
X327250Y153084D02*
X328083Y152250D01*
X327667D02*
X328083Y152667D01*
X328917Y154333D02*
X329333Y154750D01*
X330166D01*
X330583Y154333D01*
Y153917D01*
X330166Y153500D01*
X330583Y153084D01*
Y152667D01*
X330166Y152250D01*
X329333D01*
X328917Y152667D01*
Y153084D01*
X329333Y153500D01*
X328917Y153917D01*
Y154333D01*
X329333Y153500D02*
X330166D01*
X190833Y113084D02*
X189167D01*
X188750Y112667D01*
Y111834D01*
X189167Y111417D01*
X190833D01*
X191250Y111834D01*
Y112667D01*
X190417Y112250D02*
X191250Y113084D01*
Y112667D02*
X190833Y113084D01*
Y113917D02*
X191250Y114333D01*
Y115166D01*
X190833Y115583D01*
X189167D01*
X188750Y115166D01*
Y114333D01*
X189167Y113917D01*
X189583D01*
X190000Y114333D01*
Y115583D01*
X229833Y112042D02*
X228167D01*
X227750Y111626D01*
Y110793D01*
X228167Y110376D01*
X229833D01*
X230250Y110793D01*
Y111626D01*
X229416Y111209D02*
X230250Y112042D01*
Y111626D02*
X229833Y112042D01*
X230250Y112875D02*
Y113708D01*
Y113292D01*
X227750D01*
X228167Y112875D01*
Y114958D02*
X227750Y115374D01*
Y116208D01*
X228167Y116624D01*
X229833D01*
X230250Y116208D01*
Y115374D01*
X229833Y114958D01*
X228167D01*
X282959Y122667D02*
Y124333D01*
X282542Y124750D01*
X281709D01*
X281293Y124333D01*
Y122667D01*
X281709Y122250D01*
X282542D01*
X282126Y123083D02*
X282959Y122250D01*
X282542D02*
X282959Y122667D01*
X283792Y122250D02*
X284625D01*
X284208D01*
Y124750D01*
X283792Y124333D01*
X285874Y122250D02*
X286707D01*
X286291D01*
Y124750D01*
X285874Y124333D01*
X309542Y120167D02*
Y121833D01*
X309126Y122250D01*
X308293D01*
X307876Y121833D01*
Y120167D01*
X308293Y119750D01*
X309126D01*
X308709Y120583D02*
X309542Y119750D01*
X309126D02*
X309542Y120167D01*
X310375Y119750D02*
X311208D01*
X310792D01*
Y122250D01*
X310375Y121833D01*
X314124Y119750D02*
X312458D01*
X314124Y121416D01*
Y121833D01*
X313707Y122250D01*
X312874D01*
X312458Y121833D01*
X208802Y121167D02*
Y122833D01*
X208385Y123250D01*
X207552D01*
X207136Y122833D01*
Y121167D01*
X207552Y120750D01*
X208385D01*
X207969Y121583D02*
X208802Y120750D01*
X208385D02*
X208802Y121167D01*
X209635Y120750D02*
X210468D01*
X210052D01*
Y123250D01*
X209635Y122833D01*
X211718D02*
X212134Y123250D01*
X212967D01*
X213384Y122833D01*
Y122416D01*
X212967Y122000D01*
X212551D01*
X212967D01*
X213384Y121583D01*
Y121167D01*
X212967Y120750D01*
X212134D01*
X211718Y121167D01*
X245542Y106167D02*
Y107833D01*
X245126Y108250D01*
X244292D01*
X243876Y107833D01*
Y106167D01*
X244292Y105750D01*
X245126D01*
X244709Y106583D02*
X245542Y105750D01*
X245126D02*
X245542Y106167D01*
X246375Y105750D02*
X247208D01*
X246792D01*
Y108250D01*
X246375Y107833D01*
X249708Y105750D02*
Y108250D01*
X248458Y107000D01*
X250124D01*
X296542Y104667D02*
Y106333D01*
X296126Y106750D01*
X295292D01*
X294876Y106333D01*
Y104667D01*
X295292Y104250D01*
X296126D01*
X295709Y105084D02*
X296542Y104250D01*
X296126D02*
X296542Y104667D01*
X297375Y104250D02*
X298208D01*
X297792D01*
Y106750D01*
X297375Y106333D01*
X301124Y106750D02*
X299458D01*
Y105500D01*
X300291Y105917D01*
X300708D01*
X301124Y105500D01*
Y104667D01*
X300708Y104250D01*
X299874D01*
X299458Y104667D01*
X343042Y119667D02*
Y121333D01*
X342626Y121750D01*
X341792D01*
X341376Y121333D01*
Y119667D01*
X341792Y119250D01*
X342626D01*
X342209Y120083D02*
X343042Y119250D01*
X342626D02*
X343042Y119667D01*
X343875Y119250D02*
X344708D01*
X344292D01*
Y121750D01*
X343875Y121333D01*
X347624Y121750D02*
X346791Y121333D01*
X345958Y120500D01*
Y119667D01*
X346374Y119250D01*
X347207D01*
X347624Y119667D01*
Y120083D01*
X347207Y120500D01*
X345958D01*
X191333Y66542D02*
X189667D01*
X189250Y66126D01*
Y65293D01*
X189667Y64876D01*
X191333D01*
X191750Y65293D01*
Y66126D01*
X190917Y65709D02*
X191750Y66542D01*
Y66126D02*
X191333Y66542D01*
X191750Y67375D02*
Y68208D01*
Y67792D01*
X189250D01*
X189667Y67375D01*
X189250Y69458D02*
Y71124D01*
X189667D01*
X191333Y69458D01*
X191750D01*
X230542Y73167D02*
Y74833D01*
X230126Y75250D01*
X229292D01*
X228876Y74833D01*
Y73167D01*
X229292Y72750D01*
X230126D01*
X229709Y73584D02*
X230542Y72750D01*
X230126D02*
X230542Y73167D01*
X231375Y72750D02*
X232208D01*
X231792D01*
Y75250D01*
X231375Y74833D01*
X233458D02*
X233874Y75250D01*
X234707D01*
X235124Y74833D01*
Y74417D01*
X234707Y74000D01*
X235124Y73584D01*
Y73167D01*
X234707Y72750D01*
X233874D01*
X233458Y73167D01*
Y73584D01*
X233874Y74000D01*
X233458Y74417D01*
Y74833D01*
X233874Y74000D02*
X234707D01*
X270542Y71667D02*
Y73333D01*
X270126Y73750D01*
X269292D01*
X268876Y73333D01*
Y71667D01*
X269292Y71250D01*
X270126D01*
X269709Y72083D02*
X270542Y71250D01*
X270126D02*
X270542Y71667D01*
X271375Y71250D02*
X272208D01*
X271792D01*
Y73750D01*
X271375Y73333D01*
X273458Y71667D02*
X273874Y71250D01*
X274708D01*
X275124Y71667D01*
Y73333D01*
X274708Y73750D01*
X273874D01*
X273458Y73333D01*
Y72917D01*
X273874Y72500D01*
X275124D01*
X322334Y71167D02*
Y72833D01*
X321917Y73250D01*
X321084D01*
X320668Y72833D01*
Y71167D01*
X321084Y70750D01*
X321917D01*
X321501Y71583D02*
X322334Y70750D01*
X321917D02*
X322334Y71167D01*
X324833Y70750D02*
X323167D01*
X324833Y72417D01*
Y72833D01*
X324416Y73250D01*
X323584D01*
X323167Y72833D01*
X325666D02*
X326083Y73250D01*
X326916D01*
X327332Y72833D01*
Y71167D01*
X326916Y70750D01*
X326083D01*
X325666Y71167D01*
Y72833D01*
X208250Y60167D02*
Y61833D01*
X207834Y62250D01*
X207001D01*
X206584Y61833D01*
Y60167D01*
X207001Y59750D01*
X207834D01*
X207417Y60584D02*
X208250Y59750D01*
X207834D02*
X208250Y60167D01*
X210750Y59750D02*
X209084D01*
X210750Y61417D01*
Y61833D01*
X210333Y62250D01*
X209500D01*
X209084Y61833D01*
X211583Y59750D02*
X212416D01*
X211999D01*
Y62250D01*
X211583Y61833D01*
X246834Y58667D02*
Y60333D01*
X246417Y60750D01*
X245584D01*
X245168Y60333D01*
Y58667D01*
X245584Y58250D01*
X246417D01*
X246001Y59083D02*
X246834Y58250D01*
X246417D02*
X246834Y58667D01*
X249333Y58250D02*
X247667D01*
X249333Y59917D01*
Y60333D01*
X248917Y60750D01*
X248083D01*
X247667Y60333D01*
X251832Y58250D02*
X250166D01*
X251832Y59917D01*
Y60333D01*
X251416Y60750D01*
X250583D01*
X250166Y60333D01*
X285334Y74167D02*
Y75833D01*
X284917Y76250D01*
X284084D01*
X283668Y75833D01*
Y74167D01*
X284084Y73750D01*
X284917D01*
X284501Y74584D02*
X285334Y73750D01*
X284917D02*
X285334Y74167D01*
X287833Y73750D02*
X286167D01*
X287833Y75416D01*
Y75833D01*
X287417Y76250D01*
X286583D01*
X286167Y75833D01*
X288666D02*
X289083Y76250D01*
X289916D01*
X290332Y75833D01*
Y75416D01*
X289916Y75000D01*
X289499D01*
X289916D01*
X290332Y74584D01*
Y74167D01*
X289916Y73750D01*
X289083D01*
X288666Y74167D01*
X326334Y57167D02*
Y58833D01*
X325917Y59250D01*
X325084D01*
X324668Y58833D01*
Y57167D01*
X325084Y56750D01*
X325917D01*
X325501Y57583D02*
X326334Y56750D01*
X325917D02*
X326334Y57167D01*
X328833Y56750D02*
X327167D01*
X328833Y58416D01*
Y58833D01*
X328416Y59250D01*
X327584D01*
X327167Y58833D01*
X330916Y56750D02*
Y59250D01*
X329666Y58000D01*
X331332D01*
X190834Y26167D02*
Y27833D01*
X190417Y28250D01*
X189584D01*
X189168Y27833D01*
Y26167D01*
X189584Y25750D01*
X190417D01*
X190001Y26583D02*
X190834Y25750D01*
X190417D02*
X190834Y26167D01*
X193333Y25750D02*
X191667D01*
X193333Y27417D01*
Y27833D01*
X192917Y28250D01*
X192084D01*
X191667Y27833D01*
X195832Y28250D02*
X194166D01*
Y27000D01*
X194999Y27417D01*
X195416D01*
X195832Y27000D01*
Y26167D01*
X195416Y25750D01*
X194583D01*
X194166Y26167D01*
X230334Y25167D02*
Y26833D01*
X229917Y27250D01*
X229084D01*
X228668Y26833D01*
Y25167D01*
X229084Y24750D01*
X229917D01*
X229501Y25583D02*
X230334Y24750D01*
X229917D02*
X230334Y25167D01*
X232833Y24750D02*
X231167D01*
X232833Y26417D01*
Y26833D01*
X232417Y27250D01*
X231583D01*
X231167Y26833D01*
X235332Y27250D02*
X234499Y26833D01*
X233666Y26000D01*
Y25167D01*
X234083Y24750D01*
X234916D01*
X235332Y25167D01*
Y25583D01*
X234916Y26000D01*
X233666D01*
X271833Y17834D02*
X270167D01*
X269750Y17417D01*
Y16584D01*
X270167Y16168D01*
X271833D01*
X272250Y16584D01*
Y17417D01*
X271416Y17001D02*
X272250Y17834D01*
Y17417D02*
X271833Y17834D01*
X272250Y20333D02*
Y18667D01*
X270584Y20333D01*
X270167D01*
X269750Y19917D01*
Y19083D01*
X270167Y18667D01*
X269750Y21166D02*
Y22832D01*
X270167D01*
X271833Y21166D01*
X272250D01*
X207834Y12167D02*
Y13833D01*
X207417Y14250D01*
X206584D01*
X206168Y13833D01*
Y12167D01*
X206584Y11750D01*
X207417D01*
X207001Y12584D02*
X207834Y11750D01*
X207417D02*
X207834Y12167D01*
X210333Y11750D02*
X208667D01*
X210333Y13417D01*
Y13833D01*
X209916Y14250D01*
X209084D01*
X208667Y13833D01*
X211166Y12167D02*
X211583Y11750D01*
X212416D01*
X212832Y12167D01*
Y13833D01*
X212416Y14250D01*
X211583D01*
X211166Y13833D01*
Y13417D01*
X211583Y13000D01*
X212832D01*
X247334Y10667D02*
Y12333D01*
X246917Y12750D01*
X246084D01*
X245668Y12333D01*
Y10667D01*
X246084Y10250D01*
X246917D01*
X246501Y11084D02*
X247334Y10250D01*
X246917D02*
X247334Y10667D01*
X248167Y12333D02*
X248584Y12750D01*
X249416D01*
X249833Y12333D01*
Y11917D01*
X249416Y11500D01*
X249000D01*
X249416D01*
X249833Y11084D01*
Y10667D01*
X249416Y10250D01*
X248584D01*
X248167Y10667D01*
X250666Y12333D02*
X251083Y12750D01*
X251916D01*
X252332Y12333D01*
Y10667D01*
X251916Y10250D01*
X251083D01*
X250666Y10667D01*
Y12333D01*
X292250Y26667D02*
Y28333D01*
X291834Y28750D01*
X291001D01*
X290584Y28333D01*
Y26667D01*
X291001Y26250D01*
X291834D01*
X291417Y27084D02*
X292250Y26250D01*
X291834D02*
X292250Y26667D01*
X293084Y28333D02*
X293500Y28750D01*
X294333D01*
X294750Y28333D01*
Y27916D01*
X294333Y27500D01*
X293917D01*
X294333D01*
X294750Y27084D01*
Y26667D01*
X294333Y26250D01*
X293500D01*
X293084Y26667D01*
X295583Y26250D02*
X296416D01*
X295999D01*
Y28750D01*
X295583Y28333D01*
X199834Y144750D02*
Y147250D01*
X201083D01*
X201500Y146833D01*
Y146000D01*
X201083Y145583D01*
X199834D01*
X200667D02*
X201500Y144750D01*
X202333D02*
X203166D01*
X202750D01*
Y147250D01*
X202333Y146833D01*
X235917Y144750D02*
Y147250D01*
X237167D01*
X237583Y146833D01*
Y146000D01*
X237167Y145583D01*
X235917D01*
X236750D02*
X237583Y144750D01*
X240083D02*
X238417D01*
X240083Y146416D01*
Y146833D01*
X239666Y147250D01*
X238833D01*
X238417Y146833D01*
X277417Y144250D02*
Y146750D01*
X278667D01*
X279083Y146333D01*
Y145500D01*
X278667Y145083D01*
X277417D01*
X278250D02*
X279083Y144250D01*
X279917Y146333D02*
X280333Y146750D01*
X281166D01*
X281583Y146333D01*
Y145916D01*
X281166Y145500D01*
X280750D01*
X281166D01*
X281583Y145083D01*
Y144667D01*
X281166Y144250D01*
X280333D01*
X279917Y144667D01*
X317417Y145250D02*
Y147750D01*
X318667D01*
X319083Y147333D01*
Y146500D01*
X318667Y146083D01*
X317417D01*
X318250D02*
X319083Y145250D01*
X321166D02*
Y147750D01*
X319917Y146500D01*
X321583D01*
X218264Y145750D02*
Y148250D01*
X219513D01*
X219930Y147833D01*
Y147000D01*
X219513Y146583D01*
X218264D01*
X219097D02*
X219930Y145750D01*
X222429Y148250D02*
X220763D01*
Y147000D01*
X221596Y147416D01*
X222013D01*
X222429Y147000D01*
Y146167D01*
X222013Y145750D01*
X221180D01*
X220763Y146167D01*
X255536Y145750D02*
Y148250D01*
X256785D01*
X257202Y147833D01*
Y147000D01*
X256785Y146583D01*
X255536D01*
X256368D02*
X257202Y145750D01*
X259701Y148250D02*
X258868Y147833D01*
X258035Y147000D01*
Y146167D01*
X258451Y145750D01*
X259284D01*
X259701Y146167D01*
Y146583D01*
X259284Y147000D01*
X258035D01*
X296535Y144250D02*
Y146750D01*
X297785D01*
X298202Y146333D01*
Y145500D01*
X297785Y145083D01*
X296535D01*
X297369D02*
X298202Y144250D01*
X299035Y146750D02*
X300701D01*
Y146333D01*
X299035Y144667D01*
Y144250D01*
X336264Y145750D02*
Y148250D01*
X337513D01*
X337930Y147833D01*
Y147000D01*
X337513Y146583D01*
X336264D01*
X337097D02*
X337930Y145750D01*
X338763Y147833D02*
X339179Y148250D01*
X340013D01*
X340429Y147833D01*
Y147416D01*
X340013Y147000D01*
X340429Y146583D01*
Y146167D01*
X340013Y145750D01*
X339179D01*
X338763Y146167D01*
Y146583D01*
X339179Y147000D01*
X338763Y147416D01*
Y147833D01*
X339179Y147000D02*
X340013D01*
X193917Y171250D02*
Y173750D01*
X195167D01*
X195583Y173333D01*
Y172500D01*
X195167Y172083D01*
X193917D01*
X194750D02*
X195583Y171250D01*
X196416Y171667D02*
X196833Y171250D01*
X197666D01*
X198083Y171667D01*
Y173333D01*
X197666Y173750D01*
X196833D01*
X196416Y173333D01*
Y172916D01*
X196833Y172500D01*
X198083D01*
X240376Y167750D02*
Y170250D01*
X241626D01*
X242042Y169833D01*
Y169000D01*
X241626Y168584D01*
X240376D01*
X241209D02*
X242042Y167750D01*
X242875D02*
X243708D01*
X243292D01*
Y170250D01*
X242875Y169833D01*
X244958D02*
X245374Y170250D01*
X246207D01*
X246624Y169833D01*
Y168167D01*
X246207Y167750D01*
X245374D01*
X244958Y168167D01*
Y169833D01*
X273064Y170750D02*
Y173250D01*
X274314D01*
X274730Y172833D01*
Y172000D01*
X274314Y171583D01*
X273064D01*
X273897D02*
X274730Y170750D01*
X275563D02*
X276396D01*
X275980D01*
Y173250D01*
X275563Y172833D01*
X277646Y170750D02*
X278479D01*
X278063D01*
Y173250D01*
X277646Y172833D01*
X311376Y170250D02*
Y172750D01*
X312626D01*
X313042Y172333D01*
Y171500D01*
X312626Y171083D01*
X311376D01*
X312209D02*
X313042Y170250D01*
X313875D02*
X314708D01*
X314292D01*
Y172750D01*
X313875Y172333D01*
X317624Y170250D02*
X315958D01*
X317624Y171916D01*
Y172333D01*
X317208Y172750D01*
X316374D01*
X315958Y172333D01*
X230250Y153376D02*
X227750D01*
Y154626D01*
X228167Y155042D01*
X229000D01*
X229416Y154626D01*
Y153376D01*
Y154209D02*
X230250Y155042D01*
Y155875D02*
Y156708D01*
Y156292D01*
X227750D01*
X228167Y155875D01*
Y157958D02*
X227750Y158374D01*
Y159207D01*
X228167Y159624D01*
X228584D01*
X229000Y159207D01*
Y158791D01*
Y159207D01*
X229416Y159624D01*
X229833D01*
X230250Y159207D01*
Y158374D01*
X229833Y157958D01*
X267250Y153876D02*
X264750D01*
Y155126D01*
X265167Y155542D01*
X266000D01*
X266417Y155126D01*
Y153876D01*
Y154709D02*
X267250Y155542D01*
Y156375D02*
Y157208D01*
Y156792D01*
X264750D01*
X265167Y156375D01*
X267250Y159707D02*
X264750D01*
X266000Y158458D01*
Y160124D01*
X307224Y164999D02*
Y167499D01*
X308473D01*
X308890Y167082D01*
Y166249D01*
X308473Y165832D01*
X307224D01*
X308057D02*
X308890Y164999D01*
X309723D02*
X310556D01*
X310139D01*
Y167499D01*
X309723Y167082D01*
X313472Y167499D02*
X311805D01*
Y166249D01*
X312638Y166666D01*
X313055D01*
X313472Y166249D01*
Y165416D01*
X313055Y164999D01*
X312222D01*
X311805Y165416D01*
X346724Y165499D02*
Y167999D01*
X347973D01*
X348390Y167582D01*
Y166749D01*
X347973Y166332D01*
X346724D01*
X347557D02*
X348390Y165499D01*
X349223D02*
X350056D01*
X349639D01*
Y167999D01*
X349223Y167582D01*
X352972Y167999D02*
X352138Y167582D01*
X351305Y166749D01*
Y165916D01*
X351722Y165499D01*
X352555D01*
X352972Y165916D01*
Y166332D01*
X352555Y166749D01*
X351305D01*
X189376Y101250D02*
Y103750D01*
X190626D01*
X191042Y103333D01*
Y102500D01*
X190626Y102084D01*
X189376D01*
X190209D02*
X191042Y101250D01*
X191875D02*
X192708D01*
X192292D01*
Y103750D01*
X191875Y103333D01*
X193958Y103750D02*
X195624D01*
Y103333D01*
X193958Y101667D01*
Y101250D01*
X235376Y98750D02*
Y101250D01*
X236626D01*
X237042Y100833D01*
Y100000D01*
X236626Y99584D01*
X235376D01*
X236209D02*
X237042Y98750D01*
X237875D02*
X238708D01*
X238292D01*
Y101250D01*
X237875Y100833D01*
X239958D02*
X240374Y101250D01*
X241208D01*
X241624Y100833D01*
Y100417D01*
X241208Y100000D01*
X241624Y99584D01*
Y99167D01*
X241208Y98750D01*
X240374D01*
X239958Y99167D01*
Y99584D01*
X240374Y100000D01*
X239958Y100417D01*
Y100833D01*
X240374Y100000D02*
X241208D01*
X267876Y103750D02*
Y106250D01*
X269126D01*
X269542Y105833D01*
Y105000D01*
X269126Y104584D01*
X267876D01*
X268709D02*
X269542Y103750D01*
X270375D02*
X271208D01*
X270792D01*
Y106250D01*
X270375Y105833D01*
X272458Y104167D02*
X272874Y103750D01*
X273708D01*
X274124Y104167D01*
Y105833D01*
X273708Y106250D01*
X272874D01*
X272458Y105833D01*
Y105417D01*
X272874Y105000D01*
X274124D01*
X306668Y103250D02*
Y105750D01*
X307917D01*
X308334Y105333D01*
Y104500D01*
X307917Y104084D01*
X306668D01*
X307501D02*
X308334Y103250D01*
X310833D02*
X309167D01*
X310833Y104917D01*
Y105333D01*
X310417Y105750D01*
X309583D01*
X309167Y105333D01*
X311666D02*
X312083Y105750D01*
X312916D01*
X313332Y105333D01*
Y103667D01*
X312916Y103250D01*
X312083D01*
X311666Y103667D01*
Y105333D01*
X208584Y96750D02*
Y99250D01*
X209834D01*
X210250Y98833D01*
Y98000D01*
X209834Y97584D01*
X208584D01*
X209417D02*
X210250Y96750D01*
X212750D02*
X211084D01*
X212750Y98417D01*
Y98833D01*
X212333Y99250D01*
X211500D01*
X211084Y98833D01*
X213583Y96750D02*
X214416D01*
X213999D01*
Y99250D01*
X213583Y98833D01*
X255286Y97750D02*
Y100250D01*
X256536D01*
X256952Y99833D01*
Y99000D01*
X256536Y98584D01*
X255286D01*
X256119D02*
X256952Y97750D01*
X259451D02*
X257785D01*
X259451Y99417D01*
Y99833D01*
X259035Y100250D01*
X258202D01*
X257785Y99833D01*
X261950Y97750D02*
X260284D01*
X261950Y99417D01*
Y99833D01*
X261534Y100250D01*
X260701D01*
X260284Y99833D01*
X287668Y99250D02*
Y101750D01*
X288917D01*
X289334Y101333D01*
Y100500D01*
X288917Y100083D01*
X287668D01*
X288501D02*
X289334Y99250D01*
X291833D02*
X290167D01*
X291833Y100917D01*
Y101333D01*
X291417Y101750D01*
X290583D01*
X290167Y101333D01*
X292666D02*
X293083Y101750D01*
X293916D01*
X294332Y101333D01*
Y100917D01*
X293916Y100500D01*
X293499D01*
X293916D01*
X294332Y100083D01*
Y99667D01*
X293916Y99250D01*
X293083D01*
X292666Y99667D01*
X342668Y102750D02*
Y105250D01*
X343917D01*
X344334Y104833D01*
Y104000D01*
X343917Y103584D01*
X342668D01*
X343501D02*
X344334Y102750D01*
X346833D02*
X345167D01*
X346833Y104417D01*
Y104833D01*
X346416Y105250D01*
X345584D01*
X345167Y104833D01*
X348916Y102750D02*
Y105250D01*
X347666Y104000D01*
X349332D01*
X190417Y127750D02*
Y130250D01*
X191666D01*
X192083Y129833D01*
Y129000D01*
X191666Y128584D01*
X190417D01*
X191250D02*
X192083Y127750D01*
X194582D02*
X192916D01*
X194582Y129417D01*
Y129833D01*
X194165Y130250D01*
X193332D01*
X192916Y129833D01*
X197081Y130250D02*
X195415D01*
Y129000D01*
X196248Y129417D01*
X196665D01*
X197081Y129000D01*
Y128167D01*
X196665Y127750D01*
X195832D01*
X195415Y128167D01*
X239668Y123250D02*
Y125750D01*
X240917D01*
X241334Y125333D01*
Y124500D01*
X240917Y124083D01*
X239668D01*
X240501D02*
X241334Y123250D01*
X243833D02*
X242167D01*
X243833Y124917D01*
Y125333D01*
X243417Y125750D01*
X242583D01*
X242167Y125333D01*
X246332Y125750D02*
X245499Y125333D01*
X244666Y124500D01*
Y123667D01*
X245083Y123250D01*
X245916D01*
X246332Y123667D01*
Y124083D01*
X245916Y124500D01*
X244666D01*
X277917Y122750D02*
Y125250D01*
X279166D01*
X279583Y124833D01*
Y124000D01*
X279166Y123583D01*
X277917D01*
X278750D02*
X279583Y122750D01*
X282082D02*
X280416D01*
X282082Y124416D01*
Y124833D01*
X281665Y125250D01*
X280832D01*
X280416Y124833D01*
X282915Y125250D02*
X284581D01*
Y124833D01*
X282915Y123167D01*
Y122750D01*
X317668Y124250D02*
Y126750D01*
X318917D01*
X319334Y126333D01*
Y125500D01*
X318917Y125083D01*
X317668D01*
X318501D02*
X319334Y124250D01*
X321833D02*
X320167D01*
X321833Y125917D01*
Y126333D01*
X321416Y126750D01*
X320584D01*
X320167Y126333D01*
X322666D02*
X323083Y126750D01*
X323916D01*
X324332Y126333D01*
Y125917D01*
X323916Y125500D01*
X324332Y125083D01*
Y124667D01*
X323916Y124250D01*
X323083D01*
X322666Y124667D01*
Y125083D01*
X323083Y125500D01*
X322666Y125917D01*
Y126333D01*
X323083Y125500D02*
X323916D01*
X225750Y116668D02*
X223250D01*
Y117917D01*
X223667Y118334D01*
X224500D01*
X224917Y117917D01*
Y116668D01*
Y117501D02*
X225750Y118334D01*
Y120833D02*
Y119167D01*
X224083Y120833D01*
X223667D01*
X223250Y120416D01*
Y119583D01*
X223667Y119167D01*
X225333Y121666D02*
X225750Y122083D01*
Y122916D01*
X225333Y123332D01*
X223667D01*
X223250Y122916D01*
Y122083D01*
X223667Y121666D01*
X224083D01*
X224500Y122083D01*
Y123332D01*
X266750Y116168D02*
X264250D01*
Y117417D01*
X264667Y117834D01*
X265500D01*
X265916Y117417D01*
Y116168D01*
Y117001D02*
X266750Y117834D01*
X264667Y118667D02*
X264250Y119083D01*
Y119916D01*
X264667Y120333D01*
X265084D01*
X265500Y119916D01*
Y119500D01*
Y119916D01*
X265916Y120333D01*
X266333D01*
X266750Y119916D01*
Y119083D01*
X266333Y118667D01*
X264667Y121166D02*
X264250Y121583D01*
Y122416D01*
X264667Y122832D01*
X266333D01*
X266750Y122416D01*
Y121583D01*
X266333Y121166D01*
X264667D01*
X305250Y116584D02*
X302750D01*
Y117834D01*
X303167Y118250D01*
X304000D01*
X304416Y117834D01*
Y116584D01*
Y117417D02*
X305250Y118250D01*
X303167Y119083D02*
X302750Y119500D01*
Y120333D01*
X303167Y120750D01*
X303583D01*
X304000Y120333D01*
Y119916D01*
Y120333D01*
X304416Y120750D01*
X304833D01*
X305250Y120333D01*
Y119500D01*
X304833Y119083D01*
X305250Y121583D02*
Y122416D01*
Y121999D01*
X302750D01*
X303167Y121583D01*
X348750Y108439D02*
X346250D01*
Y109689D01*
X346667Y110106D01*
X347500D01*
X347917Y109689D01*
Y108439D01*
Y109273D02*
X348750Y110106D01*
X346667Y110939D02*
X346250Y111355D01*
Y112188D01*
X346667Y112605D01*
X347083D01*
X347500Y112188D01*
Y111772D01*
Y112188D01*
X347917Y112605D01*
X348333D01*
X348750Y112188D01*
Y111355D01*
X348333Y110939D01*
X348750Y115104D02*
Y113438D01*
X347083Y115104D01*
X346667D01*
X346250Y114687D01*
Y113854D01*
X346667Y113438D01*
X33168Y129250D02*
Y131750D01*
X34417D01*
X34834Y131333D01*
Y130500D01*
X34417Y130084D01*
X33168D01*
X34001D02*
X34834Y129250D01*
X35667Y131333D02*
X36083Y131750D01*
X36917D01*
X37333Y131333D01*
Y130917D01*
X36917Y130500D01*
X36500D01*
X36917D01*
X37333Y130084D01*
Y129667D01*
X36917Y129250D01*
X36083D01*
X35667Y129667D01*
X38166Y131333D02*
X38583Y131750D01*
X39416D01*
X39832Y131333D01*
Y130917D01*
X39416Y130500D01*
X38999D01*
X39416D01*
X39832Y130084D01*
Y129667D01*
X39416Y129250D01*
X38583D01*
X38166Y129667D01*
X8168Y143750D02*
Y146250D01*
X9417D01*
X9834Y145833D01*
Y145000D01*
X9417Y144583D01*
X8168D01*
X9001D02*
X9834Y143750D01*
X10667Y145833D02*
X11084Y146250D01*
X11917D01*
X12333Y145833D01*
Y145416D01*
X11917Y145000D01*
X11500D01*
X11917D01*
X12333Y144583D01*
Y144167D01*
X11917Y143750D01*
X11084D01*
X10667Y144167D01*
X14416Y143750D02*
Y146250D01*
X13166Y145000D01*
X14832D01*
X7750Y135168D02*
X5250D01*
Y136417D01*
X5667Y136834D01*
X6500D01*
X6916Y136417D01*
Y135168D01*
Y136001D02*
X7750Y136834D01*
X5667Y137667D02*
X5250Y138084D01*
Y138917D01*
X5667Y139333D01*
X6084D01*
X6500Y138917D01*
Y138500D01*
Y138917D01*
X6916Y139333D01*
X7333D01*
X7750Y138917D01*
Y138084D01*
X7333Y137667D01*
X5250Y141832D02*
Y140166D01*
X6500D01*
X6084Y140999D01*
Y141416D01*
X6500Y141832D01*
X7333D01*
X7750Y141416D01*
Y140583D01*
X7333Y140166D01*
X8168Y147750D02*
Y150250D01*
X9417D01*
X9834Y149833D01*
Y149000D01*
X9417Y148583D01*
X8168D01*
X9001D02*
X9834Y147750D01*
X10667Y149833D02*
X11084Y150250D01*
X11917D01*
X12333Y149833D01*
Y149416D01*
X11917Y149000D01*
X11500D01*
X11917D01*
X12333Y148583D01*
Y148167D01*
X11917Y147750D01*
X11084D01*
X10667Y148167D01*
X14832Y150250D02*
X13999Y149833D01*
X13166Y149000D01*
Y148167D01*
X13583Y147750D01*
X14416D01*
X14832Y148167D01*
Y148583D01*
X14416Y149000D01*
X13166D01*
X197668Y52750D02*
Y55250D01*
X198917D01*
X199334Y54833D01*
Y54000D01*
X198917Y53584D01*
X197668D01*
X198501D02*
X199334Y52750D01*
X200167Y54833D02*
X200584Y55250D01*
X201416D01*
X201833Y54833D01*
Y54417D01*
X201416Y54000D01*
X201000D01*
X201416D01*
X201833Y53584D01*
Y53167D01*
X201416Y52750D01*
X200584D01*
X200167Y53167D01*
X202666Y55250D02*
X204332D01*
Y54833D01*
X202666Y53167D01*
Y52750D01*
X235668Y52250D02*
Y54750D01*
X236917D01*
X237334Y54333D01*
Y53500D01*
X236917Y53083D01*
X235668D01*
X236501D02*
X237334Y52250D01*
X238167Y54333D02*
X238583Y54750D01*
X239417D01*
X239833Y54333D01*
Y53917D01*
X239417Y53500D01*
X239000D01*
X239417D01*
X239833Y53083D01*
Y52667D01*
X239417Y52250D01*
X238583D01*
X238167Y52667D01*
X240666Y54333D02*
X241083Y54750D01*
X241916D01*
X242332Y54333D01*
Y53917D01*
X241916Y53500D01*
X242332Y53083D01*
Y52667D01*
X241916Y52250D01*
X241083D01*
X240666Y52667D01*
Y53083D01*
X241083Y53500D01*
X240666Y53917D01*
Y54333D01*
X241083Y53500D02*
X241916D01*
X275668Y51750D02*
Y54250D01*
X276917D01*
X277334Y53833D01*
Y53000D01*
X276917Y52583D01*
X275668D01*
X276501D02*
X277334Y51750D01*
X278167Y53833D02*
X278584Y54250D01*
X279416D01*
X279833Y53833D01*
Y53417D01*
X279416Y53000D01*
X279000D01*
X279416D01*
X279833Y52583D01*
Y52167D01*
X279416Y51750D01*
X278584D01*
X278167Y52167D01*
X280666D02*
X281083Y51750D01*
X281916D01*
X282332Y52167D01*
Y53833D01*
X281916Y54250D01*
X281083D01*
X280666Y53833D01*
Y53417D01*
X281083Y53000D01*
X282332D01*
X316168Y51250D02*
Y53750D01*
X317417D01*
X317834Y53333D01*
Y52500D01*
X317417Y52083D01*
X316168D01*
X317001D02*
X317834Y51250D01*
X319917D02*
Y53750D01*
X318667Y52500D01*
X320333D01*
X321166Y53333D02*
X321583Y53750D01*
X322416D01*
X322832Y53333D01*
Y51667D01*
X322416Y51250D01*
X321583D01*
X321166Y51667D01*
Y53333D01*
X217084Y53250D02*
Y55750D01*
X218334D01*
X218750Y55333D01*
Y54500D01*
X218334Y54084D01*
X217084D01*
X217917D02*
X218750Y53250D01*
X220833D02*
Y55750D01*
X219584Y54500D01*
X221250D01*
X222083Y53250D02*
X222916D01*
X222499D01*
Y55750D01*
X222083Y55333D01*
X254668Y51750D02*
Y54250D01*
X255917D01*
X256334Y53833D01*
Y53000D01*
X255917Y52583D01*
X254668D01*
X255501D02*
X256334Y51750D01*
X258417D02*
Y54250D01*
X257167Y53000D01*
X258833D01*
X261332Y51750D02*
X259666D01*
X261332Y53417D01*
Y53833D01*
X260916Y54250D01*
X260083D01*
X259666Y53833D01*
X287668Y52250D02*
Y54750D01*
X288917D01*
X289334Y54333D01*
Y53500D01*
X288917Y53083D01*
X287668D01*
X288501D02*
X289334Y52250D01*
X291417D02*
Y54750D01*
X290167Y53500D01*
X291833D01*
X292666Y54333D02*
X293083Y54750D01*
X293916D01*
X294332Y54333D01*
Y53917D01*
X293916Y53500D01*
X293499D01*
X293916D01*
X294332Y53083D01*
Y52667D01*
X293916Y52250D01*
X293083D01*
X292666Y52667D01*
X335168Y51250D02*
Y53750D01*
X336417D01*
X336834Y53333D01*
Y52500D01*
X336417Y52083D01*
X335168D01*
X336001D02*
X336834Y51250D01*
X338916D02*
Y53750D01*
X337667Y52500D01*
X339333D01*
X341416Y51250D02*
Y53750D01*
X340166Y52500D01*
X341832D01*
X192168Y77250D02*
Y79750D01*
X193417D01*
X193834Y79333D01*
Y78500D01*
X193417Y78083D01*
X192168D01*
X193001D02*
X193834Y77250D01*
X195916D02*
Y79750D01*
X194667Y78500D01*
X196333D01*
X198832Y79750D02*
X197166D01*
Y78500D01*
X197999Y78917D01*
X198416D01*
X198832Y78500D01*
Y77667D01*
X198416Y77250D01*
X197583D01*
X197166Y77667D01*
X238168Y75250D02*
Y77750D01*
X239417D01*
X239834Y77333D01*
Y76500D01*
X239417Y76083D01*
X238168D01*
X239001D02*
X239834Y75250D01*
X241916D02*
Y77750D01*
X240667Y76500D01*
X242333D01*
X244832Y77750D02*
X243999Y77333D01*
X243166Y76500D01*
Y75667D01*
X243583Y75250D01*
X244416D01*
X244832Y75667D01*
Y76083D01*
X244416Y76500D01*
X243166D01*
X270668Y78250D02*
Y80750D01*
X271917D01*
X272334Y80333D01*
Y79500D01*
X271917Y79084D01*
X270668D01*
X271501D02*
X272334Y78250D01*
X274416D02*
Y80750D01*
X273167Y79500D01*
X274833D01*
X275666Y80750D02*
X277332D01*
Y80333D01*
X275666Y78667D01*
Y78250D01*
X317668Y73750D02*
Y76250D01*
X318917D01*
X319334Y75833D01*
Y75000D01*
X318917Y74584D01*
X317668D01*
X318501D02*
X319334Y73750D01*
X321416D02*
Y76250D01*
X320167Y75000D01*
X321833D01*
X322666Y75833D02*
X323083Y76250D01*
X323916D01*
X324332Y75833D01*
Y75416D01*
X323916Y75000D01*
X324332Y74584D01*
Y74167D01*
X323916Y73750D01*
X323083D01*
X322666Y74167D01*
Y74584D01*
X323083Y75000D01*
X322666Y75416D01*
Y75833D01*
X323083Y75000D02*
X323916D01*
X226250Y69668D02*
X223750D01*
Y70917D01*
X224167Y71334D01*
X225000D01*
X225416Y70917D01*
Y69668D01*
Y70501D02*
X226250Y71334D01*
Y73417D02*
X223750D01*
X225000Y72167D01*
Y73833D01*
X225833Y74666D02*
X226250Y75083D01*
Y75916D01*
X225833Y76332D01*
X224167D01*
X223750Y75916D01*
Y75083D01*
X224167Y74666D01*
X224584D01*
X225000Y75083D01*
Y76332D01*
X263750Y68668D02*
X261250D01*
Y69917D01*
X261667Y70334D01*
X262500D01*
X262916Y69917D01*
Y68668D01*
Y69501D02*
X263750Y70334D01*
X261250Y72833D02*
Y71167D01*
X262500D01*
X262084Y72000D01*
Y72417D01*
X262500Y72833D01*
X263333D01*
X263750Y72417D01*
Y71583D01*
X263333Y71167D01*
X261667Y73666D02*
X261250Y74083D01*
Y74916D01*
X261667Y75332D01*
X263333D01*
X263750Y74916D01*
Y74083D01*
X263333Y73666D01*
X261667D01*
X304250Y68084D02*
X301750D01*
Y69334D01*
X302167Y69750D01*
X303000D01*
X303416Y69334D01*
Y68084D01*
Y68917D02*
X304250Y69750D01*
X301750Y72250D02*
Y70583D01*
X303000D01*
X302583Y71416D01*
Y71833D01*
X303000Y72250D01*
X303833D01*
X304250Y71833D01*
Y71000D01*
X303833Y70583D01*
X304250Y73083D02*
Y73916D01*
Y73499D01*
X301750D01*
X302167Y73083D01*
X347250Y59668D02*
X344750D01*
Y60917D01*
X345167Y61334D01*
X346000D01*
X346416Y60917D01*
Y59668D01*
Y60501D02*
X347250Y61334D01*
X344750Y63833D02*
Y62167D01*
X346000D01*
X345584Y63000D01*
Y63416D01*
X346000Y63833D01*
X346833D01*
X347250Y63416D01*
Y62584D01*
X346833Y62167D01*
X347250Y66332D02*
Y64666D01*
X345584Y66332D01*
X345167D01*
X344750Y65916D01*
Y65083D01*
X345167Y64666D01*
X196168Y6250D02*
Y8750D01*
X197417D01*
X197834Y8333D01*
Y7500D01*
X197417Y7084D01*
X196168D01*
X197001D02*
X197834Y6250D01*
X200333Y8750D02*
X198667D01*
Y7500D01*
X199500Y7916D01*
X199917D01*
X200333Y7500D01*
Y6667D01*
X199917Y6250D01*
X199083D01*
X198667Y6667D01*
X201166Y8333D02*
X201583Y8750D01*
X202416D01*
X202832Y8333D01*
Y7916D01*
X202416Y7500D01*
X201999D01*
X202416D01*
X202832Y7084D01*
Y6667D01*
X202416Y6250D01*
X201583D01*
X201166Y6667D01*
X235168Y4750D02*
Y7250D01*
X236417D01*
X236834Y6833D01*
Y6000D01*
X236417Y5584D01*
X235168D01*
X236001D02*
X236834Y4750D01*
X239333Y7250D02*
X237667D01*
Y6000D01*
X238500Y6417D01*
X238916D01*
X239333Y6000D01*
Y5167D01*
X238916Y4750D01*
X238084D01*
X237667Y5167D01*
X241416Y4750D02*
Y7250D01*
X240166Y6000D01*
X241832D01*
X276168Y4250D02*
Y6750D01*
X277417D01*
X277834Y6333D01*
Y5500D01*
X277417Y5083D01*
X276168D01*
X277001D02*
X277834Y4250D01*
X280333Y6750D02*
X278667D01*
Y5500D01*
X279500Y5917D01*
X279917D01*
X280333Y5500D01*
Y4667D01*
X279917Y4250D01*
X279083D01*
X278667Y4667D01*
X282832Y6750D02*
X281166D01*
Y5500D01*
X281999Y5917D01*
X282416D01*
X282832Y5500D01*
Y4667D01*
X282416Y4250D01*
X281583D01*
X281166Y4667D01*
X315168Y6250D02*
Y8750D01*
X316417D01*
X316834Y8333D01*
Y7500D01*
X316417Y7084D01*
X315168D01*
X316001D02*
X316834Y6250D01*
X319333Y8750D02*
X317667D01*
Y7500D01*
X318500Y7916D01*
X318917D01*
X319333Y7500D01*
Y6667D01*
X318917Y6250D01*
X318084D01*
X317667Y6667D01*
X321832Y8750D02*
X320999Y8333D01*
X320166Y7500D01*
Y6667D01*
X320583Y6250D01*
X321416D01*
X321832Y6667D01*
Y7084D01*
X321416Y7500D01*
X320166D01*
X217668Y5750D02*
Y8250D01*
X218917D01*
X219334Y7833D01*
Y7000D01*
X218917Y6583D01*
X217668D01*
X218501D02*
X219334Y5750D01*
X221833Y8250D02*
X220167D01*
Y7000D01*
X221000Y7417D01*
X221416D01*
X221833Y7000D01*
Y6167D01*
X221416Y5750D01*
X220584D01*
X220167Y6167D01*
X222666Y8250D02*
X224332D01*
Y7833D01*
X222666Y6167D01*
Y5750D01*
X254668Y5250D02*
Y7750D01*
X255917D01*
X256334Y7333D01*
Y6500D01*
X255917Y6084D01*
X254668D01*
X255501D02*
X256334Y5250D01*
X258833Y7750D02*
X257167D01*
Y6500D01*
X258000Y6916D01*
X258417D01*
X258833Y6500D01*
Y5667D01*
X258417Y5250D01*
X257583D01*
X257167Y5667D01*
X259666Y7333D02*
X260083Y7750D01*
X260916D01*
X261332Y7333D01*
Y6916D01*
X260916Y6500D01*
X261332Y6084D01*
Y5667D01*
X260916Y5250D01*
X260083D01*
X259666Y5667D01*
Y6084D01*
X260083Y6500D01*
X259666Y6916D01*
Y7333D01*
X260083Y6500D02*
X260916D01*
X289668Y4250D02*
Y6750D01*
X290917D01*
X291334Y6333D01*
Y5500D01*
X290917Y5083D01*
X289668D01*
X290501D02*
X291334Y4250D01*
X293833Y6750D02*
X292167D01*
Y5500D01*
X293000Y5917D01*
X293417D01*
X293833Y5500D01*
Y4667D01*
X293417Y4250D01*
X292583D01*
X292167Y4667D01*
X294666D02*
X295083Y4250D01*
X295916D01*
X296332Y4667D01*
Y6333D01*
X295916Y6750D01*
X295083D01*
X294666Y6333D01*
Y5917D01*
X295083Y5500D01*
X296332D01*
X335168Y6750D02*
Y9250D01*
X336417D01*
X336834Y8833D01*
Y8000D01*
X336417Y7583D01*
X335168D01*
X336001D02*
X336834Y6750D01*
X339333Y9250D02*
X338500Y8833D01*
X337667Y8000D01*
Y7167D01*
X338084Y6750D01*
X338916D01*
X339333Y7167D01*
Y7583D01*
X338916Y8000D01*
X337667D01*
X340166Y8833D02*
X340583Y9250D01*
X341416D01*
X341832Y8833D01*
Y7167D01*
X341416Y6750D01*
X340583D01*
X340166Y7167D01*
Y8833D01*
X192584Y31250D02*
Y33750D01*
X193834D01*
X194250Y33333D01*
Y32500D01*
X193834Y32083D01*
X192584D01*
X193417D02*
X194250Y31250D01*
X196750Y33750D02*
X195916Y33333D01*
X195083Y32500D01*
Y31667D01*
X195500Y31250D01*
X196333D01*
X196750Y31667D01*
Y32083D01*
X196333Y32500D01*
X195083D01*
X197583Y31250D02*
X198416D01*
X197999D01*
Y33750D01*
X197583Y33333D01*
X238668Y27750D02*
Y30250D01*
X239917D01*
X240334Y29833D01*
Y29000D01*
X239917Y28583D01*
X238668D01*
X239501D02*
X240334Y27750D01*
X242833Y30250D02*
X242000Y29833D01*
X241167Y29000D01*
Y28167D01*
X241583Y27750D01*
X242417D01*
X242833Y28167D01*
Y28583D01*
X242417Y29000D01*
X241167D01*
X245332Y27750D02*
X243666D01*
X245332Y29416D01*
Y29833D01*
X244916Y30250D01*
X244083D01*
X243666Y29833D01*
X278168Y26750D02*
Y29250D01*
X279417D01*
X279834Y28833D01*
Y28000D01*
X279417Y27584D01*
X278168D01*
X279001D02*
X279834Y26750D01*
X282333Y29250D02*
X281500Y28833D01*
X280667Y28000D01*
Y27167D01*
X281083Y26750D01*
X281916D01*
X282333Y27167D01*
Y27584D01*
X281916Y28000D01*
X280667D01*
X283166Y28833D02*
X283583Y29250D01*
X284416D01*
X284832Y28833D01*
Y28416D01*
X284416Y28000D01*
X283999D01*
X284416D01*
X284832Y27584D01*
Y27167D01*
X284416Y26750D01*
X283583D01*
X283166Y27167D01*
X310668Y31250D02*
Y33750D01*
X311917D01*
X312334Y33333D01*
Y32500D01*
X311917Y32083D01*
X310668D01*
X311501D02*
X312334Y31250D01*
X314833Y33750D02*
X314000Y33333D01*
X313167Y32500D01*
Y31667D01*
X313583Y31250D01*
X314417D01*
X314833Y31667D01*
Y32083D01*
X314417Y32500D01*
X313167D01*
X316916Y31250D02*
Y33750D01*
X315666Y32500D01*
X317332D01*
X228750Y14668D02*
X226250D01*
Y15917D01*
X226667Y16334D01*
X227500D01*
X227917Y15917D01*
Y14668D01*
Y15501D02*
X228750Y16334D01*
X226250Y18833D02*
X226667Y18000D01*
X227500Y17167D01*
X228333D01*
X228750Y17583D01*
Y18417D01*
X228333Y18833D01*
X227917D01*
X227500Y18417D01*
Y17167D01*
X226250Y21332D02*
Y19666D01*
X227500D01*
X227083Y20499D01*
Y20916D01*
X227500Y21332D01*
X228333D01*
X228750Y20916D01*
Y20083D01*
X228333Y19666D01*
X268250Y14168D02*
X265750D01*
Y15417D01*
X266167Y15834D01*
X267000D01*
X267417Y15417D01*
Y14168D01*
Y15001D02*
X268250Y15834D01*
X265750Y18333D02*
X266167Y17500D01*
X267000Y16667D01*
X267833D01*
X268250Y17084D01*
Y17917D01*
X267833Y18333D01*
X267417D01*
X267000Y17917D01*
Y16667D01*
X265750Y20832D02*
X266167Y19999D01*
X267000Y19166D01*
X267833D01*
X268250Y19583D01*
Y20416D01*
X267833Y20832D01*
X267417D01*
X267000Y20416D01*
Y19166D01*
X306750Y15168D02*
X304250D01*
Y16417D01*
X304667Y16834D01*
X305500D01*
X305917Y16417D01*
Y15168D01*
Y16001D02*
X306750Y16834D01*
X304250Y19333D02*
X304667Y18500D01*
X305500Y17667D01*
X306333D01*
X306750Y18083D01*
Y18916D01*
X306333Y19333D01*
X305917D01*
X305500Y18916D01*
Y17667D01*
X304250Y20166D02*
Y21832D01*
X304667D01*
X306333Y20166D01*
X306750D01*
X347750Y15168D02*
X345250D01*
Y16417D01*
X345667Y16834D01*
X346500D01*
X346917Y16417D01*
Y15168D01*
Y16001D02*
X347750Y16834D01*
X345250Y19333D02*
X345667Y18500D01*
X346500Y17667D01*
X347333D01*
X347750Y18083D01*
Y18916D01*
X347333Y19333D01*
X346917D01*
X346500Y18916D01*
Y17667D01*
X345667Y20166D02*
X345250Y20583D01*
Y21416D01*
X345667Y21832D01*
X346083D01*
X346500Y21416D01*
X346917Y21832D01*
X347333D01*
X347750Y21416D01*
Y20583D01*
X347333Y20166D01*
X346917D01*
X346500Y20583D01*
X346083Y20166D01*
X345667D01*
X346500Y20583D02*
Y21416D01*
X60667Y69959D02*
X60250Y69542D01*
Y68709D01*
X60667Y68293D01*
X62333D01*
X62750Y68709D01*
Y69542D01*
X62333Y69959D01*
X62750Y70792D02*
Y71625D01*
Y71208D01*
X60250D01*
X60667Y70792D01*
X62750Y72874D02*
Y73707D01*
Y73291D01*
X60250D01*
X60667Y72874D01*
X176010Y66018D02*
X176427Y65601D01*
X177260D01*
X177676Y66018D01*
Y67684D01*
X177260Y68101D01*
X176427D01*
X176010Y67684D01*
X175177Y68101D02*
X174344D01*
X174761D01*
Y65601D01*
X175177Y66018D01*
X171428Y68101D02*
X173095D01*
X171428Y66434D01*
Y66018D01*
X171845Y65601D01*
X172678D01*
X173095Y66018D01*
X33542Y80833D02*
X33126Y81250D01*
X32293D01*
X31876Y80833D01*
Y79167D01*
X32293Y78750D01*
X33126D01*
X33542Y79167D01*
X34375Y78750D02*
X35208D01*
X34792D01*
Y81250D01*
X34375Y80833D01*
X38124Y81250D02*
X36458D01*
Y80000D01*
X37291Y80417D01*
X37707D01*
X38124Y80000D01*
Y79167D01*
X37707Y78750D01*
X36874D01*
X36458Y79167D01*
X149668Y143250D02*
Y145750D01*
X150917D01*
X151334Y145333D01*
Y144500D01*
X150917Y144083D01*
X149668D01*
X150501D02*
X151334Y143250D01*
X153833Y145750D02*
X153000Y145333D01*
X152167Y144500D01*
Y143667D01*
X152584Y143250D01*
X153417D01*
X153833Y143667D01*
Y144083D01*
X153417Y144500D01*
X152167D01*
X154666Y143667D02*
X155083Y143250D01*
X155916D01*
X156332Y143667D01*
Y145333D01*
X155916Y145750D01*
X155083D01*
X154666Y145333D01*
Y144916D01*
X155083Y144500D01*
X156332D01*
X150168Y133250D02*
Y135750D01*
X151417D01*
X151834Y135333D01*
Y134500D01*
X151417Y134083D01*
X150168D01*
X151001D02*
X151834Y133250D01*
X152667Y135750D02*
X154333D01*
Y135333D01*
X152667Y133667D01*
Y133250D01*
X155166Y135333D02*
X155583Y135750D01*
X156416D01*
X156832Y135333D01*
Y133667D01*
X156416Y133250D01*
X155583D01*
X155166Y133667D01*
Y135333D01*
X5584Y103750D02*
Y106250D01*
X6834D01*
X7250Y105833D01*
Y105000D01*
X6834Y104584D01*
X5584D01*
X6417D02*
X7250Y103750D01*
X8083Y106250D02*
X9750D01*
Y105833D01*
X8083Y104167D01*
Y103750D01*
X10583D02*
X11416D01*
X10999D01*
Y106250D01*
X10583Y105833D01*
X367332Y78509D02*
X365666D01*
X364833Y79343D01*
X365666Y80176D01*
X367332D01*
X366082D01*
Y78509D01*
X364833Y82675D02*
Y81009D01*
X366082D01*
X365666Y81842D01*
Y82258D01*
X366082Y82675D01*
X366915D01*
X367332Y82258D01*
Y81425D01*
X366915Y81009D01*
X373202Y78451D02*
X371536D01*
X370703Y79284D01*
X371536Y80117D01*
X373202D01*
X371953D01*
Y78451D01*
X373202Y82200D02*
X370703D01*
X371953Y80950D01*
Y82617D01*
X379301Y78451D02*
X377634D01*
X376801Y79284D01*
X377634Y80117D01*
X379301D01*
X378051D01*
Y78451D01*
X377218Y80950D02*
X376801Y81367D01*
Y82200D01*
X377218Y82617D01*
X377634D01*
X378051Y82200D01*
Y81784D01*
Y82200D01*
X378467Y82617D01*
X378884D01*
X379301Y82200D01*
Y81367D01*
X378884Y80950D01*
X385399Y78451D02*
X383733D01*
X382900Y79284D01*
X383733Y80117D01*
X385399D01*
X384149D01*
Y78451D01*
X385399Y82617D02*
Y80950D01*
X383733Y82617D01*
X383316D01*
X382900Y82200D01*
Y81367D01*
X383316Y80950D01*
X391497Y78868D02*
X389831D01*
X388998Y79701D01*
X389831Y80534D01*
X391497D01*
X390248D01*
Y78868D01*
X391497Y81367D02*
Y82200D01*
Y81784D01*
X388998D01*
X389415Y81367D01*
X397596Y78451D02*
X395930D01*
X395097Y79284D01*
X395930Y80117D01*
X397596D01*
X396346D01*
Y78451D01*
X395513Y80950D02*
X395097Y81367D01*
Y82200D01*
X395513Y82617D01*
X397179D01*
X397596Y82200D01*
Y81367D01*
X397179Y80950D01*
X395513D01*
X367750Y105168D02*
X365250D01*
Y106417D01*
X365667Y106834D01*
X366500D01*
X366916Y106417D01*
Y105168D01*
Y106001D02*
X367750Y106834D01*
X365250Y107667D02*
Y109333D01*
X365667D01*
X367333Y107667D01*
X367750D01*
X365667Y110166D02*
X365250Y110583D01*
Y111416D01*
X365667Y111832D01*
X366084D01*
X366500Y111416D01*
Y110999D01*
Y111416D01*
X366916Y111832D01*
X367333D01*
X367750Y111416D01*
Y110583D01*
X367333Y110166D01*
X373250Y104668D02*
X370750D01*
Y105917D01*
X371167Y106334D01*
X372000D01*
X372416Y105917D01*
Y104668D01*
Y105501D02*
X373250Y106334D01*
X370750Y107167D02*
Y108833D01*
X371167D01*
X372833Y107167D01*
X373250D01*
Y110916D02*
X370750D01*
X372000Y109666D01*
Y111332D01*
X379250Y104668D02*
X376750D01*
Y105917D01*
X377167Y106334D01*
X378000D01*
X378416Y105917D01*
Y104668D01*
Y105501D02*
X379250Y106334D01*
X376750Y107167D02*
Y108833D01*
X377167D01*
X378833Y107167D01*
X379250D01*
X376750Y111332D02*
Y109666D01*
X378000D01*
X377584Y110499D01*
Y110916D01*
X378000Y111332D01*
X378833D01*
X379250Y110916D01*
Y110083D01*
X378833Y109666D01*
X386250Y104668D02*
X383750D01*
Y105917D01*
X384167Y106334D01*
X385000D01*
X385417Y105917D01*
Y104668D01*
Y105501D02*
X386250Y106334D01*
X383750Y107167D02*
Y108833D01*
X384167D01*
X385833Y107167D01*
X386250D01*
X383750Y111332D02*
X384167Y110499D01*
X385000Y109666D01*
X385833D01*
X386250Y110083D01*
Y110916D01*
X385833Y111332D01*
X385417D01*
X385000Y110916D01*
Y109666D01*
X391750Y105168D02*
X389250D01*
Y106417D01*
X389667Y106834D01*
X390500D01*
X390916Y106417D01*
Y105168D01*
Y106001D02*
X391750Y106834D01*
X389250Y107667D02*
Y109333D01*
X389667D01*
X391333Y107667D01*
X391750D01*
X389250Y110166D02*
Y111832D01*
X389667D01*
X391333Y110166D01*
X391750D01*
D21*
X63028Y131974D02*
Y129000D01*
X64515D01*
X65010Y129496D01*
Y131478D01*
X64515Y131974D01*
X63028D01*
X67984D02*
X66002D01*
Y130487D01*
X66993Y130983D01*
X67489D01*
X67984Y130487D01*
Y129496D01*
X67489Y129000D01*
X66497D01*
X66002Y129496D01*
X63028Y141974D02*
Y139000D01*
X64515D01*
X65010Y139496D01*
Y141478D01*
X64515Y141974D01*
X63028D01*
X66002Y141478D02*
X66497Y141974D01*
X67489D01*
X67984Y141478D01*
Y139496D01*
X67489Y139000D01*
X66497D01*
X66002Y139496D01*
Y141478D01*
X63028Y101974D02*
Y99000D01*
X64515D01*
X65010Y99496D01*
Y101478D01*
X64515Y101974D01*
X63028D01*
X66002Y101478D02*
X66497Y101974D01*
X67489D01*
X67984Y101478D01*
Y100983D01*
X67489Y100487D01*
X67984Y99991D01*
Y99496D01*
X67489Y99000D01*
X66497D01*
X66002Y99496D01*
Y99991D01*
X66497Y100487D01*
X66002Y100983D01*
Y101478D01*
X66497Y100487D02*
X67489D01*
X63028Y149000D02*
Y150983D01*
X64019Y151974D01*
X65010Y150983D01*
Y149000D01*
Y150487D01*
X63028D01*
X66002Y151478D02*
X66497Y151974D01*
X67489D01*
X67984Y151478D01*
Y149496D01*
X67489Y149000D01*
X66497D01*
X66002Y149496D01*
Y151478D01*
X63028Y121974D02*
Y119000D01*
X64515D01*
X65010Y119496D01*
Y121478D01*
X64515Y121974D01*
X63028D01*
X67984D02*
X66993Y121478D01*
X66002Y120487D01*
Y119496D01*
X66497Y119000D01*
X67489D01*
X67984Y119496D01*
Y119991D01*
X67489Y120487D01*
X66002D01*
X63028Y111974D02*
Y109000D01*
X64515D01*
X65010Y109496D01*
Y111478D01*
X64515Y111974D01*
X63028D01*
X66002D02*
X67984D01*
Y111478D01*
X66002Y109496D01*
Y109000D01*
X175185Y132761D02*
Y129787D01*
X176672D01*
X177168Y130283D01*
Y132266D01*
X176672Y132761D01*
X175185D01*
X180142Y129787D02*
X178159D01*
X180142Y131770D01*
Y132266D01*
X179646Y132761D01*
X178655D01*
X178159Y132266D01*
X175185Y142761D02*
Y139787D01*
X176672D01*
X177168Y140283D01*
Y142266D01*
X176672Y142761D01*
X175185D01*
X178159Y139787D02*
X179150D01*
X178655D01*
Y142761D01*
X178159Y142266D01*
X175185Y149787D02*
Y152761D01*
X176672D01*
X177168Y152266D01*
Y151274D01*
X176672Y150779D01*
X175185D01*
X176176D02*
X177168Y149787D01*
X178159Y152761D02*
X180142Y149787D01*
Y152761D02*
X178159Y149787D01*
X175185Y122761D02*
Y119787D01*
X176672D01*
X177168Y120283D01*
Y122266D01*
X176672Y122761D01*
X175185D01*
X178159Y122266D02*
X178655Y122761D01*
X179646D01*
X180142Y122266D01*
Y121770D01*
X179646Y121274D01*
X179150D01*
X179646D01*
X180142Y120779D01*
Y120283D01*
X179646Y119787D01*
X178655D01*
X178159Y120283D01*
X175185Y112761D02*
Y109787D01*
X176672D01*
X177168Y110283D01*
Y112266D01*
X176672Y112761D01*
X175185D01*
X179646Y109787D02*
Y112761D01*
X178159Y111274D01*
X180142D01*
D22*
X64000Y93266D02*
X64453Y93719D01*
X65360D01*
X65813Y93266D01*
Y92813D01*
X65360Y92360D01*
X64906D01*
X65360D01*
X65813Y91906D01*
Y91453D01*
X65360Y91000D01*
X64453D01*
X64000Y91453D01*
X66719Y93719D02*
Y91906D01*
X67625Y91000D01*
X68532Y91906D01*
Y93719D01*
X69438Y93266D02*
X69891Y93719D01*
X70798D01*
X71251Y93266D01*
Y92813D01*
X70798Y92360D01*
X70345D01*
X70798D01*
X71251Y91906D01*
Y91453D01*
X70798Y91000D01*
X69891D01*
X69438Y91453D01*
X63028Y159000D02*
Y161719D01*
X64387D01*
X64840Y161266D01*
Y160360D01*
X64387Y159906D01*
X63028D01*
X63934D02*
X64840Y159000D01*
X67559Y161266D02*
X67106Y161719D01*
X66200D01*
X65747Y161266D01*
Y160813D01*
X66200Y160360D01*
X67106D01*
X67559Y159906D01*
Y159453D01*
X67106Y159000D01*
X66200D01*
X65747Y159453D01*
X68466Y161719D02*
X70279D01*
X69372D01*
Y159000D01*
X176998Y92506D02*
X175185D01*
Y91147D01*
X176091Y91600D01*
X176545D01*
X176998Y91147D01*
Y90241D01*
X176545Y89787D01*
X175638D01*
X175185Y90241D01*
X177904Y92506D02*
Y90694D01*
X178811Y89787D01*
X179717Y90694D01*
Y92506D01*
X176998Y102120D02*
X176545Y102574D01*
X175638D01*
X175185Y102120D01*
Y100308D01*
X175638Y99854D01*
X176545D01*
X176998Y100308D01*
Y101214D01*
X176091D01*
X177904Y99854D02*
Y102574D01*
X179717Y99854D01*
Y102574D01*
X180623D02*
Y99854D01*
X181983D01*
X182436Y100308D01*
Y102120D01*
X181983Y102574D01*
X180623D01*
M02*
