G04*
G04 #@! TF.GenerationSoftware,Altium Limited,Altium Designer,21.5.1 (32)*
G04*
G04 Layer_Color=32768*
%FSLAX25Y25*%
%MOIN*%
G70*
G04*
G04 #@! TF.SameCoordinates,804D03E9-ECC6-49F7-9CEA-4D12CAEBA4D3*
G04*
G04*
G04 #@! TF.FilePolarity,Positive*
G04*
G01*
G75*
%ADD13C,0.00394*%
%ADD88C,0.00197*%
D13*
X380000Y129032D02*
Y132968D01*
X378031Y131000D02*
X381968D01*
X326701Y26756D02*
X339299D01*
X326701Y14157D02*
X339299D01*
Y26756D01*
X326701Y14157D02*
Y26756D01*
X333000Y18488D02*
Y22425D01*
X331031Y20457D02*
X334968D01*
X334772Y31032D02*
Y34969D01*
X332803Y33000D02*
X336740D01*
X49031Y132000D02*
X52969D01*
X51000Y130032D02*
Y133968D01*
X34500Y145181D02*
Y149118D01*
X32531Y147150D02*
X36468D01*
X54500Y96031D02*
Y99968D01*
X52531Y98000D02*
X56468D01*
X54500Y103032D02*
Y106968D01*
X52531Y105000D02*
X56468D01*
X24032Y147000D02*
X27968D01*
X26000Y145031D02*
Y148969D01*
X216272Y171031D02*
Y174969D01*
X214303Y173000D02*
X218240D01*
X254272Y170531D02*
Y174469D01*
X252303Y172500D02*
X256240D01*
X294772Y170031D02*
Y173969D01*
X292803Y172000D02*
X296740D01*
X334772Y169532D02*
Y173468D01*
X332803Y171500D02*
X336740D01*
X216272Y126532D02*
Y130468D01*
X214303Y128500D02*
X218240D01*
X254272Y126031D02*
Y129969D01*
X252303Y128000D02*
X256240D01*
X294772Y126031D02*
Y129969D01*
X292803Y128000D02*
X296740D01*
X334772Y125031D02*
Y128969D01*
X332803Y127000D02*
X336740D01*
X216272Y77531D02*
Y81468D01*
X214303Y79500D02*
X218240D01*
X254272Y77531D02*
Y81468D01*
X252303Y79500D02*
X256240D01*
X294772Y77806D02*
Y81743D01*
X292803Y79774D02*
X296740D01*
X334772Y76826D02*
Y80763D01*
X332803Y78794D02*
X336740D01*
X216272Y31032D02*
Y34969D01*
X214303Y33000D02*
X218240D01*
X254272Y30531D02*
Y34468D01*
X252303Y32500D02*
X256240D01*
X294772Y30531D02*
Y34468D01*
X292803Y32500D02*
X296740D01*
X208201Y167299D02*
X220799D01*
X208201Y154701D02*
X220799D01*
Y167299D01*
X208201Y154701D02*
Y167299D01*
X214500Y159031D02*
Y162969D01*
X212531Y161000D02*
X216469D01*
X246201Y166299D02*
X258799D01*
X246201Y153701D02*
X258799D01*
Y166299D01*
X246201Y153701D02*
Y166299D01*
X252500Y158031D02*
Y161969D01*
X250532Y160000D02*
X254468D01*
X286701Y165799D02*
X299299D01*
X286701Y153201D02*
X299299D01*
Y165799D01*
X286701Y153201D02*
Y165799D01*
X293000Y157531D02*
Y161469D01*
X291032Y159500D02*
X294969D01*
X326701Y166799D02*
X339299D01*
X326701Y154201D02*
X339299D01*
Y166799D01*
X326701Y154201D02*
Y166799D01*
X333000Y158531D02*
Y162469D01*
X331031Y160500D02*
X334968D01*
X208201Y119256D02*
X220799D01*
X208201Y106658D02*
X220799D01*
Y119256D01*
X208201Y106658D02*
Y119256D01*
X214500Y110988D02*
Y114925D01*
X212531Y112957D02*
X216469D01*
X246201Y120299D02*
X258799D01*
X246201Y107701D02*
X258799D01*
Y120299D01*
X246201Y107701D02*
Y120299D01*
X252500Y112031D02*
Y115969D01*
X250532Y114000D02*
X254468D01*
X286701Y120799D02*
X299299D01*
X286701Y108201D02*
X299299D01*
Y120799D01*
X286701Y108201D02*
Y120799D01*
X293000Y112531D02*
Y116469D01*
X291032Y114500D02*
X294969D01*
X326701Y120799D02*
X339299D01*
X326701Y108201D02*
X339299D01*
Y120799D01*
X326701Y108201D02*
Y120799D01*
X333000Y112531D02*
Y116469D01*
X331031Y114500D02*
X334968D01*
X208201Y74299D02*
X220799D01*
X208201Y61701D02*
X220799D01*
Y74299D01*
X208201Y61701D02*
Y74299D01*
X214500Y66031D02*
Y69968D01*
X212531Y68000D02*
X216469D01*
X246201Y74299D02*
X258799D01*
X246201Y61701D02*
X258799D01*
Y74299D01*
X246201Y61701D02*
Y74299D01*
X252500Y66031D02*
Y69968D01*
X250532Y68000D02*
X254468D01*
X286201Y72843D02*
X298799D01*
X286201Y60244D02*
X298799D01*
Y72843D01*
X286201Y60244D02*
Y72843D01*
X292500Y64575D02*
Y68512D01*
X290531Y66543D02*
X294468D01*
X326701Y72094D02*
X339299D01*
X326701Y59495D02*
X339299D01*
Y72094D01*
X326701Y59495D02*
Y72094D01*
X333000Y63826D02*
Y67763D01*
X331031Y65794D02*
X334968D01*
X208201Y26799D02*
X220799D01*
X208201Y14201D02*
X220799D01*
Y26799D01*
X208201Y14201D02*
Y26799D01*
X214500Y18531D02*
Y22468D01*
X212531Y20500D02*
X216469D01*
X246201Y26756D02*
X258799D01*
X246201Y14157D02*
X258799D01*
Y26756D01*
X246201Y14157D02*
Y26756D01*
X252500Y18488D02*
Y22425D01*
X250532Y20457D02*
X254468D01*
X286701Y25799D02*
X299299D01*
X286701Y13201D02*
X299299D01*
Y25799D01*
X286701Y13201D02*
Y25799D01*
X293000Y17531D02*
Y21468D01*
X291032Y19500D02*
X294969D01*
D88*
X364646Y110724D02*
X395354D01*
X364646Y151276D02*
X395354D01*
Y110724D02*
Y151276D01*
X364646Y110724D02*
Y151276D01*
X328177Y29653D02*
X341366D01*
X328177Y36347D02*
X341366D01*
Y29653D02*
Y36347D01*
X328177Y29653D02*
Y36347D01*
X66130Y86000D02*
X69870D01*
X68000Y84130D02*
Y87870D01*
X65835Y81472D02*
Y90527D01*
X70165Y81472D02*
Y90527D01*
X65835Y81472D02*
X70165D01*
X65835Y90527D02*
X70165D01*
X4760Y85031D02*
Y88968D01*
X12240Y85031D02*
Y88968D01*
X4760D02*
X12240D01*
X4760Y85031D02*
X12240D01*
X7417Y87000D02*
X9583D01*
X8500Y85917D02*
Y88083D01*
X395449Y101058D02*
X397614D01*
X396531Y99976D02*
Y102141D01*
X394956Y97909D02*
Y104208D01*
X398106Y97909D02*
Y104208D01*
X394956Y97909D02*
X398106D01*
X394956Y104208D02*
X398106D01*
X62811Y118122D02*
Y145878D01*
X39189Y118122D02*
Y145878D01*
X62811D01*
X39189Y118122D02*
X62811D01*
X31350Y141638D02*
X37650D01*
X31350Y152661D02*
X37650D01*
X31350Y141638D02*
Y152661D01*
X37650Y141638D02*
Y152661D01*
X4472Y79335D02*
Y83665D01*
X13528Y79335D02*
Y83665D01*
X4472D02*
X13528D01*
X4472Y79335D02*
X13528D01*
X7130Y81500D02*
X10870D01*
X9000Y79630D02*
Y83370D01*
X8437Y93099D02*
Y95461D01*
X7256Y94280D02*
X9618D01*
X4304Y96642D02*
X12571D01*
X4304Y91918D02*
X12571D01*
X4304D02*
Y96642D01*
X12571Y91918D02*
Y96642D01*
X401000Y146319D02*
Y148681D01*
X399819Y147500D02*
X402181D01*
X397850Y145925D02*
X404150D01*
X397850Y149075D02*
X404150D01*
Y145925D02*
Y149075D01*
X397850Y145925D02*
Y149075D01*
X34319Y120500D02*
X36681D01*
X35500Y119319D02*
Y121681D01*
X33925Y117350D02*
Y123650D01*
X37075Y117350D02*
Y123650D01*
X33925Y117350D02*
X37075D01*
X33925Y123650D02*
X37075D01*
X48988Y94850D02*
X60012D01*
X48988Y101150D02*
X60012D01*
Y94850D02*
Y101150D01*
X48988Y94850D02*
Y101150D01*
Y101850D02*
X60012D01*
X48988Y108150D02*
X60012D01*
Y101850D02*
Y108150D01*
X48988Y101850D02*
Y108150D01*
X24500Y110819D02*
Y113181D01*
X23319Y112000D02*
X25681D01*
X21350Y113575D02*
X27650D01*
X21350Y110425D02*
X27650D01*
X21350D02*
Y113575D01*
X27650Y110425D02*
Y113575D01*
X29575Y133319D02*
Y135681D01*
X28394Y134500D02*
X30756D01*
X26425Y136075D02*
X32724D01*
X26425Y132925D02*
X32724D01*
X26425D02*
Y136075D01*
X32724Y132925D02*
Y136075D01*
X29150Y141488D02*
Y152512D01*
X22850Y141488D02*
Y152512D01*
X29150D01*
X22850Y141488D02*
X29150D01*
X17819Y148500D02*
X20181D01*
X19000Y147319D02*
Y149681D01*
X20575Y145350D02*
Y151650D01*
X17425Y145350D02*
Y151650D01*
X20575D01*
X17425Y145350D02*
X20575D01*
X209677Y169653D02*
X222866D01*
X209677Y176347D02*
X222866D01*
Y169653D02*
Y176347D01*
X209677Y169653D02*
Y176347D01*
X247677Y169153D02*
X260866D01*
X247677Y175847D02*
X260866D01*
Y169153D02*
Y175847D01*
X247677Y169153D02*
Y175847D01*
X288177Y168654D02*
X301366D01*
X288177Y175347D02*
X301366D01*
Y168654D02*
Y175347D01*
X288177Y168654D02*
Y175347D01*
X328177Y168154D02*
X341366D01*
X328177Y174846D02*
X341366D01*
Y168154D02*
Y174846D01*
X328177Y168154D02*
Y174846D01*
X209677Y125154D02*
X222866D01*
X209677Y131846D02*
X222866D01*
Y125154D02*
Y131846D01*
X209677Y125154D02*
Y131846D01*
X247677Y124653D02*
X260866D01*
X247677Y131346D02*
X260866D01*
Y124653D02*
Y131346D01*
X247677Y124653D02*
Y131346D01*
X288177Y124653D02*
X301366D01*
X288177Y131346D02*
X301366D01*
Y124653D02*
Y131346D01*
X288177Y124653D02*
Y131346D01*
X328177Y123653D02*
X341366D01*
X328177Y130347D02*
X341366D01*
Y123653D02*
Y130347D01*
X328177Y123653D02*
Y130347D01*
X209677Y76153D02*
X222866D01*
X209677Y82846D02*
X222866D01*
Y76153D02*
Y82846D01*
X209677Y76153D02*
Y82846D01*
X247677Y76153D02*
X260866D01*
X247677Y82846D02*
X260866D01*
Y76153D02*
Y82846D01*
X247677Y76153D02*
Y82846D01*
X288177Y76428D02*
X301366D01*
X288177Y83121D02*
X301366D01*
Y76428D02*
Y83121D01*
X288177Y76428D02*
Y83121D01*
X328177Y75448D02*
X341366D01*
X328177Y82141D02*
X341366D01*
Y75448D02*
Y82141D01*
X328177Y75448D02*
Y82141D01*
X209677Y29653D02*
X222866D01*
X209677Y36347D02*
X222866D01*
Y29653D02*
Y36347D01*
X209677Y29653D02*
Y36347D01*
X247677Y29153D02*
X260866D01*
X247677Y35846D02*
X260866D01*
Y29153D02*
Y35846D01*
X247677Y29153D02*
Y35846D01*
X288177Y29153D02*
X301366D01*
X288177Y35846D02*
X301366D01*
Y29153D02*
Y35846D01*
X288177Y29153D02*
Y35846D01*
X200500Y149417D02*
Y151583D01*
X199417Y150500D02*
X201583D01*
X197350Y152075D02*
X203650D01*
X197350Y148925D02*
X203650D01*
X197350D02*
Y152075D01*
X203650Y148925D02*
Y152075D01*
X238000Y149417D02*
Y151583D01*
X236917Y150500D02*
X239083D01*
X234850Y152075D02*
X241150D01*
X234850Y148925D02*
X241150D01*
X234850D02*
Y152075D01*
X241150Y148925D02*
Y152075D01*
X279000Y148917D02*
Y151083D01*
X277917Y150000D02*
X280083D01*
X275850Y151575D02*
X282150D01*
X275850Y148425D02*
X282150D01*
X275850D02*
Y151575D01*
X282150Y148425D02*
Y151575D01*
X319000Y149417D02*
Y151583D01*
X317917Y150500D02*
X320083D01*
X315850Y152075D02*
X322150D01*
X315850Y148925D02*
X322150D01*
X315850D02*
Y152075D01*
X322150Y148925D02*
Y152075D01*
X219618Y149917D02*
Y152083D01*
X218535Y151000D02*
X220701D01*
X216469Y149425D02*
X222768D01*
X216469Y152575D02*
X222768D01*
Y149425D02*
Y152575D01*
X216469Y149425D02*
Y152575D01*
X257618Y149917D02*
Y152083D01*
X256535Y151000D02*
X258701D01*
X254468Y149425D02*
X260768D01*
X254468Y152575D02*
X260768D01*
Y149425D02*
Y152575D01*
X254468Y149425D02*
Y152575D01*
X298118Y148917D02*
Y151083D01*
X297035Y150000D02*
X299201D01*
X294969Y148425D02*
X301268D01*
X294969Y151575D02*
X301268D01*
Y148425D02*
Y151575D01*
X294969Y148425D02*
Y151575D01*
X338118Y149917D02*
Y152083D01*
X337035Y151000D02*
X339201D01*
X334968Y149425D02*
X341268D01*
X334968Y152575D02*
X341268D01*
Y149425D02*
Y152575D01*
X334968Y149425D02*
Y152575D01*
X203000Y171417D02*
Y173583D01*
X201917Y172500D02*
X204083D01*
X199850Y174075D02*
X206150D01*
X199850Y170925D02*
X206150D01*
X199850D02*
Y174075D01*
X206150Y170925D02*
Y174075D01*
X243751Y171417D02*
Y173583D01*
X242669Y172500D02*
X244834D01*
X240602Y174075D02*
X246901D01*
X240602Y170925D02*
X246901D01*
X240602D02*
Y174075D01*
X246901Y170925D02*
Y174075D01*
X282500Y170917D02*
Y173083D01*
X281417Y172000D02*
X283583D01*
X279350Y173575D02*
X285650D01*
X279350Y170425D02*
X285650D01*
X279350D02*
Y173575D01*
X285650Y170425D02*
Y173575D01*
X321751Y170417D02*
Y172583D01*
X320669Y171500D02*
X322834D01*
X318602Y173075D02*
X324901D01*
X318602Y169925D02*
X324901D01*
X318602D02*
Y173075D01*
X324901Y169925D02*
Y173075D01*
X223417Y158728D02*
X225583D01*
X224500Y157646D02*
Y159811D01*
X226075Y155579D02*
Y161878D01*
X222925Y155579D02*
Y161878D01*
X226075D01*
X222925Y155579D02*
X226075D01*
X260917Y157772D02*
X263083D01*
X262000Y156689D02*
Y158854D01*
X263575Y154622D02*
Y160921D01*
X260425Y154622D02*
Y160921D01*
X263575D01*
X260425Y154622D02*
X263575D01*
X302417Y157000D02*
X304583D01*
X303500Y155917D02*
Y158083D01*
X305075Y153850D02*
Y160150D01*
X301925Y153850D02*
Y160150D01*
X305075D01*
X301925Y153850D02*
X305075D01*
X341917Y157500D02*
X344083D01*
X343000Y156417D02*
Y158583D01*
X344575Y154350D02*
Y160650D01*
X341425Y154350D02*
Y160650D01*
X344575D01*
X341425Y154350D02*
X344575D01*
X200500Y101417D02*
Y103583D01*
X199417Y102500D02*
X201583D01*
X197350Y104075D02*
X203650D01*
X197350Y100925D02*
X203650D01*
X197350D02*
Y104075D01*
X203650Y100925D02*
Y104075D01*
X238272Y102917D02*
Y105083D01*
X237189Y104000D02*
X239354D01*
X235122Y105575D02*
X241421D01*
X235122Y102425D02*
X241421D01*
X235122D02*
Y105575D01*
X241421Y102425D02*
Y105575D01*
X279000Y103417D02*
Y105583D01*
X277917Y104500D02*
X280083D01*
X275850Y106075D02*
X282150D01*
X275850Y102925D02*
X282150D01*
X275850D02*
Y106075D01*
X282150Y102925D02*
Y106075D01*
X318728Y103417D02*
Y105583D01*
X317646Y104500D02*
X319811D01*
X315579Y106075D02*
X321878D01*
X315579Y102925D02*
X321878D01*
X315579D02*
Y106075D01*
X321878Y102925D02*
Y106075D01*
X211000Y101417D02*
Y103583D01*
X209917Y102500D02*
X212083D01*
X207850Y100925D02*
X214150D01*
X207850Y104075D02*
X214150D01*
Y100925D02*
Y104075D01*
X207850Y100925D02*
Y104075D01*
X257618Y102917D02*
Y105083D01*
X256535Y104000D02*
X258701D01*
X254468Y102425D02*
X260768D01*
X254468Y105575D02*
X260768D01*
Y102425D02*
Y105575D01*
X254468Y102425D02*
Y105575D01*
X290500Y103417D02*
Y105583D01*
X289417Y104500D02*
X291583D01*
X287350Y102925D02*
X293650D01*
X287350Y106075D02*
X293650D01*
Y102925D02*
Y106075D01*
X287350Y102925D02*
Y106075D01*
X338118Y103417D02*
Y105583D01*
X337035Y104500D02*
X339201D01*
X334968Y102925D02*
X341268D01*
X334968Y106075D02*
X341268D01*
Y102925D02*
Y106075D01*
X334968Y102925D02*
Y106075D01*
X201500Y127917D02*
Y130083D01*
X200417Y129000D02*
X202583D01*
X198350Y130575D02*
X204650D01*
X198350Y127425D02*
X204650D01*
X198350D02*
Y130575D01*
X204650Y127425D02*
Y130575D01*
X237751Y126917D02*
Y129083D01*
X236668Y128000D02*
X238834D01*
X234602Y129575D02*
X240901D01*
X234602Y126425D02*
X240901D01*
X234602D02*
Y129575D01*
X240901Y126425D02*
Y129575D01*
X280000Y126917D02*
Y129083D01*
X278917Y128000D02*
X281083D01*
X276850Y129575D02*
X283150D01*
X276850Y126425D02*
X283150D01*
X276850D02*
Y129575D01*
X283150Y126425D02*
Y129575D01*
X318251Y127917D02*
Y130083D01*
X317168Y129000D02*
X319334D01*
X315102Y130575D02*
X321401D01*
X315102Y127425D02*
X321401D01*
X315102D02*
Y130575D01*
X321401Y127425D02*
Y130575D01*
X221917Y110500D02*
X224083D01*
X223000Y109417D02*
Y111583D01*
X224575Y107350D02*
Y113650D01*
X221425Y107350D02*
Y113650D01*
X224575D01*
X221425Y107350D02*
X224575D01*
X263417Y110728D02*
X265583D01*
X264500Y109646D02*
Y111811D01*
X266075Y107579D02*
Y113878D01*
X262925Y107579D02*
Y113878D01*
X266075D01*
X262925Y107579D02*
X266075D01*
X302417Y112000D02*
X304583D01*
X303500Y110917D02*
Y113083D01*
X305075Y108850D02*
Y115150D01*
X301925Y108850D02*
Y115150D01*
X305075D01*
X301925Y108850D02*
X305075D01*
X341917Y111272D02*
X344083D01*
X343000Y110189D02*
Y112354D01*
X344575Y108122D02*
Y114421D01*
X341425Y108122D02*
Y114421D01*
X344575D01*
X341425Y108122D02*
X344575D01*
X29500Y129417D02*
Y131583D01*
X28417Y130500D02*
X30583D01*
X26350Y132075D02*
X32650D01*
X26350Y128925D02*
X32650D01*
X26350D02*
Y132075D01*
X32650Y128925D02*
Y132075D01*
X20000Y129417D02*
Y131583D01*
X18917Y130500D02*
X21083D01*
X16850Y128925D02*
X23150D01*
X16850Y132075D02*
X23150D01*
Y128925D02*
Y132075D01*
X16850Y128925D02*
Y132075D01*
X9917Y138000D02*
X12083D01*
X11000Y136917D02*
Y139083D01*
X9425Y134850D02*
Y141150D01*
X12575Y134850D02*
Y141150D01*
X9425Y134850D02*
X12575D01*
X9425Y141150D02*
X12575D01*
X19772Y133417D02*
Y135583D01*
X18689Y134500D02*
X20854D01*
X16622Y136075D02*
X22921D01*
X16622Y132925D02*
X22921D01*
X16622D02*
Y136075D01*
X22921Y132925D02*
Y136075D01*
X201000Y57417D02*
Y59583D01*
X199917Y58500D02*
X202083D01*
X197850Y60075D02*
X204150D01*
X197850Y56925D02*
X204150D01*
X197850D02*
Y60075D01*
X204150Y56925D02*
Y60075D01*
X239000Y56417D02*
Y58583D01*
X237917Y57500D02*
X240083D01*
X235850Y59075D02*
X242150D01*
X235850Y55925D02*
X242150D01*
X235850D02*
Y59075D01*
X242150Y55925D02*
Y59075D01*
X279063Y55712D02*
Y57877D01*
X277980Y56795D02*
X280146D01*
X275913Y58369D02*
X282213D01*
X275913Y55220D02*
X282213D01*
X275913D02*
Y58369D01*
X282213Y55220D02*
Y58369D01*
X319563Y55212D02*
Y57377D01*
X318480Y56295D02*
X320646D01*
X316413Y57869D02*
X322713D01*
X316413Y54720D02*
X322713D01*
X316413D02*
Y57869D01*
X322713Y54720D02*
Y57869D01*
X219618Y57417D02*
Y59583D01*
X218535Y58500D02*
X220701D01*
X216469Y56925D02*
X222768D01*
X216469Y60075D02*
X222768D01*
Y56925D02*
Y60075D01*
X216469Y56925D02*
Y60075D01*
X257618Y55917D02*
Y58083D01*
X256535Y57000D02*
X258701D01*
X254468Y55425D02*
X260768D01*
X254468Y58575D02*
X260768D01*
Y55425D02*
Y58575D01*
X254468Y55425D02*
Y58575D01*
X290000Y55917D02*
Y58083D01*
X288917Y57000D02*
X291083D01*
X286850Y55425D02*
X293150D01*
X286850Y58575D02*
X293150D01*
Y55425D02*
Y58575D01*
X286850Y55425D02*
Y58575D01*
X338118Y54712D02*
Y56877D01*
X337035Y55795D02*
X339201D01*
X334968Y54220D02*
X341268D01*
X334968Y57369D02*
X341268D01*
Y54220D02*
Y57369D01*
X334968Y54220D02*
Y57369D01*
X206150Y77925D02*
Y81075D01*
X199850Y77925D02*
Y81075D01*
Y77925D02*
X206150D01*
X199850Y81075D02*
X206150D01*
X201917Y79500D02*
X204083D01*
X203000Y78417D02*
Y80583D01*
X243378Y77925D02*
Y81075D01*
X237079Y77925D02*
Y81075D01*
Y77925D02*
X243378D01*
X237079Y81075D02*
X243378D01*
X239146Y79500D02*
X241311D01*
X240228Y78417D02*
Y80583D01*
X284213Y78220D02*
Y81369D01*
X277913Y78220D02*
Y81369D01*
Y78220D02*
X284213D01*
X277913Y81369D02*
X284213D01*
X279980Y79795D02*
X282146D01*
X281063Y78712D02*
Y80877D01*
X324713Y77220D02*
Y80369D01*
X318413Y77220D02*
Y80369D01*
Y77220D02*
X324713D01*
X318413Y80369D02*
X324713D01*
X320480Y78794D02*
X322646D01*
X321563Y77712D02*
Y79877D01*
X222417Y65000D02*
X224583D01*
X223500Y63917D02*
Y66083D01*
X225075Y61850D02*
Y68150D01*
X221925Y61850D02*
Y68150D01*
X225075D01*
X221925Y61850D02*
X225075D01*
X261417Y65000D02*
X263583D01*
X262500Y63917D02*
Y66083D01*
X264075Y61850D02*
Y68150D01*
X260925Y61850D02*
Y68150D01*
X264075D01*
X260925Y61850D02*
X264075D01*
X301417Y64000D02*
X303583D01*
X302500Y62917D02*
Y65083D01*
X304075Y60850D02*
Y67150D01*
X300925Y60850D02*
Y67150D01*
X304075D01*
X300925Y60850D02*
X304075D01*
X341417Y63000D02*
X343583D01*
X342500Y61917D02*
Y64083D01*
X344075Y59850D02*
Y66150D01*
X340925Y59850D02*
Y66150D01*
X344075D01*
X340925Y59850D02*
X344075D01*
X199728Y10917D02*
Y13083D01*
X198646Y12000D02*
X200811D01*
X196579Y13575D02*
X202878D01*
X196579Y10425D02*
X202878D01*
X196579D02*
Y13575D01*
X202878Y10425D02*
Y13575D01*
X238000Y8917D02*
Y11083D01*
X236917Y10000D02*
X239083D01*
X234850Y11575D02*
X241150D01*
X234850Y8425D02*
X241150D01*
X234850D02*
Y11575D01*
X241150Y8425D02*
Y11575D01*
X279500Y8417D02*
Y10583D01*
X278417Y9500D02*
X280583D01*
X276350Y11075D02*
X282650D01*
X276350Y7925D02*
X282650D01*
X276350D02*
Y11075D01*
X282650Y7925D02*
Y11075D01*
X318000Y10417D02*
Y12583D01*
X316917Y11500D02*
X319083D01*
X314850Y13075D02*
X321150D01*
X314850Y9925D02*
X321150D01*
X314850D02*
Y13075D01*
X321150Y9925D02*
Y13075D01*
X219618Y9917D02*
Y12083D01*
X218535Y11000D02*
X220701D01*
X216469Y9425D02*
X222768D01*
X216469Y12575D02*
X222768D01*
Y9425D02*
Y12575D01*
X216469Y9425D02*
Y12575D01*
X257618Y8917D02*
Y11083D01*
X256535Y10000D02*
X258701D01*
X254468Y8425D02*
X260768D01*
X254468Y11575D02*
X260768D01*
Y8425D02*
Y11575D01*
X254468Y8425D02*
Y11575D01*
X292000Y8417D02*
Y10583D01*
X290917Y9500D02*
X293083D01*
X288850Y7925D02*
X295150D01*
X288850Y11075D02*
X295150D01*
Y7925D02*
Y11075D01*
X288850Y7925D02*
Y11075D01*
X338118Y10417D02*
Y12583D01*
X337035Y11500D02*
X339201D01*
X334968Y9925D02*
X341268D01*
X334968Y13075D02*
X341268D01*
Y9925D02*
Y13075D01*
X334968Y9925D02*
Y13075D01*
X202500Y31417D02*
Y33583D01*
X201417Y32500D02*
X203583D01*
X199350Y34075D02*
X205650D01*
X199350Y30925D02*
X205650D01*
X199350D02*
Y34075D01*
X205650Y30925D02*
Y34075D01*
X242000Y31417D02*
Y33583D01*
X240917Y32500D02*
X243083D01*
X238850Y34075D02*
X245150D01*
X238850Y30925D02*
X245150D01*
X238850D02*
Y34075D01*
X245150Y30925D02*
Y34075D01*
X281000Y30917D02*
Y33083D01*
X279917Y32000D02*
X282083D01*
X277850Y33575D02*
X284150D01*
X277850Y30425D02*
X284150D01*
X277850D02*
Y33575D01*
X284150Y30425D02*
Y33575D01*
X320772Y31417D02*
Y33583D01*
X319689Y32500D02*
X321854D01*
X317622Y34075D02*
X323921D01*
X317622Y30925D02*
X323921D01*
X317622D02*
Y34075D01*
X323921Y30925D02*
Y34075D01*
X222417Y17500D02*
X224583D01*
X223500Y16417D02*
Y18583D01*
X225075Y14350D02*
Y20650D01*
X221925Y14350D02*
Y20650D01*
X225075D01*
X221925Y14350D02*
X225075D01*
X262417Y17500D02*
X264583D01*
X263500Y16417D02*
Y18583D01*
X265075Y14350D02*
Y20650D01*
X261925Y14350D02*
Y20650D01*
X265075D01*
X261925Y14350D02*
X265075D01*
X300917Y17500D02*
X303083D01*
X302000Y16417D02*
Y18583D01*
X303575Y14350D02*
Y20650D01*
X300425Y14350D02*
Y20650D01*
X303575D01*
X300425Y14350D02*
X303575D01*
X341917Y18000D02*
X344083D01*
X343000Y16917D02*
Y19083D01*
X344575Y14850D02*
Y21150D01*
X341425Y14850D02*
Y21150D01*
X344575D01*
X341425Y14850D02*
X344575D01*
X58835Y84284D02*
X63165D01*
X58835Y75228D02*
X63165D01*
Y84284D01*
X58835Y75228D02*
Y84284D01*
X61000Y77886D02*
Y81626D01*
X59130Y79756D02*
X62870D01*
X177835Y82028D02*
X182165D01*
X177835Y72972D02*
X182165D01*
Y82028D01*
X177835Y72972D02*
Y82028D01*
X180000Y75630D02*
Y79370D01*
X178130Y77500D02*
X181870D01*
X28000Y78819D02*
Y81181D01*
X26819Y80000D02*
X29181D01*
X24850Y78425D02*
X31150D01*
X24850Y81575D02*
X31150D01*
Y78425D02*
Y81575D01*
X24850Y78425D02*
Y81575D01*
X157240Y138031D02*
Y141969D01*
X149760Y138031D02*
Y141969D01*
Y138031D02*
X157240D01*
X149760Y141969D02*
X157240D01*
X152417Y140000D02*
X154583D01*
X153500Y138917D02*
Y141083D01*
X157240Y128532D02*
Y132468D01*
X149760Y128532D02*
Y132468D01*
Y128532D02*
X157240D01*
X149760Y132468D02*
X157240D01*
X152417Y130500D02*
X154583D01*
X153500Y129417D02*
Y131583D01*
X4697Y97811D02*
Y101748D01*
X12178Y97811D02*
Y101748D01*
X4697D02*
X12178D01*
X4697Y97811D02*
X12178D01*
X7355Y99780D02*
X9520D01*
X8437Y98697D02*
Y100863D01*
X364161Y91058D02*
X367901D01*
X366031Y89188D02*
Y92928D01*
X368197Y86531D02*
Y95586D01*
X363866Y86531D02*
Y95586D01*
X368197D01*
X363866Y86531D02*
X368197D01*
X370031Y91000D02*
X373772D01*
X371902Y89130D02*
Y92870D01*
X374067Y86472D02*
Y95528D01*
X369736Y86472D02*
Y95528D01*
X374067D01*
X369736Y86472D02*
X374067D01*
X376130Y91000D02*
X379870D01*
X378000Y89130D02*
Y92870D01*
X380165Y86472D02*
Y95528D01*
X375835Y86472D02*
Y95528D01*
X380165D01*
X375835Y86472D02*
X380165D01*
X382228Y91000D02*
X385968D01*
X384098Y89130D02*
Y92870D01*
X386264Y86472D02*
Y95528D01*
X381933Y86472D02*
Y95528D01*
X386264D01*
X381933Y86472D02*
X386264D01*
X388327Y91000D02*
X392067D01*
X390197Y89130D02*
Y92870D01*
X392362Y86472D02*
Y95528D01*
X388031Y86472D02*
Y95528D01*
X392362D01*
X388031Y86472D02*
X392362D01*
X394425Y91000D02*
X398165D01*
X396295Y89130D02*
Y92870D01*
X398461Y86472D02*
Y95528D01*
X394130Y86472D02*
Y95528D01*
X398461D01*
X394130Y86472D02*
X398461D01*
X364949Y101058D02*
X367114D01*
X366031Y99976D02*
Y102141D01*
X364457Y97909D02*
Y104208D01*
X367606Y97909D02*
Y104208D01*
X364457Y97909D02*
X367606D01*
X364457Y104208D02*
X367606D01*
X370949Y101058D02*
X373114D01*
X372031Y99976D02*
Y102141D01*
X370457Y97909D02*
Y104208D01*
X373606Y97909D02*
Y104208D01*
X370457Y97909D02*
X373606D01*
X370457Y104208D02*
X373606D01*
X376949Y101058D02*
X379114D01*
X378031Y99976D02*
Y102141D01*
X376456Y97909D02*
Y104208D01*
X379606Y97909D02*
Y104208D01*
X376456Y97909D02*
X379606D01*
X376456Y104208D02*
X379606D01*
X383449Y101058D02*
X385614D01*
X384531Y99976D02*
Y102141D01*
X382957Y97909D02*
Y104208D01*
X386106Y97909D02*
Y104208D01*
X382957Y97909D02*
X386106D01*
X382957Y104208D02*
X386106D01*
X389449Y101058D02*
X391614D01*
X390531Y99976D02*
Y102141D01*
X388956Y97909D02*
Y104208D01*
X392106Y97909D02*
Y104208D01*
X388956Y97909D02*
X392106D01*
X388956Y104208D02*
X392106D01*
M02*
