G04*
G04 #@! TF.GenerationSoftware,Altium Limited,Altium Designer,21.5.1 (32)*
G04*
G04 Layer_Color=2752767*
%FSLAX25Y25*%
%MOIN*%
G70*
G04*
G04 #@! TF.SameCoordinates,804D03E9-ECC6-49F7-9CEA-4D12CAEBA4D3*
G04*
G04*
G04 #@! TF.FilePolarity,Positive*
G04*
G01*
G75*
%ADD89C,0.00200*%
%ADD90C,0.00267*%
D89*
X166700Y159700D02*
Y161300D01*
X168300D01*
Y159700D01*
X166700D01*
Y149700D02*
Y151300D01*
X168300D01*
Y149700D01*
X166700D01*
Y139700D02*
Y141300D01*
X168300D01*
Y139700D01*
X166700D01*
Y129700D02*
Y131300D01*
X168300D01*
Y129700D01*
X166700D01*
Y119700D02*
Y121300D01*
X168300D01*
Y119700D01*
X166700D01*
Y109700D02*
Y111300D01*
X168300D01*
Y109700D01*
X166700D01*
Y99700D02*
Y101300D01*
X168300D01*
Y99700D01*
X166700D01*
Y89700D02*
Y91300D01*
X168300D01*
Y89700D01*
X166700D01*
X76700Y159700D02*
Y161300D01*
X78300D01*
Y159700D01*
X76700D01*
Y149700D02*
Y151300D01*
X78300D01*
Y149700D01*
X76700D01*
Y139700D02*
Y141300D01*
X78300D01*
Y139700D01*
X76700D01*
Y129700D02*
Y131300D01*
X78300D01*
Y129700D01*
X76700D01*
Y119700D02*
Y121300D01*
X78300D01*
Y119700D01*
X76700D01*
Y109700D02*
Y111300D01*
X78300D01*
Y109700D01*
X76700D01*
Y99700D02*
Y101300D01*
X78300D01*
Y99700D01*
X76700D01*
Y89700D02*
Y91300D01*
X78300D01*
Y89700D01*
X76700D01*
X32728Y57200D02*
X31928Y58800D01*
X33528D01*
X32728Y57200D01*
X9500D02*
X9900Y57600D01*
X10300D01*
X9900Y58000D01*
X10300Y58400D01*
X9900D01*
X9500Y58800D01*
X9100Y58400D01*
X8700D01*
X9100Y58000D01*
X8700Y57600D01*
X9100D01*
X9500Y57200D01*
X21705Y38696D02*
X22105Y39096D01*
X22505D01*
X22105Y39496D01*
X22505Y39896D01*
X22105D01*
X21705Y40296D01*
X21305Y39896D01*
X20905D01*
X21305Y39496D01*
X20905Y39096D01*
X21305D01*
X21705Y38696D01*
X392200Y15700D02*
X392600Y16500D01*
X392200Y17300D01*
X393000Y16900D01*
X393800Y17300D01*
X393400Y16500D01*
X393800Y15700D01*
X393000Y16100D01*
X392200Y15700D01*
X15200Y16200D02*
X15600Y17000D01*
X15200Y17800D01*
X16000Y17400D01*
X16800Y17800D01*
X16400Y17000D01*
X16800Y16200D01*
X16000Y16600D01*
X15200Y16200D01*
X14700Y176700D02*
X15100Y177500D01*
X14700Y178300D01*
X15500Y177900D01*
X16300Y178300D01*
X15900Y177500D01*
X16300Y176700D01*
X15500Y177100D01*
X14700Y176700D01*
X392200D02*
X392600Y177500D01*
X392200Y178300D01*
X393000Y177900D01*
X393800Y178300D01*
X393400Y177500D01*
X393800Y176700D01*
X393000Y177100D01*
X392200Y176700D01*
X116600Y164600D02*
Y164200D01*
X117400D01*
Y164600D01*
X117800D01*
Y165400D01*
X117400D01*
Y165800D01*
X116600D01*
Y165400D01*
X116200D01*
Y164600D01*
X116600D01*
X117600Y28600D02*
Y28200D01*
X118400D01*
Y28600D01*
X118800D01*
Y29400D01*
X118400D01*
Y29800D01*
X117600D01*
Y29400D01*
X117200D01*
Y28600D01*
X117600D01*
Y56100D02*
Y55700D01*
X118400D01*
Y56100D01*
X118800D01*
Y56900D01*
X118400D01*
Y57300D01*
X117600D01*
Y56900D01*
X117200D01*
Y56100D01*
X117600D01*
Y83600D02*
Y83200D01*
X118400D01*
Y83600D01*
X118800D01*
Y84400D01*
X118400D01*
Y84800D01*
X117600D01*
Y84400D01*
X117200D01*
Y83600D01*
X117600D01*
Y111100D02*
Y110700D01*
X118400D01*
Y111100D01*
X118800D01*
Y111900D01*
X118400D01*
Y112300D01*
X117600D01*
Y111900D01*
X117200D01*
Y111100D01*
X117600D01*
Y138100D02*
Y137700D01*
X118400D01*
Y138100D01*
X118800D01*
Y138900D01*
X118400D01*
Y139300D01*
X117600D01*
Y138900D01*
X117200D01*
Y138100D01*
X117600D01*
X404600Y49100D02*
Y48700D01*
X405400D01*
Y49100D01*
X405800D01*
Y49900D01*
X405400D01*
Y50300D01*
X404600D01*
Y49900D01*
X404200D01*
Y49100D01*
X404600D01*
X401600Y66600D02*
Y66200D01*
X402400D01*
Y66600D01*
X402800D01*
Y67400D01*
X402400D01*
Y67800D01*
X401600D01*
Y67400D01*
X401200D01*
Y66600D01*
X401600D01*
X405600Y158100D02*
Y157700D01*
X406400D01*
Y158100D01*
X406800D01*
Y158900D01*
X406400D01*
Y159300D01*
X405600D01*
Y158900D01*
X405200D01*
Y158100D01*
X405600D01*
X370100Y188100D02*
Y187700D01*
X370900D01*
Y188100D01*
X371300D01*
Y188900D01*
X370900D01*
Y189300D01*
X370100D01*
Y188900D01*
X369700D01*
Y188100D01*
X370100D01*
X348100D02*
Y187700D01*
X348900D01*
Y188100D01*
X349300D01*
Y188900D01*
X348900D01*
Y189300D01*
X348100D01*
Y188900D01*
X347700D01*
Y188100D01*
X348100D01*
X137600D02*
Y187700D01*
X138400D01*
Y188100D01*
X138800D01*
Y188900D01*
X138400D01*
Y189300D01*
X137600D01*
Y188900D01*
X137200D01*
Y188100D01*
X137600D01*
X165100Y188600D02*
Y188200D01*
X165900D01*
Y188600D01*
X166300D01*
Y189400D01*
X165900D01*
Y189800D01*
X165100D01*
Y189400D01*
X164700D01*
Y188600D01*
X165100D01*
X32600D02*
Y188200D01*
X33400D01*
Y188600D01*
X33800D01*
Y189400D01*
X33400D01*
Y189800D01*
X32600D01*
Y189400D01*
X32200D01*
Y188600D01*
X32600D01*
X60100Y189100D02*
Y188700D01*
X60900D01*
Y189100D01*
X61300D01*
Y189900D01*
X60900D01*
Y190300D01*
X60100D01*
Y189900D01*
X59700D01*
Y189100D01*
X60100D01*
X87600D02*
Y188700D01*
X88400D01*
Y189100D01*
X88800D01*
Y189900D01*
X88400D01*
Y190300D01*
X87600D01*
Y189900D01*
X87200D01*
Y189100D01*
X87600D01*
X115100Y188600D02*
Y188200D01*
X115900D01*
Y188600D01*
X116300D01*
Y189400D01*
X115900D01*
Y189800D01*
X115100D01*
Y189400D01*
X114700D01*
Y188600D01*
X115100D01*
X144600Y4100D02*
Y3700D01*
X145400D01*
Y4100D01*
X145800D01*
Y4900D01*
X145400D01*
Y5300D01*
X144600D01*
Y4900D01*
X144200D01*
Y4100D01*
X144600D01*
X172100D02*
Y3700D01*
X172900D01*
Y4100D01*
X173300D01*
Y4900D01*
X172900D01*
Y5300D01*
X172100D01*
Y4900D01*
X171700D01*
Y4100D01*
X172100D01*
X199600D02*
Y3700D01*
X200400D01*
Y4100D01*
X200800D01*
Y4900D01*
X200400D01*
Y5300D01*
X199600D01*
Y4900D01*
X199200D01*
Y4100D01*
X199600D01*
X117600D02*
Y3700D01*
X118400D01*
Y4100D01*
X118800D01*
Y4900D01*
X118400D01*
Y5300D01*
X117600D01*
Y4900D01*
X117200D01*
Y4100D01*
X117600D01*
X90100D02*
Y3700D01*
X90900D01*
Y4100D01*
X91300D01*
Y4900D01*
X90900D01*
Y5300D01*
X90100D01*
Y4900D01*
X89700D01*
Y4100D01*
X90100D01*
X62600D02*
Y3700D01*
X63400D01*
Y4100D01*
X63800D01*
Y4900D01*
X63400D01*
Y5300D01*
X62600D01*
Y4900D01*
X62200D01*
Y4100D01*
X62600D01*
X35100D02*
Y3700D01*
X35900D01*
Y4100D01*
X36300D01*
Y4900D01*
X35900D01*
Y5300D01*
X35100D01*
Y4900D01*
X34700D01*
Y4100D01*
X35100D01*
X12872Y89600D02*
Y89200D01*
X13672D01*
Y89600D01*
X14072D01*
Y90400D01*
X13672D01*
Y90800D01*
X12872D01*
Y90400D01*
X12472D01*
Y89600D01*
X12872D01*
X224600Y59214D02*
Y58814D01*
X225400D01*
Y59214D01*
X225800D01*
Y60014D01*
X225400D01*
Y60414D01*
X224600D01*
Y60014D01*
X224200D01*
Y59214D01*
X224600D01*
X263100D02*
Y58814D01*
X263900D01*
Y59214D01*
X264300D01*
Y60014D01*
X263900D01*
Y60414D01*
X263100D01*
Y60014D01*
X262700D01*
Y59214D01*
X263100D01*
X398100Y151100D02*
Y150700D01*
X398900D01*
Y151100D01*
X399300D01*
Y151900D01*
X398900D01*
Y152300D01*
X398100D01*
Y151900D01*
X397700D01*
Y151100D01*
X398100D01*
X300600Y11600D02*
Y11200D01*
X301400D01*
Y11600D01*
X301800D01*
Y12400D01*
X301400D01*
Y12800D01*
X300600D01*
Y12400D01*
X300200D01*
Y11600D01*
X300600D01*
X263600Y12600D02*
Y12200D01*
X264400D01*
Y12600D01*
X264800D01*
Y13400D01*
X264400D01*
Y13800D01*
X263600D01*
Y13400D01*
X263200D01*
Y12600D01*
X263600D01*
X224100Y11100D02*
Y10700D01*
X224900D01*
Y11100D01*
X225300D01*
Y11900D01*
X224900D01*
Y12300D01*
X224100D01*
Y11900D01*
X223700D01*
Y11100D01*
X224100D01*
X343100Y12600D02*
Y12200D01*
X343900D01*
Y12600D01*
X344300D01*
Y13400D01*
X343900D01*
Y13800D01*
X343100D01*
Y13400D01*
X342700D01*
Y12600D01*
X343100D01*
X343600Y57600D02*
Y57200D01*
X344400D01*
Y57600D01*
X344800D01*
Y58400D01*
X344400D01*
Y58800D01*
X343600D01*
Y58400D01*
X343200D01*
Y57600D01*
X343600D01*
X302100Y58600D02*
Y58200D01*
X302900D01*
Y58600D01*
X303300D01*
Y59400D01*
X302900D01*
Y59800D01*
X302100D01*
Y59400D01*
X301700D01*
Y58600D01*
X302100D01*
X395600Y84100D02*
Y83700D01*
X396400D01*
Y84100D01*
X396800D01*
Y84900D01*
X396400D01*
Y85300D01*
X395600D01*
Y84900D01*
X395200D01*
Y84100D01*
X395600D01*
X389600D02*
Y83700D01*
X390400D01*
Y84100D01*
X390800D01*
Y84900D01*
X390400D01*
Y85300D01*
X389600D01*
Y84900D01*
X389200D01*
Y84100D01*
X389600D01*
X383600D02*
Y83700D01*
X384400D01*
Y84100D01*
X384800D01*
Y84900D01*
X384400D01*
Y85300D01*
X383600D01*
Y84900D01*
X383200D01*
Y84100D01*
X383600D01*
X377600D02*
Y83700D01*
X378400D01*
Y84100D01*
X378800D01*
Y84900D01*
X378400D01*
Y85300D01*
X377600D01*
Y84900D01*
X377200D01*
Y84100D01*
X377600D01*
X371600Y84600D02*
Y84200D01*
X372400D01*
Y84600D01*
X372800D01*
Y85400D01*
X372400D01*
Y85800D01*
X371600D01*
Y85400D01*
X371200D01*
Y84600D01*
X371600D01*
X365600D02*
Y84200D01*
X366400D01*
Y84600D01*
X366800D01*
Y85400D01*
X366400D01*
Y85800D01*
X365600D01*
Y85400D01*
X365200D01*
Y84600D01*
X365600D01*
X221600Y103100D02*
Y102700D01*
X222400D01*
Y103100D01*
X222800D01*
Y103900D01*
X222400D01*
Y104300D01*
X221600D01*
Y103900D01*
X221200D01*
Y103100D01*
X221600D01*
X264600Y105100D02*
Y104700D01*
X265400D01*
Y105100D01*
X265800D01*
Y105900D01*
X265400D01*
Y106300D01*
X264600D01*
Y105900D01*
X264200D01*
Y105100D01*
X264600D01*
X303100Y105714D02*
Y105314D01*
X303900D01*
Y105714D01*
X304300D01*
Y106514D01*
X303900D01*
Y106914D01*
X303100D01*
Y106514D01*
X302700D01*
Y105714D01*
X303100D01*
X346600Y107100D02*
Y106700D01*
X347400D01*
Y107100D01*
X347800D01*
Y107900D01*
X347400D01*
Y108300D01*
X346600D01*
Y107900D01*
X346200D01*
Y107100D01*
X346600D01*
X226100Y113986D02*
Y113586D01*
X226900D01*
Y113986D01*
X227300D01*
Y114786D01*
X226900D01*
Y115186D01*
X226100D01*
Y114786D01*
X225700D01*
Y113986D01*
X226100D01*
X268100D02*
Y113586D01*
X268900D01*
Y113986D01*
X269300D01*
Y114786D01*
X268900D01*
Y115186D01*
X268100D01*
Y114786D01*
X267700D01*
Y113986D01*
X268100D01*
X307100Y113600D02*
Y113200D01*
X307900D01*
Y113600D01*
X308300D01*
Y114400D01*
X307900D01*
Y114800D01*
X307100D01*
Y114400D01*
X306700D01*
Y113600D01*
X307100D01*
X265100Y151714D02*
Y151314D01*
X265900D01*
Y151714D01*
X266300D01*
Y152514D01*
X265900D01*
Y152914D01*
X265100D01*
Y152514D01*
X264700D01*
Y151714D01*
X265100D01*
X226100Y151600D02*
Y151200D01*
X226900D01*
Y151600D01*
X227300D01*
Y152400D01*
X226900D01*
Y152800D01*
X226100D01*
Y152400D01*
X225700D01*
Y151600D01*
X226100D01*
X41100Y103600D02*
Y103200D01*
X41900D01*
Y103600D01*
X42300D01*
Y104400D01*
X41900D01*
Y104800D01*
X41100D01*
Y104400D01*
X40700D01*
Y103600D01*
X41100D01*
X37100D02*
Y103200D01*
X37900D01*
Y103600D01*
X38300D01*
Y104400D01*
X37900D01*
Y104800D01*
X37100D01*
Y104400D01*
X36700D01*
Y103600D01*
X37100D01*
X45100D02*
Y103200D01*
X45900D01*
Y103600D01*
X46300D01*
Y104400D01*
X45900D01*
Y104800D01*
X45100D01*
Y104400D01*
X44700D01*
Y103600D01*
X45100D01*
X264824Y160486D02*
Y160086D01*
X265624D01*
Y160486D01*
X266024D01*
Y161286D01*
X265624D01*
Y161686D01*
X264824D01*
Y161286D01*
X264424D01*
Y160486D01*
X264824D01*
X285600Y156600D02*
Y156200D01*
X286400D01*
Y156600D01*
X286800D01*
Y157400D01*
X286400D01*
Y157800D01*
X285600D01*
Y157400D01*
X285200D01*
Y156600D01*
X285600D01*
X304100Y152100D02*
Y151700D01*
X304900D01*
Y152100D01*
X305300D01*
Y152900D01*
X304900D01*
Y153300D01*
X304100D01*
Y152900D01*
X303700D01*
Y152100D01*
X304100D01*
X306876Y160486D02*
Y160086D01*
X307676D01*
Y160486D01*
X308076D01*
Y161286D01*
X307676D01*
Y161686D01*
X306876D01*
Y161286D01*
X306476D01*
Y160486D01*
X306876D01*
X244600Y16100D02*
Y15700D01*
X245400D01*
Y16100D01*
X245800D01*
Y16900D01*
X245400D01*
Y17300D01*
X244600D01*
Y16900D01*
X244200D01*
Y16100D01*
X244600D01*
X286100Y16600D02*
Y16200D01*
X286900D01*
Y16600D01*
X287300D01*
Y17400D01*
X286900D01*
Y17800D01*
X286100D01*
Y17400D01*
X285700D01*
Y16600D01*
X286100D01*
X373128D02*
Y16200D01*
X373928D01*
Y16600D01*
X374328D01*
Y17400D01*
X373928D01*
Y17800D01*
X373128D01*
Y17400D01*
X372728D01*
Y16600D01*
X373128D01*
X325100Y16100D02*
Y15700D01*
X325900D01*
Y16100D01*
X326300D01*
Y16900D01*
X325900D01*
Y17300D01*
X325100D01*
Y16900D01*
X324700D01*
Y16100D01*
X325100D01*
X206600Y16600D02*
Y16200D01*
X207400D01*
Y16600D01*
X207800D01*
Y17400D01*
X207400D01*
Y17800D01*
X206600D01*
Y17400D01*
X206200D01*
Y16600D01*
X206600D01*
Y64100D02*
Y63700D01*
X207400D01*
Y64100D01*
X207800D01*
Y64900D01*
X207400D01*
Y65300D01*
X206600D01*
Y64900D01*
X206200D01*
Y64100D01*
X206600D01*
X245100Y63100D02*
Y62700D01*
X245900D01*
Y63100D01*
X246300D01*
Y63900D01*
X245900D01*
Y64300D01*
X245100D01*
Y63900D01*
X244700D01*
Y63100D01*
X245100D01*
X285100Y62100D02*
Y61700D01*
X285900D01*
Y62100D01*
X286300D01*
Y62900D01*
X285900D01*
Y63300D01*
X285100D01*
Y62900D01*
X284700D01*
Y62100D01*
X285100D01*
X325100D02*
Y61700D01*
X325900D01*
Y62100D01*
X326300D01*
Y62900D01*
X325900D01*
Y63300D01*
X325100D01*
Y62900D01*
X324700D01*
Y62100D01*
X325100D01*
X325600Y109600D02*
Y109200D01*
X326400D01*
Y109600D01*
X326800D01*
Y110400D01*
X326400D01*
Y110800D01*
X325600D01*
Y110400D01*
X325200D01*
Y109600D01*
X325600D01*
X285600Y110600D02*
Y110200D01*
X286400D01*
Y110600D01*
X286800D01*
Y111400D01*
X286400D01*
Y111800D01*
X285600D01*
Y111400D01*
X285200D01*
Y110600D01*
X285600D01*
X360600Y119328D02*
Y118928D01*
X361400D01*
Y119328D01*
X361800D01*
Y120128D01*
X361400D01*
Y120528D01*
X360600D01*
Y120128D01*
X360200D01*
Y119328D01*
X360600D01*
Y121600D02*
Y121200D01*
X361400D01*
Y121600D01*
X361800D01*
Y122400D01*
X361400D01*
Y122800D01*
X360600D01*
Y122400D01*
X360200D01*
Y121600D01*
X360600D01*
Y124100D02*
Y123700D01*
X361400D01*
Y124100D01*
X361800D01*
Y124900D01*
X361400D01*
Y125300D01*
X360600D01*
Y124900D01*
X360200D01*
Y124100D01*
X360600D01*
X244600Y110100D02*
Y109700D01*
X245400D01*
Y110100D01*
X245800D01*
Y110900D01*
X245400D01*
Y111300D01*
X244600D01*
Y110900D01*
X244200D01*
Y110100D01*
X244600D01*
X206100Y108600D02*
Y108200D01*
X206900D01*
Y108600D01*
X207300D01*
Y109400D01*
X206900D01*
Y109800D01*
X206100D01*
Y109400D01*
X205700D01*
Y108600D01*
X206100D01*
X315600Y187600D02*
Y187200D01*
X316400D01*
Y187600D01*
X316800D01*
Y188400D01*
X316400D01*
Y188800D01*
X315600D01*
Y188400D01*
X315200D01*
Y187600D01*
X315600D01*
X275100Y188100D02*
Y187700D01*
X275900D01*
Y188100D01*
X276300D01*
Y188900D01*
X275900D01*
Y189300D01*
X275100D01*
Y188900D01*
X274700D01*
Y188100D01*
X275100D01*
X235100D02*
Y187700D01*
X235900D01*
Y188100D01*
X236300D01*
Y188900D01*
X235900D01*
Y189300D01*
X235100D01*
Y188900D01*
X234700D01*
Y188100D01*
X235100D01*
X196600D02*
Y187700D01*
X197400D01*
Y188100D01*
X197800D01*
Y188900D01*
X197400D01*
Y189300D01*
X196600D01*
Y188900D01*
X196200D01*
Y188100D01*
X196600D01*
Y143600D02*
Y143200D01*
X197400D01*
Y143600D01*
X197800D01*
Y144400D01*
X197400D01*
Y144800D01*
X196600D01*
Y144400D01*
X196200D01*
Y143600D01*
X196600D01*
X61100Y95600D02*
Y95200D01*
X61900D01*
Y95600D01*
X62300D01*
Y96400D01*
X61900D01*
Y96800D01*
X61100D01*
Y96400D01*
X60700D01*
Y95600D01*
X61100D01*
Y99100D02*
Y98700D01*
X61900D01*
Y99100D01*
X62300D01*
Y99900D01*
X61900D01*
Y100300D01*
X61100D01*
Y99900D01*
X60700D01*
Y99100D01*
X61100D01*
Y103100D02*
Y102700D01*
X61900D01*
Y103100D01*
X62300D01*
Y103900D01*
X61900D01*
Y104300D01*
X61100D01*
Y103900D01*
X60700D01*
Y103100D01*
X61100D01*
Y106100D02*
Y105700D01*
X61900D01*
Y106100D01*
X62300D01*
Y106900D01*
X61900D01*
Y107300D01*
X61100D01*
Y106900D01*
X60700D01*
Y106100D01*
X61100D01*
X38100Y150100D02*
Y149700D01*
X38900D01*
Y150100D01*
X39300D01*
Y150900D01*
X38900D01*
Y151300D01*
X38100D01*
Y150900D01*
X37700D01*
Y150100D01*
X38100D01*
X29600D02*
Y149700D01*
X30400D01*
Y150100D01*
X30800D01*
Y150900D01*
X30400D01*
Y151300D01*
X29600D01*
Y150900D01*
X29200D01*
Y150100D01*
X29600D01*
X20600Y149600D02*
Y149200D01*
X21400D01*
Y149600D01*
X21800D01*
Y150400D01*
X21400D01*
Y150800D01*
X20600D01*
Y150400D01*
X20200D01*
Y149600D01*
X20600D01*
X9600Y119100D02*
Y118700D01*
X10400D01*
Y119100D01*
X10800D01*
Y119900D01*
X10400D01*
Y120300D01*
X9600D01*
Y119900D01*
X9200D01*
Y119100D01*
X9600D01*
X14600Y118600D02*
Y118200D01*
X15400D01*
Y118600D01*
X15800D01*
Y119400D01*
X15400D01*
Y119800D01*
X14600D01*
Y119400D01*
X14200D01*
Y118600D01*
X14600D01*
X15100Y116100D02*
Y115700D01*
X15900D01*
Y116100D01*
X16300D01*
Y116900D01*
X15900D01*
Y117300D01*
X15100D01*
Y116900D01*
X14700D01*
Y116100D01*
X15100D01*
X20100Y111600D02*
Y111200D01*
X20900D01*
Y111600D01*
X21300D01*
Y112400D01*
X20900D01*
Y112800D01*
X20100D01*
Y112400D01*
X19700D01*
Y111600D01*
X20100D01*
X20600Y103600D02*
Y103200D01*
X21400D01*
Y103600D01*
X21800D01*
Y104400D01*
X21400D01*
Y104800D01*
X20600D01*
Y104400D01*
X20200D01*
Y103600D01*
X20600D01*
X4100Y96100D02*
Y95700D01*
X4900D01*
Y96100D01*
X5300D01*
Y96900D01*
X4900D01*
Y97300D01*
X4100D01*
Y96900D01*
X3700D01*
Y96100D01*
X4100D01*
X6100Y102100D02*
Y101700D01*
X6900D01*
Y102100D01*
X7300D01*
Y102900D01*
X6900D01*
Y103300D01*
X6100D01*
Y102900D01*
X5700D01*
Y102100D01*
X6100D01*
X38600Y138600D02*
Y138200D01*
X39400D01*
Y138600D01*
X39800D01*
Y139400D01*
X39400D01*
Y139800D01*
X38600D01*
Y139400D01*
X38200D01*
Y138600D01*
X38600D01*
X33600D02*
Y138200D01*
X34400D01*
Y138600D01*
X34800D01*
Y139400D01*
X34400D01*
Y139800D01*
X33600D01*
Y139400D01*
X33200D01*
Y138600D01*
X33600D01*
X28600D02*
Y138200D01*
X29400D01*
Y138600D01*
X29800D01*
Y139400D01*
X29400D01*
Y139800D01*
X28600D01*
Y139400D01*
X28200D01*
Y138600D01*
X28600D01*
X23600D02*
Y138200D01*
X24400D01*
Y138600D01*
X24800D01*
Y139400D01*
X24400D01*
Y139800D01*
X23600D01*
Y139400D01*
X23200D01*
Y138600D01*
X23600D01*
X18600D02*
Y138200D01*
X19400D01*
Y138600D01*
X19800D01*
Y139400D01*
X19400D01*
Y139800D01*
X18600D01*
Y139400D01*
X18200D01*
Y138600D01*
X18600D01*
X24600Y76600D02*
Y76200D01*
X25400D01*
Y76600D01*
X25800D01*
Y77400D01*
X25400D01*
Y77800D01*
X24600D01*
Y77400D01*
X24200D01*
Y76600D01*
X24600D01*
X92600Y150600D02*
Y150200D01*
X93400D01*
Y150600D01*
X93800D01*
Y151400D01*
X93400D01*
Y151800D01*
X92600D01*
Y151400D01*
X92200D01*
Y150600D01*
X92600D01*
X145600Y130600D02*
Y130200D01*
X146400D01*
Y130600D01*
X146800D01*
Y131400D01*
X146400D01*
Y131800D01*
X145600D01*
Y131400D01*
X145200D01*
Y130600D01*
X145600D01*
X146100Y139100D02*
Y138700D01*
X146900D01*
Y139100D01*
X147300D01*
Y139900D01*
X146900D01*
Y140300D01*
X146100D01*
Y139900D01*
X145700D01*
Y139100D01*
X146100D01*
X285100Y162600D02*
Y162200D01*
X285900D01*
Y162600D01*
X286300D01*
Y163400D01*
X285900D01*
Y163800D01*
X285100D01*
Y163400D01*
X284700D01*
Y162600D01*
X285100D01*
X301600Y171600D02*
Y171200D01*
X302400D01*
Y171600D01*
X302800D01*
Y172400D01*
X302400D01*
Y172800D01*
X301600D01*
Y172400D01*
X301200D01*
Y171600D01*
X301600D01*
X259600Y169100D02*
Y168700D01*
X260400D01*
Y169100D01*
X260800D01*
Y169900D01*
X260400D01*
Y170300D01*
X259600D01*
Y169900D01*
X259200D01*
Y169100D01*
X259600D01*
X245100Y163600D02*
Y163200D01*
X245900D01*
Y163600D01*
X246300D01*
Y164400D01*
X245900D01*
Y164800D01*
X245100D01*
Y164400D01*
X244700D01*
Y163600D01*
X245100D01*
Y155600D02*
Y155200D01*
X245900D01*
Y155600D01*
X246300D01*
Y156400D01*
X245900D01*
Y156800D01*
X245100D01*
Y156400D01*
X244700D01*
Y155600D01*
X245100D01*
X223600Y172600D02*
Y172200D01*
X224400D01*
Y172600D01*
X224800D01*
Y173400D01*
X224400D01*
Y173800D01*
X223600D01*
Y173400D01*
X223200D01*
Y172600D01*
X223600D01*
X206100Y164100D02*
Y163700D01*
X206900D01*
Y164100D01*
X207300D01*
Y164900D01*
X206900D01*
Y165300D01*
X206100D01*
Y164900D01*
X205700D01*
Y164100D01*
X206100D01*
X208100Y156600D02*
Y156200D01*
X208900D01*
Y156600D01*
X209300D01*
Y157400D01*
X208900D01*
Y157800D01*
X208100D01*
Y157400D01*
X207700D01*
Y156600D01*
X208100D01*
X342600Y171600D02*
Y171200D01*
X343400D01*
Y171600D01*
X343800D01*
Y172400D01*
X343400D01*
Y172800D01*
X342600D01*
Y172400D01*
X342200D01*
Y171600D01*
X342600D01*
X343100Y152600D02*
Y152200D01*
X343900D01*
Y152600D01*
X344300D01*
Y153400D01*
X343900D01*
Y153800D01*
X343100D01*
Y153400D01*
X342700D01*
Y152600D01*
X343100D01*
X325100Y163600D02*
Y163200D01*
X325900D01*
Y163600D01*
X326300D01*
Y164400D01*
X325900D01*
Y164800D01*
X325100D01*
Y164400D01*
X324700D01*
Y163600D01*
X325100D01*
X325600Y156100D02*
Y155700D01*
X326400D01*
Y156100D01*
X326800D01*
Y156900D01*
X326400D01*
Y157300D01*
X325600D01*
Y156900D01*
X325200D01*
Y156100D01*
X325600D01*
X400100Y104100D02*
Y103700D01*
X400900D01*
Y104100D01*
X401300D01*
Y104900D01*
X400900D01*
Y105300D01*
X400100D01*
Y104900D01*
X399700D01*
Y104100D01*
X400100D01*
X390100Y104600D02*
Y104200D01*
X390900D01*
Y104600D01*
X391300D01*
Y105400D01*
X390900D01*
Y105800D01*
X390100D01*
Y105400D01*
X389700D01*
Y104600D01*
X390100D01*
X383600Y105100D02*
Y104700D01*
X384400D01*
Y105100D01*
X384800D01*
Y105900D01*
X384400D01*
Y106300D01*
X383600D01*
Y105900D01*
X383200D01*
Y105100D01*
X383600D01*
X377100D02*
Y104700D01*
X377900D01*
Y105100D01*
X378300D01*
Y105900D01*
X377900D01*
Y106300D01*
X377100D01*
Y105900D01*
X376700D01*
Y105100D01*
X377100D01*
X371600D02*
Y104700D01*
X372400D01*
Y105100D01*
X372800D01*
Y105900D01*
X372400D01*
Y106300D01*
X371600D01*
Y105900D01*
X371200D01*
Y105100D01*
X371600D01*
X365600Y104600D02*
Y104200D01*
X366400D01*
Y104600D01*
X366800D01*
Y105400D01*
X366400D01*
Y105800D01*
X365600D01*
Y105400D01*
X365200D01*
Y104600D01*
X365600D01*
X366100Y2600D02*
Y2200D01*
X366900D01*
Y2600D01*
X367300D01*
Y3400D01*
X366900D01*
Y3800D01*
X366100D01*
Y3400D01*
X365700D01*
Y2600D01*
X366100D01*
X368600Y7100D02*
Y6700D01*
X369400D01*
Y7100D01*
X369800D01*
Y7900D01*
X369400D01*
Y8300D01*
X368600D01*
Y7900D01*
X368200D01*
Y7100D01*
X368600D01*
X370100Y11600D02*
Y11200D01*
X370900D01*
Y11600D01*
X371300D01*
Y12400D01*
X370900D01*
Y12800D01*
X370100D01*
Y12400D01*
X369700D01*
Y11600D01*
X370100D01*
X369100Y49600D02*
Y49200D01*
X369900D01*
Y49600D01*
X370300D01*
Y50400D01*
X369900D01*
Y50800D01*
X369100D01*
Y50400D01*
X368700D01*
Y49600D01*
X369100D01*
X363600Y51600D02*
Y51200D01*
X364400D01*
Y51600D01*
X364800D01*
Y52400D01*
X364400D01*
Y52800D01*
X363600D01*
Y52400D01*
X363200D01*
Y51600D01*
X363600D01*
X358600Y53100D02*
Y52700D01*
X359400D01*
Y53100D01*
X359800D01*
Y53900D01*
X359400D01*
Y54300D01*
X358600D01*
Y53900D01*
X358200D01*
Y53100D01*
X358600D01*
X352600Y55600D02*
Y55200D01*
X353400D01*
Y55600D01*
X353800D01*
Y56400D01*
X353400D01*
Y56800D01*
X352600D01*
Y56400D01*
X352200D01*
Y55600D01*
X352600D01*
X395714Y144872D02*
Y144472D01*
X396514D01*
Y144872D01*
X396914D01*
Y145672D01*
X396514D01*
Y146072D01*
X395714D01*
Y145672D01*
X395314D01*
Y144872D01*
X395714D01*
Y142600D02*
Y142200D01*
X396514D01*
Y142600D01*
X396914D01*
Y143400D01*
X396514D01*
Y143800D01*
X395714D01*
Y143400D01*
X395314D01*
Y142600D01*
X395714D01*
X390131Y96474D02*
Y96074D01*
X390931D01*
Y96474D01*
X391331D01*
Y97274D01*
X390931D01*
Y97674D01*
X390131D01*
Y97274D01*
X389731D01*
Y96474D01*
X390131D01*
X403100Y140100D02*
Y139700D01*
X403900D01*
Y140100D01*
X404300D01*
Y140900D01*
X403900D01*
Y141300D01*
X403100D01*
Y140900D01*
X402700D01*
Y140100D01*
X403100D01*
X397600Y137600D02*
Y137200D01*
X398400D01*
Y137600D01*
X398800D01*
Y138400D01*
X398400D01*
Y138800D01*
X397600D01*
Y138400D01*
X397200D01*
Y137600D01*
X397600D01*
Y132100D02*
Y131700D01*
X398400D01*
Y132100D01*
X398800D01*
Y132900D01*
X398400D01*
Y133300D01*
X397600D01*
Y132900D01*
X397200D01*
Y132100D01*
X397600D01*
Y129600D02*
Y129200D01*
X398400D01*
Y129600D01*
X398800D01*
Y130400D01*
X398400D01*
Y130800D01*
X397600D01*
Y130400D01*
X397200D01*
Y129600D01*
X397600D01*
Y126600D02*
Y126200D01*
X398400D01*
Y126600D01*
X398800D01*
Y127400D01*
X398400D01*
Y127800D01*
X397600D01*
Y127400D01*
X397200D01*
Y126600D01*
X397600D01*
Y124100D02*
Y123700D01*
X398400D01*
Y124100D01*
X398800D01*
Y124900D01*
X398400D01*
Y125300D01*
X397600D01*
Y124900D01*
X397200D01*
Y124100D01*
X397600D01*
Y121600D02*
Y121200D01*
X398400D01*
Y121600D01*
X398800D01*
Y122400D01*
X398400D01*
Y122800D01*
X397600D01*
Y122400D01*
X397200D01*
Y121600D01*
X397600D01*
Y118872D02*
Y118472D01*
X398400D01*
Y118872D01*
X398800D01*
Y119672D01*
X398400D01*
Y120072D01*
X397600D01*
Y119672D01*
X397200D01*
Y118872D01*
X397600D01*
Y116600D02*
Y116200D01*
X398400D01*
Y116600D01*
X398800D01*
Y117400D01*
X398400D01*
Y117800D01*
X397600D01*
Y117400D01*
X397200D01*
Y116600D01*
X397600D01*
Y114100D02*
Y113700D01*
X398400D01*
Y114100D01*
X398800D01*
Y114900D01*
X398400D01*
Y115300D01*
X397600D01*
Y114900D01*
X397200D01*
Y114100D01*
X397600D01*
X371631Y96372D02*
Y95972D01*
X372431D01*
Y96372D01*
X372831D01*
Y97172D01*
X372431D01*
Y97572D01*
X371631D01*
Y97172D01*
X371231D01*
Y96372D01*
X371631D01*
X377631Y96322D02*
Y95922D01*
X378431D01*
Y96322D01*
X378831D01*
Y97122D01*
X378431D01*
Y97522D01*
X377631D01*
Y97122D01*
X377231D01*
Y96322D01*
X377631D01*
X384131Y96523D02*
Y96123D01*
X384931D01*
Y96523D01*
X385331D01*
Y97323D01*
X384931D01*
Y97723D01*
X384131D01*
Y97323D01*
X383731D01*
Y96523D01*
X384131D01*
X396131Y96425D02*
Y96025D01*
X396931D01*
Y96425D01*
X397331D01*
Y97225D01*
X396931D01*
Y97625D01*
X396131D01*
Y97225D01*
X395731D01*
Y96425D01*
X396131D01*
X227100Y160600D02*
Y160200D01*
X227900D01*
Y160600D01*
X228300D01*
Y161400D01*
X227900D01*
Y161800D01*
X227100D01*
Y161400D01*
X226700D01*
Y160600D01*
X227100D01*
X362600Y113100D02*
Y112700D01*
X363400D01*
Y113100D01*
X363800D01*
Y113900D01*
X363400D01*
Y114300D01*
X362600D01*
Y113900D01*
X362200D01*
Y113100D01*
X362600D01*
X361100Y129600D02*
Y129200D01*
X361900D01*
Y129600D01*
X362300D01*
Y130400D01*
X361900D01*
Y130800D01*
X361100D01*
Y130400D01*
X360700D01*
Y129600D01*
X361100D01*
Y132100D02*
Y131700D01*
X361900D01*
Y132100D01*
X362300D01*
Y132900D01*
X361900D01*
Y133300D01*
X361100D01*
Y132900D01*
X360700D01*
Y132100D01*
X361100D01*
Y134600D02*
Y134200D01*
X361900D01*
Y134600D01*
X362300D01*
Y135400D01*
X361900D01*
Y135800D01*
X361100D01*
Y135400D01*
X360700D01*
Y134600D01*
X361100D01*
Y137100D02*
Y136700D01*
X361900D01*
Y137100D01*
X362300D01*
Y137900D01*
X361900D01*
Y138300D01*
X361100D01*
Y137900D01*
X360700D01*
Y137100D01*
X361100D01*
Y139600D02*
Y139200D01*
X361900D01*
Y139600D01*
X362300D01*
Y140400D01*
X361900D01*
Y140800D01*
X361100D01*
Y140400D01*
X360700D01*
Y139600D01*
X361100D01*
Y142100D02*
Y141700D01*
X361900D01*
Y142100D01*
X362300D01*
Y142900D01*
X361900D01*
Y143300D01*
X361100D01*
Y142900D01*
X360700D01*
Y142100D01*
X361100D01*
Y144600D02*
Y144200D01*
X361900D01*
Y144600D01*
X362300D01*
Y145400D01*
X361900D01*
Y145800D01*
X361100D01*
Y145400D01*
X360700D01*
Y144600D01*
X361100D01*
Y147600D02*
Y147200D01*
X361900D01*
Y147600D01*
X362300D01*
Y148400D01*
X361900D01*
Y148800D01*
X361100D01*
Y148400D01*
X360700D01*
Y147600D01*
X361100D01*
D90*
X336477Y42000D02*
G03*
X336477Y42000I-800J0D01*
G01*
X326477D02*
G03*
X326477Y42000I-800J0D01*
G01*
X217977Y183000D02*
G03*
X217977Y183000I-800J0D01*
G01*
X207977D02*
G03*
X207977Y183000I-800J0D01*
G01*
X255977D02*
G03*
X255977Y183000I-800J0D01*
G01*
X245977D02*
G03*
X245977Y183000I-800J0D01*
G01*
X296477Y182500D02*
G03*
X296477Y182500I-800J0D01*
G01*
X286477D02*
G03*
X286477Y182500I-800J0D01*
G01*
X336477D02*
G03*
X336477Y182500I-800J0D01*
G01*
X326477D02*
G03*
X326477Y182500I-800J0D01*
G01*
X217977Y138706D02*
G03*
X217977Y138706I-800J0D01*
G01*
X207977D02*
G03*
X207977Y138706I-800J0D01*
G01*
X255977D02*
G03*
X255977Y138706I-800J0D01*
G01*
X245977D02*
G03*
X245977Y138706I-800J0D01*
G01*
X296477Y138206D02*
G03*
X296477Y138206I-800J0D01*
G01*
X286477D02*
G03*
X286477Y138206I-800J0D01*
G01*
X336477D02*
G03*
X336477Y138206I-800J0D01*
G01*
X326477D02*
G03*
X326477Y138206I-800J0D01*
G01*
X217977Y89205D02*
G03*
X217977Y89205I-800J0D01*
G01*
X207977D02*
G03*
X207977Y89205I-800J0D01*
G01*
X255977D02*
G03*
X255977Y89205I-800J0D01*
G01*
X245977D02*
G03*
X245977Y89205I-800J0D01*
G01*
X296477Y88500D02*
G03*
X296477Y88500I-800J0D01*
G01*
X286477D02*
G03*
X286477Y88500I-800J0D01*
G01*
X336477Y88000D02*
G03*
X336477Y88000I-800J0D01*
G01*
X326477D02*
G03*
X326477Y88000I-800J0D01*
G01*
X217977Y42500D02*
G03*
X217977Y42500I-800J0D01*
G01*
X207977D02*
G03*
X207977Y42500I-800J0D01*
G01*
X255977Y42000D02*
G03*
X255977Y42000I-800J0D01*
G01*
X245977D02*
G03*
X245977Y42000I-800J0D01*
G01*
X296477D02*
G03*
X296477Y42000I-800J0D01*
G01*
X286477D02*
G03*
X286477Y42000I-800J0D01*
G01*
M02*
