G04*
G04 #@! TF.GenerationSoftware,Altium Limited,Altium Designer,21.5.1 (32)*
G04*
G04 Layer_Color=16711935*
%FSLAX25Y25*%
%MOIN*%
G70*
G04*
G04 #@! TF.SameCoordinates,804D03E9-ECC6-49F7-9CEA-4D12CAEBA4D3*
G04*
G04*
G04 #@! TF.FilePolarity,Positive*
G04*
G01*
G75*
%ADD10C,0.00984*%
%ADD18C,0.01000*%
%ADD19C,0.01200*%
D10*
X5398Y424473D02*
X319098D01*
X5298Y439324D02*
X319598Y439184D01*
X4911Y231724D02*
X319598D01*
X4911D02*
X5298Y439324D01*
X319598Y231724D02*
Y439184D01*
X5498Y412124D02*
X319498D01*
D18*
X327449Y42000D02*
G03*
X327449Y42000I-1772J0D01*
G01*
X337521D02*
G03*
X337521Y42000I-1844J0D01*
G01*
X208949Y183000D02*
G03*
X208949Y183000I-1772J0D01*
G01*
X219021D02*
G03*
X219021Y183000I-1844J0D01*
G01*
X246949D02*
G03*
X246949Y183000I-1772J0D01*
G01*
X257021D02*
G03*
X257021Y183000I-1844J0D01*
G01*
X287449Y182500D02*
G03*
X287449Y182500I-1772J0D01*
G01*
X297521D02*
G03*
X297521Y182500I-1844J0D01*
G01*
X327449D02*
G03*
X327449Y182500I-1772J0D01*
G01*
X337521D02*
G03*
X337521Y182500I-1844J0D01*
G01*
X208949Y138706D02*
G03*
X208949Y138706I-1772J0D01*
G01*
X219021D02*
G03*
X219021Y138706I-1844J0D01*
G01*
X246949D02*
G03*
X246949Y138706I-1772J0D01*
G01*
X257021D02*
G03*
X257021Y138706I-1844J0D01*
G01*
X287449Y138206D02*
G03*
X287449Y138206I-1772J0D01*
G01*
X297521D02*
G03*
X297521Y138206I-1844J0D01*
G01*
X327449D02*
G03*
X327449Y138206I-1772J0D01*
G01*
X337521D02*
G03*
X337521Y138206I-1844J0D01*
G01*
X208949Y89205D02*
G03*
X208949Y89205I-1772J0D01*
G01*
X219021D02*
G03*
X219021Y89205I-1844J0D01*
G01*
X246949D02*
G03*
X246949Y89205I-1772J0D01*
G01*
X257021D02*
G03*
X257021Y89205I-1844J0D01*
G01*
X287449Y88500D02*
G03*
X287449Y88500I-1772J0D01*
G01*
X297521D02*
G03*
X297521Y88500I-1844J0D01*
G01*
X327449Y88000D02*
G03*
X327449Y88000I-1772J0D01*
G01*
X337521D02*
G03*
X337521Y88000I-1844J0D01*
G01*
X208949Y42500D02*
G03*
X208949Y42500I-1772J0D01*
G01*
X219021D02*
G03*
X219021Y42500I-1844J0D01*
G01*
X246949Y42000D02*
G03*
X246949Y42000I-1772J0D01*
G01*
X257021D02*
G03*
X257021Y42000I-1844J0D01*
G01*
X287449D02*
G03*
X287449Y42000I-1772J0D01*
G01*
X297521D02*
G03*
X297521Y42000I-1844J0D01*
G01*
X11298Y345424D02*
Y351422D01*
X15296Y345424D01*
Y351422D01*
X18295Y345424D02*
X20295D01*
X21294Y346424D01*
Y348423D01*
X20295Y349423D01*
X18295D01*
X17296Y348423D01*
Y346424D01*
X18295Y345424D01*
X33290Y349423D02*
X30292D01*
X29292Y348423D01*
Y346424D01*
X30292Y345424D01*
X33290D01*
X36290D02*
X38289D01*
X39288Y346424D01*
Y348423D01*
X38289Y349423D01*
X36290D01*
X35290Y348423D01*
Y346424D01*
X36290Y345424D01*
X41288Y343425D02*
Y349423D01*
X44287D01*
X45287Y348423D01*
Y346424D01*
X44287Y345424D01*
X41288D01*
X47286Y343425D02*
Y349423D01*
X50285D01*
X51285Y348423D01*
Y346424D01*
X50285Y345424D01*
X47286D01*
X56283D02*
X54284D01*
X53284Y346424D01*
Y348423D01*
X54284Y349423D01*
X56283D01*
X57283Y348423D01*
Y347424D01*
X53284D01*
X59282Y349423D02*
Y345424D01*
Y347424D01*
X60282Y348423D01*
X61281Y349423D01*
X62281D01*
X72278Y345424D02*
Y350423D01*
Y348423D01*
X71278D01*
X73277D01*
X72278D01*
Y350423D01*
X73277Y351422D01*
X76277Y345424D02*
X78276D01*
X77276D01*
Y349423D01*
X76277D01*
X81275Y345424D02*
X83274D01*
X82275D01*
Y351422D01*
X81275D01*
X86273Y345424D02*
X88273D01*
X87273D01*
Y351422D01*
X86273D01*
X12408Y414853D02*
Y420851D01*
X15407D01*
X16407Y419851D01*
Y417852D01*
X15407Y416852D01*
X12408D01*
X14407D02*
X16407Y414853D01*
X21405D02*
X19406D01*
X18406Y415852D01*
Y417852D01*
X19406Y418851D01*
X21405D01*
X22405Y417852D01*
Y416852D01*
X18406D01*
X25404Y414853D02*
Y419851D01*
Y417852D01*
X24404D01*
X26403D01*
X25404D01*
Y419851D01*
X26403Y420851D01*
X39399Y419851D02*
X38399Y420851D01*
X36400D01*
X35400Y419851D01*
Y418851D01*
X36400Y417852D01*
X38399D01*
X39399Y416852D01*
Y415852D01*
X38399Y414853D01*
X36400D01*
X35400Y415852D01*
X45397Y418851D02*
X42398D01*
X41399Y417852D01*
Y415852D01*
X42398Y414853D01*
X45397D01*
X47396Y420851D02*
Y414853D01*
Y417852D01*
X48396Y418851D01*
X50396D01*
X51395Y417852D01*
Y414853D01*
X53395Y418851D02*
X54394D01*
Y417852D01*
X53395D01*
Y418851D01*
Y415852D02*
X54394D01*
Y414853D01*
X53395D01*
Y415852D01*
X64391Y418851D02*
X68390Y414853D01*
X66390Y416852D01*
X68390Y418851D01*
X64391Y414853D01*
X70389Y418851D02*
X74388Y414853D01*
X72388Y416852D01*
X74388Y418851D01*
X70389Y414853D01*
X76387Y418851D02*
X80386Y414853D01*
X78386Y416852D01*
X80386Y418851D01*
X76387Y414853D01*
X82385Y418851D02*
X86384Y414853D01*
X84385Y416852D01*
X86384Y418851D01*
X82385Y414853D01*
X88383Y413853D02*
X92382D01*
X94381Y414853D02*
Y420851D01*
X97380D01*
X98380Y419851D01*
Y417852D01*
X97380Y416852D01*
X94381D01*
X96381D02*
X98380Y414853D01*
X103378D02*
X101379D01*
X100379Y415852D01*
Y417852D01*
X101379Y418851D01*
X103378D01*
X104378Y417852D01*
Y416852D01*
X100379D01*
X106377Y418851D02*
X108377Y414853D01*
X110376Y418851D01*
X112375Y413853D02*
X116374D01*
X118374Y414853D02*
Y418851D01*
X120373Y420851D01*
X122372Y418851D01*
Y414853D01*
Y417852D01*
X118374D01*
X14496Y368824D02*
X10498D01*
X14496Y372823D01*
Y373823D01*
X13497Y374822D01*
X11497D01*
X10498Y373823D01*
X22494Y374822D02*
Y368824D01*
X26492D01*
X29491Y372823D02*
X31491D01*
X32491Y371823D01*
Y368824D01*
X29491D01*
X28492Y369824D01*
X29491Y370824D01*
X32491D01*
X34490Y372823D02*
Y369824D01*
X35489Y368824D01*
X38489D01*
Y367825D01*
X37489Y366825D01*
X36489D01*
X38489Y368824D02*
Y372823D01*
X43487Y368824D02*
X41488D01*
X40488Y369824D01*
Y371823D01*
X41488Y372823D01*
X43487D01*
X44487Y371823D01*
Y370824D01*
X40488D01*
X46486Y372823D02*
Y368824D01*
Y370824D01*
X47486Y371823D01*
X48485Y372823D01*
X49485D01*
X52484Y368824D02*
X55483D01*
X56483Y369824D01*
X55483Y370824D01*
X53484D01*
X52484Y371823D01*
X53484Y372823D01*
X56483D01*
X80475Y374822D02*
X76476D01*
Y371823D01*
X78476D01*
X76476D01*
Y368824D01*
X82474D02*
Y374822D01*
X85473D01*
X86473Y373823D01*
Y371823D01*
X85473Y370824D01*
X82474D01*
X84474D02*
X86473Y368824D01*
X91471D02*
Y374822D01*
X88472Y371823D01*
X92471D01*
X25398Y394722D02*
X27397D01*
X26397D01*
Y388724D01*
X25398D01*
X27397D01*
X30396D02*
Y394722D01*
X33395D01*
X34395Y393723D01*
Y391723D01*
X33395Y390724D01*
X30396D01*
X40393Y393723D02*
X39393Y394722D01*
X37394D01*
X36394Y393723D01*
Y389724D01*
X37394Y388724D01*
X39393D01*
X40393Y389724D01*
X42392Y391723D02*
X46391D01*
X52389Y388724D02*
X48390D01*
X52389Y392723D01*
Y393723D01*
X51389Y394722D01*
X49390D01*
X48390Y393723D01*
X58387Y388724D02*
X54388D01*
X58387Y392723D01*
Y393723D01*
X57387Y394722D01*
X55388D01*
X54388Y393723D01*
X64385Y388724D02*
X60386D01*
X64385Y392723D01*
Y393723D01*
X63385Y394722D01*
X61386D01*
X60386Y393723D01*
X66384Y388724D02*
X68384D01*
X67384D01*
Y394722D01*
X66384Y393723D01*
X72382Y387725D02*
X73382Y388724D01*
Y389724D01*
X72382D01*
Y388724D01*
X73382D01*
X72382Y387725D01*
X71383Y386725D01*
X83379Y394722D02*
X85378D01*
X84378D01*
Y388724D01*
X83379D01*
X85378D01*
X88377D02*
Y394722D01*
X91376D01*
X92376Y393723D01*
Y391723D01*
X91376Y390724D01*
X88377D01*
X98374Y393723D02*
X97374Y394722D01*
X95375D01*
X94375Y393723D01*
Y389724D01*
X95375Y388724D01*
X97374D01*
X98374Y389724D01*
X100373Y391723D02*
X104372D01*
X110370Y394722D02*
X108371Y393723D01*
X106371Y391723D01*
Y389724D01*
X107371Y388724D01*
X109370D01*
X110370Y389724D01*
Y390724D01*
X109370Y391723D01*
X106371D01*
X112370Y393723D02*
X113369Y394722D01*
X115368D01*
X116368Y393723D01*
Y389724D01*
X115368Y388724D01*
X113369D01*
X112370Y389724D01*
Y393723D01*
X118368Y388724D02*
X120367D01*
X119367D01*
Y394722D01*
X118368Y393723D01*
X127365Y388724D02*
X123366D01*
X127365Y392723D01*
Y393723D01*
X126365Y394722D01*
X124366D01*
X123366Y393723D01*
X157355Y392723D02*
X154356D01*
X153356Y391723D01*
Y389724D01*
X154356Y388724D01*
X157355D01*
X159354D02*
X161354D01*
X160354D01*
Y394722D01*
X159354D01*
X165352Y392723D02*
X167352D01*
X168351Y391723D01*
Y388724D01*
X165352D01*
X164353Y389724D01*
X165352Y390724D01*
X168351D01*
X170351Y388724D02*
X173350D01*
X174349Y389724D01*
X173350Y390724D01*
X171350D01*
X170351Y391723D01*
X171350Y392723D01*
X174349D01*
X176349Y388724D02*
X179348D01*
X180348Y389724D01*
X179348Y390724D01*
X177348D01*
X176349Y391723D01*
X177348Y392723D01*
X180348D01*
X192344Y388724D02*
X188345D01*
X192344Y392723D01*
Y393723D01*
X191344Y394722D01*
X189345D01*
X188345Y393723D01*
X14796Y340122D02*
X10798D01*
Y334124D01*
X14796D01*
X10798Y337123D02*
X12797D01*
X16796Y334124D02*
Y340122D01*
X20794Y334124D01*
Y340122D01*
X22794D02*
X24793D01*
X23793D01*
Y334124D01*
X22794D01*
X24793D01*
X31791Y339123D02*
X30791Y340122D01*
X28792D01*
X27792Y339123D01*
Y335124D01*
X28792Y334124D01*
X30791D01*
X31791Y335124D01*
Y337123D01*
X29791D01*
X40788Y334124D02*
Y339123D01*
Y337123D01*
X39788D01*
X41788D01*
X40788D01*
Y339123D01*
X41788Y340122D01*
X44787Y334124D02*
X46786D01*
X45786D01*
Y338123D01*
X44787D01*
X49785Y334124D02*
Y338123D01*
X52784D01*
X53784Y337123D01*
Y334124D01*
X55783D02*
X57782D01*
X56783D01*
Y338123D01*
X55783D01*
X60781Y334124D02*
X63780D01*
X64780Y335124D01*
X63780Y336124D01*
X61781D01*
X60781Y337123D01*
X61781Y338123D01*
X64780D01*
X66780Y340122D02*
Y334124D01*
Y337123D01*
X67779Y338123D01*
X69779D01*
X70778Y337123D01*
Y334124D01*
X10198Y265024D02*
Y271022D01*
X14196Y265024D01*
Y271022D01*
X17195Y265024D02*
X19195D01*
X20194Y266024D01*
Y268023D01*
X19195Y269023D01*
X17195D01*
X16196Y268023D01*
Y266024D01*
X17195Y265024D01*
X32190Y269023D02*
X29191D01*
X28192Y268023D01*
Y266024D01*
X29191Y265024D01*
X32190D01*
X34190D02*
X36189D01*
X35190D01*
Y271022D01*
X34190D01*
X42187Y265024D02*
X40188D01*
X39188Y266024D01*
Y268023D01*
X40188Y269023D01*
X42187D01*
X43187Y268023D01*
Y267024D01*
X39188D01*
X46186Y269023D02*
X48185D01*
X49185Y268023D01*
Y265024D01*
X46186D01*
X45186Y266024D01*
X46186Y267024D01*
X49185D01*
X51184Y265024D02*
Y269023D01*
X54183D01*
X55183Y268023D01*
Y265024D01*
X14196Y362823D02*
X13197Y363822D01*
X11197D01*
X10198Y362823D01*
Y361823D01*
X11197Y360823D01*
X13197D01*
X14196Y359824D01*
Y358824D01*
X13197Y357824D01*
X11197D01*
X10198Y358824D01*
X19195Y357824D02*
X17195D01*
X16196Y358824D01*
Y360823D01*
X17195Y361823D01*
X19195D01*
X20194Y360823D01*
Y359824D01*
X16196D01*
X25193Y357824D02*
X23193D01*
X22194Y358824D01*
Y360823D01*
X23193Y361823D01*
X25193D01*
X26192Y360823D01*
Y359824D01*
X22194D01*
X38188Y362823D02*
X37189Y363822D01*
X35190D01*
X34190Y362823D01*
Y361823D01*
X35190Y360823D01*
X37189D01*
X38188Y359824D01*
Y358824D01*
X37189Y357824D01*
X35190D01*
X34190Y358824D01*
X41188Y362823D02*
Y361823D01*
X40188D01*
X42187D01*
X41188D01*
Y358824D01*
X42187Y357824D01*
X46186Y361823D02*
X48185D01*
X49185Y360823D01*
Y357824D01*
X46186D01*
X45186Y358824D01*
X46186Y359824D01*
X49185D01*
X55183Y361823D02*
X52184D01*
X51184Y360823D01*
Y358824D01*
X52184Y357824D01*
X55183D01*
X57182D02*
Y363822D01*
Y359824D02*
X60181Y361823D01*
X57182Y359824D02*
X60181Y357824D01*
X63181Y361823D02*
Y358824D01*
X64180Y357824D01*
X67179D01*
Y361823D01*
X69178Y355825D02*
Y361823D01*
X72177D01*
X73177Y360823D01*
Y358824D01*
X72177Y357824D01*
X69178D01*
X82174D02*
Y362823D01*
Y360823D01*
X81175D01*
X83174D01*
X82174D01*
Y362823D01*
X83174Y363822D01*
X87173Y357824D02*
X89172D01*
X90172Y358824D01*
Y360823D01*
X89172Y361823D01*
X87173D01*
X86173Y360823D01*
Y358824D01*
X87173Y357824D01*
X92171Y361823D02*
Y357824D01*
Y359824D01*
X93171Y360823D01*
X94170Y361823D01*
X95170D01*
X108166D02*
X105167D01*
X104167Y360823D01*
Y358824D01*
X105167Y357824D01*
X108166D01*
X111165D02*
X113164D01*
X114164Y358824D01*
Y360823D01*
X113164Y361823D01*
X111165D01*
X110165Y360823D01*
Y358824D01*
X111165Y357824D01*
X116163Y355825D02*
Y361823D01*
X119162D01*
X120162Y360823D01*
Y358824D01*
X119162Y357824D01*
X116163D01*
X122161Y355825D02*
Y361823D01*
X125160D01*
X126160Y360823D01*
Y358824D01*
X125160Y357824D01*
X122161D01*
X131158D02*
X129159D01*
X128159Y358824D01*
Y360823D01*
X129159Y361823D01*
X131158D01*
X132158Y360823D01*
Y359824D01*
X128159D01*
X134158Y361823D02*
Y357824D01*
Y359824D01*
X135157Y360823D01*
X136157Y361823D01*
X137156D01*
X147153Y362823D02*
Y361823D01*
X146154D01*
X148153D01*
X147153D01*
Y358824D01*
X148153Y357824D01*
X151152Y363822D02*
Y357824D01*
Y360823D01*
X152152Y361823D01*
X154151D01*
X155151Y360823D01*
Y357824D01*
X157150D02*
X159149D01*
X158150D01*
Y361823D01*
X157150D01*
X166147D02*
X163148D01*
X162148Y360823D01*
Y358824D01*
X163148Y357824D01*
X166147D01*
X168147D02*
Y363822D01*
Y359824D02*
X171145Y361823D01*
X168147Y359824D02*
X171145Y357824D01*
X174145D02*
Y361823D01*
X177144D01*
X178143Y360823D01*
Y357824D01*
X183142D02*
X181142D01*
X180143Y358824D01*
Y360823D01*
X181142Y361823D01*
X183142D01*
X184141Y360823D01*
Y359824D01*
X180143D01*
X186141Y357824D02*
X189140D01*
X190139Y358824D01*
X189140Y359824D01*
X187140D01*
X186141Y360823D01*
X187140Y361823D01*
X190139D01*
X192139Y357824D02*
X195138D01*
X196137Y358824D01*
X195138Y359824D01*
X193138D01*
X192139Y360823D01*
X193138Y361823D01*
X196137D01*
X198137Y357824D02*
Y358824D01*
X199136D01*
Y357824D01*
X198137D01*
X10398Y404722D02*
Y398724D01*
X12397Y400724D01*
X14396Y398724D01*
Y404722D01*
X17395Y398724D02*
X19395D01*
X20394Y399724D01*
Y401723D01*
X19395Y402723D01*
X17395D01*
X16396Y401723D01*
Y399724D01*
X17395Y398724D01*
X22394Y402723D02*
Y398724D01*
Y400724D01*
X23393Y401723D01*
X24393Y402723D01*
X25393D01*
X28392Y398724D02*
Y404722D01*
Y400724D02*
X31391Y402723D01*
X28392Y400724D02*
X31391Y398724D01*
X34390D02*
Y402723D01*
X35390D01*
X36389Y401723D01*
Y398724D01*
Y401723D01*
X37389Y402723D01*
X38388Y401723D01*
Y398724D01*
X41388Y402723D02*
X43387D01*
X44387Y401723D01*
Y398724D01*
X41388D01*
X40388Y399724D01*
X41388Y400724D01*
X44387D01*
X46386Y398724D02*
Y402723D01*
X49385D01*
X50385Y401723D01*
Y398724D01*
X52384D02*
X55383D01*
X56383Y399724D01*
X55383Y400724D01*
X53384D01*
X52384Y401723D01*
X53384Y402723D01*
X56383D01*
X58382Y404722D02*
Y398724D01*
Y401723D01*
X59382Y402723D01*
X61381D01*
X62381Y401723D01*
Y398724D01*
X64380D02*
X66379D01*
X65380D01*
Y402723D01*
X64380D01*
X69379Y396725D02*
Y402723D01*
X72378D01*
X73377Y401723D01*
Y399724D01*
X72378Y398724D01*
X69379D01*
X82374Y402723D02*
X84374D01*
X85373Y401723D01*
Y398724D01*
X82374D01*
X81375Y399724D01*
X82374Y400724D01*
X85373D01*
X87373Y398724D02*
Y402723D01*
X90372D01*
X91371Y401723D01*
Y398724D01*
X97369Y404722D02*
Y398724D01*
X94370D01*
X93371Y399724D01*
Y401723D01*
X94370Y402723D01*
X97369D01*
X109366Y399724D02*
Y403723D01*
X108366Y404722D01*
X106367D01*
X105367Y403723D01*
Y399724D01*
X106367Y398724D01*
X108366D01*
X107366Y400724D02*
X109366Y398724D01*
X108366D02*
X109366Y399724D01*
X111365Y402723D02*
Y399724D01*
X112365Y398724D01*
X115364D01*
Y402723D01*
X118363D02*
X120362D01*
X121362Y401723D01*
Y398724D01*
X118363D01*
X117363Y399724D01*
X118363Y400724D01*
X121362D01*
X123361Y398724D02*
X125360D01*
X124361D01*
Y404722D01*
X123361D01*
X128359Y398724D02*
X130359D01*
X129359D01*
Y402723D01*
X128359D01*
X134358Y403723D02*
Y402723D01*
X133358D01*
X135357D01*
X134358D01*
Y399724D01*
X135357Y398724D01*
X138356Y402723D02*
Y399724D01*
X139356Y398724D01*
X142355D01*
Y397725D01*
X141355Y396725D01*
X140356D01*
X142355Y398724D02*
Y402723D01*
X150352Y396725D02*
Y402723D01*
X153351D01*
X154351Y401723D01*
Y399724D01*
X153351Y398724D01*
X150352D01*
X159349D02*
X157350D01*
X156350Y399724D01*
Y401723D01*
X157350Y402723D01*
X159349D01*
X160349Y401723D01*
Y400724D01*
X156350D01*
X162348Y402723D02*
Y398724D01*
Y400724D01*
X163348Y401723D01*
X164348Y402723D01*
X165348D01*
X174345Y404722D02*
X176344D01*
X175344D01*
Y398724D01*
X174345D01*
X176344D01*
X179343D02*
Y404722D01*
X182342D01*
X183342Y403723D01*
Y401723D01*
X182342Y400724D01*
X179343D01*
X189340Y403723D02*
X188340Y404722D01*
X186341D01*
X185341Y403723D01*
Y399724D01*
X186341Y398724D01*
X188340D01*
X189340Y399724D01*
X191339Y401723D02*
X195338D01*
X197337Y398724D02*
Y402723D01*
X199337Y404722D01*
X201336Y402723D01*
Y398724D01*
Y401723D01*
X197337D01*
X203335D02*
X207334D01*
X213332Y404722D02*
X211333Y403723D01*
X209333Y401723D01*
Y399724D01*
X210333Y398724D01*
X212332D01*
X213332Y399724D01*
Y400724D01*
X212332Y401723D01*
X209333D01*
X215331Y403723D02*
X216331Y404722D01*
X218330D01*
X219330Y403723D01*
Y399724D01*
X218330Y398724D01*
X216331D01*
X215331Y399724D01*
Y403723D01*
X221329D02*
X222329Y404722D01*
X224328D01*
X225328Y403723D01*
Y399724D01*
X224328Y398724D01*
X222329D01*
X221329Y399724D01*
Y403723D01*
X231326Y404722D02*
X227327D01*
Y398724D01*
X231326D01*
X227327Y401723D02*
X229327D01*
X234325Y397725D02*
X235325Y398724D01*
Y399724D01*
X234325D01*
Y398724D01*
X235325D01*
X234325Y397725D01*
X233326Y396725D01*
X10198Y253024D02*
Y259022D01*
X13197D01*
X14196Y258023D01*
Y256023D01*
X13197Y255024D01*
X10198D01*
X12197D02*
X14196Y253024D01*
X17195D02*
X19195D01*
X20194Y254024D01*
Y256023D01*
X19195Y257023D01*
X17195D01*
X16196Y256023D01*
Y254024D01*
X17195Y253024D01*
X22194Y259022D02*
Y253024D01*
Y256023D01*
X26192D01*
Y259022D01*
Y253024D01*
X32190Y258023D02*
X31191Y259022D01*
X29191D01*
X28192Y258023D01*
Y257023D01*
X29191Y256023D01*
X31191D01*
X32190Y255024D01*
Y254024D01*
X31191Y253024D01*
X29191D01*
X28192Y254024D01*
X44187Y257023D02*
X41188D01*
X40188Y256023D01*
Y254024D01*
X41188Y253024D01*
X44187D01*
X47186D02*
X49185D01*
X50185Y254024D01*
Y256023D01*
X49185Y257023D01*
X47186D01*
X46186Y256023D01*
Y254024D01*
X47186Y253024D01*
X52184D02*
Y257023D01*
X53184D01*
X54183Y256023D01*
Y253024D01*
Y256023D01*
X55183Y257023D01*
X56183Y256023D01*
Y253024D01*
X58182Y251025D02*
Y257023D01*
X61181D01*
X62181Y256023D01*
Y254024D01*
X61181Y253024D01*
X58182D01*
X64180D02*
X66180D01*
X65180D01*
Y259022D01*
X64180D01*
X69178Y253024D02*
X71178D01*
X70178D01*
Y257023D01*
X69178D01*
X75177D02*
X77176D01*
X78176Y256023D01*
Y253024D01*
X75177D01*
X74177Y254024D01*
X75177Y255024D01*
X78176D01*
X80175Y253024D02*
Y257023D01*
X83174D01*
X84174Y256023D01*
Y253024D01*
X87173Y258023D02*
Y257023D01*
X86173D01*
X88172D01*
X87173D01*
Y254024D01*
X88172Y253024D01*
X97170Y257023D02*
Y254024D01*
X98169Y253024D01*
X99169Y254024D01*
X100169Y253024D01*
X101168Y254024D01*
Y257023D01*
X103167Y253024D02*
X105167D01*
X104167D01*
Y257023D01*
X103167D01*
X109166Y258023D02*
Y257023D01*
X108166D01*
X110165D01*
X109166D01*
Y254024D01*
X110165Y253024D01*
X113164Y259022D02*
Y253024D01*
Y256023D01*
X114164Y257023D01*
X116163D01*
X117163Y256023D01*
Y253024D01*
X129159Y257023D02*
X126160D01*
X125160Y256023D01*
Y254024D01*
X126160Y253024D01*
X129159D01*
X134158D02*
X132158D01*
X131158Y254024D01*
Y256023D01*
X132158Y257023D01*
X134158D01*
X135157Y256023D01*
Y255024D01*
X131158D01*
X137156Y257023D02*
Y253024D01*
Y255024D01*
X138156Y256023D01*
X139156Y257023D01*
X140155D01*
X144154Y258023D02*
Y257023D01*
X143155D01*
X145154D01*
X144154D01*
Y254024D01*
X145154Y253024D01*
X148153D02*
X150152D01*
X149153D01*
Y257023D01*
X148153D01*
X154151Y253024D02*
Y258023D01*
Y256023D01*
X153151D01*
X155151D01*
X154151D01*
Y258023D01*
X155151Y259022D01*
X158150Y253024D02*
X160149D01*
X159149D01*
Y257023D01*
X158150D01*
X167147D02*
X164148D01*
X163148Y256023D01*
Y254024D01*
X164148Y253024D01*
X167147D01*
X170146Y257023D02*
X172145D01*
X173145Y256023D01*
Y253024D01*
X170146D01*
X169146Y254024D01*
X170146Y255024D01*
X173145D01*
X176144Y258023D02*
Y257023D01*
X175144D01*
X177144D01*
X176144D01*
Y254024D01*
X177144Y253024D01*
X180143D02*
X182142D01*
X181142D01*
Y257023D01*
X180143D01*
X186141Y253024D02*
X188140D01*
X189140Y254024D01*
Y256023D01*
X188140Y257023D01*
X186141D01*
X185141Y256023D01*
Y254024D01*
X186141Y253024D01*
X191139D02*
Y257023D01*
X194138D01*
X195138Y256023D01*
Y253024D01*
X203135Y251025D02*
Y257023D01*
X206134D01*
X207134Y256023D01*
Y254024D01*
X206134Y253024D01*
X203135D01*
X210133Y257023D02*
X212132D01*
X213132Y256023D01*
Y253024D01*
X210133D01*
X209133Y254024D01*
X210133Y255024D01*
X213132D01*
X215131Y251025D02*
Y257023D01*
X218130D01*
X219130Y256023D01*
Y254024D01*
X218130Y253024D01*
X215131D01*
X224128D02*
X222129D01*
X221129Y254024D01*
Y256023D01*
X222129Y257023D01*
X224128D01*
X225128Y256023D01*
Y255024D01*
X221129D01*
X227127Y257023D02*
Y253024D01*
Y255024D01*
X228127Y256023D01*
X229127Y257023D01*
X230126D01*
X233125Y253024D02*
X236124D01*
X237124Y254024D01*
X236124Y255024D01*
X234125D01*
X233125Y256023D01*
X234125Y257023D01*
X237124D01*
X213096Y434822D02*
X211097D01*
X212097D01*
Y429824D01*
X211097Y428824D01*
X210097D01*
X209098Y429824D01*
X215096Y432823D02*
Y429824D01*
X216095Y428824D01*
X219094D01*
Y432823D01*
X221094Y428824D02*
Y432823D01*
X224093D01*
X225092Y431823D01*
Y428824D01*
X230091D02*
X228092D01*
X227092Y429824D01*
Y431823D01*
X228092Y432823D01*
X230091D01*
X231090Y431823D01*
Y430824D01*
X227092D01*
X239088Y428824D02*
X241087D01*
X240088D01*
Y434822D01*
X239088Y433823D01*
X245086Y427825D02*
X246086Y428824D01*
Y429824D01*
X245086D01*
Y428824D01*
X246086D01*
X245086Y427825D01*
X244086Y426825D01*
X260081Y428824D02*
X256082D01*
X260081Y432823D01*
Y433823D01*
X259081Y434822D01*
X257082D01*
X256082Y433823D01*
X262081D02*
X263080Y434822D01*
X265079D01*
X266079Y433823D01*
Y429824D01*
X265079Y428824D01*
X263080D01*
X262081Y429824D01*
Y433823D01*
X268078Y428824D02*
X270078D01*
X269078D01*
Y434822D01*
X268078Y433823D01*
X273077D02*
X274077Y434822D01*
X276076D01*
X277076Y433823D01*
Y432823D01*
X276076Y431823D01*
X277076Y430824D01*
Y429824D01*
X276076Y428824D01*
X274077D01*
X273077Y429824D01*
Y430824D01*
X274077Y431823D01*
X273077Y432823D01*
Y433823D01*
X274077Y431823D02*
X276076D01*
X10198Y277024D02*
Y283022D01*
X14196Y277024D01*
Y283022D01*
X17195Y277024D02*
X19195D01*
X20194Y278024D01*
Y280023D01*
X19195Y281023D01*
X17195D01*
X16196Y280023D01*
Y278024D01*
X17195Y277024D01*
X31191D02*
X29191D01*
X28192Y278024D01*
Y280023D01*
X29191Y281023D01*
X31191D01*
X32190Y280023D01*
Y279024D01*
X28192D01*
X34190Y275025D02*
Y281023D01*
X37189D01*
X38188Y280023D01*
Y278024D01*
X37189Y277024D01*
X34190D01*
X41188D02*
X43187D01*
X44187Y278024D01*
Y280023D01*
X43187Y281023D01*
X41188D01*
X40188Y280023D01*
Y278024D01*
X41188Y277024D01*
X46186Y281023D02*
X50185Y277024D01*
X48185Y279024D01*
X50185Y281023D01*
X46186Y277024D01*
X52184Y281023D02*
Y278024D01*
X53184Y277024D01*
X56183D01*
Y276025D01*
X55183Y275025D01*
X54183D01*
X56183Y277024D02*
Y281023D01*
X65180Y277024D02*
Y282023D01*
Y280023D01*
X64180D01*
X66180D01*
X65180D01*
Y282023D01*
X66180Y283022D01*
X69178Y277024D02*
X71178D01*
X70178D01*
Y281023D01*
X69178D01*
X74177Y277024D02*
X76176D01*
X75177D01*
Y283022D01*
X74177D01*
X79175Y277024D02*
X81175D01*
X80175D01*
Y283022D01*
X79175D01*
X91171Y277024D02*
X93171D01*
X94170Y278024D01*
Y280023D01*
X93171Y281023D01*
X91171D01*
X90172Y280023D01*
Y278024D01*
X91171Y277024D01*
X96170D02*
Y281023D01*
X99169D01*
X100169Y280023D01*
Y277024D01*
X108166Y281023D02*
X110165Y277024D01*
X112165Y281023D01*
X114164Y277024D02*
X116163D01*
X115164D01*
Y281023D01*
X114164D01*
X120162D02*
X122161D01*
X123161Y280023D01*
Y277024D01*
X120162D01*
X119162Y278024D01*
X120162Y279024D01*
X123161D01*
X125160Y277024D02*
X128159D01*
X129159Y278024D01*
X128159Y279024D01*
X126160D01*
X125160Y280023D01*
X126160Y281023D01*
X129159D01*
X10198Y319022D02*
Y313024D01*
X14196D01*
X19195D02*
X17195D01*
X16196Y314024D01*
Y316023D01*
X17195Y317023D01*
X19195D01*
X20194Y316023D01*
Y315024D01*
X16196D01*
X24193Y311025D02*
X25193D01*
X26192Y312025D01*
Y317023D01*
X23193D01*
X22194Y316023D01*
Y314024D01*
X23193Y313024D01*
X26192D01*
X31191D02*
X29191D01*
X28192Y314024D01*
Y316023D01*
X29191Y317023D01*
X31191D01*
X32190Y316023D01*
Y315024D01*
X28192D01*
X34190Y313024D02*
Y317023D01*
X37189D01*
X38188Y316023D01*
Y313024D01*
X44187Y319022D02*
Y313024D01*
X41188D01*
X40188Y314024D01*
Y316023D01*
X41188Y317023D01*
X44187D01*
X53184Y318023D02*
Y317023D01*
X52184D01*
X54183D01*
X53184D01*
Y314024D01*
X54183Y313024D01*
X58182D02*
X60181D01*
X61181Y314024D01*
Y316023D01*
X60181Y317023D01*
X58182D01*
X57182Y316023D01*
Y314024D01*
X58182Y313024D01*
X69178Y319022D02*
Y313024D01*
X72177D01*
X73177Y314024D01*
Y315024D01*
Y316023D01*
X72177Y317023D01*
X69178D01*
X78176Y313024D02*
X76176D01*
X75177Y314024D01*
Y316023D01*
X76176Y317023D01*
X78176D01*
X79175Y316023D01*
Y315024D01*
X75177D01*
X87173Y319022D02*
Y313024D01*
X89172Y315024D01*
X91171Y313024D01*
Y319022D01*
X93171D02*
Y313024D01*
Y316023D01*
X94170Y317023D01*
X96170D01*
X97170Y316023D01*
Y313024D01*
X99169D02*
X101168D01*
X100169D01*
Y317023D01*
X99169D01*
X105167Y318023D02*
Y317023D01*
X104167D01*
X106167D01*
X105167D01*
Y314024D01*
X106167Y313024D01*
X112165D02*
X110165D01*
X109166Y314024D01*
Y316023D01*
X110165Y317023D01*
X112165D01*
X113164Y316023D01*
Y315024D01*
X109166D01*
X14196Y328023D02*
X13197Y329022D01*
X11197D01*
X10198Y328023D01*
Y327023D01*
X11197Y326023D01*
X13197D01*
X14196Y325024D01*
Y324024D01*
X13197Y323024D01*
X11197D01*
X10198Y324024D01*
X17195Y323024D02*
X19195D01*
X20194Y324024D01*
Y326023D01*
X19195Y327023D01*
X17195D01*
X16196Y326023D01*
Y324024D01*
X17195Y323024D01*
X22194D02*
X24193D01*
X23193D01*
Y329022D01*
X22194D01*
X31191D02*
Y323024D01*
X28192D01*
X27192Y324024D01*
Y326023D01*
X28192Y327023D01*
X31191D01*
X36189Y323024D02*
X34190D01*
X33190Y324024D01*
Y326023D01*
X34190Y327023D01*
X36189D01*
X37189Y326023D01*
Y325024D01*
X33190D01*
X39188Y327023D02*
Y323024D01*
Y325024D01*
X40188Y326023D01*
X41188Y327023D01*
X42187D01*
X51184Y323024D02*
Y329022D01*
X53184Y327023D01*
X55183Y329022D01*
Y323024D01*
X58182Y327023D02*
X60181D01*
X61181Y326023D01*
Y323024D01*
X58182D01*
X57182Y324024D01*
X58182Y325024D01*
X61181D01*
X63181Y323024D02*
X66180D01*
X67179Y324024D01*
X66180Y325024D01*
X64180D01*
X63181Y326023D01*
X64180Y327023D01*
X67179D01*
X69178Y323024D02*
Y329022D01*
Y325024D02*
X72177Y327023D01*
X69178Y325024D02*
X72177Y323024D01*
X82174Y328023D02*
Y327023D01*
X81175D01*
X83174D01*
X82174D01*
Y324024D01*
X83174Y323024D01*
X87173D02*
X89172D01*
X90172Y324024D01*
Y326023D01*
X89172Y327023D01*
X87173D01*
X86173Y326023D01*
Y324024D01*
X87173Y323024D01*
X98169Y329022D02*
Y323024D01*
X101168D01*
X102168Y324024D01*
Y325024D01*
Y326023D01*
X101168Y327023D01*
X98169D01*
X107166Y323024D02*
X105167D01*
X104167Y324024D01*
Y326023D01*
X105167Y327023D01*
X107166D01*
X108166Y326023D01*
Y325024D01*
X104167D01*
X116163Y329022D02*
Y323024D01*
X119162D01*
X120162Y324024D01*
Y325024D01*
X119162Y326023D01*
X116163D01*
X119162D01*
X120162Y327023D01*
Y328023D01*
X119162Y329022D01*
X116163D01*
X122161Y323024D02*
X124161D01*
X123161D01*
Y329022D01*
X122161D01*
X127160Y327023D02*
Y324024D01*
X128159Y323024D01*
X131158D01*
Y327023D01*
X136157Y323024D02*
X134158D01*
X133158Y324024D01*
Y326023D01*
X134158Y327023D01*
X136157D01*
X137156Y326023D01*
Y325024D01*
X133158D01*
X10398Y384222D02*
Y378224D01*
X13397D01*
X14396Y379224D01*
Y380224D01*
X13397Y381223D01*
X10398D01*
X13397D01*
X14396Y382223D01*
Y383223D01*
X13397Y384222D01*
X10398D01*
X17395Y378224D02*
X19395D01*
X20394Y379224D01*
Y381223D01*
X19395Y382223D01*
X17395D01*
X16396Y381223D01*
Y379224D01*
X17395Y378224D01*
X23393Y382223D02*
X25393D01*
X26392Y381223D01*
Y378224D01*
X23393D01*
X22394Y379224D01*
X23393Y380224D01*
X26392D01*
X28392Y382223D02*
Y378224D01*
Y380224D01*
X29392Y381223D01*
X30391Y382223D01*
X31391D01*
X38388Y384222D02*
Y378224D01*
X35390D01*
X34390Y379224D01*
Y381223D01*
X35390Y382223D01*
X38388D01*
X46386Y384222D02*
X50385D01*
X48385D01*
Y378224D01*
X52384Y384222D02*
Y378224D01*
Y381223D01*
X53384Y382223D01*
X55383D01*
X56383Y381223D01*
Y378224D01*
X58382D02*
X60381D01*
X59382D01*
Y382223D01*
X58382D01*
X67379D02*
X64380D01*
X63380Y381223D01*
Y379224D01*
X64380Y378224D01*
X67379D01*
X69379D02*
Y384222D01*
Y380224D02*
X72378Y382223D01*
X69379Y380224D02*
X72378Y378224D01*
X75377D02*
Y382223D01*
X78376D01*
X79375Y381223D01*
Y378224D01*
X84374D02*
X82374D01*
X81375Y379224D01*
Y381223D01*
X82374Y382223D01*
X84374D01*
X85373Y381223D01*
Y380224D01*
X81375D01*
X87373Y378224D02*
X90372D01*
X91371Y379224D01*
X90372Y380224D01*
X88372D01*
X87373Y381223D01*
X88372Y382223D01*
X91371D01*
X93371Y378224D02*
X96370D01*
X97369Y379224D01*
X96370Y380224D01*
X94370D01*
X93371Y381223D01*
X94370Y382223D01*
X97369D01*
X99369D02*
X100368D01*
Y381223D01*
X99369D01*
Y382223D01*
Y379224D02*
X100368D01*
Y378224D01*
X99369D01*
Y379224D01*
X110365Y383223D02*
X111365Y384222D01*
X113364D01*
X114364Y383223D01*
Y379224D01*
X113364Y378224D01*
X111365D01*
X110365Y379224D01*
Y383223D01*
X116363Y378224D02*
Y379224D01*
X117363D01*
Y378224D01*
X116363D01*
X121362Y383223D02*
X122361Y384222D01*
X124361D01*
X125360Y383223D01*
Y379224D01*
X124361Y378224D01*
X122361D01*
X121362Y379224D01*
Y383223D01*
X131359Y384222D02*
X129359Y383223D01*
X127360Y381223D01*
Y379224D01*
X128359Y378224D01*
X130359D01*
X131359Y379224D01*
Y380224D01*
X130359Y381223D01*
X127360D01*
X137356Y378224D02*
X133358D01*
X137356Y382223D01*
Y383223D01*
X136357Y384222D01*
X134358D01*
X133358Y383223D01*
X145354Y378224D02*
X147353D01*
X146354D01*
Y382223D01*
X145354D01*
X150352Y378224D02*
Y382223D01*
X153351D01*
X154351Y381223D01*
Y378224D01*
X160349Y382223D02*
X157350D01*
X156350Y381223D01*
Y379224D01*
X157350Y378224D01*
X160349D01*
X162348Y384222D02*
Y378224D01*
Y381223D01*
X163348Y382223D01*
X165348D01*
X166347Y381223D01*
Y378224D01*
X171345D02*
X169346D01*
X168347Y379224D01*
Y381223D01*
X169346Y382223D01*
X171345D01*
X172345Y381223D01*
Y380224D01*
X168347D01*
X174345Y378224D02*
X177344D01*
X178343Y379224D01*
X177344Y380224D01*
X175344D01*
X174345Y381223D01*
X175344Y382223D01*
X178343D01*
X186341Y381223D02*
X190339D01*
X188340Y383223D02*
Y379224D01*
X192339Y378224D02*
X196337Y382223D01*
X198337Y381223D02*
X202336D01*
X210333Y378224D02*
X212332D01*
X211333D01*
Y384222D01*
X210333Y383223D01*
X215331D02*
X216331Y384222D01*
X218330D01*
X219330Y383223D01*
Y379224D01*
X218330Y378224D01*
X216331D01*
X215331Y379224D01*
Y383223D01*
X221329Y379224D02*
X226328Y384222D01*
X221329D02*
Y385222D01*
X222329D01*
Y384222D01*
X221329D01*
X225328Y378224D02*
Y379224D01*
X226328D01*
Y378224D01*
X225328D01*
X11698Y432123D02*
X15696Y428124D01*
X13697Y430124D01*
X15696Y432123D01*
X11698Y428124D01*
X17696Y432123D02*
X21694Y428124D01*
X19695Y430124D01*
X21694Y432123D01*
X17696Y428124D01*
X23694Y432123D02*
X27692Y428124D01*
X25693Y430124D01*
X27692Y432123D01*
X23694Y428124D01*
X29692Y432123D02*
X33691Y428124D01*
X31691Y430124D01*
X33691Y432123D01*
X29692Y428124D01*
X35690Y432123D02*
X39689Y428124D01*
X37689Y430124D01*
X39689Y432123D01*
X35690Y428124D01*
X47686D02*
Y434122D01*
X49685Y432123D01*
X51685Y434122D01*
Y428124D01*
X54684Y432123D02*
X56683D01*
X57683Y431123D01*
Y428124D01*
X54684D01*
X53684Y429124D01*
X54684Y430124D01*
X57683D01*
X59682Y428124D02*
X61681D01*
X60682D01*
Y432123D01*
X59682D01*
X64680Y428124D02*
Y432123D01*
X67680D01*
X68679Y431123D01*
Y428124D01*
X76677D02*
Y434122D01*
X79676D01*
X80675Y433123D01*
Y431123D01*
X79676Y430124D01*
X76677D01*
X78676D02*
X80675Y428124D01*
X85674D02*
X83674D01*
X82675Y429124D01*
Y431123D01*
X83674Y432123D01*
X85674D01*
X86673Y431123D01*
Y430124D01*
X82675D01*
X88673Y432123D02*
X90672Y428124D01*
X92671Y432123D01*
X100669Y428124D02*
Y432123D01*
X102668Y434122D01*
X104667Y432123D01*
Y428124D01*
Y431123D01*
X100669D01*
X9998Y246422D02*
Y240424D01*
X12997D01*
X13996Y241424D01*
Y245423D01*
X12997Y246422D01*
X9998D01*
X15996Y240424D02*
X17995D01*
X16995D01*
Y244423D01*
X15996D01*
X20994Y240424D02*
Y244423D01*
X21994D01*
X22993Y243423D01*
Y240424D01*
Y243423D01*
X23993Y244423D01*
X24993Y243423D01*
Y240424D01*
X29991D02*
X27992D01*
X26992Y241424D01*
Y243423D01*
X27992Y244423D01*
X29991D01*
X30991Y243423D01*
Y242424D01*
X26992D01*
X32990Y240424D02*
Y244423D01*
X35989D01*
X36989Y243423D01*
Y240424D01*
X38988D02*
X41987D01*
X42987Y241424D01*
X41987Y242424D01*
X39988D01*
X38988Y243423D01*
X39988Y244423D01*
X42987D01*
X44986Y240424D02*
X46986D01*
X45986D01*
Y244423D01*
X44986D01*
X50984Y240424D02*
X52984D01*
X53983Y241424D01*
Y243423D01*
X52984Y244423D01*
X50984D01*
X49985Y243423D01*
Y241424D01*
X50984Y240424D01*
X55983D02*
Y244423D01*
X58982D01*
X59981Y243423D01*
Y240424D01*
X61981D02*
X64980D01*
X65979Y241424D01*
X64980Y242424D01*
X62981D01*
X61981Y243423D01*
X62981Y244423D01*
X65979D01*
X73977Y240424D02*
X75976D01*
X74977D01*
Y244423D01*
X73977D01*
X78975Y240424D02*
Y244423D01*
X81974D01*
X82974Y243423D01*
Y240424D01*
X90971D02*
Y244423D01*
X91971D01*
X92971Y243423D01*
Y240424D01*
Y243423D01*
X93970Y244423D01*
X94970Y243423D01*
Y240424D01*
X96969D02*
X98969D01*
X97969D01*
Y244423D01*
X96969D01*
X101968Y240424D02*
X103967D01*
X102968D01*
Y246422D01*
X101968D01*
X106966Y240424D02*
X109965D01*
X110965Y241424D01*
X109965Y242424D01*
X107966D01*
X106966Y243423D01*
X107966Y244423D01*
X110965D01*
X112964Y240424D02*
Y241424D01*
X113964D01*
Y240424D01*
X112964D01*
D19*
X11665Y464297D02*
X5000D01*
Y459298D01*
X8332D01*
X5000D01*
Y454300D01*
X16663Y460964D02*
X19995D01*
X21661Y459298D01*
Y454300D01*
X16663D01*
X14997Y455966D01*
X16663Y457632D01*
X21661D01*
X24994Y464297D02*
Y454300D01*
X29992D01*
X31658Y455966D01*
Y457632D01*
Y459298D01*
X29992Y460964D01*
X24994D01*
X34990D02*
Y454300D01*
Y457632D01*
X36656Y459298D01*
X38323Y460964D01*
X39989D01*
X44987Y454300D02*
X48319D01*
X46653D01*
Y460964D01*
X44987D01*
X59982D02*
X54984D01*
X53318Y459298D01*
Y455966D01*
X54984Y454300D01*
X59982D01*
X64981Y460964D02*
X68313D01*
X69979Y459298D01*
Y454300D01*
X64981D01*
X63314Y455966D01*
X64981Y457632D01*
X69979D01*
X74977Y462631D02*
Y460964D01*
X73311D01*
X76644D01*
X74977D01*
Y455966D01*
X76644Y454300D01*
X81642D02*
X84974D01*
X83308D01*
Y460964D01*
X81642D01*
X91639Y454300D02*
X94971D01*
X96637Y455966D01*
Y459298D01*
X94971Y460964D01*
X91639D01*
X89973Y459298D01*
Y455966D01*
X91639Y454300D01*
X99969D02*
Y460964D01*
X104968D01*
X106634Y459298D01*
Y454300D01*
X119963D02*
Y464297D01*
X126627Y454300D01*
Y464297D01*
X131626Y454300D02*
X134958D01*
X136624Y455966D01*
Y459298D01*
X134958Y460964D01*
X131626D01*
X129960Y459298D01*
Y455966D01*
X131626Y454300D01*
X141622Y462631D02*
Y460964D01*
X139956D01*
X143289D01*
X141622D01*
Y455966D01*
X143289Y454300D01*
X153285D02*
X149953D01*
X148287Y455966D01*
Y459298D01*
X149953Y460964D01*
X153285D01*
X154952Y459298D01*
Y457632D01*
X148287D01*
X158284Y454300D02*
X163282D01*
X164948Y455966D01*
X163282Y457632D01*
X159950D01*
X158284Y459298D01*
X159950Y460964D01*
X164948D01*
M02*
