G04*
G04 #@! TF.GenerationSoftware,Altium Limited,Altium Designer,21.5.1 (32)*
G04*
G04 Layer_Physical_Order=2*
G04 Layer_Color=36540*
%FSLAX25Y25*%
%MOIN*%
G70*
G04*
G04 #@! TF.SameCoordinates,804D03E9-ECC6-49F7-9CEA-4D12CAEBA4D3*
G04*
G04*
G04 #@! TF.FilePolarity,Positive*
G04*
G01*
G75*
%ADD75C,0.06000*%
%ADD76C,0.06200*%
%ADD79R,0.03937X0.10630*%
%ADD80R,0.10630X0.03937*%
%ADD82C,0.01800*%
%ADD83C,0.01772*%
G36*
X399642Y190537D02*
X401600Y189337D01*
X403346Y187846D01*
X404837Y186100D01*
X406037Y184142D01*
X406915Y182021D01*
X407359Y180172D01*
Y174828D01*
X406915Y172979D01*
X406037Y170858D01*
X404837Y168900D01*
X403346Y167154D01*
X401600Y165663D01*
X399642Y164463D01*
X397521Y163585D01*
X395289Y163049D01*
X393000Y162868D01*
X390711Y163049D01*
X388479Y163585D01*
X386357Y164463D01*
X384400Y165663D01*
X382654Y167154D01*
X381163Y168900D01*
X379963Y170858D01*
X379085Y172979D01*
X378549Y175211D01*
X378368Y177500D01*
X378549Y179789D01*
X379085Y182021D01*
X379963Y184142D01*
X381163Y186100D01*
X382654Y187846D01*
X384400Y189337D01*
X386357Y190537D01*
X388372Y191371D01*
X397628D01*
X399642Y190537D01*
D02*
G37*
G36*
X22142D02*
X24100Y189337D01*
X25846Y187846D01*
X27337Y186100D01*
X28537Y184142D01*
X29415Y182021D01*
X29951Y179789D01*
X30132Y177500D01*
X29951Y175211D01*
X29415Y172979D01*
X28537Y170858D01*
X27337Y168900D01*
X25846Y167154D01*
X24100Y165663D01*
X22142Y164463D01*
X20021Y163585D01*
X17789Y163049D01*
X15500Y162868D01*
X13211Y163049D01*
X10979Y163585D01*
X8857Y164463D01*
X6900Y165663D01*
X5154Y167154D01*
X3663Y168900D01*
X2463Y170858D01*
X1633Y172863D01*
Y182138D01*
X2463Y184142D01*
X3663Y186100D01*
X5154Y187846D01*
X6900Y189337D01*
X8857Y190537D01*
X10872Y191371D01*
X20128D01*
X22142Y190537D01*
D02*
G37*
G36*
X384924Y190890D02*
X383781Y190189D01*
X381909Y188591D01*
X380311Y186719D01*
X379025Y184621D01*
X378083Y182347D01*
X377508Y179954D01*
X377315Y177500D01*
X377508Y175046D01*
X378083Y172653D01*
X379025Y170379D01*
X380311Y168281D01*
X381909Y166409D01*
X383781Y164811D01*
X385879Y163525D01*
X388153Y162583D01*
X390546Y162008D01*
X393000Y161815D01*
X395454Y162008D01*
X397847Y162583D01*
X400121Y163525D01*
X402219Y164811D01*
X404091Y166409D01*
X405689Y168281D01*
X406859Y170190D01*
X407359Y170049D01*
Y23951D01*
X406859Y23810D01*
X405689Y25719D01*
X404091Y27591D01*
X402219Y29189D01*
X400121Y30475D01*
X397847Y31417D01*
X395454Y31992D01*
X393000Y32185D01*
X390546Y31992D01*
X388153Y31417D01*
X385879Y30475D01*
X383781Y29189D01*
X381909Y27591D01*
X380311Y25719D01*
X379025Y23621D01*
X378083Y21347D01*
X377508Y18954D01*
X377315Y16500D01*
X377508Y14046D01*
X378083Y11653D01*
X379025Y9379D01*
X380311Y7281D01*
X381909Y5409D01*
X383781Y3811D01*
X385626Y2680D01*
X385485Y2180D01*
X368217D01*
X367883Y2680D01*
X367900Y2722D01*
Y3278D01*
X367687Y3793D01*
X367293Y4187D01*
X366778Y4400D01*
X366221D01*
X365707Y4187D01*
X365313Y3793D01*
X365100Y3278D01*
Y2722D01*
X365117Y2680D01*
X364783Y2180D01*
X22363D01*
X22265Y2671D01*
X23121Y3025D01*
X25219Y4311D01*
X27091Y5909D01*
X28689Y7781D01*
X29975Y9879D01*
X30917Y12153D01*
X31492Y14546D01*
X31685Y17000D01*
X31492Y19454D01*
X30917Y21847D01*
X29975Y24121D01*
X28689Y26219D01*
X27091Y28091D01*
X25219Y29689D01*
X23121Y30975D01*
X20847Y31917D01*
X18454Y32492D01*
X16000Y32685D01*
X13546Y32492D01*
X11153Y31917D01*
X8879Y30975D01*
X6781Y29689D01*
X4909Y28091D01*
X3311Y26219D01*
X2133Y24297D01*
X1633Y24438D01*
Y169282D01*
X2114Y169418D01*
X2811Y168281D01*
X4409Y166409D01*
X6281Y164811D01*
X8379Y163525D01*
X10653Y162583D01*
X13046Y162008D01*
X15500Y161815D01*
X17954Y162008D01*
X20347Y162583D01*
X22621Y163525D01*
X24719Y164811D01*
X26591Y166409D01*
X28189Y168281D01*
X29475Y170379D01*
X30417Y172653D01*
X30992Y175046D01*
X31185Y177500D01*
X30992Y179954D01*
X30417Y182347D01*
X29475Y184621D01*
X28189Y186719D01*
X26591Y188591D01*
X24719Y190189D01*
X23576Y190890D01*
X23712Y191371D01*
X384788D01*
X384924Y190890D01*
D02*
G37*
G36*
X18289Y31451D02*
X20521Y30915D01*
X22643Y30037D01*
X24600Y28837D01*
X26346Y27346D01*
X27837Y25600D01*
X29037Y23642D01*
X29915Y21521D01*
X30451Y19289D01*
X30632Y17000D01*
X30451Y14711D01*
X29915Y12479D01*
X29037Y10357D01*
X27837Y8400D01*
X26346Y6654D01*
X24600Y5163D01*
X22643Y3963D01*
X20521Y3085D01*
X18289Y2549D01*
X16000Y2369D01*
X13711Y2549D01*
X11479Y3085D01*
X9358Y3963D01*
X7400Y5163D01*
X5654Y6654D01*
X4163Y8400D01*
X2963Y10357D01*
X2085Y12479D01*
X1633Y14361D01*
Y19639D01*
X2085Y21521D01*
X2963Y23642D01*
X4163Y25600D01*
X5654Y27346D01*
X7400Y28837D01*
X9358Y30037D01*
X11479Y30915D01*
X13711Y31451D01*
X16000Y31631D01*
X18289Y31451D01*
D02*
G37*
G36*
X395289Y30951D02*
X397521Y30415D01*
X399642Y29537D01*
X401600Y28337D01*
X403346Y26846D01*
X404837Y25100D01*
X406037Y23143D01*
X406915Y21021D01*
X407359Y19172D01*
Y13828D01*
X406915Y11979D01*
X406037Y9858D01*
X404837Y7900D01*
X403346Y6154D01*
X401600Y4663D01*
X399642Y3463D01*
X397521Y2585D01*
X395836Y2180D01*
X390164D01*
X388479Y2585D01*
X386357Y3463D01*
X384400Y4663D01*
X382654Y6154D01*
X381163Y7900D01*
X379963Y9858D01*
X379085Y11979D01*
X378549Y14211D01*
X378368Y16500D01*
X378549Y18789D01*
X379085Y21021D01*
X379963Y23143D01*
X381163Y25100D01*
X382654Y26846D01*
X384400Y28337D01*
X386357Y29537D01*
X388479Y30415D01*
X390711Y30951D01*
X393000Y31132D01*
X395289Y30951D01*
D02*
G37*
%LPC*%
G36*
X393776Y185374D02*
X392225D01*
X390703Y185071D01*
X389270Y184478D01*
X387981Y183616D01*
X386884Y182519D01*
X386022Y181230D01*
X385429Y179797D01*
X385126Y178276D01*
Y176725D01*
X385429Y175203D01*
X386022Y173770D01*
X386884Y172481D01*
X387981Y171384D01*
X389270Y170522D01*
X390703Y169929D01*
X392225Y169626D01*
X393776D01*
X395297Y169929D01*
X396730Y170522D01*
X398019Y171384D01*
X399116Y172481D01*
X399978Y173770D01*
X400571Y175203D01*
X400874Y176725D01*
Y178276D01*
X400571Y179797D01*
X399978Y181230D01*
X399116Y182519D01*
X398019Y183616D01*
X396730Y184478D01*
X395297Y185071D01*
X393776Y185374D01*
D02*
G37*
G36*
X16275D02*
X14725D01*
X13203Y185071D01*
X11770Y184478D01*
X10481Y183616D01*
X9384Y182519D01*
X8522Y181230D01*
X7929Y179797D01*
X7626Y178276D01*
Y176725D01*
X7929Y175203D01*
X8522Y173770D01*
X9384Y172481D01*
X10481Y171384D01*
X11770Y170522D01*
X13203Y169929D01*
X14725Y169626D01*
X16275D01*
X17797Y169929D01*
X19230Y170522D01*
X20519Y171384D01*
X21616Y172481D01*
X22478Y173770D01*
X23071Y175203D01*
X23374Y176725D01*
Y178276D01*
X23071Y179797D01*
X22478Y181230D01*
X21616Y182519D01*
X20519Y183616D01*
X19230Y184478D01*
X17797Y185071D01*
X16275Y185374D01*
D02*
G37*
G36*
X255638Y186500D02*
X255377D01*
Y183200D01*
X258677D01*
Y183461D01*
X258439Y184351D01*
X257978Y185149D01*
X257326Y185801D01*
X256528Y186261D01*
X255638Y186500D01*
D02*
G37*
G36*
X254977D02*
X254716D01*
X253826Y186261D01*
X253028Y185801D01*
X252377Y185149D01*
X251916Y184351D01*
X251677Y183461D01*
Y183200D01*
X254977D01*
Y186500D01*
D02*
G37*
G36*
X217638D02*
X217377D01*
Y183200D01*
X220677D01*
Y183461D01*
X220439Y184351D01*
X219978Y185149D01*
X219326Y185801D01*
X218528Y186261D01*
X217638Y186500D01*
D02*
G37*
G36*
X216977D02*
X216716D01*
X215826Y186261D01*
X215028Y185801D01*
X214376Y185149D01*
X213916Y184351D01*
X213677Y183461D01*
Y183200D01*
X216977D01*
Y186500D01*
D02*
G37*
G36*
X336138Y186000D02*
X335877D01*
Y182700D01*
X339177D01*
Y182961D01*
X338939Y183851D01*
X338478Y184649D01*
X337826Y185301D01*
X337028Y185761D01*
X336138Y186000D01*
D02*
G37*
G36*
X335477D02*
X335216D01*
X334326Y185761D01*
X333528Y185301D01*
X332876Y184649D01*
X332416Y183851D01*
X332177Y182961D01*
Y182700D01*
X335477D01*
Y186000D01*
D02*
G37*
G36*
X296138D02*
X295877D01*
Y182700D01*
X299177D01*
Y182961D01*
X298939Y183851D01*
X298478Y184649D01*
X297826Y185301D01*
X297028Y185761D01*
X296138Y186000D01*
D02*
G37*
G36*
X295477D02*
X295216D01*
X294326Y185761D01*
X293528Y185301D01*
X292877Y184649D01*
X292416Y183851D01*
X292177Y182961D01*
Y182700D01*
X295477D01*
Y186000D01*
D02*
G37*
G36*
X258677Y182800D02*
X255377D01*
Y179500D01*
X255638D01*
X256528Y179738D01*
X257326Y180199D01*
X257978Y180851D01*
X258439Y181649D01*
X258677Y182539D01*
Y182800D01*
D02*
G37*
G36*
X254977D02*
X251677D01*
Y182539D01*
X251916Y181649D01*
X252377Y180851D01*
X253028Y180199D01*
X253826Y179738D01*
X254716Y179500D01*
X254977D01*
Y182800D01*
D02*
G37*
G36*
X248677Y186500D02*
X241677D01*
Y179500D01*
X248677D01*
Y186500D01*
D02*
G37*
G36*
X220677Y182800D02*
X217377D01*
Y179500D01*
X217638D01*
X218528Y179738D01*
X219326Y180199D01*
X219978Y180851D01*
X220439Y181649D01*
X220677Y182539D01*
Y182800D01*
D02*
G37*
G36*
X216977D02*
X213677D01*
Y182539D01*
X213916Y181649D01*
X214376Y180851D01*
X215028Y180199D01*
X215826Y179738D01*
X216716Y179500D01*
X216977D01*
Y182800D01*
D02*
G37*
G36*
X210677Y186500D02*
X203677D01*
Y179500D01*
X210677D01*
Y186500D01*
D02*
G37*
G36*
X339177Y182300D02*
X335877D01*
Y179000D01*
X336138D01*
X337028Y179238D01*
X337826Y179699D01*
X338478Y180351D01*
X338939Y181149D01*
X339177Y182039D01*
Y182300D01*
D02*
G37*
G36*
X335477D02*
X332177D01*
Y182039D01*
X332416Y181149D01*
X332876Y180351D01*
X333528Y179699D01*
X334326Y179238D01*
X335216Y179000D01*
X335477D01*
Y182300D01*
D02*
G37*
G36*
X329177Y186000D02*
X322177D01*
Y179000D01*
X329177D01*
Y186000D01*
D02*
G37*
G36*
X299177Y182300D02*
X295877D01*
Y179000D01*
X296138D01*
X297028Y179238D01*
X297826Y179699D01*
X298478Y180351D01*
X298939Y181149D01*
X299177Y182039D01*
Y182300D01*
D02*
G37*
G36*
X295477D02*
X292177D01*
Y182039D01*
X292416Y181149D01*
X292877Y180351D01*
X293528Y179699D01*
X294326Y179238D01*
X295216Y179000D01*
X295477D01*
Y182300D01*
D02*
G37*
G36*
X289177Y186000D02*
X282177D01*
Y179000D01*
X289177D01*
Y186000D01*
D02*
G37*
G36*
X227776Y162386D02*
X227224D01*
X226715Y162175D01*
X226325Y161785D01*
X226114Y161276D01*
Y160724D01*
X226325Y160215D01*
X226715Y159825D01*
X227224Y159614D01*
X227776D01*
X228285Y159825D01*
X228675Y160215D01*
X228886Y160724D01*
Y161276D01*
X228675Y161785D01*
X228285Y162175D01*
X227776Y162386D01*
D02*
G37*
G36*
X307551Y162272D02*
X307000D01*
X306491Y162061D01*
X306101Y161671D01*
X305890Y161161D01*
Y160610D01*
X306101Y160101D01*
X306491Y159711D01*
X307000Y159500D01*
X307551D01*
X308061Y159711D01*
X308451Y160101D01*
X308662Y160610D01*
Y161161D01*
X308451Y161671D01*
X308061Y162061D01*
X307551Y162272D01*
D02*
G37*
G36*
X265500Y162272D02*
X264949D01*
X264439Y162061D01*
X264050Y161671D01*
X263839Y161161D01*
Y160610D01*
X264050Y160101D01*
X264439Y159711D01*
X264949Y159500D01*
X265500D01*
X266009Y159711D01*
X266399Y160101D01*
X266610Y160610D01*
Y161161D01*
X266399Y161671D01*
X266009Y162061D01*
X265500Y162272D01*
D02*
G37*
G36*
X170900Y163900D02*
X164100D01*
Y157100D01*
X170900D01*
Y163900D01*
D02*
G37*
G36*
X80900D02*
X74100D01*
Y157100D01*
X80900D01*
Y163900D01*
D02*
G37*
G36*
X286276Y158386D02*
X285724D01*
X285215Y158175D01*
X284825Y157785D01*
X284614Y157276D01*
Y156724D01*
X284825Y156215D01*
X285215Y155825D01*
X285724Y155614D01*
X286276D01*
X286785Y155825D01*
X287175Y156215D01*
X287386Y156724D01*
Y157276D01*
X287175Y157785D01*
X286785Y158175D01*
X286276Y158386D01*
D02*
G37*
G36*
X208776D02*
X208224D01*
X207715Y158175D01*
X207325Y157785D01*
X207114Y157276D01*
Y156724D01*
X207325Y156215D01*
X207715Y155825D01*
X208224Y155614D01*
X208776D01*
X209285Y155825D01*
X209675Y156215D01*
X209886Y156724D01*
Y157276D01*
X209675Y157785D01*
X209285Y158175D01*
X208776Y158386D01*
D02*
G37*
G36*
X326276Y157886D02*
X325724D01*
X325215Y157675D01*
X324825Y157285D01*
X324614Y156776D01*
Y156224D01*
X324825Y155715D01*
X325215Y155325D01*
X325724Y155114D01*
X326276D01*
X326785Y155325D01*
X327175Y155715D01*
X327386Y156224D01*
Y156776D01*
X327175Y157285D01*
X326785Y157675D01*
X326276Y157886D01*
D02*
G37*
G36*
X245776Y157386D02*
X245224D01*
X244715Y157175D01*
X244325Y156785D01*
X244114Y156276D01*
Y155724D01*
X244325Y155215D01*
X244715Y154825D01*
X245224Y154614D01*
X245776D01*
X246285Y154825D01*
X246675Y155215D01*
X246886Y155724D01*
Y156276D01*
X246675Y156785D01*
X246285Y157175D01*
X245776Y157386D01*
D02*
G37*
G36*
X343776Y154386D02*
X343224D01*
X342715Y154175D01*
X342325Y153785D01*
X342114Y153276D01*
Y152724D01*
X342325Y152215D01*
X342715Y151825D01*
X343224Y151614D01*
X343776D01*
X344285Y151825D01*
X344675Y152215D01*
X344886Y152724D01*
Y153276D01*
X344675Y153785D01*
X344285Y154175D01*
X343776Y154386D01*
D02*
G37*
G36*
X304776Y153886D02*
X304224D01*
X303715Y153675D01*
X303325Y153285D01*
X303114Y152776D01*
Y152224D01*
X303325Y151715D01*
X303715Y151325D01*
X304224Y151114D01*
X304776D01*
X305285Y151325D01*
X305675Y151715D01*
X305886Y152224D01*
Y152776D01*
X305675Y153285D01*
X305285Y153675D01*
X304776Y153886D01*
D02*
G37*
G36*
X265776Y153500D02*
X265224D01*
X264715Y153289D01*
X264325Y152899D01*
X264114Y152390D01*
Y151839D01*
X264325Y151329D01*
X264715Y150939D01*
X265224Y150728D01*
X265776D01*
X266285Y150939D01*
X266675Y151329D01*
X266886Y151839D01*
Y152390D01*
X266675Y152899D01*
X266285Y153289D01*
X265776Y153500D01*
D02*
G37*
G36*
X226776Y153386D02*
X226224D01*
X225715Y153175D01*
X225325Y152785D01*
X225114Y152276D01*
Y151724D01*
X225325Y151215D01*
X225715Y150825D01*
X226224Y150614D01*
X226776D01*
X227285Y150825D01*
X227675Y151215D01*
X227886Y151724D01*
Y152276D01*
X227675Y152785D01*
X227285Y153175D01*
X226776Y153386D01*
D02*
G37*
G36*
X398776Y152886D02*
X398224D01*
X397715Y152675D01*
X397325Y152285D01*
X397114Y151776D01*
Y151224D01*
X397325Y150715D01*
X397715Y150325D01*
X398224Y150114D01*
X398776D01*
X399285Y150325D01*
X399675Y150715D01*
X399886Y151224D01*
Y151776D01*
X399675Y152285D01*
X399285Y152675D01*
X398776Y152886D01*
D02*
G37*
G36*
X93276Y152386D02*
X92724D01*
X92215Y152175D01*
X91825Y151785D01*
X91614Y151276D01*
Y150724D01*
X91825Y150215D01*
X92215Y149825D01*
X92724Y149614D01*
X93276D01*
X93785Y149825D01*
X94175Y150215D01*
X94386Y150724D01*
Y151276D01*
X94175Y151785D01*
X93785Y152175D01*
X93276Y152386D01*
D02*
G37*
G36*
X167948Y153900D02*
X167052D01*
X166188Y153668D01*
X165412Y153221D01*
X164779Y152588D01*
X164332Y151812D01*
X164100Y150948D01*
Y150052D01*
X164332Y149188D01*
X164779Y148412D01*
X165412Y147779D01*
X166188Y147332D01*
X167052Y147100D01*
X167948D01*
X168812Y147332D01*
X169588Y147779D01*
X170221Y148412D01*
X170668Y149188D01*
X170900Y150052D01*
Y150948D01*
X170668Y151812D01*
X170221Y152588D01*
X169588Y153221D01*
X168812Y153668D01*
X167948Y153900D01*
D02*
G37*
G36*
X77948D02*
X77052D01*
X76188Y153668D01*
X75412Y153221D01*
X74779Y152588D01*
X74332Y151812D01*
X74100Y150948D01*
Y150052D01*
X74332Y149188D01*
X74779Y148412D01*
X75412Y147779D01*
X76188Y147332D01*
X77052Y147100D01*
X77948D01*
X78812Y147332D01*
X79588Y147779D01*
X80221Y148412D01*
X80668Y149188D01*
X80900Y150052D01*
Y150948D01*
X80668Y151812D01*
X80221Y152588D01*
X79588Y153221D01*
X78812Y153668D01*
X77948Y153900D01*
D02*
G37*
G36*
X396390Y146658D02*
X395838D01*
X395329Y146447D01*
X394939Y146057D01*
X394728Y145547D01*
Y144996D01*
X394939Y144487D01*
X395290Y144136D01*
X394939Y143785D01*
X394728Y143276D01*
Y142724D01*
X394939Y142215D01*
X395329Y141825D01*
X395838Y141614D01*
X396390D01*
X396899Y141825D01*
X397289Y142215D01*
X397500Y142724D01*
Y143276D01*
X397289Y143785D01*
X396938Y144136D01*
X397289Y144487D01*
X397500Y144996D01*
Y145547D01*
X397289Y146057D01*
X396899Y146447D01*
X396390Y146658D01*
D02*
G37*
G36*
X403776Y141886D02*
X403224D01*
X402715Y141675D01*
X402325Y141285D01*
X402114Y140776D01*
Y140224D01*
X402325Y139715D01*
X402715Y139325D01*
X403224Y139114D01*
X403776D01*
X404285Y139325D01*
X404675Y139715D01*
X404886Y140224D01*
Y140776D01*
X404675Y141285D01*
X404285Y141675D01*
X403776Y141886D01*
D02*
G37*
G36*
X255638Y142206D02*
X255377D01*
Y138906D01*
X258677D01*
Y139166D01*
X258439Y140057D01*
X257978Y140855D01*
X257326Y141506D01*
X256528Y141967D01*
X255638Y142206D01*
D02*
G37*
G36*
X254977D02*
X254716D01*
X253826Y141967D01*
X253028Y141506D01*
X252377Y140855D01*
X251916Y140057D01*
X251677Y139166D01*
Y138906D01*
X254977D01*
Y142206D01*
D02*
G37*
G36*
X217638D02*
X217377D01*
Y138906D01*
X220677D01*
Y139166D01*
X220439Y140057D01*
X219978Y140855D01*
X219326Y141506D01*
X218528Y141967D01*
X217638Y142206D01*
D02*
G37*
G36*
X216977D02*
X216716D01*
X215826Y141967D01*
X215028Y141506D01*
X214376Y140855D01*
X213916Y140057D01*
X213677Y139166D01*
Y138906D01*
X216977D01*
Y142206D01*
D02*
G37*
G36*
X336138Y141706D02*
X335877D01*
Y138406D01*
X339177D01*
Y138666D01*
X338939Y139557D01*
X338478Y140355D01*
X337826Y141006D01*
X337028Y141467D01*
X336138Y141706D01*
D02*
G37*
G36*
X335477D02*
X335216D01*
X334326Y141467D01*
X333528Y141006D01*
X332876Y140355D01*
X332416Y139557D01*
X332177Y138666D01*
Y138406D01*
X335477D01*
Y141706D01*
D02*
G37*
G36*
X296138D02*
X295877D01*
Y138406D01*
X299177D01*
Y138666D01*
X298939Y139557D01*
X298478Y140355D01*
X297826Y141006D01*
X297028Y141467D01*
X296138Y141706D01*
D02*
G37*
G36*
X295477D02*
X295216D01*
X294326Y141467D01*
X293528Y141006D01*
X292877Y140355D01*
X292416Y139557D01*
X292177Y138666D01*
Y138406D01*
X295477D01*
Y141706D01*
D02*
G37*
G36*
X146776Y140886D02*
X146224D01*
X145715Y140675D01*
X145325Y140285D01*
X145114Y139776D01*
Y139224D01*
X145325Y138715D01*
X145715Y138325D01*
X146224Y138114D01*
X146776D01*
X147285Y138325D01*
X147675Y138715D01*
X147886Y139224D01*
Y139776D01*
X147675Y140285D01*
X147285Y140675D01*
X146776Y140886D01*
D02*
G37*
G36*
X39279Y140400D02*
X38721D01*
X38207Y140187D01*
X37813Y139793D01*
X37600Y139278D01*
Y138722D01*
X37813Y138207D01*
X38207Y137813D01*
X38721Y137600D01*
X39279D01*
X39793Y137813D01*
X40187Y138207D01*
X40400Y138722D01*
Y139278D01*
X40187Y139793D01*
X39793Y140187D01*
X39279Y140400D01*
D02*
G37*
G36*
X34279D02*
X33722D01*
X33207Y140187D01*
X32813Y139793D01*
X32600Y139278D01*
Y138722D01*
X32813Y138207D01*
X33207Y137813D01*
X33722Y137600D01*
X34279D01*
X34793Y137813D01*
X35187Y138207D01*
X35400Y138722D01*
Y139278D01*
X35187Y139793D01*
X34793Y140187D01*
X34279Y140400D01*
D02*
G37*
G36*
X29278D02*
X28721D01*
X28207Y140187D01*
X27813Y139793D01*
X27600Y139278D01*
Y138722D01*
X27813Y138207D01*
X28207Y137813D01*
X28721Y137600D01*
X29278D01*
X29793Y137813D01*
X30187Y138207D01*
X30400Y138722D01*
Y139278D01*
X30187Y139793D01*
X29793Y140187D01*
X29278Y140400D01*
D02*
G37*
G36*
X24279D02*
X23721D01*
X23207Y140187D01*
X22813Y139793D01*
X22600Y139278D01*
Y138722D01*
X22813Y138207D01*
X23207Y137813D01*
X23721Y137600D01*
X24279D01*
X24793Y137813D01*
X25187Y138207D01*
X25400Y138722D01*
Y139278D01*
X25187Y139793D01*
X24793Y140187D01*
X24279Y140400D01*
D02*
G37*
G36*
X19278D02*
X18722D01*
X18207Y140187D01*
X17813Y139793D01*
X17600Y139278D01*
Y138722D01*
X17813Y138207D01*
X18207Y137813D01*
X18722Y137600D01*
X19278D01*
X19793Y137813D01*
X20187Y138207D01*
X20400Y138722D01*
Y139278D01*
X20187Y139793D01*
X19793Y140187D01*
X19278Y140400D01*
D02*
G37*
G36*
X167948Y143900D02*
X167052D01*
X166188Y143668D01*
X165412Y143221D01*
X164779Y142588D01*
X164332Y141812D01*
X164100Y140948D01*
Y140052D01*
X164332Y139188D01*
X164779Y138412D01*
X165412Y137779D01*
X166188Y137332D01*
X167052Y137100D01*
X167948D01*
X168812Y137332D01*
X169588Y137779D01*
X170221Y138412D01*
X170668Y139188D01*
X170900Y140052D01*
Y140948D01*
X170668Y141812D01*
X170221Y142588D01*
X169588Y143221D01*
X168812Y143668D01*
X167948Y143900D01*
D02*
G37*
G36*
X77948D02*
X77052D01*
X76188Y143668D01*
X75412Y143221D01*
X74779Y142588D01*
X74332Y141812D01*
X74100Y140948D01*
Y140052D01*
X74332Y139188D01*
X74779Y138412D01*
X75412Y137779D01*
X76188Y137332D01*
X77052Y137100D01*
X77948D01*
X78812Y137332D01*
X79588Y137779D01*
X80221Y138412D01*
X80668Y139188D01*
X80900Y140052D01*
Y140948D01*
X80668Y141812D01*
X80221Y142588D01*
X79588Y143221D01*
X78812Y143668D01*
X77948Y143900D01*
D02*
G37*
G36*
X398276Y139386D02*
X397724D01*
X397215Y139175D01*
X396825Y138785D01*
X396614Y138276D01*
Y137724D01*
X396825Y137215D01*
X397215Y136825D01*
X397724Y136614D01*
X398276D01*
X398785Y136825D01*
X399175Y137215D01*
X399386Y137724D01*
Y138276D01*
X399175Y138785D01*
X398785Y139175D01*
X398276Y139386D01*
D02*
G37*
G36*
X258677Y138505D02*
X255377D01*
Y135205D01*
X255638D01*
X256528Y135444D01*
X257326Y135905D01*
X257978Y136556D01*
X258439Y137355D01*
X258677Y138245D01*
Y138505D01*
D02*
G37*
G36*
X254977D02*
X251677D01*
Y138245D01*
X251916Y137355D01*
X252377Y136556D01*
X253028Y135905D01*
X253826Y135444D01*
X254716Y135205D01*
X254977D01*
Y138505D01*
D02*
G37*
G36*
X248677Y142206D02*
X241677D01*
Y135205D01*
X248677D01*
Y142206D01*
D02*
G37*
G36*
X220677Y138505D02*
X217377D01*
Y135205D01*
X217638D01*
X218528Y135444D01*
X219326Y135905D01*
X219978Y136556D01*
X220439Y137355D01*
X220677Y138245D01*
Y138505D01*
D02*
G37*
G36*
X216977D02*
X213677D01*
Y138245D01*
X213916Y137355D01*
X214376Y136556D01*
X215028Y135905D01*
X215826Y135444D01*
X216716Y135205D01*
X216977D01*
Y138505D01*
D02*
G37*
G36*
X210677Y142206D02*
X203677D01*
Y135205D01*
X210677D01*
Y142206D01*
D02*
G37*
G36*
X339177Y138005D02*
X335877D01*
Y134705D01*
X336138D01*
X337028Y134944D01*
X337826Y135405D01*
X338478Y136056D01*
X338939Y136855D01*
X339177Y137745D01*
Y138005D01*
D02*
G37*
G36*
X335477D02*
X332177D01*
Y137745D01*
X332416Y136855D01*
X332876Y136056D01*
X333528Y135405D01*
X334326Y134944D01*
X335216Y134705D01*
X335477D01*
Y138005D01*
D02*
G37*
G36*
X329177Y141706D02*
X322177D01*
Y134705D01*
X329177D01*
Y141706D01*
D02*
G37*
G36*
X299177Y138005D02*
X295877D01*
Y134705D01*
X296138D01*
X297028Y134944D01*
X297826Y135405D01*
X298478Y136056D01*
X298939Y136855D01*
X299177Y137745D01*
Y138005D01*
D02*
G37*
G36*
X295477D02*
X292177D01*
Y137745D01*
X292416Y136855D01*
X292877Y136056D01*
X293528Y135405D01*
X294326Y134944D01*
X295216Y134705D01*
X295477D01*
Y138005D01*
D02*
G37*
G36*
X289177Y141706D02*
X282177D01*
Y134705D01*
X289177D01*
Y141706D01*
D02*
G37*
G36*
X146276Y132386D02*
X145724D01*
X145215Y132175D01*
X144825Y131785D01*
X144614Y131276D01*
Y130724D01*
X144825Y130215D01*
X145215Y129825D01*
X145724Y129614D01*
X146276D01*
X146785Y129825D01*
X147175Y130215D01*
X147386Y130724D01*
Y131276D01*
X147175Y131785D01*
X146785Y132175D01*
X146276Y132386D01*
D02*
G37*
G36*
X361776Y149386D02*
X361224D01*
X360715Y149175D01*
X360325Y148785D01*
X360114Y148276D01*
Y147724D01*
X360325Y147215D01*
X360715Y146825D01*
X360847Y146771D01*
Y146229D01*
X360715Y146175D01*
X360325Y145785D01*
X360114Y145276D01*
Y144724D01*
X360325Y144215D01*
X360464Y144077D01*
X360668Y143750D01*
X360464Y143423D01*
X360325Y143285D01*
X360114Y142776D01*
Y142224D01*
X360325Y141715D01*
X360464Y141577D01*
X360668Y141250D01*
X360464Y140923D01*
X360325Y140785D01*
X360114Y140276D01*
Y139724D01*
X360325Y139215D01*
X360464Y139077D01*
X360668Y138750D01*
X360464Y138423D01*
X360325Y138285D01*
X360114Y137776D01*
Y137224D01*
X360325Y136715D01*
X360464Y136577D01*
X360668Y136250D01*
X360464Y135923D01*
X360325Y135785D01*
X360114Y135276D01*
Y134724D01*
X360325Y134215D01*
X360464Y134077D01*
X360668Y133750D01*
X360464Y133423D01*
X360325Y133285D01*
X360114Y132776D01*
Y132224D01*
X360325Y131715D01*
X360464Y131577D01*
X360668Y131250D01*
X360464Y130923D01*
X360325Y130785D01*
X360114Y130276D01*
Y129724D01*
X360325Y129215D01*
X360715Y128825D01*
X361224Y128614D01*
X361776D01*
X362285Y128825D01*
X362675Y129215D01*
X362886Y129724D01*
Y130276D01*
X362675Y130785D01*
X362537Y130923D01*
X362332Y131250D01*
X362537Y131577D01*
X362675Y131715D01*
X362886Y132224D01*
Y132776D01*
X362675Y133285D01*
X362537Y133423D01*
X362332Y133750D01*
X362537Y134077D01*
X362675Y134215D01*
X362886Y134724D01*
Y135276D01*
X362675Y135785D01*
X362537Y135923D01*
X362332Y136250D01*
X362537Y136577D01*
X362675Y136715D01*
X362886Y137224D01*
Y137776D01*
X362675Y138285D01*
X362537Y138423D01*
X362332Y138750D01*
X362537Y139077D01*
X362675Y139215D01*
X362886Y139724D01*
Y140276D01*
X362675Y140785D01*
X362537Y140923D01*
X362332Y141250D01*
X362537Y141577D01*
X362675Y141715D01*
X362886Y142224D01*
Y142776D01*
X362675Y143285D01*
X362537Y143423D01*
X362332Y143750D01*
X362537Y144077D01*
X362675Y144215D01*
X362886Y144724D01*
Y145276D01*
X362675Y145785D01*
X362285Y146175D01*
X362153Y146229D01*
Y146771D01*
X362285Y146825D01*
X362675Y147215D01*
X362886Y147724D01*
Y148276D01*
X362675Y148785D01*
X362285Y149175D01*
X361776Y149386D01*
D02*
G37*
G36*
X167948Y133900D02*
X167052D01*
X166188Y133668D01*
X165412Y133221D01*
X164779Y132588D01*
X164332Y131812D01*
X164100Y130948D01*
Y130052D01*
X164332Y129188D01*
X164779Y128412D01*
X165412Y127779D01*
X166188Y127332D01*
X167052Y127100D01*
X167948D01*
X168812Y127332D01*
X169588Y127779D01*
X170221Y128412D01*
X170668Y129188D01*
X170900Y130052D01*
Y130948D01*
X170668Y131812D01*
X170221Y132588D01*
X169588Y133221D01*
X168812Y133668D01*
X167948Y133900D01*
D02*
G37*
G36*
X77948D02*
X77052D01*
X76188Y133668D01*
X75412Y133221D01*
X74779Y132588D01*
X74332Y131812D01*
X74100Y130948D01*
Y130052D01*
X74332Y129188D01*
X74779Y128412D01*
X75412Y127779D01*
X76188Y127332D01*
X77052Y127100D01*
X77948D01*
X78812Y127332D01*
X79588Y127779D01*
X80221Y128412D01*
X80668Y129188D01*
X80900Y130052D01*
Y130948D01*
X80668Y131812D01*
X80221Y132588D01*
X79588Y133221D01*
X78812Y133668D01*
X77948Y133900D01*
D02*
G37*
G36*
X361276Y125886D02*
X360724D01*
X360215Y125675D01*
X359825Y125285D01*
X359614Y124776D01*
Y124224D01*
X359825Y123715D01*
X359963Y123577D01*
X360168Y123250D01*
X359963Y122923D01*
X359825Y122785D01*
X359614Y122276D01*
Y121724D01*
X359825Y121215D01*
X360176Y120864D01*
X359825Y120513D01*
X359614Y120004D01*
Y119453D01*
X359825Y118943D01*
X360215Y118553D01*
X360724Y118342D01*
X361276D01*
X361785Y118553D01*
X362175Y118943D01*
X362386Y119453D01*
Y120004D01*
X362175Y120513D01*
X361824Y120864D01*
X362175Y121215D01*
X362386Y121724D01*
Y122276D01*
X362175Y122785D01*
X362036Y122923D01*
X361832Y123250D01*
X362036Y123577D01*
X362175Y123715D01*
X362386Y124224D01*
Y124776D01*
X362175Y125285D01*
X361785Y125675D01*
X361276Y125886D01*
D02*
G37*
G36*
X167948Y123900D02*
X167052D01*
X166188Y123668D01*
X165412Y123221D01*
X164779Y122588D01*
X164332Y121812D01*
X164100Y120948D01*
Y120052D01*
X164332Y119188D01*
X164779Y118412D01*
X165412Y117779D01*
X166188Y117332D01*
X167052Y117100D01*
X167948D01*
X168812Y117332D01*
X169588Y117779D01*
X170221Y118412D01*
X170668Y119188D01*
X170900Y120052D01*
Y120948D01*
X170668Y121812D01*
X170221Y122588D01*
X169588Y123221D01*
X168812Y123668D01*
X167948Y123900D01*
D02*
G37*
G36*
X77948D02*
X77052D01*
X76188Y123668D01*
X75412Y123221D01*
X74779Y122588D01*
X74332Y121812D01*
X74100Y120948D01*
Y120052D01*
X74332Y119188D01*
X74779Y118412D01*
X75412Y117779D01*
X76188Y117332D01*
X77052Y117100D01*
X77948D01*
X78812Y117332D01*
X79588Y117779D01*
X80221Y118412D01*
X80668Y119188D01*
X80900Y120052D01*
Y120948D01*
X80668Y121812D01*
X80221Y122588D01*
X79588Y123221D01*
X78812Y123668D01*
X77948Y123900D01*
D02*
G37*
G36*
X398276Y133886D02*
X397724D01*
X397215Y133675D01*
X396825Y133285D01*
X396614Y132776D01*
Y132224D01*
X396825Y131715D01*
X396964Y131577D01*
X397168Y131250D01*
X396964Y130923D01*
X396825Y130785D01*
X396614Y130276D01*
Y129724D01*
X396825Y129215D01*
X397215Y128825D01*
X397347Y128771D01*
Y128229D01*
X397215Y128175D01*
X396825Y127785D01*
X396614Y127276D01*
Y126724D01*
X396825Y126215D01*
X396964Y126077D01*
X397168Y125750D01*
X396964Y125423D01*
X396825Y125285D01*
X396614Y124776D01*
Y124224D01*
X396825Y123715D01*
X396964Y123577D01*
X397168Y123250D01*
X396964Y122923D01*
X396825Y122785D01*
X396614Y122276D01*
Y121724D01*
X396825Y121215D01*
X397100Y120940D01*
X397171Y120636D01*
X397100Y120332D01*
X396825Y120057D01*
X396614Y119547D01*
Y118996D01*
X396825Y118487D01*
X397176Y118136D01*
X396825Y117785D01*
X396614Y117276D01*
Y116724D01*
X396825Y116215D01*
X396964Y116077D01*
X397168Y115750D01*
X396964Y115423D01*
X396825Y115285D01*
X396614Y114776D01*
Y114224D01*
X396825Y113715D01*
X397215Y113325D01*
X397724Y113114D01*
X398276D01*
X398785Y113325D01*
X399175Y113715D01*
X399386Y114224D01*
Y114776D01*
X399175Y115285D01*
X399037Y115423D01*
X398832Y115750D01*
X399037Y116077D01*
X399175Y116215D01*
X399386Y116724D01*
Y117276D01*
X399175Y117785D01*
X398824Y118136D01*
X399175Y118487D01*
X399386Y118996D01*
Y119547D01*
X399175Y120057D01*
X398900Y120332D01*
X398829Y120636D01*
X398900Y120940D01*
X399175Y121215D01*
X399386Y121724D01*
Y122276D01*
X399175Y122785D01*
X399037Y122923D01*
X398832Y123250D01*
X399037Y123577D01*
X399175Y123715D01*
X399386Y124224D01*
Y124776D01*
X399175Y125285D01*
X399037Y125423D01*
X398832Y125750D01*
X399037Y126077D01*
X399175Y126215D01*
X399386Y126724D01*
Y127276D01*
X399175Y127785D01*
X398785Y128175D01*
X398653Y128229D01*
Y128771D01*
X398785Y128825D01*
X399175Y129215D01*
X399386Y129724D01*
Y130276D01*
X399175Y130785D01*
X399037Y130923D01*
X398832Y131250D01*
X399037Y131577D01*
X399175Y131715D01*
X399386Y132224D01*
Y132776D01*
X399175Y133285D01*
X398785Y133675D01*
X398276Y133886D01*
D02*
G37*
G36*
X268776Y115772D02*
X268224D01*
X267715Y115561D01*
X267325Y115171D01*
X267114Y114662D01*
Y114110D01*
X267325Y113601D01*
X267715Y113211D01*
X268224Y113000D01*
X268776D01*
X269285Y113211D01*
X269675Y113601D01*
X269886Y114110D01*
Y114662D01*
X269675Y115171D01*
X269285Y115561D01*
X268776Y115772D01*
D02*
G37*
G36*
X226776D02*
X226224D01*
X225715Y115561D01*
X225325Y115171D01*
X225114Y114662D01*
Y114110D01*
X225325Y113601D01*
X225715Y113211D01*
X226224Y113000D01*
X226776D01*
X227285Y113211D01*
X227675Y113601D01*
X227886Y114110D01*
Y114662D01*
X227675Y115171D01*
X227285Y115561D01*
X226776Y115772D01*
D02*
G37*
G36*
X307776Y115386D02*
X307224D01*
X306715Y115175D01*
X306325Y114785D01*
X306114Y114276D01*
Y113724D01*
X306325Y113215D01*
X306715Y112825D01*
X307224Y112614D01*
X307776D01*
X308285Y112825D01*
X308675Y113215D01*
X308886Y113724D01*
Y114276D01*
X308675Y114785D01*
X308285Y115175D01*
X307776Y115386D01*
D02*
G37*
G36*
X286276Y112386D02*
X285724D01*
X285215Y112175D01*
X284825Y111785D01*
X284614Y111276D01*
Y110724D01*
X284825Y110215D01*
X285215Y109825D01*
X285724Y109614D01*
X286276D01*
X286785Y109825D01*
X287175Y110215D01*
X287386Y110724D01*
Y111276D01*
X287175Y111785D01*
X286785Y112175D01*
X286276Y112386D01*
D02*
G37*
G36*
X245276Y111886D02*
X244724D01*
X244215Y111675D01*
X243825Y111285D01*
X243614Y110776D01*
Y110224D01*
X243825Y109715D01*
X244215Y109325D01*
X244724Y109114D01*
X245276D01*
X245785Y109325D01*
X246175Y109715D01*
X246386Y110224D01*
Y110776D01*
X246175Y111285D01*
X245785Y111675D01*
X245276Y111886D01*
D02*
G37*
G36*
X326276Y111386D02*
X325724D01*
X325215Y111175D01*
X324825Y110785D01*
X324614Y110276D01*
Y109724D01*
X324825Y109215D01*
X325215Y108825D01*
X325724Y108614D01*
X326276D01*
X326785Y108825D01*
X327175Y109215D01*
X327386Y109724D01*
Y110276D01*
X327175Y110785D01*
X326785Y111175D01*
X326276Y111386D01*
D02*
G37*
G36*
X206776Y110386D02*
X206224D01*
X205715Y110175D01*
X205325Y109785D01*
X205114Y109276D01*
Y108724D01*
X205325Y108215D01*
X205715Y107825D01*
X206224Y107614D01*
X206776D01*
X207285Y107825D01*
X207675Y108215D01*
X207886Y108724D01*
Y109276D01*
X207675Y109785D01*
X207285Y110175D01*
X206776Y110386D01*
D02*
G37*
G36*
X167948Y113900D02*
X167052D01*
X166188Y113668D01*
X165412Y113221D01*
X164779Y112588D01*
X164332Y111812D01*
X164100Y110948D01*
Y110052D01*
X164332Y109188D01*
X164779Y108412D01*
X165412Y107779D01*
X166188Y107332D01*
X167052Y107100D01*
X167948D01*
X168812Y107332D01*
X169588Y107779D01*
X170221Y108412D01*
X170668Y109188D01*
X170900Y110052D01*
Y110948D01*
X170668Y111812D01*
X170221Y112588D01*
X169588Y113221D01*
X168812Y113668D01*
X167948Y113900D01*
D02*
G37*
G36*
X77948D02*
X77052D01*
X76188Y113668D01*
X75412Y113221D01*
X74779Y112588D01*
X74332Y111812D01*
X74100Y110948D01*
Y110052D01*
X74332Y109188D01*
X74779Y108412D01*
X75412Y107779D01*
X76188Y107332D01*
X77052Y107100D01*
X77948D01*
X78812Y107332D01*
X79588Y107779D01*
X80221Y108412D01*
X80668Y109188D01*
X80900Y110052D01*
Y110948D01*
X80668Y111812D01*
X80221Y112588D01*
X79588Y113221D01*
X78812Y113668D01*
X77948Y113900D01*
D02*
G37*
G36*
X347276Y108886D02*
X346724D01*
X346215Y108675D01*
X345825Y108285D01*
X345614Y107776D01*
Y107224D01*
X345825Y106715D01*
X346215Y106325D01*
X346724Y106114D01*
X347276D01*
X347785Y106325D01*
X348175Y106715D01*
X348386Y107224D01*
Y107776D01*
X348175Y108285D01*
X347785Y108675D01*
X347276Y108886D01*
D02*
G37*
G36*
X303776Y107500D02*
X303224D01*
X302715Y107289D01*
X302325Y106899D01*
X302114Y106390D01*
Y105839D01*
X302325Y105329D01*
X302715Y104939D01*
X303224Y104728D01*
X303776D01*
X304285Y104939D01*
X304675Y105329D01*
X304886Y105839D01*
Y106390D01*
X304675Y106899D01*
X304285Y107289D01*
X303776Y107500D01*
D02*
G37*
G36*
X384276Y106886D02*
X383724D01*
X383215Y106675D01*
X382825Y106285D01*
X382614Y105776D01*
Y105224D01*
X382825Y104715D01*
X383215Y104325D01*
X383724Y104114D01*
X384276D01*
X384785Y104325D01*
X385175Y104715D01*
X385386Y105224D01*
Y105776D01*
X385175Y106285D01*
X384785Y106675D01*
X384276Y106886D01*
D02*
G37*
G36*
X377776D02*
X377224D01*
X376715Y106675D01*
X376325Y106285D01*
X376114Y105776D01*
Y105224D01*
X376325Y104715D01*
X376715Y104325D01*
X377224Y104114D01*
X377776D01*
X378285Y104325D01*
X378675Y104715D01*
X378886Y105224D01*
Y105776D01*
X378675Y106285D01*
X378285Y106675D01*
X377776Y106886D01*
D02*
G37*
G36*
X372276D02*
X371724D01*
X371215Y106675D01*
X370825Y106285D01*
X370614Y105776D01*
Y105224D01*
X370825Y104715D01*
X371215Y104325D01*
X371724Y104114D01*
X372276D01*
X372785Y104325D01*
X373175Y104715D01*
X373386Y105224D01*
Y105776D01*
X373175Y106285D01*
X372785Y106675D01*
X372276Y106886D01*
D02*
G37*
G36*
X265276D02*
X264724D01*
X264215Y106675D01*
X263825Y106285D01*
X263614Y105776D01*
Y105224D01*
X263825Y104715D01*
X264215Y104325D01*
X264724Y104114D01*
X265276D01*
X265785Y104325D01*
X266175Y104715D01*
X266386Y105224D01*
Y105776D01*
X266175Y106285D01*
X265785Y106675D01*
X265276Y106886D01*
D02*
G37*
G36*
X390776Y106386D02*
X390224D01*
X389715Y106175D01*
X389325Y105785D01*
X389114Y105276D01*
Y104724D01*
X389325Y104215D01*
X389715Y103825D01*
X390224Y103614D01*
X390776D01*
X391285Y103825D01*
X391675Y104215D01*
X391886Y104724D01*
Y105276D01*
X391675Y105785D01*
X391285Y106175D01*
X390776Y106386D01*
D02*
G37*
G36*
X366276D02*
X365724D01*
X365215Y106175D01*
X364825Y105785D01*
X364614Y105276D01*
Y104724D01*
X364825Y104215D01*
X365215Y103825D01*
X365724Y103614D01*
X366276D01*
X366785Y103825D01*
X367175Y104215D01*
X367386Y104724D01*
Y105276D01*
X367175Y105785D01*
X366785Y106175D01*
X366276Y106386D01*
D02*
G37*
G36*
X400776Y105886D02*
X400224D01*
X399715Y105675D01*
X399325Y105285D01*
X399114Y104776D01*
Y104224D01*
X399325Y103715D01*
X399715Y103325D01*
X400224Y103114D01*
X400776D01*
X401285Y103325D01*
X401675Y103715D01*
X401886Y104224D01*
Y104776D01*
X401675Y105285D01*
X401285Y105675D01*
X400776Y105886D01*
D02*
G37*
G36*
X45779Y105400D02*
X45221D01*
X44707Y105187D01*
X44313Y104793D01*
X44100Y104279D01*
Y103721D01*
X44313Y103207D01*
X44707Y102813D01*
X45221Y102600D01*
X45779D01*
X46293Y102813D01*
X46687Y103207D01*
X46900Y103721D01*
Y104279D01*
X46687Y104793D01*
X46293Y105187D01*
X45779Y105400D01*
D02*
G37*
G36*
X41778D02*
X41221D01*
X40707Y105187D01*
X40313Y104793D01*
X40100Y104279D01*
Y103721D01*
X40313Y103207D01*
X40707Y102813D01*
X41221Y102600D01*
X41778D01*
X42293Y102813D01*
X42687Y103207D01*
X42900Y103721D01*
Y104279D01*
X42687Y104793D01*
X42293Y105187D01*
X41778Y105400D01*
D02*
G37*
G36*
X37778D02*
X37222D01*
X36707Y105187D01*
X36313Y104793D01*
X36100Y104279D01*
Y103721D01*
X36313Y103207D01*
X36707Y102813D01*
X37222Y102600D01*
X37778D01*
X38293Y102813D01*
X38687Y103207D01*
X38900Y103721D01*
Y104279D01*
X38687Y104793D01*
X38293Y105187D01*
X37778Y105400D01*
D02*
G37*
G36*
X222276Y104886D02*
X221724D01*
X221215Y104675D01*
X220825Y104285D01*
X220614Y103776D01*
Y103224D01*
X220825Y102715D01*
X221215Y102325D01*
X221724Y102114D01*
X222276D01*
X222785Y102325D01*
X223175Y102715D01*
X223386Y103224D01*
Y103776D01*
X223175Y104285D01*
X222785Y104675D01*
X222276Y104886D01*
D02*
G37*
G36*
X6776Y103886D02*
X6224D01*
X5715Y103675D01*
X5325Y103285D01*
X5114Y102776D01*
Y102224D01*
X5325Y101715D01*
X5715Y101325D01*
X6224Y101114D01*
X6776D01*
X7285Y101325D01*
X7675Y101715D01*
X7886Y102224D01*
Y102776D01*
X7675Y103285D01*
X7285Y103675D01*
X6776Y103886D01*
D02*
G37*
G36*
X167948Y103900D02*
X167700D01*
Y100700D01*
X170900D01*
Y100948D01*
X170668Y101812D01*
X170221Y102588D01*
X169588Y103221D01*
X168812Y103668D01*
X167948Y103900D01*
D02*
G37*
G36*
X167300D02*
X167052D01*
X166188Y103668D01*
X165412Y103221D01*
X164779Y102588D01*
X164332Y101812D01*
X164100Y100948D01*
Y100700D01*
X167300D01*
Y103900D01*
D02*
G37*
G36*
X170900Y100300D02*
X167700D01*
Y97100D01*
X167948D01*
X168812Y97332D01*
X169588Y97779D01*
X170221Y98412D01*
X170668Y99188D01*
X170900Y100052D01*
Y100300D01*
D02*
G37*
G36*
X167300D02*
X164100D01*
Y100052D01*
X164332Y99188D01*
X164779Y98412D01*
X165412Y97779D01*
X166188Y97332D01*
X167052Y97100D01*
X167300D01*
Y100300D01*
D02*
G37*
G36*
X77948Y103900D02*
X77052D01*
X76188Y103668D01*
X75412Y103221D01*
X74779Y102588D01*
X74332Y101812D01*
X74100Y100948D01*
Y100052D01*
X74332Y99188D01*
X74779Y98412D01*
X75412Y97779D01*
X76188Y97332D01*
X77052Y97100D01*
X77948D01*
X78812Y97332D01*
X79588Y97779D01*
X80221Y98412D01*
X80668Y99188D01*
X80900Y100052D01*
Y100948D01*
X80668Y101812D01*
X80221Y102588D01*
X79588Y103221D01*
X78812Y103668D01*
X77948Y103900D01*
D02*
G37*
G36*
X384810Y98323D02*
X384253D01*
X383738Y98110D01*
X383344Y97716D01*
X383131Y97202D01*
Y96645D01*
X383344Y96130D01*
X383738Y95736D01*
X384253Y95523D01*
X384810D01*
X385324Y95736D01*
X385718Y96130D01*
X385931Y96645D01*
Y97202D01*
X385718Y97716D01*
X385324Y98110D01*
X384810Y98323D01*
D02*
G37*
G36*
X390810Y98274D02*
X390253D01*
X389738Y98061D01*
X389344Y97667D01*
X389131Y97153D01*
Y96596D01*
X389344Y96081D01*
X389738Y95687D01*
X390253Y95474D01*
X390810D01*
X391324Y95687D01*
X391718Y96081D01*
X391931Y96596D01*
Y97153D01*
X391718Y97667D01*
X391324Y98061D01*
X390810Y98274D01*
D02*
G37*
G36*
X396810Y98225D02*
X396253D01*
X395738Y98012D01*
X395344Y97618D01*
X395131Y97103D01*
Y96546D01*
X395344Y96032D01*
X395738Y95638D01*
X396253Y95425D01*
X396810D01*
X397324Y95638D01*
X397718Y96032D01*
X397931Y96546D01*
Y97103D01*
X397718Y97618D01*
X397324Y98012D01*
X396810Y98225D01*
D02*
G37*
G36*
X372310Y98172D02*
X371753D01*
X371238Y97958D01*
X370844Y97565D01*
X370631Y97050D01*
Y96493D01*
X370844Y95979D01*
X371238Y95585D01*
X371753Y95372D01*
X372310D01*
X372824Y95585D01*
X373218Y95979D01*
X373431Y96493D01*
Y97050D01*
X373218Y97565D01*
X372824Y97958D01*
X372310Y98172D01*
D02*
G37*
G36*
X378310Y98122D02*
X377753D01*
X377238Y97909D01*
X376844Y97515D01*
X376631Y97001D01*
Y96444D01*
X376844Y95929D01*
X377238Y95536D01*
X377753Y95322D01*
X378310D01*
X378824Y95536D01*
X379218Y95929D01*
X379431Y96444D01*
Y97001D01*
X379218Y97515D01*
X378824Y97909D01*
X378310Y98122D01*
D02*
G37*
G36*
X255638Y92706D02*
X255377D01*
Y89406D01*
X258677D01*
Y89666D01*
X258439Y90557D01*
X257978Y91355D01*
X257326Y92006D01*
X256528Y92467D01*
X255638Y92706D01*
D02*
G37*
G36*
X254977D02*
X254716D01*
X253826Y92467D01*
X253028Y92006D01*
X252377Y91355D01*
X251916Y90557D01*
X251677Y89666D01*
Y89406D01*
X254977D01*
Y92706D01*
D02*
G37*
G36*
X217638D02*
X217377D01*
Y89406D01*
X220677D01*
Y89666D01*
X220439Y90557D01*
X219978Y91355D01*
X219326Y92006D01*
X218528Y92467D01*
X217638Y92706D01*
D02*
G37*
G36*
X216977D02*
X216716D01*
X215826Y92467D01*
X215028Y92006D01*
X214376Y91355D01*
X213916Y90557D01*
X213677Y89666D01*
Y89406D01*
X216977D01*
Y92706D01*
D02*
G37*
G36*
X296138Y92000D02*
X295877D01*
Y88700D01*
X299177D01*
Y88961D01*
X298939Y89851D01*
X298478Y90649D01*
X297826Y91301D01*
X297028Y91761D01*
X296138Y92000D01*
D02*
G37*
G36*
X295477D02*
X295216D01*
X294326Y91761D01*
X293528Y91301D01*
X292877Y90649D01*
X292416Y89851D01*
X292177Y88961D01*
Y88700D01*
X295477D01*
Y92000D01*
D02*
G37*
G36*
X13550Y91400D02*
X12993D01*
X12479Y91187D01*
X12085Y90793D01*
X11872Y90279D01*
Y89722D01*
X12085Y89207D01*
X12479Y88813D01*
X12993Y88600D01*
X13550D01*
X14065Y88813D01*
X14458Y89207D01*
X14672Y89722D01*
Y90279D01*
X14458Y90793D01*
X14065Y91187D01*
X13550Y91400D01*
D02*
G37*
G36*
X336138Y91500D02*
X335877D01*
Y88200D01*
X339177D01*
Y88461D01*
X338939Y89351D01*
X338478Y90149D01*
X337826Y90801D01*
X337028Y91262D01*
X336138Y91500D01*
D02*
G37*
G36*
X335477D02*
X335216D01*
X334326Y91262D01*
X333528Y90801D01*
X332876Y90149D01*
X332416Y89351D01*
X332177Y88461D01*
Y88200D01*
X335477D01*
Y91500D01*
D02*
G37*
G36*
X167948Y93900D02*
X167052D01*
X166188Y93668D01*
X165412Y93221D01*
X164779Y92588D01*
X164332Y91812D01*
X164100Y90948D01*
Y90052D01*
X164332Y89188D01*
X164779Y88412D01*
X165412Y87779D01*
X166188Y87332D01*
X167052Y87100D01*
X167948D01*
X168812Y87332D01*
X169588Y87779D01*
X170221Y88412D01*
X170668Y89188D01*
X170900Y90052D01*
Y90948D01*
X170668Y91812D01*
X170221Y92588D01*
X169588Y93221D01*
X168812Y93668D01*
X167948Y93900D01*
D02*
G37*
G36*
X77948D02*
X77052D01*
X76188Y93668D01*
X75412Y93221D01*
X74779Y92588D01*
X74332Y91812D01*
X74100Y90948D01*
Y90052D01*
X74332Y89188D01*
X74779Y88412D01*
X75412Y87779D01*
X76188Y87332D01*
X77052Y87100D01*
X77948D01*
X78812Y87332D01*
X79588Y87779D01*
X80221Y88412D01*
X80668Y89188D01*
X80900Y90052D01*
Y90948D01*
X80668Y91812D01*
X80221Y92588D01*
X79588Y93221D01*
X78812Y93668D01*
X77948Y93900D01*
D02*
G37*
G36*
X258677Y89006D02*
X255377D01*
Y85706D01*
X255638D01*
X256528Y85944D01*
X257326Y86405D01*
X257978Y87056D01*
X258439Y87855D01*
X258677Y88745D01*
Y89006D01*
D02*
G37*
G36*
X254977D02*
X251677D01*
Y88745D01*
X251916Y87855D01*
X252377Y87056D01*
X253028Y86405D01*
X253826Y85944D01*
X254716Y85706D01*
X254977D01*
Y89006D01*
D02*
G37*
G36*
X248677Y92706D02*
X241677D01*
Y85706D01*
X248677D01*
Y92706D01*
D02*
G37*
G36*
X220677Y89006D02*
X217377D01*
Y85706D01*
X217638D01*
X218528Y85944D01*
X219326Y86405D01*
X219978Y87056D01*
X220439Y87855D01*
X220677Y88745D01*
Y89006D01*
D02*
G37*
G36*
X216977D02*
X213677D01*
Y88745D01*
X213916Y87855D01*
X214376Y87056D01*
X215028Y86405D01*
X215826Y85944D01*
X216716Y85706D01*
X216977D01*
Y89006D01*
D02*
G37*
G36*
X210677Y92706D02*
X203677D01*
Y85706D01*
X210677D01*
Y92706D01*
D02*
G37*
G36*
X299177Y88300D02*
X295877D01*
Y85000D01*
X296138D01*
X297028Y85238D01*
X297826Y85699D01*
X298478Y86351D01*
X298939Y87149D01*
X299177Y88039D01*
Y88300D01*
D02*
G37*
G36*
X295477D02*
X292177D01*
Y88039D01*
X292416Y87149D01*
X292877Y86351D01*
X293528Y85699D01*
X294326Y85238D01*
X295216Y85000D01*
X295477D01*
Y88300D01*
D02*
G37*
G36*
X289177Y92000D02*
X282177D01*
Y85000D01*
X289177D01*
Y92000D01*
D02*
G37*
G36*
X339177Y87800D02*
X335877D01*
Y84500D01*
X336138D01*
X337028Y84738D01*
X337826Y85199D01*
X338478Y85851D01*
X338939Y86649D01*
X339177Y87539D01*
Y87800D01*
D02*
G37*
G36*
X335477D02*
X332177D01*
Y87539D01*
X332416Y86649D01*
X332876Y85851D01*
X333528Y85199D01*
X334326Y84738D01*
X335216Y84500D01*
X335477D01*
Y87800D01*
D02*
G37*
G36*
X329177Y91500D02*
X322177D01*
Y84500D01*
X329177D01*
Y91500D01*
D02*
G37*
G36*
X25276Y78386D02*
X24724D01*
X24215Y78175D01*
X23825Y77785D01*
X23614Y77276D01*
Y76724D01*
X23825Y76215D01*
X24215Y75825D01*
X24724Y75614D01*
X25276D01*
X25785Y75825D01*
X26175Y76215D01*
X26386Y76724D01*
Y77276D01*
X26175Y77785D01*
X25785Y78175D01*
X25276Y78386D01*
D02*
G37*
G36*
X207276Y65886D02*
X206724D01*
X206215Y65675D01*
X205825Y65285D01*
X205614Y64776D01*
Y64224D01*
X205825Y63715D01*
X206215Y63325D01*
X206724Y63114D01*
X207276D01*
X207785Y63325D01*
X208175Y63715D01*
X208386Y64224D01*
Y64776D01*
X208175Y65285D01*
X207785Y65675D01*
X207276Y65886D01*
D02*
G37*
G36*
X245776Y64886D02*
X245224D01*
X244715Y64675D01*
X244325Y64285D01*
X244114Y63776D01*
Y63224D01*
X244325Y62715D01*
X244715Y62325D01*
X245224Y62114D01*
X245776D01*
X246285Y62325D01*
X246675Y62715D01*
X246886Y63224D01*
Y63776D01*
X246675Y64285D01*
X246285Y64675D01*
X245776Y64886D01*
D02*
G37*
G36*
X325776Y63886D02*
X325224D01*
X324715Y63675D01*
X324325Y63285D01*
X324114Y62776D01*
Y62224D01*
X324325Y61715D01*
X324715Y61325D01*
X325224Y61114D01*
X325776D01*
X326285Y61325D01*
X326675Y61715D01*
X326886Y62224D01*
Y62776D01*
X326675Y63285D01*
X326285Y63675D01*
X325776Y63886D01*
D02*
G37*
G36*
X285776D02*
X285224D01*
X284715Y63675D01*
X284325Y63285D01*
X284114Y62776D01*
Y62224D01*
X284325Y61715D01*
X284715Y61325D01*
X285224Y61114D01*
X285776D01*
X286285Y61325D01*
X286675Y61715D01*
X286886Y62224D01*
Y62776D01*
X286675Y63285D01*
X286285Y63675D01*
X285776Y63886D01*
D02*
G37*
G36*
X263776Y61000D02*
X263224D01*
X262715Y60789D01*
X262325Y60399D01*
X262114Y59890D01*
Y59338D01*
X262325Y58829D01*
X262715Y58439D01*
X263224Y58228D01*
X263776D01*
X264285Y58439D01*
X264675Y58829D01*
X264886Y59338D01*
Y59890D01*
X264675Y60399D01*
X264285Y60789D01*
X263776Y61000D01*
D02*
G37*
G36*
X225276D02*
X224724D01*
X224215Y60789D01*
X223825Y60399D01*
X223614Y59890D01*
Y59338D01*
X223825Y58829D01*
X224215Y58439D01*
X224724Y58228D01*
X225276D01*
X225785Y58439D01*
X226175Y58829D01*
X226386Y59338D01*
Y59890D01*
X226175Y60399D01*
X225785Y60789D01*
X225276Y61000D01*
D02*
G37*
G36*
X11868Y63715D02*
X9700D01*
Y58200D01*
X11868D01*
Y63715D01*
D02*
G37*
G36*
X9300D02*
X7131D01*
Y58200D01*
X9300D01*
Y63715D01*
D02*
G37*
G36*
X302776Y60386D02*
X302224D01*
X301715Y60175D01*
X301325Y59785D01*
X301114Y59276D01*
Y58724D01*
X301325Y58215D01*
X301715Y57825D01*
X302224Y57614D01*
X302776D01*
X303285Y57825D01*
X303675Y58215D01*
X303886Y58724D01*
Y59276D01*
X303675Y59785D01*
X303285Y60175D01*
X302776Y60386D01*
D02*
G37*
G36*
X344276Y59386D02*
X343724D01*
X343215Y59175D01*
X342825Y58785D01*
X342614Y58276D01*
Y57724D01*
X342825Y57215D01*
X343215Y56825D01*
X343724Y56614D01*
X344276D01*
X344785Y56825D01*
X345175Y57215D01*
X345386Y57724D01*
Y58276D01*
X345175Y58785D01*
X344785Y59175D01*
X344276Y59386D01*
D02*
G37*
G36*
X353278Y57400D02*
X352722D01*
X352207Y57187D01*
X351813Y56793D01*
X351600Y56279D01*
Y55721D01*
X351813Y55207D01*
X352207Y54813D01*
X352722Y54600D01*
X353278D01*
X353793Y54813D01*
X354187Y55207D01*
X354400Y55721D01*
Y56279D01*
X354187Y56793D01*
X353793Y57187D01*
X353278Y57400D01*
D02*
G37*
G36*
X11868Y57800D02*
X9700D01*
Y52285D01*
X11868D01*
Y57800D01*
D02*
G37*
G36*
X9300D02*
X7131D01*
Y52285D01*
X9300D01*
Y57800D01*
D02*
G37*
G36*
X359278Y54900D02*
X358721D01*
X358207Y54687D01*
X357813Y54293D01*
X357600Y53778D01*
Y53221D01*
X357813Y52707D01*
X358207Y52313D01*
X358721Y52100D01*
X359278D01*
X359793Y52313D01*
X360187Y52707D01*
X360400Y53221D01*
Y53778D01*
X360187Y54293D01*
X359793Y54687D01*
X359278Y54900D01*
D02*
G37*
G36*
X364279Y53400D02*
X363721D01*
X363207Y53187D01*
X362813Y52793D01*
X362600Y52279D01*
Y51722D01*
X362813Y51207D01*
X363207Y50813D01*
X363721Y50600D01*
X364279D01*
X364793Y50813D01*
X365187Y51207D01*
X365400Y51722D01*
Y52279D01*
X365187Y52793D01*
X364793Y53187D01*
X364279Y53400D01*
D02*
G37*
G36*
X34303Y65893D02*
X31154D01*
X30770Y65817D01*
X30570Y65684D01*
X30360D01*
Y65474D01*
X30226Y65274D01*
X30150Y64890D01*
Y51110D01*
X30226Y50726D01*
X30360Y50526D01*
Y50317D01*
X30570D01*
X30770Y50183D01*
X31154Y50107D01*
X34303D01*
X34687Y50183D01*
X34887Y50317D01*
X35097D01*
Y50526D01*
X35230Y50726D01*
X35307Y51110D01*
Y64890D01*
X35230Y65274D01*
X35097Y65474D01*
Y65684D01*
X34887D01*
X34687Y65817D01*
X34303Y65893D01*
D02*
G37*
G36*
X369778Y51400D02*
X369221D01*
X368707Y51187D01*
X368313Y50793D01*
X368100Y50279D01*
Y49722D01*
X368313Y49207D01*
X368707Y48813D01*
X369221Y48600D01*
X369778D01*
X370293Y48813D01*
X370687Y49207D01*
X370900Y49722D01*
Y50279D01*
X370687Y50793D01*
X370293Y51187D01*
X369778Y51400D01*
D02*
G37*
G36*
X217638Y46000D02*
X217377D01*
Y42700D01*
X220677D01*
Y42961D01*
X220439Y43851D01*
X219978Y44649D01*
X219326Y45301D01*
X218528Y45761D01*
X217638Y46000D01*
D02*
G37*
G36*
X216977D02*
X216716D01*
X215826Y45761D01*
X215028Y45301D01*
X214376Y44649D01*
X213916Y43851D01*
X213677Y42961D01*
Y42700D01*
X216977D01*
Y46000D01*
D02*
G37*
G36*
X336138Y45500D02*
X335877D01*
Y42200D01*
X339177D01*
Y42461D01*
X338939Y43351D01*
X338478Y44149D01*
X337826Y44801D01*
X337028Y45261D01*
X336138Y45500D01*
D02*
G37*
G36*
X335477D02*
X335216D01*
X334326Y45261D01*
X333528Y44801D01*
X332876Y44149D01*
X332416Y43351D01*
X332177Y42461D01*
Y42200D01*
X335477D01*
Y45500D01*
D02*
G37*
G36*
X296138D02*
X295877D01*
Y42200D01*
X299177D01*
Y42461D01*
X298939Y43351D01*
X298478Y44149D01*
X297826Y44801D01*
X297028Y45261D01*
X296138Y45500D01*
D02*
G37*
G36*
X295477D02*
X295216D01*
X294326Y45261D01*
X293528Y44801D01*
X292877Y44149D01*
X292416Y43351D01*
X292177Y42461D01*
Y42200D01*
X295477D01*
Y45500D01*
D02*
G37*
G36*
X255638D02*
X255377D01*
Y42200D01*
X258677D01*
Y42461D01*
X258439Y43351D01*
X257978Y44149D01*
X257326Y44801D01*
X256528Y45261D01*
X255638Y45500D01*
D02*
G37*
G36*
X254977D02*
X254716D01*
X253826Y45261D01*
X253028Y44801D01*
X252377Y44149D01*
X251916Y43351D01*
X251677Y42461D01*
Y42200D01*
X254977D01*
Y45500D01*
D02*
G37*
G36*
X27420Y41865D02*
X21905D01*
Y39696D01*
X27420D01*
Y41865D01*
D02*
G37*
G36*
X21505D02*
X15990D01*
Y39696D01*
X21505D01*
Y41865D01*
D02*
G37*
G36*
X220677Y42300D02*
X217377D01*
Y39000D01*
X217638D01*
X218528Y39239D01*
X219326Y39699D01*
X219978Y40351D01*
X220439Y41149D01*
X220677Y42039D01*
Y42300D01*
D02*
G37*
G36*
X216977D02*
X213677D01*
Y42039D01*
X213916Y41149D01*
X214376Y40351D01*
X215028Y39699D01*
X215826Y39239D01*
X216716Y39000D01*
X216977D01*
Y42300D01*
D02*
G37*
G36*
X210677Y46000D02*
X203677D01*
Y39000D01*
X210677D01*
Y46000D01*
D02*
G37*
G36*
X339177Y41800D02*
X335877D01*
Y38500D01*
X336138D01*
X337028Y38739D01*
X337826Y39199D01*
X338478Y39851D01*
X338939Y40649D01*
X339177Y41539D01*
Y41800D01*
D02*
G37*
G36*
X335477D02*
X332177D01*
Y41539D01*
X332416Y40649D01*
X332876Y39851D01*
X333528Y39199D01*
X334326Y38739D01*
X335216Y38500D01*
X335477D01*
Y41800D01*
D02*
G37*
G36*
X329177Y45500D02*
X322177D01*
Y38500D01*
X329177D01*
Y45500D01*
D02*
G37*
G36*
X299177Y41800D02*
X295877D01*
Y38500D01*
X296138D01*
X297028Y38739D01*
X297826Y39199D01*
X298478Y39851D01*
X298939Y40649D01*
X299177Y41539D01*
Y41800D01*
D02*
G37*
G36*
X295477D02*
X292177D01*
Y41539D01*
X292416Y40649D01*
X292877Y39851D01*
X293528Y39199D01*
X294326Y38739D01*
X295216Y38500D01*
X295477D01*
Y41800D01*
D02*
G37*
G36*
X289177Y45500D02*
X282177D01*
Y38500D01*
X289177D01*
Y45500D01*
D02*
G37*
G36*
X258677Y41800D02*
X255377D01*
Y38500D01*
X255638D01*
X256528Y38739D01*
X257326Y39199D01*
X257978Y39851D01*
X258439Y40649D01*
X258677Y41539D01*
Y41800D01*
D02*
G37*
G36*
X254977D02*
X251677D01*
Y41539D01*
X251916Y40649D01*
X252377Y39851D01*
X253028Y39199D01*
X253826Y38739D01*
X254716Y38500D01*
X254977D01*
Y41800D01*
D02*
G37*
G36*
X248677Y45500D02*
X241677D01*
Y38500D01*
X248677D01*
Y45500D01*
D02*
G37*
G36*
X27420Y39296D02*
X21905D01*
Y37128D01*
X27420D01*
Y39296D01*
D02*
G37*
G36*
X21505D02*
X15990D01*
Y37128D01*
X21505D01*
Y39296D01*
D02*
G37*
G36*
X286776Y18386D02*
X286224D01*
X285715Y18175D01*
X285325Y17785D01*
X285114Y17276D01*
Y16724D01*
X285325Y16215D01*
X285715Y15825D01*
X286224Y15614D01*
X286776D01*
X287285Y15825D01*
X287675Y16215D01*
X287886Y16724D01*
Y17276D01*
X287675Y17785D01*
X287285Y18175D01*
X286776Y18386D01*
D02*
G37*
G36*
X207276D02*
X206724D01*
X206215Y18175D01*
X205825Y17785D01*
X205614Y17276D01*
Y16724D01*
X205825Y16215D01*
X206215Y15825D01*
X206724Y15614D01*
X207276D01*
X207785Y15825D01*
X208175Y16215D01*
X208386Y16724D01*
Y17276D01*
X208175Y17785D01*
X207785Y18175D01*
X207276Y18386D01*
D02*
G37*
G36*
X373806Y18400D02*
X373249D01*
X372735Y18187D01*
X372341Y17793D01*
X372128Y17278D01*
Y16722D01*
X372341Y16207D01*
X372735Y15813D01*
X373249Y15600D01*
X373806D01*
X374321Y15813D01*
X374715Y16207D01*
X374928Y16722D01*
Y17278D01*
X374715Y17793D01*
X374321Y18187D01*
X373806Y18400D01*
D02*
G37*
G36*
X325776Y17886D02*
X325224D01*
X324715Y17675D01*
X324325Y17285D01*
X324114Y16776D01*
Y16224D01*
X324325Y15715D01*
X324715Y15325D01*
X325224Y15114D01*
X325776D01*
X326285Y15325D01*
X326675Y15715D01*
X326886Y16224D01*
Y16776D01*
X326675Y17285D01*
X326285Y17675D01*
X325776Y17886D01*
D02*
G37*
G36*
X245276D02*
X244724D01*
X244215Y17675D01*
X243825Y17285D01*
X243614Y16776D01*
Y16224D01*
X243825Y15715D01*
X244215Y15325D01*
X244724Y15114D01*
X245276D01*
X245785Y15325D01*
X246175Y15715D01*
X246386Y16224D01*
Y16776D01*
X246175Y17285D01*
X245785Y17675D01*
X245276Y17886D01*
D02*
G37*
G36*
X343776Y14386D02*
X343224D01*
X342715Y14175D01*
X342325Y13785D01*
X342114Y13276D01*
Y12724D01*
X342325Y12215D01*
X342715Y11825D01*
X343224Y11614D01*
X343776D01*
X344285Y11825D01*
X344675Y12215D01*
X344886Y12724D01*
Y13276D01*
X344675Y13785D01*
X344285Y14175D01*
X343776Y14386D01*
D02*
G37*
G36*
X264276D02*
X263724D01*
X263215Y14175D01*
X262825Y13785D01*
X262614Y13276D01*
Y12724D01*
X262825Y12215D01*
X263215Y11825D01*
X263724Y11614D01*
X264276D01*
X264785Y11825D01*
X265175Y12215D01*
X265386Y12724D01*
Y13276D01*
X265175Y13785D01*
X264785Y14175D01*
X264276Y14386D01*
D02*
G37*
G36*
X301276Y13386D02*
X300724D01*
X300215Y13175D01*
X299825Y12785D01*
X299614Y12276D01*
Y11724D01*
X299825Y11215D01*
X300215Y10825D01*
X300724Y10614D01*
X301276D01*
X301785Y10825D01*
X302175Y11215D01*
X302386Y11724D01*
Y12276D01*
X302175Y12785D01*
X301785Y13175D01*
X301276Y13386D01*
D02*
G37*
G36*
X370778Y13400D02*
X370221D01*
X369707Y13187D01*
X369313Y12793D01*
X369100Y12279D01*
Y11722D01*
X369313Y11207D01*
X369707Y10813D01*
X370221Y10600D01*
X370778D01*
X371293Y10813D01*
X371687Y11207D01*
X371900Y11722D01*
Y12279D01*
X371687Y12793D01*
X371293Y13187D01*
X370778Y13400D01*
D02*
G37*
G36*
X224776Y12886D02*
X224224D01*
X223715Y12675D01*
X223325Y12285D01*
X223114Y11776D01*
Y11224D01*
X223325Y10715D01*
X223715Y10325D01*
X224224Y10114D01*
X224776D01*
X225285Y10325D01*
X225675Y10715D01*
X225886Y11224D01*
Y11776D01*
X225675Y12285D01*
X225285Y12675D01*
X224776Y12886D01*
D02*
G37*
G36*
X369279Y8900D02*
X368722D01*
X368207Y8687D01*
X367813Y8293D01*
X367600Y7779D01*
Y7221D01*
X367813Y6707D01*
X368207Y6313D01*
X368722Y6100D01*
X369279D01*
X369793Y6313D01*
X370187Y6707D01*
X370400Y7221D01*
Y7779D01*
X370187Y8293D01*
X369793Y8687D01*
X369279Y8900D01*
D02*
G37*
G36*
X16775Y24874D02*
X15225D01*
X13703Y24571D01*
X12270Y23978D01*
X10981Y23116D01*
X9884Y22019D01*
X9022Y20730D01*
X8429Y19297D01*
X8126Y17775D01*
Y16225D01*
X8429Y14703D01*
X9022Y13270D01*
X9884Y11981D01*
X10981Y10884D01*
X12270Y10022D01*
X13703Y9429D01*
X15225Y9126D01*
X16775D01*
X18297Y9429D01*
X19730Y10022D01*
X21019Y10884D01*
X22116Y11981D01*
X22978Y13270D01*
X23571Y14703D01*
X23874Y16225D01*
Y17775D01*
X23571Y19297D01*
X22978Y20730D01*
X22116Y22019D01*
X21019Y23116D01*
X19730Y23978D01*
X18297Y24571D01*
X16775Y24874D01*
D02*
G37*
G36*
X393776Y24374D02*
X392225D01*
X390703Y24071D01*
X389270Y23478D01*
X387981Y22616D01*
X386884Y21519D01*
X386022Y20230D01*
X385429Y18797D01*
X385126Y17276D01*
Y15724D01*
X385429Y14203D01*
X386022Y12770D01*
X386884Y11481D01*
X387981Y10384D01*
X389270Y9522D01*
X390703Y8929D01*
X392225Y8626D01*
X393776D01*
X395297Y8929D01*
X396730Y9522D01*
X398019Y10384D01*
X399116Y11481D01*
X399978Y12770D01*
X400571Y14203D01*
X400874Y15724D01*
Y17276D01*
X400571Y18797D01*
X399978Y20230D01*
X399116Y21519D01*
X398019Y22616D01*
X396730Y23478D01*
X395297Y24071D01*
X393776Y24374D01*
D02*
G37*
%LPD*%
D75*
X167500Y100500D02*
D03*
D76*
X335677Y42000D02*
D03*
X217177Y183000D02*
D03*
X255177D02*
D03*
X295677Y182500D02*
D03*
X335677D02*
D03*
X217177Y138706D02*
D03*
X255177D02*
D03*
X295677Y138206D02*
D03*
X335677D02*
D03*
X217177Y89205D02*
D03*
X255177D02*
D03*
X295677Y88500D02*
D03*
X335677Y88000D02*
D03*
X217177Y42500D02*
D03*
X255177Y42000D02*
D03*
X295677D02*
D03*
D79*
X9500Y58000D02*
D03*
D80*
X21705Y39496D02*
D03*
D82*
X117000Y165000D02*
D03*
X118000Y29000D02*
D03*
Y56500D02*
D03*
Y84000D02*
D03*
Y111500D02*
D03*
Y138500D02*
D03*
X405000Y49500D02*
D03*
X402000Y67000D02*
D03*
X406000Y158500D02*
D03*
X370500Y188500D02*
D03*
X348500D02*
D03*
X138000D02*
D03*
X165500Y189000D02*
D03*
X33000D02*
D03*
X60500Y189500D02*
D03*
X88000D02*
D03*
X115500Y189000D02*
D03*
X145000Y4500D02*
D03*
X172500D02*
D03*
X200000D02*
D03*
X118000D02*
D03*
X90500D02*
D03*
X63000D02*
D03*
X35500D02*
D03*
X396000Y84500D02*
D03*
X390000D02*
D03*
X384000D02*
D03*
X378000D02*
D03*
X372000Y85000D02*
D03*
X366000D02*
D03*
X316000Y188000D02*
D03*
X275500Y188500D02*
D03*
X235500D02*
D03*
X197000D02*
D03*
Y144000D02*
D03*
X61500Y96000D02*
D03*
Y99500D02*
D03*
Y103500D02*
D03*
Y106500D02*
D03*
D83*
X38500Y150500D02*
D03*
X30000D02*
D03*
X21000Y150000D02*
D03*
X10000Y119500D02*
D03*
X15000Y119000D02*
D03*
X15500Y116500D02*
D03*
X20500Y112000D02*
D03*
X21000Y104000D02*
D03*
X4500Y96500D02*
D03*
X285500Y163000D02*
D03*
X302000Y172000D02*
D03*
X260000Y169500D02*
D03*
X245500Y164000D02*
D03*
X224000Y173000D02*
D03*
X206500Y164500D02*
D03*
X343000Y172000D02*
D03*
X325500Y164000D02*
D03*
X363000Y113500D02*
D03*
M02*
